<?xml version="1.0" encoding="UTF-8"?>
<!DOCTYPE svg PUBLIC "-//W3C//DTD SVG 1.1//EN" "http://www.w3.org/Graphics/SVG/1.1/DTD/svg11.dtd">
<!-- Creator: CorelDRAW X8 -->
<svg xmlns="http://www.w3.org/2000/svg" xml:space="preserve" width="10.5306in" height="6.21007in" version="1.1" style="shape-rendering:geometricPrecision; text-rendering:geometricPrecision; image-rendering:optimizeQuality; fill-rule:evenodd; clip-rule:evenodd"
viewBox="0 0 1100311 648869"
 xmlns:xlink="http://www.w3.org/1999/xlink">
 <defs>
  <style type="text/css">
   <![CDATA[
    .fil0 {fill:white}
   ]]>
  </style>
 </defs>
 <g id="Layer_x0020_1">
  <metadata id="CorelCorpID_0Corel-Layer"/>
  <g id="_2828568641216">
   <g>
    <path class="fil0" d="M339483 317814l98715 -31300c34911,46950 97511,65007 152888,44542l66211 79453 -31299 -98715c21669,-15649 36114,-37318 44541,-61395 -10834,22872 -28892,42134 -52969,55376 -60191,32504 -134829,10835 -167334,-49357 -32504,-60192 -10835,-134830 49357,-167334 24077,-13242 50562,-16854 74638,-14446 -25280,-6020 -51764,-4815 -75841,4815l-66211 -79453 31299 98714c-46949,34912 -65007,97511 -44542,152888l-79453 66212z"/>
    <path class="fil0" d="M476722 115568c8426,-8427 16853,-15650 27688,-21669 50561,-27688 111957,-14446 146869,28892l149276 -56580 -130014 91491c18058,52969 -3611,111957 -54173,139646 -10834,6020 -21669,9631 -32503,12039 4815,-2408 10834,-4816 15650,-7223 54172,-30096 74638,-97511 44542,-151684 -30096,-54173 -97511,-74638 -151685,-44543 -7224,3612 -12039,6020 -15650,9631z"/>
    <path class="fil0" d="M371987 154091l22873 -1204 15650 -1204c-3612,8427 -6020,16854 -7224,25281l-13242 -9631 -18057 -13242zm121588 222711l-1204 -22874 -1204 -15649c8427,3611 16854,6019 25281,7223l-9631 13242 -13242 18058z"/>
    <path class="fil0" d="M594698 32504l-13243 18057 -9630 13242c8426,1204 16854,3612 25280,7223l-1204 -15650 -1203 -22872zm121588 222710l-18057 -13242 -13243 -9631c-1204,8427 -3611,16854 -7223,25281l15650 -1204 22873 -1204z"/>
   </g>
   <g>
    <path class="fil0" d="M67415 473109c0,30096 -37319,31300 -42135,31300l-13242 0 0 46950 -12038 0 0 -104734 32504 0c8426,0 34911,3611 34911,26484zm-13242 1204c0,-18058 -10835,-22873 -27689,-22873l-14446 0 0 46950 9631 0c20465,0 32504,-4816 32504,-24077z"/>
    <polygon class="fil0" points="111957,446625 123995,446625 123995,551359 111957,551359 "/>
    <polygon class="fil0" points="228730,545340 228730,551359 173353,551359 173353,446625 185392,446625 185392,545340 "/>
    <path class="fil0" d="M375598 499594c0,44542 -37319,54172 -58988,54172 -21669,0 -58988,-10834 -58988,-54172 0,-38523 28892,-54173 58988,-54173 30096,0 58988,15650 58988,54173zm-12038 0c0,-43339 -30096,-49358 -46950,-49358 -16854,0 -46950,6019 -46950,49358 0,43338 27689,49357 46950,49357 19262,0 46950,-6019 46950,-49357z"/>
    <polygon class="fil0" points="480333,452644 446625,452644 446625,551359 434587,551359 434587,452644 400879,452644 400879,446625 480333,446625 "/>
    <polygon class="fil0" points="600717,446625 600717,551359 588679,551359 588679,499594 538117,499594 538117,551359 526079,551359 526079,446625 538117,446625 538117,493574 588679,493574 588679,446625 "/>
    <path class="fil0" d="M764440 499594c0,44542 -37319,54172 -58988,54172 -21670,0 -58989,-10834 -58989,-54172 0,-38523 28892,-54173 58989,-54173 30096,-1204 58988,15650 58988,54173zm-12039 0c0,-43339 -30096,-49358 -46949,-49358 -16854,0 -46950,6019 -46950,49358 0,43338 27688,49357 46950,49357 19261,0 46949,-6019 46949,-49357z"/>
    <path class="fil0" d="M892047 446625l0 66211c0,27688 -14447,42134 -42135,42134 -20465,0 -39726,-7223 -39726,-42134l0 -66211 12038 0 0 66211c0,12038 1204,36115 30096,36115 19261,0 33707,-10834 33707,-37319l0 -63803 6020 0 0 -1204z"/>
    <path class="fil0" d="M964278 550155c12038,0 26484,-6019 26484,-21669 0,-19262 -20465,-22873 -27688,-26485 -10835,-4815 -27688,-9630 -27688,-30096 0,-20465 19261,-28891 32503,-28891 13242,0 24077,6019 24077,6019l0 6019c0,0 -9631,-6019 -24077,-6019 -13242,0 -22873,7222 -22873,18057 0,12038 7223,18058 20465,22873 10835,4815 34912,9631 34912,33708 0,18057 -18058,31299 -36115,31299 -18058,0 -28892,-8427 -28892,-8427l0 -6019c4814,6019 13241,9631 28892,9631z"/>
    <polygon class="fil0" points="1058177,452644 1058177,493574 1095496,493574 1095496,499594 1058177,499594 1058177,545340 1100311,545340 1100311,551359 1044935,551359 1044935,446625 1044935,446625 1099107,446625 1099107,452644 "/>
   </g>
   <path class="fil0" d="M616367 195022l-24077 -25280 0 0 0 0 -39727 -42135 -4815 -6019 -6019 6018 -39727 42135 0 1 0 0 -24077 25280 10835 10835 13242 -14446 0 57784 0 8427 7223 0 75842 0 7223 0 0 -7223 0 -57785 13242 14447 10835 -12039zm-38523 46950l-61396 0 0 -66211 31300 -32504 31300 32504 0 66211 -1204 0z"/>
   <g>
    <path class="fil0" d="M9630 632016l0 14446 -7223 0 0 -38523 15650 0c4816,0 8427,1204 10835,3611 2407,2408 3612,4816 3612,8427 0,3612 -1205,6020 -3612,8427 -2408,2408 -6019,3612 -10835,3612l-8427 0zm0 -4816l9631 0c2408,0 4816,-1203 6019,-2407 1204,-1204 2408,-2408 2408,-4816 0,-2408 -1204,-3611 -2408,-4815 -1203,-1204 -3611,-2408 -6019,-2408l-9631 0 0 14446z"/>
    <path class="fil0" d="M78249 630812l0 15650 -7223 0 0 -38523 15650 0c4816,0 8427,1204 10835,2408 2407,2407 3611,4815 3611,8427 0,2407 0,3611 -1204,4815 -1203,1204 -2407,2408 -4815,3611 2408,1204 3612,2408 4815,3612 1204,1204 1204,3611 1204,6019l0 3612c0,1203 0,2407 0,3611 0,1204 1204,2408 1204,2408l0 1204 -6019 0c-1204,0 -1204,-1204 -1204,-2408 0,-1204 0,-2408 0,-3612l0 -3611c0,-2408 -1204,-3612 -2408,-4816 -1203,-1203 -2408,-2407 -4815,-2407l-9631 0zm0 -4815l8427 0c2408,0 4816,0 6019,-1204 1204,-1204 2408,-2408 2408,-4816 0,-2408 -1204,-3611 -2408,-4815 -1203,-1204 -3611,-1204 -6019,-1204l-8427 0 0 12039z"/>
    <path class="fil0" d="M174557 630812c0,4815 -1204,8427 -4815,12038 -3612,3612 -7223,4816 -12038,4816 -4816,0 -8427,-1204 -12039,-4816 -3611,-3611 -4815,-7223 -4815,-12038l0 -7223c0,-4815 1204,-8427 4815,-12039 3612,-3611 7223,-4815 12039,-4815 4815,0 9630,1204 12038,4815 3611,3612 4815,7224 4815,12039l0 7223zm-7223 -7223c0,-3612 -1204,-6020 -2407,-8427 -2408,-2408 -4816,-3612 -7223,-3612 -3612,0 -4816,1204 -7224,3612 -1203,2407 -2407,4815 -2407,8427l0 7223c0,3611 1204,6019 2407,8427 1204,2407 3612,3611 7224,3611 3611,0 6019,-1204 7223,-3611 2407,-2408 2407,-4816 2407,-8427l0 -7223z"/>
    <path class="fil0" d="M229934 607939l7223 0 0 27688c0,3612 -1204,6019 -3612,8427 -2408,2408 -6019,3612 -9630,3612 -3612,0 -7223,-1204 -9631,-2408 -2408,-2408 -3612,-4815 -3612,-8427l0 0 7223 0c0,2408 0,3612 1204,4815 1204,1204 2408,1204 4816,1204 2407,0 3611,0 4815,-1204 1204,-1203 1204,-2407 1204,-4815l0 -28892z"/>
    <polygon class="fil0" points="302164,629608 284106,629608 284106,641646 304572,641646 304572,646462 276884,646462 276884,607939 304572,607939 304572,612754 284106,612754 284106,623589 302164,623589 "/>
    <path class="fil0" d="M373191 634423l0 0c0,3612 -1204,7223 -3612,9631 -2408,2408 -6019,3612 -10835,3612 -4815,0 -8426,-1204 -12038,-4816 -3612,-3611 -4815,-7223 -4815,-12038l0 -7223c0,-4815 1203,-8427 4815,-12039 2408,-3611 7223,-4815 12038,-4815 4816,0 8427,1204 12039,3612 2408,2407 3611,6019 3611,9630l0 0 -7223 0c0,-2408 -1204,-4815 -2408,-6019 -1203,-1204 -3611,-2408 -7222,-2408 -2408,0 -4816,1204 -7223,3612 -1204,2407 -1204,6019 -1204,8427l0 7223c0,3611 1204,6019 2408,8427 1203,2407 3611,3611 7222,3611 2408,0 4816,-1204 6019,-2407 1204,-1204 2408,-3612 2408,-6020l6020 0z"/>
    <polygon class="fil0" points="440606,613958 428568,613958 428568,647666 421345,647666 421345,613958 409306,613958 409306,609143 440606,609143 "/>
    <polygon class="fil0" points="533302,607939 545340,638035 545340,638035 557379,607939 565805,607939 565805,646462 558582,646462 558582,633219 559786,616366 559786,616366 547748,646462 542932,646462 530894,616366 530894,616366 532098,633219 532098,646462 524875,646462 524875,607939 "/>
    <path class="fil0" d="M628405 638035l-15650 0 -3611 9631 -7223 0 15649 -38523 6020 0 14446 38523 -7223 0 -2408 -9631zm-13242 -4816l12038 0 -6019 -16853 0 0 -6019 16853z"/>
    <path class="fil0" d="M682578 630812l0 15650 -7223 0 0 -38523 15650 0c4816,0 8427,1204 10835,2408 2408,2407 3612,4815 3612,8427 0,2407 0,3611 -1204,4815 -1204,1204 -2408,2408 -4816,3611 2408,1204 3612,2408 4816,3612 1204,1204 1204,3611 1204,6019l0 3612c0,1203 0,2407 0,3611 0,1204 1203,2408 1203,2408l0 1204 -7223 0c-1203,0 -1203,-1204 -1203,-2408 0,-1204 0,-2408 0,-3612l0 -3611c0,-2408 -1204,-3612 -2408,-4816 -1204,-1203 -1204,-2407 -3611,-2407l-9632 0zm0 -4815l8427 0c2408,0 4816,0 6020,-1204 1204,-1204 2407,-2408 2407,-4816 0,-2408 -1203,-3611 -2407,-4815 -1204,-1204 -3612,-1204 -6020,-1204l-8427 0 0 12039z"/>
    <polygon class="fil0" points="757217,630812 752401,630812 752401,647666 746382,647666 746382,609143 753605,609143 753605,625997 757217,625997 770459,609143 778886,609143 764440,628404 780090,648869 770459,648869 "/>
    <polygon class="fil0" points="840281,629608 822224,629608 822224,641646 842689,641646 842689,646462 815001,646462 815001,607939 842689,607939 842689,612754 822224,612754 822224,623589 840281,623589 "/>
    <polygon class="fil0" points="908900,613958 896862,613958 896862,647666 889639,647666 889639,613958 877600,613958 877600,609143 908900,609143 "/>
    <polygon class="fil0" points="953442,647666 946219,647666 946219,609143 953442,609143 "/>
    <polygon class="fil0" points="1026877,647666 1019654,647666 1001597,618774 1001597,618774 1001597,647666 994374,647666 994374,609143 1001597,609143 1019654,638035 1019654,638035 1019654,609143 1026877,609143 "/>
    <path class="fil0" d="M1099107 641646c-1203,1204 -2407,2408 -4815,3612 -2407,1204 -6019,2408 -9631,2408 -4815,0 -9630,-1204 -12038,-4816 -3611,-2407 -4815,-7223 -4815,-12038l0 -8427c0,-4816 1204,-8427 4815,-12038 3612,-2408 7223,-4816 12038,-4816 4816,0 8427,1204 10835,3612 2408,2407 3611,4815 3611,8426l0 0 -6019 0c0,-2407 -1203,-3611 -2407,-4815 -1204,-1204 -3612,-2407 -6020,-2407 -2407,0 -4815,1203 -7223,3611 -1203,2408 -2407,4816 -2407,7223l0 8427c0,3611 1204,6019 2407,7223 2408,2408 4816,3612 7223,3612 2408,0 3612,0 4816,-1204 1204,0 2408,-1204 2408,-1204l0 -8427 -8428 0 0 -4815 15650 0 0 16853z"/>
   </g>
  </g>
 </g>
</svg>
