<?xml version="1.0" encoding="UTF-8"?>
<!DOCTYPE svg PUBLIC "-//W3C//DTD SVG 1.1//EN" "http://www.w3.org/Graphics/SVG/1.1/DTD/svg11.dtd">
<!-- Creator: CorelDRAW X8 -->
<svg xmlns="http://www.w3.org/2000/svg" xml:space="preserve" width="7.58948in" height="6.21007in" version="1.1" style="shape-rendering:geometricPrecision; text-rendering:geometricPrecision; image-rendering:optimizeQuality; fill-rule:evenodd; clip-rule:evenodd"
viewBox="0 0 176731 144610"
 xmlns:xlink="http://www.w3.org/1999/xlink">
 <defs>
  <style type="text/css">
   <![CDATA[
    .fil0 {fill:#FEFEFE;fill-rule:nonzero}
   ]]>
  </style>
 </defs>
 <g id="Layer_x0020_1">
  <metadata id="CorelCorpID_0Corel-Layer"/>
  <g id="_2828568640160">
   <path class="fil0" d="M106069 89396l20189 0 0 -52590 -20189 -13607 0 66197zm50471 0l20188 0 0 -18574 -20188 -13606 0 32180zm-74444 505l20188 0 0 -69252 -20188 -13608 0 82860zm49208 -505l20187 0 0 -35582 -20187 -13606 0 49188zm25236 -39246l0 5347 20188 13607 0 -5309 -20188 -13645zm-74444 -44828l20188 13607 0 -5296 -20188 -13633 0 5322zm49208 33167l20187 13607 0 -5554 -20187 -14473 0 6420zm-25235 -17008l20189 13606 0 -5134 -20189 -14602 0 6130z"/>
   <path class="fil0" d="M21045 89583l16706 0 0 -4937 -16706 0 0 4937zm20882 0l16703 0 0 -4937 -16703 0 0 4937zm-41761 0l16703 0 0 -4937 -16703 0 0 4937zm61597 318l16704 0 0 -5255 -16704 0 0 5255zm0 -48028l0 41359 16704 0 0 -49944 -16704 8585zm-19836 41359l16703 0 0 -40276 -16703 9195 0 31081zm-41761 0l16703 0 0 -18364 -16703 8594 0 9770zm20879 0l16706 0 0 -29750 -16706 9115 0 20635z"/>
   <path class="fil0" d="M34 122223l3006 0 0 -9355c691,173 1521,208 2419,208 2938,0 5529,-866 7119,-2564 1175,-1213 1797,-2876 1797,-4990 0,-2079 -760,-3776 -2039,-4885 -1382,-1248 -3559,-1941 -6531,-1941 -2419,0 -4320,209 -5771,451l0 23076zm3006 -20893c519,-139 1521,-243 2834,-243 3317,0 5494,1490 5494,4574 0,3222 -2211,4990 -5840,4990 -1002,0 -1831,-70 -2488,-243l0 -9078zm31862 13548l2488 7345 3214 0 -7948 -23353 -3628 0 -7914 23353 3110 0 2419 -7345 8259 0zm-7637 -2357l2281 -6756c449,-1421 829,-2841 1175,-4227l69 0c345,1351 691,2737 1209,4262l2281 6721 -7015 0zm23118 -13651l0 13755c0,7242 3594,9979 8363,9979 5046,0 8812,-2945 8812,-10117l0 -13617 -3041 0 0 13825c0,5162 -2211,7449 -5667,7449 -3110,0 -5425,-2217 -5425,-7449l0 -13825 -3042 0zm29754 23353l12959 0 0 -2529 -9952 0 0 -20824 -3007 0 0 23353zm22497 -1143c1243,831 3697,1490 5943,1490 5495,0 8156,-3119 8156,-6722 0,-3431 -2004,-5336 -5944,-6861 -3214,-1247 -4631,-2321 -4631,-4504 0,-1594 1210,-3500 4389,-3500 2108,0 3663,693 4423,1109l830 -2460c-1037,-589 -2765,-1143 -5149,-1143 -4527,0 -7534,2702 -7534,6340 0,3292 2350,5267 6151,6618 3145,1213 4389,2460 4389,4643 0,2356 -1797,3985 -4872,3985 -2074,0 -4044,-693 -5391,-1525l-760 2530zm25537 -22210l0 13755c0,7242 3594,9979 8363,9979 5045,0 8812,-2945 8812,-10117l0 -13617 -3041 0 0 13825c0,5162 -2212,7449 -5668,7449 -3110,0 -5425,-2217 -5425,-7449l0 -13825 -3041 0zm32587 23353l0 -9979c0,-3880 -69,-6687 -242,-9632l104 -35c1175,2530 2730,5198 4354,7796l7395 11850 3041 0 0 -23353 -2833 0 0 9771c0,3638 69,6479 345,9597l-69 35c-1105,-2391 -2453,-4851 -4181,-7588l-7465 -11815 -3282 0 0 23353 2833 0z"/>
   <path class="fil0" d="M0 144337c922,105 2011,168 3310,168 2745,0 4924,-714 6244,-2037 1320,-1302 2032,-3192 2032,-5502 0,-2290 -733,-3928 -1990,-5083 -1236,-1155 -3101,-1764 -5720,-1764 -1446,0 -2766,126 -3876,294l0 13924zm1823 -12580c482,-105 1194,-189 2137,-189 3855,0 5741,2121 5720,5461 0,3822 -2116,6006 -6014,6006 -712,0 -1382,-21 -1843,-105l0 -11173zm24053 4473l-5490 0 0 -4473 5804 0 0 -1533 -7627 0 0 14155 7941 0 0 -1533 -6118 0 0 -5103 5490 0 0 -1513zm12906 8149l5049 -14155 -1948 0 -2389 6994c-628,1848 -1215,3633 -1613,5271l-42 0c-377,-1659 -901,-3381 -1509,-5292l-2200 -6973 -1969 0 4609 14155 2012 0zm18501 -8149l-5490 0 0 -4473 5804 0 0 -1533 -7627 0 0 14155 7941 0 0 -1533 -6118 0 0 -5103 5490 0 0 -1513zm7605 8149l7857 0 0 -1533 -6034 0 0 -12622 -1823 0 0 14155zm19402 -14386c-3771,0 -6558,2940 -6558,7434 0,4285 2619,7183 6348,7183 3604,0 6559,-2583 6559,-7455 0,-4201 -2494,-7162 -6349,-7162zm-84 1491c3038,0 4505,2940 4505,5755 0,3213 -1634,5880 -4526,5880 -2870,0 -4504,-2709 -4504,-5733 0,-3109 1508,-5902 4525,-5902zm13410 12895l1823 0 0 -5670c419,105 922,126 1467,126 1781,0 3352,-525 4316,-1554 712,-736 1089,-1744 1089,-3025 0,-1260 -460,-2289 -1236,-2961 -838,-756 -2158,-1176 -3960,-1176 -1467,0 -2619,126 -3499,273l0 13987zm1823 -12664c314,-84 922,-147 1718,-147 2011,0 3331,903 3331,2772 0,1953 -1340,3024 -3540,3024 -608,0 -1111,-41 -1509,-146l0 -5503zm25939 12664l1780 0 -879 -14155 -2326 0 -2514 6847c-629,1785 -1132,3339 -1488,4767l-63 0c-356,-1470 -838,-3024 -1425,-4767l-2409 -6847 -2326 0 -985 14155 1740 0 377 -6069c125,-2121 230,-4495 272,-6259l42 0c398,1680 964,3507 1634,5503l2284 6741 1383 0 2493 -6868c713,-1953 1299,-3717 1781,-5376l63 0c-21,1764 105,4138 210,6112l356 6216zm16509 -8149l-5489 0 0 -4473 5804 0 0 -1533 -7627 0 0 14155 7941 0 0 -1533 -6118 0 0 -5103 5489 0 0 -1513zm9324 8149l0 -6048c0,-2353 -42,-4054 -146,-5839l63 -21c712,1533 1655,3150 2640,4726l4483 7182 1844 0 0 -14155 -1718 0 0 5923c0,2205 42,3927 210,5817l-42 21c-671,-1449 -1488,-2940 -2536,-4599l-4525 -7162 -1991 0 0 14155 1718 0zm19361 0l1843 0 0 -12601 4316 0 0 -1554 -10455 0 0 1554 4296 0 0 12601z"/>
  </g>
 </g>
</svg>
