<?xml version="1.0" encoding="UTF-8"?>
<!DOCTYPE svg PUBLIC "-//W3C//DTD SVG 1.1//EN" "http://www.w3.org/Graphics/SVG/1.1/DTD/svg11.dtd">
<!-- Creator: CorelDRAW X8 -->
<svg xmlns="http://www.w3.org/2000/svg" xml:space="preserve" width="4.34976in" height="4.34976in" version="1.1" style="shape-rendering:geometricPrecision; text-rendering:geometricPrecision; image-rendering:optimizeQuality; fill-rule:evenodd; clip-rule:evenodd"
viewBox="0 0 305109 305109"
 xmlns:xlink="http://www.w3.org/1999/xlink">
 <defs>
  <style type="text/css">
   <![CDATA[
    .fil1 {fill:#F89A32;fill-opacity:0.501961}
    .fil0 {fill:#F89A32;fill-rule:nonzero;fill-opacity:0.501961}
   ]]>
  </style>
 </defs>
 <g id="Layer_x0020_1">
  <metadata id="CorelCorpID_0Corel-Layer"/>
  <g id="_2828568638208">
   <g>
    <path class="fil0" d="M101561 94718l22847 33268 15765 0 -23782 -33803c12960,-2004 20976,-9886 20976,-23648 0,-16033 -10955,-24583 -27923,-24583l-31665 0 0 82034 13895 0 0 -33268 9887 0zm-9887 -36742l17502 0c9219,0 14430,4944 14430,12559 0,7616 -5211,12559 -14430,12559l-17502 0 0 -25118z"/>
    <path class="fil0" d="M102296 177133l-31531 82034 14028 0 8417 -22713 31398 0 8417 22713 14162 0 -31531 -82034 -13360 0zm6547 16968l11222 30329 -22445 0 11223 -30329z"/>
    <polygon class="fil1" points="75455,147482 139096,147482 139096,156910 75455,156910 "/>
   </g>
   <path class="fil1" d="M152554 0c42126,0 80267,17078 107873,44684 27606,27606 44682,65745 44682,107871 0,42126 -17078,80266 -44683,107872 -27606,27606 -65746,44682 -107872,44682 -42122,0 -80266,-17076 -107872,-44682 -27604,-27606 -44682,-65746 -44682,-107872 0,-42126 17076,-80265 44682,-107871 27606,-27606 65746,-44684 107872,-44684zm97709 54848c-25004,-25004 -59551,-40472 -97709,-40472 -38157,0 -72704,15468 -97708,40472 -25003,25004 -40470,59549 -40470,97707 0,38157 15468,72704 40470,97708 25004,25003 59551,40470 97708,40470 38158,0 72704,-15467 97707,-40470 25004,-25004 40472,-59551 40472,-97708 0,-38158 -15467,-72703 -40470,-97707z"/>
  </g>
 </g>
</svg>
