<?xml version="1.0" encoding="UTF-8"?>
<!DOCTYPE svg PUBLIC "-//W3C//DTD SVG 1.1//EN" "http://www.w3.org/Graphics/SVG/1.1/DTD/svg11.dtd">
<!-- Creator: CorelDRAW X8 -->
<svg xmlns="http://www.w3.org/2000/svg" xml:space="preserve" width="2.63664in" height="2.31944in" version="1.1" style="shape-rendering:geometricPrecision; text-rendering:geometricPrecision; image-rendering:optimizeQuality; fill-rule:evenodd; clip-rule:evenodd"
viewBox="0 0 58814 51738"
 xmlns:xlink="http://www.w3.org/1999/xlink">
 <defs>
  <style type="text/css">
   <![CDATA[
    .str2 {stroke:#373435;stroke-width:154.827}
    .str0 {stroke:#373435;stroke-width:66.9192}
    .str1 {stroke:#373435;stroke-width:66.9192;stroke-linecap:round;stroke-linejoin:round}
    .fil6 {fill:none}
    .fil4 {fill:#FEFEFE}
    .fil3 {fill:#F1F1F2}
    .fil1 {fill:#E6E7E8}
    .fil2 {fill:#D2D3D5}
    .fil9 {fill:#373435}
    .fil5 {fill:#FEFEFE;fill-rule:nonzero}
    .fil0 {fill:#373435;fill-rule:nonzero}
    .fil8 {fill:#FEFEFE}
    .fil7 {fill:#F1F1F2}
   ]]>
  </style>
     <mask id="id0">
  <linearGradient id="id1" gradientUnits="userSpaceOnUse" x1="14387.5" y1="10855.1" x2="14296.1" y2="10855">
   <stop offset="0" style="stop-opacity:1; stop-color:white"/>
   <stop offset="1" style="stop-opacity:1; stop-color:white"/>
  </linearGradient>
      <rect style="fill:url(#id1)" x="20035" y="5516" width="5452" height="8082"/>
     </mask>
    <clipPath id="id2">
     <path d="M0 0l7956 0 0 7573 -7956 0 0 -7573z"/>
    </clipPath>
 </defs>
 <g id="Layer_x0020_1">
  <metadata id="CorelCorpID_0Corel-Layer"/>
  <polygon class="fil0" points="18349,51738 18349,47589 18904,47589 18904,51252 20961,51252 20961,51738 "/>
  <polygon id="1" class="fil0" points="21635,51738 21635,47589 24656,47589 24656,48076 22190,48076 22190,49351 24498,49351 24498,49837 22190,49837 22190,51252 24756,51252 24756,51738 "/>
  <path id="2" class="fil0" d="M26714 51738l-1617 -4149 600 0 1087 3015c87,242 160,468 219,679 64,-227 139,-453 225,-679l1128 -3015 565 0 -1632 4149 -575 0z"/>
  <polygon id="3" class="fil0" points="29431,51738 29431,47589 32453,47589 32453,48076 29987,48076 29987,49351 32295,49351 32295,49837 29987,49837 29987,51252 32552,51252 32552,51738 "/>
  <polygon id="4" class="fil0" points="33295,51738 33295,47589 33850,47589 33850,51252 35907,51252 35907,51738 "/>
  <path id="5" class="fil0" d="M40465 51252l0 486 -2770 0c-4,-122 16,-240 60,-354 71,-187 185,-371 342,-552 157,-180 381,-389 672,-626 453,-369 761,-662 922,-879 161,-216 242,-421 242,-614 0,-202 -73,-372 -219,-511 -146,-138 -337,-208 -572,-208 -248,0 -447,74 -596,221 -149,146 -224,348 -226,608l-526 -52c36,-390 173,-688 408,-892 237,-205 554,-308 952,-308 401,0 720,111 954,332 234,221 351,495 351,822 0,166 -34,329 -103,489 -68,162 -182,331 -341,509 -160,176 -424,421 -792,730 -309,257 -507,431 -595,522 -88,92 -160,184 -217,277l2054 0z"/>
  <g id="_2259607629056">
   <path class="fil1" d="M0 0l58814 0 0 35526 -2582 3253 -9553 3201 -27626 0c34,-356 53,-718 53,-1084 0,-6188 -5017,-11205 -11206,-11205 -3082,0 -5874,1245 -7900,3260l0 -32951z"/>
   <polygon class="fil2" points="22211,37585 47823,37585 47823,36591 50778,36591 51012,36909 54922,34171 54692,33835 54692,29099 22211,29099 "/>
   <g>
    <rect class="fil3" x="15703" y="14908" width="2152" height="936"/>
    <path class="fil1" d="M11981 6620l72 -2651c372,-371 743,-742 1116,-1112l6449 0 0 4210 -7637 10 0 -457z"/>
    <polygon class="fil4" points="20516,2857 25005,2857 25005,7060 20516,7066 "/>
    <polygon class="fil1" points="25902,2857 30391,2857 30391,7053 25902,7059 "/>
    <polygon class="fil1" points="31287,2857 33727,2857 33727,3385 39326,3367 39326,5417 38967,5417 38967,7042 31287,7052 "/>
    <polygon class="fil1" points="39326,3367 45406,3349 45406,343 46551,343 46551,7032 38967,7042 38967,5417 39326,5417 "/>
    <polygon class="fil1" points="47449,1826 50210,1826 50210,3733 50943,3733 50943,4271 55137,4271 55137,7020 47449,7020 "/>
    <polygon class="fil1 str0" points="54002,24977 47449,24977 47449,21846 49445,21846 49445,22923 54002,22923 "/>
    <polygon class="fil1 str0" points="46551,24978 39316,24978 39316,22913 44475,22913 44475,21857 46551,21857 "/>
    <polygon class="fil1 str0" points="38888,21835 33576,21835 33576,22917 31289,22917 31289,24978 38869,24978 "/>
    <polygon class="fil4 str0" points="30391,24977 25902,24977 25902,21846 27978,21846 27978,22913 30391,22913 "/>
    <path class="fil4 str0" d="M5340 13559l2601 0 0 -4493 -2601 0 7 3348c-540,7 -755,316 -789,791l782 -4 0 358z"/>
    <g>
     <g>
      <path class="fil5 str0" d="M6581 10125l112 0c16,0 30,7 40,19 9,11 15,25 15,41l0 1979c0,16 -6,31 -15,41 -10,12 -24,20 -40,20l-112 0c-16,0 -30,-8 -40,-20 -9,-10 -15,-25 -15,-41l0 -1979c0,-16 6,-30 15,-41 10,-12 24,-19 40,-19zm112 45l-112 0c-2,0 -4,1 -5,3 -3,3 -4,7 -4,12l0 1979c0,5 1,9 4,12 1,2 3,3 5,3l112 0c2,0 4,-1 5,-3 3,-3 4,-7 4,-12l0 -1979c0,-5 -1,-9 -4,-12 -1,-2 -3,-3 -5,-3z"/>
      <path class="fil5 str0" d="M5518 10718c18,0 35,8 46,20 12,11 19,28 19,45l0 1307c0,18 -7,34 -19,46 -12,12 -28,19 -46,19l0 -45c6,0 11,-3 14,-6 3,-3 6,-8 6,-14l0 -1307c0,-5 -3,-10 -6,-13 -4,-4 -8,-6 -14,-6l0 -46z"/>
      <path class="fil6 str0" d="M5583 10185l934 0m240 0l934 0"/>
      <path class="fil5 str0" d="M7756 9474c-18,0 -35,7 -46,19 -12,12 -19,28 -19,46l0 2646c0,18 7,34 19,46 12,12 28,19 46,19l0 -46c-6,0 -11,-2 -14,-5 -4,-4 -6,-9 -6,-14l0 -2646c0,-6 2,-10 6,-14 3,-3 8,-6 14,-6l0 -45z"/>
      <path class="fil6 str0" d="M5583 10433l934 0m240 0l934 0"/>
      <path class="fil6 str0" d="M5583 10681l934 0m240 0l934 0"/>
      <path class="fil6 str0" d="M5583 10929l934 0m240 0l934 0"/>
      <path class="fil6 str0" d="M5583 11173l934 0m240 0l934 0"/>
      <path class="fil6 str0" d="M5583 11421l934 0m240 0l934 0"/>
      <path class="fil6 str0" d="M5583 11668l934 0m240 0l934 0"/>
      <path class="fil6 str0" d="M5583 11916l934 0m240 0l934 0"/>
      <path class="fil6 str0" d="M5583 12160l934 0m240 0l934 0"/>
     </g>
     <path class="fil6 str1" d="M7901 13217l-782 0c46,-487 291,-768 782,-791l7 0"/>
     <line class="fil6 str0" x1="7896" y1="13559" x2="6551" y2= "13559" />
     <line class="fil6 str0" x1="5583" y1="10185" x2="5583" y2= "10738" />
    </g>
    <g>
     <path class="fil4 str0" d="M51926 13554l-1 -118 1 -1975 3687 9 11 4820 -2420 -11 0 -2725 -212 0 0 -237c-57,-365 -370,-652 -826,-717l0 957 -240 -3z"/>
     <g>
      <path class="fil5 str0" d="M54363 12656l111 0c16,0 30,7 40,19 10,11 15,26 15,42l0 2364c0,16 -5,31 -15,41 -10,12 -24,20 -40,20l-111 0c-16,0 -30,-8 -40,-20 -10,-10 -15,-25 -15,-41l0 -2364c0,-16 5,-31 15,-42 10,-12 24,-19 40,-19zm111 46l-111 0c-2,0 -4,1 -6,3 -2,2 -4,7 -4,12l0 2364c0,5 2,9 4,12 2,2 4,3 6,3l111 0c2,0 4,-1 6,-3 2,-3 4,-7 4,-12l0 -2364c0,-5 -2,-10 -4,-12 -2,-2 -4,-3 -6,-3z"/>
      <path class="fil5 str0" d="M55474 12304c-18,0 -35,7 -46,19 -12,12 -20,28 -20,46l0 2682c0,18 8,34 20,46 11,12 28,19 46,19l0 -46c-6,0 -11,-2 -14,-5 -4,-4 -6,-9 -6,-14l0 -2682c0,-5 2,-10 6,-14 3,-3 8,-6 14,-6l0 -45z"/>
      <g>
       <path class="fil6 str0" d="M55408 14567l-879 0m-226 0l-880 0"/>
       <path class="fil6 str0" d="M55408 14319l-879 0m-226 0l-880 0"/>
       <path class="fil6 str0" d="M55408 14071l-879 0m-226 0l-880 0"/>
       <path class="fil6 str0" d="M55408 13824l-879 0m-226 0l-880 0"/>
       <path class="fil6 str0" d="M55408 13579l-879 0m-226 0l-880 0"/>
       <path class="fil6 str0" d="M55408 13332l-879 0m-226 0l-880 0"/>
       <path class="fil6 str0" d="M55408 13084l-879 0m-226 0l-880 0"/>
       <path class="fil6 str0" d="M55408 12836l-879 0m-226 0l-880 0"/>
       <line class="fil6 str0" x1="54303" y1="15059" x2="53423" y2= "15059" />
       <path class="fil6 str0" d="M55408 14811l-879 0m-226 0l-880 0"/>
      </g>
     </g>
    </g>
    <g>
     <polyline class="fil6 str0" points="15707,15843 15693,14908 17855,14908 17857,15843 "/>
     <g>
      <polyline class="fil6 str0" points="15703,19917 15703,15843 17857,15843 17857,21169 15703,21169 15703,19917 "/>
      <g>
       <polygon class="fil4 str0" points="15943,20893 17559,20893 17559,18656 15943,18656 15943,18724 15812,18724 15812,19723 15943,19723 "/>
       <polygon class="fil4 str0" points="15943,17101 15810,17101 15810,18168 15943,18168 15943,18390 17559,18390 17559,16132 15943,16132 "/>
      </g>
     </g>
    </g>
    <path class="fil7 str1" d="M20064 13565l-6468 0 0 -765c-368,24 -593,234 -664,605l0 142 -19 0 0 -142c-71,-371 -296,-581 -664,-605l0 765 -4353 -6 69 -6938 8012 0 0 -1077 4091 0 -4 8021z"/>
    <path class="fil6 str1" d="M6552 14898l-1 -143 -916 0c25,-555 396,-816 918,-810l-2 -386 -1211 0 0 -354 -782 0c46,-487 291,-767 782,-790l7 -1 -7 -3348 2601 0"/>
    <path class="fil7 str1" d="M15703 22923l-10363 -12 0 -8005 8536 14 0 5083 283 0 -6 780c370,-42 588,-256 625,-674 32,394 230,616 632,674l6 -780 283 0 4 2920z"/>
    <polygon class="fil4 str0" points="13158,3036 33533,3036 33533,3532 45474,3532 45474,522 50749,522 50749,4451 54947,4451 54947,5550 55137,5543 55126,4271 50977,4271 50929,343 45310,343 45294,3352 40036,3352 33727,3352 33713,2857 13090,2851 11940,3996 11940,6358 12838,6358 12838,3356 "/>
    <polygon class="fil4 str2" points="12659,3535 12120,4074 12120,6178 12659,6178 "/>
    <path class="fil4 str0" style="mask:url(#id0)" d="M25454 6645l-2514 -18 0 -179 689 0c-51,-422 -344,-658 -689,-675l0 -223 -2872 0 0 8015 2130 0 0 -206c87,-453 361,-709 810,-738l0 944 2446 0 0 -6920z"/>
    <path class="fil8 str0" d="M25454 6627l2826 0 0 -689c401,28 652,267 742,689l1818 0 0 6938 -2111 0 0 -215c-18,-379 -328,-710 -811,-720l0 935 -2464 0 0 -6938z"/>
    <path class="fil8 str0" d="M47000 6627l-2873 0 0 -689c-400,26 -645,254 -723,658l0 31 -4500 0 22 6924 4737 0 0 -192c87,-453 362,-709 810,-738l0 930 2527 0 0 -6924z"/>
    <path class="fil8 str0" d="M47000 6620l1611 10 0 -34c78,-404 323,-632 723,-658l0 696 191 2 0 -1071 5601 -15 0 5929 -3200 -18 0 2093 -1604 -1 0 -932c-449,29 -724,285 -811,738l0 193 -2511 -1 0 -6931z"/>
    <path class="fil8 str0" d="M47000 14926l2693 0 0 927 4 -1 0 22c428,-45 686,-257 748,-551 25,-64 44,-133 59,-208l0 -189 2700 0 2 1353 1694 12 0 6626 -5453 13 0 -260c-317,-27 -690,-264 -691,-723l691 0 0 -101 -2447 0 0 -6920z"/>
    <path class="fil8 str0" d="M47000 14926l-4666 -12 0 201c-87,453 -362,708 -810,738l0 -941 -2601 -6 4 6940 -44 8 -6 1080 5609 -11 0 -223c424,-13 705,-408 690,-717l-690 0 0 -126 2514 -11 0 -6920z"/>
    <path class="fil8 str0" d="M30840 14912l2614 -2 0 943c449,-30 724,-285 811,-738l0 -206 4658 -3 4 6940 -4361 9c-56,423 -314,658 -720,684l0 -683 -269 1 0 1060 -2737 6 0 -8011z"/>
    <path class="fil8 str0" d="M30840 14912l-2131 0 0 203c-86,453 -361,708 -810,738l0 -941 -2445 0 0 6945c1188,0 1200,0 2524,0l0 126 -700 0c11,457 361,700 700,718l0 222 2862 0 0 -8011z"/>
    <g>
     <path class="fil3" d="M24557 21834l-34 0 34 0zm448 3951l-1795 0 -126 0 -2055 0 0 2022 -3770 0 0 -3928 -2051 0 0 -956 7876 0 0 -1077 1921 0 0 3939z"/>
     <path id="1" class="fil6 str1" d="M24557 21834l-34 0m482 3951l-1795 0 -126 0 -2055 0 0 2022 -3770 0 0 -3928 -2051 0 0 -956 7876 0 0 -1077 1921 0 0 3939z"/>
    </g>
    <path class="fil7 str0" d="M25454 14912l-4726 0 0 2244 -112 0 0 884c-448,-30 -723,-285 -810,-738l0 -146 -214 0 0 -111 -908 0c41,-431 270,-696 738,-812l170 0 0 -1325 -1737 0 0 6261 -2152 0 0 1754 7370 0 0 -1066 942 0 0 34c87,453 361,709 810,738l0 -772 629 0 0 -6945z"/>
    <line class="fil6 str0" x1="19592" y1="17142" x2="17826" y2= "17142" />
    <path class="fil5 str0" d="M11989 6358l0 -2336c372,-371 744,-742 1116,-1113l20559 0 0 528 11679 -36 0 -3006 5537 0 0 3929 4194 0 0 1240 -46 0 0 -1194 -4194 0 0 -3929 -5445 0 0 3006c-3924,12 -7847,21 -11771,36l0 -528 -20494 0 -1089 1085 0 2318 -46 0z"/>
    <polygon class="fil4 str0" points="12659,6178 12120,6178 12120,4074 12659,3535 "/>
    <g>
     <rect class="fil4 str0" x="19618" y="3036" width="898" height="2508"/>
     <rect class="fil4 str0" x="19798" y="3036" width="539" height="2065"/>
     <line class="fil6 str0" x1="19618" y1="5281" x2="20516" y2= "5281" />
    </g>
    <g>
     <rect class="fil4 str0" x="25005" y="3036" width="898" height="3591"/>
     <rect class="fil4 str0" x="25184" y="3036" width="539" height="3142"/>
     <line class="fil6 str0" x1="25005" y1="6358" x2="25902" y2= "6358" />
    </g>
    <g>
     <rect class="fil4 str0" x="30391" y="3036" width="898" height="3591"/>
     <rect class="fil4 str0" x="30571" y="3036" width="539" height="3142"/>
     <line class="fil6 str0" x1="30391" y1="6358" x2="31289" y2= "6358" />
    </g>
    <polygon class="fil4 str0" points="47449,1826 50210,1826 50210,3733 50749,3733 50749,3912 50031,3912 50040,2012 47449,2012 "/>
    <path class="fil8 str0" d="M33501 6627l-2661 0 0 6938 4666 -8 0 -198c87,-453 362,-709 811,-738l0 934 2609 -4 -22 -6924 63 0 0 -1077 -5466 14 0 212c-353,10 -618,242 -669,662l669 0 0 189z"/>
    <path class="fil5 str0" d="M53270 12750l0 636 46 0 0 -636c0,-24 62,-30 62,0l0 2646c0,5 -2,10 -6,14 -3,3 -8,5 -14,5l0 46c18,0 34,-7 46,-19 12,-12 19,-28 19,-46l0 -2646c0,-91 -153,-84 -153,0z"/>
    <g>
     <rect class="fil4 str0" x="46551" y="21846" width="898" height="3131"/>
     <rect class="fil4 str0" x="46731" y="22295" width="539" height="2683"/>
    </g>
    <g>
     <rect class="fil4 str0" x="54002" y="22923" width="718" height="2054"/>
     <rect class="fil4 str0" x="54182" y="23372" width="539" height="1605"/>
    </g>
    <g>
     <rect class="fil4 str0" x="38428" y="23778" width="898" height="1199"/>
     <rect class="fil4 str0" x="38608" y="23958" width="539" height="1020"/>
     <polygon class="fil4 str0" points="38428,23778 39326,23778 39326,22923 39100,22923 39100,23509 38428,23509 "/>
     <rect class="fil4 str0" x="38651" y="23060" width="449" height="449"/>
    </g>
    <g>
     <rect class="fil4 str0" x="30391" y="22923" width="898" height="2054"/>
     <rect class="fil4 str0" x="30561" y="23371" width="549" height="1607"/>
    </g>
    <polygon class="fil3 str0" points="15029,28849 6852,28849 6852,22912 15029,22923 15029,24058 16361,24058 16361,28525 15029,28525 "/>
    <rect class="fil4 str0" x="5344" y="13559" width="248" height="1347"/>
    <g>
     <rect class="fil4 str0" x="39326" y="3532" width="898" height="1885"/>
     <polyline class="fil6 str0" points="39505,3532 39505,5238 40044,5238 40044,3532 "/>
    </g>
    <g>
     <rect class="fil4 str0" x="46551" y="522" width="898" height="6098"/>
     <g>
      <polyline class="fil6 str0" points="46731,522 46731,6178 47269,6178 47269,522 "/>
      <line class="fil6 str0" x1="46551" y1="6358" x2="47449" y2= "6358" />
     </g>
    </g>
   </g>
   <g id="_2259607630720">
    <path class="fil0" d="M20840 10927l0 -196c117,-92 229,-186 335,-280 107,-95 201,-188 285,-280 83,-92 149,-182 197,-270 48,-89 72,-174 72,-256 0,-55 -10,-107 -29,-156 -18,-49 -49,-89 -92,-119 -43,-30 -101,-45 -173,-45 -108,0 -189,34 -243,103 -54,69 -80,151 -79,247l-265 0c2,-127 29,-233 81,-319 52,-86 123,-151 211,-196 89,-44 189,-67 300,-67 170,0 306,48 409,143 102,96 153,228 153,398 0,102 -25,202 -74,302 -49,99 -112,195 -190,287 -78,92 -162,178 -251,259 -90,80 -175,153 -255,218l824 0 0 227 -1216 0z"/>
    <path id="1" class="fil0" d="M23050 10958c-163,0 -303,-39 -421,-117 -118,-78 -208,-187 -270,-327 -63,-140 -94,-303 -94,-488 0,-186 31,-348 94,-488 62,-140 152,-249 270,-327 118,-79 258,-118 421,-118 163,0 303,39 420,118 117,78 206,187 269,327 63,140 94,302 94,488 0,185 -31,348 -94,488 -63,140 -152,249 -269,327 -117,78 -257,117 -420,117zm0 -245c98,0 185,-27 261,-82 77,-55 137,-134 179,-237 43,-103 65,-226 65,-368 0,-143 -22,-266 -65,-369 -42,-103 -102,-182 -179,-237 -76,-55 -163,-82 -261,-82 -100,0 -187,27 -263,82 -75,55 -134,134 -177,237 -43,103 -65,226 -65,369 0,142 22,265 65,368 43,103 102,182 177,237 76,55 163,82 263,82z"/>
    <polygon id="2" class="fil0" points="24322,10927 24322,9433 24031,9500 24031,9299 24431,9124 24606,9124 24606,10927 "/>
    <path class="fil0" d="M25958 10951l0 -195c117,-93 228,-187 335,-281 106,-94 201,-188 284,-279 84,-92 149,-182 197,-271 48,-88 72,-174 72,-256 0,-55 -9,-107 -28,-156 -19,-49 -50,-88 -93,-118 -43,-31 -100,-46 -172,-46 -108,0 -189,35 -244,103 -54,69 -80,152 -78,248l-265 0c1,-127 28,-234 81,-320 52,-86 122,-151 211,-195 88,-45 188,-67 300,-67 170,0 306,47 408,143 102,95 153,228 153,397 0,102 -24,202 -73,302 -49,99 -112,195 -191,287 -78,92 -161,178 -251,259 -89,81 -174,154 -255,219l825 0 0 226 -1216 0z"/>
    <path id="1" class="fil0" d="M28168 10982c-163,0 -304,-39 -421,-117 -118,-78 -208,-187 -271,-327 -62,-140 -94,-303 -94,-488 0,-185 32,-348 94,-488 63,-140 153,-249 271,-327 117,-78 258,-117 421,-117 163,0 303,39 420,117 116,78 206,187 269,327 62,140 94,303 94,488 0,185 -32,348 -94,488 -63,140 -153,249 -269,327 -117,78 -257,117 -420,117zm0 -244c98,0 185,-28 261,-83 77,-55 136,-134 179,-237 43,-103 64,-225 64,-368 0,-143 -21,-265 -64,-368 -43,-103 -102,-182 -179,-237 -76,-55 -163,-83 -261,-83 -100,0 -187,28 -263,83 -76,55 -135,134 -178,237 -43,103 -64,225 -64,368 0,143 21,265 64,368 43,103 102,182 178,237 76,55 163,83 263,83z"/>
    <path id="2" class="fil0" d="M29198 10951l0 -195c117,-93 228,-187 335,-281 106,-94 201,-188 284,-279 84,-92 149,-182 197,-271 49,-88 73,-174 73,-256 0,-55 -10,-107 -29,-156 -19,-49 -50,-88 -93,-118 -42,-31 -100,-46 -172,-46 -108,0 -189,35 -243,103 -55,69 -81,152 -79,248l-265 0c1,-127 28,-234 81,-320 52,-86 123,-151 211,-195 88,-45 188,-67 300,-67 170,0 306,47 408,143 103,95 154,228 154,397 0,102 -25,202 -74,302 -49,99 -112,195 -190,287 -79,92 -162,178 -252,259 -89,81 -174,154 -254,219l824 0 0 226 -1216 0z"/>
    <path class="fil0" d="M32711 10951l0 -195c117,-93 228,-187 335,-281 106,-95 201,-188 284,-280 84,-92 149,-182 198,-270 48,-88 72,-174 72,-256 0,-55 -10,-107 -29,-156 -19,-49 -50,-89 -92,-119 -43,-30 -101,-45 -173,-45 -108,0 -189,35 -243,103 -54,69 -81,151 -79,248l-265 0c1,-127 29,-234 81,-320 52,-86 123,-151 211,-196 89,-44 189,-67 300,-67 170,0 306,48 408,143 103,96 154,228 154,398 0,102 -25,202 -74,302 -49,99 -112,195 -190,287 -78,92 -162,178 -251,259 -90,80 -175,153 -255,219l824 0 0 226 -1216 0z"/>
    <path id="1" class="fil0" d="M34921 10982c-163,0 -304,-39 -421,-117 -118,-78 -208,-187 -271,-327 -62,-140 -94,-303 -94,-488 0,-186 32,-348 94,-488 63,-140 153,-249 271,-327 117,-78 258,-118 421,-118 163,0 303,40 420,118 117,78 206,187 269,327 63,140 94,302 94,488 0,185 -31,348 -94,488 -63,140 -152,249 -269,327 -117,78 -257,117 -420,117zm0 -244c98,0 185,-28 261,-83 77,-55 136,-134 179,-237 43,-103 65,-226 65,-368 0,-143 -22,-265 -65,-368 -43,-104 -102,-182 -179,-237 -76,-55 -163,-83 -261,-83 -100,0 -187,28 -263,83 -75,55 -135,133 -178,237 -42,103 -64,225 -64,368 0,142 22,265 64,368 43,103 103,182 178,237 76,55 163,83 263,83z"/>
    <path id="2" class="fil0" d="M36585 10982c-117,0 -223,-21 -318,-63 -96,-42 -172,-106 -228,-192 -57,-86 -87,-193 -90,-322l270 0c3,96 37,178 99,244 63,66 152,99 267,99 110,0 194,-31 252,-92 59,-61 88,-137 88,-228 0,-109 -39,-191 -117,-244 -79,-53 -174,-80 -288,-80l-134 0 0 -227 137 0c101,0 183,-24 246,-72 63,-48 94,-116 94,-203 0,-74 -25,-134 -74,-181 -48,-46 -118,-69 -207,-69 -93,0 -165,27 -219,81 -53,54 -82,121 -87,202l-271 0c4,-105 30,-196 79,-273 49,-77 116,-137 202,-180 86,-43 185,-65 296,-65 120,0 221,22 303,64 81,42 143,98 185,170 42,71 63,149 63,233 0,96 -26,180 -80,252 -53,72 -124,120 -213,144 103,23 188,73 255,151 67,78 100,179 100,303 0,99 -23,191 -69,274 -47,83 -115,150 -206,199 -91,50 -203,75 -335,75z"/>
    <path class="fil0" d="M40554 10927l0 -195c117,-93 228,-187 335,-281 106,-95 201,-188 284,-280 83,-91 149,-182 197,-270 48,-88 72,-174 72,-256 0,-55 -9,-107 -28,-156 -19,-49 -50,-89 -93,-119 -43,-30 -100,-45 -172,-45 -108,0 -190,35 -244,103 -54,69 -80,151 -78,248l-265 0c1,-127 28,-234 81,-320 52,-86 122,-151 211,-196 88,-44 188,-67 300,-67 170,0 306,48 408,143 102,96 153,228 153,398 0,102 -24,202 -73,302 -49,99 -113,195 -191,287 -78,92 -161,178 -251,259 -89,80 -174,153 -255,219l825 0 0 226 -1216 0z"/>
    <path id="1" class="fil0" d="M42764 10958c-163,0 -304,-39 -421,-117 -118,-78 -208,-187 -271,-327 -63,-140 -94,-303 -94,-488 0,-186 31,-348 94,-488 63,-140 153,-249 271,-327 117,-78 258,-118 421,-118 163,0 303,40 420,118 116,78 206,187 269,327 62,140 94,302 94,488 0,185 -32,348 -94,488 -63,140 -153,249 -269,327 -117,78 -257,117 -420,117zm0 -244c98,0 185,-28 261,-83 76,-55 136,-134 179,-237 43,-103 64,-226 64,-368 0,-143 -21,-265 -64,-368 -43,-103 -103,-182 -179,-237 -76,-55 -163,-83 -261,-83 -100,0 -188,28 -263,83 -76,55 -135,134 -178,237 -43,103 -64,225 -64,368 0,142 21,265 64,368 43,103 102,182 178,237 75,55 163,83 263,83z"/>
    <path id="2" class="fil0" d="M44672 10927l0 -360 -904 0 0 -217 860 -1226 315 0 0 1206 252 0 0 237 -252 0 0 360 -271 0zm-608 -597l624 0 0 -904 -624 904z"/>
    <path class="fil0" d="M48711 10831l0 -196c117,-93 228,-186 335,-281 106,-94 201,-187 284,-279 84,-92 149,-182 197,-271 48,-88 72,-173 72,-256 0,-55 -9,-107 -28,-156 -19,-49 -50,-88 -93,-118 -42,-30 -100,-45 -172,-45 -108,0 -189,34 -244,103 -54,68 -80,151 -78,247l-265 0c1,-127 28,-233 81,-319 52,-86 122,-151 211,-196 88,-45 188,-67 300,-67 170,0 306,48 408,143 102,95 154,228 154,398 0,101 -25,202 -74,301 -49,100 -112,196 -190,287 -79,92 -162,178 -252,259 -89,81 -174,154 -255,219l825 0 0 227 -1216 0z"/>
    <path id="1" class="fil0" d="M50921 10862c-163,0 -304,-39 -421,-117 -118,-79 -208,-188 -271,-328 -62,-140 -94,-302 -94,-488 0,-185 32,-348 94,-488 63,-140 153,-249 271,-327 117,-78 258,-117 421,-117 163,0 303,39 420,117 116,78 206,187 269,327 62,140 94,303 94,488 0,186 -32,348 -94,488 -63,140 -153,249 -269,328 -117,78 -257,117 -420,117zm0 -245c98,0 185,-27 261,-82 77,-55 136,-134 179,-237 43,-103 65,-226 65,-369 0,-142 -22,-265 -65,-368 -43,-103 -102,-182 -179,-237 -76,-55 -163,-82 -261,-82 -100,0 -187,27 -263,82 -76,55 -135,134 -178,237 -43,103 -64,226 -64,368 0,143 21,266 64,369 43,103 102,182 178,237 76,55 163,82 263,82z"/>
    <path id="2" class="fil0" d="M52636 10862c-127,0 -237,-23 -330,-69 -92,-45 -166,-108 -220,-188 -54,-79 -87,-170 -99,-271l268 0c17,86 60,156 129,212 68,56 153,84 255,84 75,0 140,-19 195,-55 55,-37 98,-87 129,-149 31,-61 47,-131 47,-208 0,-122 -35,-220 -103,-293 -69,-73 -156,-109 -261,-109 -89,0 -165,21 -229,63 -63,42 -110,95 -139,159l-260 0 154 -1010 974 0 0 239 -767 0 -93 482c39,-45 94,-82 163,-112 70,-30 148,-45 236,-45 122,0 227,28 314,84 88,55 155,131 202,225 48,94 71,199 71,314 0,120 -26,229 -77,327 -52,98 -125,176 -220,233 -96,58 -208,87 -339,87z"/>
    <path class="fil0" d="M48874 19654l0 -196c117,-93 229,-186 335,-281 106,-94 201,-187 285,-279 83,-92 149,-182 197,-270 48,-89 72,-174 72,-257 0,-55 -10,-107 -29,-156 -18,-48 -49,-88 -92,-118 -43,-30 -101,-45 -173,-45 -108,0 -189,34 -243,103 -54,69 -81,151 -79,247l-265 0c2,-127 29,-233 81,-319 52,-86 123,-151 211,-196 89,-45 189,-67 300,-67 170,0 306,48 409,143 102,95 153,228 153,398 0,101 -25,202 -74,301 -49,100 -112,196 -190,288 -78,91 -162,178 -251,258 -90,81 -175,154 -255,219l824 0 0 227 -1216 0z"/>
    <path id="1" class="fil0" d="M51084 19685c-163,0 -304,-39 -421,-117 -118,-78 -208,-188 -270,-327 -63,-140 -95,-303 -95,-489 0,-185 32,-348 95,-488 62,-140 152,-249 270,-327 117,-78 258,-117 421,-117 163,0 303,39 420,117 117,78 206,187 269,327 63,140 94,303 94,488 0,186 -31,349 -94,489 -63,139 -152,249 -269,327 -117,78 -257,117 -420,117zm0 -245c98,0 185,-27 261,-82 77,-55 136,-134 179,-237 43,-103 65,-226 65,-369 0,-142 -22,-265 -65,-368 -43,-103 -102,-182 -179,-237 -76,-55 -163,-82 -261,-82 -100,0 -187,27 -263,82 -75,55 -134,134 -177,237 -43,103 -65,226 -65,368 0,143 22,266 65,369 43,103 102,182 177,237 76,55 163,82 263,82z"/>
    <path id="2" class="fil0" d="M52833 19685c-132,0 -244,-25 -335,-75 -91,-50 -164,-116 -220,-198 -56,-83 -96,-175 -120,-278 -24,-103 -36,-209 -36,-317 0,-199 28,-374 84,-523 56,-149 136,-266 240,-349 105,-83 232,-125 382,-125 118,0 219,23 304,70 84,46 149,108 197,185 47,77 76,162 86,253l-255 0c-16,-90 -52,-158 -111,-207 -58,-48 -133,-72 -224,-72 -125,0 -229,59 -310,177 -82,117 -125,298 -130,542 41,-76 105,-140 192,-193 86,-53 186,-80 300,-80 101,0 196,24 284,72 89,48 161,115 217,202 55,87 83,190 83,308 0,105 -26,203 -77,296 -52,93 -124,168 -218,226 -93,57 -204,86 -333,86zm-16 -237c73,0 137,-16 194,-46 56,-31 101,-74 133,-128 33,-54 49,-115 49,-184 0,-110 -35,-198 -107,-263 -71,-65 -161,-98 -271,-98 -72,0 -137,17 -195,49 -57,33 -102,76 -135,130 -32,54 -49,114 -49,179 0,71 17,133 50,187 34,54 79,97 137,128 57,30 122,46 194,46z"/>
    <path class="fil0" d="M40681 19557l0 -195c117,-93 229,-187 335,-281 107,-94 201,-188 285,-280 83,-91 149,-181 197,-270 48,-88 72,-174 72,-256 0,-55 -10,-107 -29,-156 -18,-49 -49,-88 -92,-119 -43,-30 -101,-45 -173,-45 -108,0 -189,35 -243,103 -54,69 -80,152 -79,248l-265 0c2,-127 29,-234 81,-320 52,-86 123,-151 211,-195 89,-45 189,-67 300,-67 170,0 306,47 409,143 102,95 153,228 153,397 0,102 -25,202 -74,302 -48,99 -112,195 -190,287 -78,92 -162,178 -251,259 -90,81 -175,154 -255,219l824 0 0 226 -1216 0z"/>
    <path id="1" class="fil0" d="M42891 19588c-163,0 -303,-39 -421,-117 -118,-78 -208,-187 -270,-327 -63,-140 -94,-303 -94,-488 0,-185 31,-348 94,-488 62,-140 152,-249 270,-327 118,-78 258,-117 421,-117 163,0 303,39 420,117 117,78 206,187 269,327 63,140 94,303 94,488 0,185 -31,348 -94,488 -63,140 -152,249 -269,327 -117,78 -257,117 -420,117zm0 -244c98,0 185,-28 262,-83 76,-55 136,-134 178,-237 43,-103 65,-226 65,-368 0,-143 -22,-265 -65,-368 -42,-103 -102,-182 -178,-237 -77,-55 -164,-83 -262,-83 -100,0 -187,28 -263,83 -75,55 -134,134 -177,237 -43,103 -65,225 -65,368 0,142 22,265 65,368 43,103 102,182 177,237 76,55 163,83 263,83z"/>
    <polygon id="2" class="fil0" points="44078,19557 44776,17989 43839,17989 43839,17754 45057,17754 45057,17953 44364,19557 "/>
    <path class="fil0" d="M32532 19654l0 -196c117,-93 228,-186 335,-281 106,-94 201,-187 284,-279 84,-92 149,-182 197,-270 48,-89 73,-174 73,-257 0,-55 -10,-107 -29,-156 -19,-48 -50,-88 -93,-118 -42,-30 -100,-45 -172,-45 -108,0 -189,34 -244,103 -54,69 -80,151 -78,247l-265 0c1,-127 28,-233 81,-319 52,-86 122,-151 211,-196 88,-45 188,-67 300,-67 170,0 306,48 408,143 102,95 154,228 154,398 0,101 -25,202 -74,301 -49,100 -112,196 -190,288 -79,91 -162,178 -252,258 -89,81 -174,154 -255,219l825 0 0 227 -1216 0z"/>
    <path id="1" class="fil0" d="M34742 19685c-163,0 -304,-39 -421,-117 -118,-78 -208,-188 -271,-327 -62,-140 -94,-303 -94,-489 0,-185 32,-348 94,-488 63,-140 153,-249 271,-327 117,-78 258,-117 421,-117 163,0 303,39 420,117 116,78 206,187 269,327 62,140 94,303 94,488 0,186 -32,349 -94,489 -63,139 -153,249 -269,327 -117,78 -257,117 -420,117zm0 -245c98,0 185,-27 261,-82 77,-55 136,-134 179,-237 43,-103 65,-226 65,-369 0,-142 -22,-265 -65,-368 -43,-103 -102,-182 -179,-237 -76,-55 -163,-82 -261,-82 -100,0 -187,27 -263,82 -76,55 -135,134 -178,237 -43,103 -64,226 -64,368 0,143 21,266 64,369 43,103 102,182 178,237 76,55 163,82 263,82z"/>
    <path id="2" class="fil0" d="M36444 19685c-120,0 -229,-22 -326,-66 -97,-44 -174,-105 -231,-184 -58,-79 -87,-172 -87,-278 0,-108 31,-205 92,-291 61,-86 142,-144 243,-175 -91,-36 -161,-89 -211,-159 -50,-69 -75,-146 -75,-230 0,-88 23,-168 70,-241 46,-73 114,-131 202,-175 88,-44 196,-66 323,-66 127,0 235,22 323,66 89,44 156,102 203,175 46,73 69,153 69,241 0,82 -25,159 -76,230 -50,72 -121,124 -212,159 101,32 182,91 243,176 61,85 92,182 92,290 0,106 -29,199 -85,278 -57,79 -134,140 -231,184 -97,44 -206,66 -326,66zm0 -1082c100,0 178,-26 236,-77 57,-52 86,-118 86,-198 0,-91 -28,-161 -85,-209 -56,-48 -135,-72 -237,-72 -101,0 -180,24 -237,72 -56,48 -85,118 -85,209 0,80 29,146 85,198 57,51 136,77 237,77zm0 850c124,0 217,-30 278,-89 62,-59 93,-135 93,-228 0,-103 -33,-182 -99,-238 -66,-56 -157,-84 -272,-84 -115,0 -206,28 -273,84 -67,56 -100,135 -100,238 0,93 31,169 94,228 62,59 156,89 279,89z"/>
    <path class="fil0" d="M25813 19654l0 -196c117,-93 228,-186 335,-281 106,-94 201,-187 284,-279 83,-92 149,-182 197,-271 48,-88 72,-173 72,-256 0,-55 -9,-107 -28,-156 -19,-49 -50,-88 -93,-118 -43,-30 -100,-45 -172,-45 -108,0 -190,34 -244,103 -54,68 -80,151 -78,247l-265 0c1,-127 28,-233 81,-319 52,-86 122,-151 211,-196 88,-45 188,-67 300,-67 170,0 306,48 408,143 102,95 153,228 153,398 0,101 -24,202 -73,301 -49,100 -113,196 -191,287 -78,92 -161,178 -251,259 -89,81 -174,154 -255,219l824 0 0 227 -1215 0z"/>
    <path id="1" class="fil0" d="M28023 19685c-163,0 -304,-39 -421,-117 -118,-79 -208,-188 -271,-328 -63,-140 -94,-302 -94,-488 0,-185 31,-348 94,-488 63,-140 153,-249 271,-327 117,-78 258,-117 421,-117 163,0 303,39 419,117 117,78 207,187 270,327 62,140 94,303 94,488 0,186 -32,348 -94,488 -63,140 -153,249 -270,328 -116,78 -256,117 -419,117zm0 -245c98,0 185,-27 261,-82 76,-55 136,-134 179,-237 43,-103 64,-226 64,-369 0,-142 -21,-265 -64,-368 -43,-103 -103,-182 -179,-237 -76,-55 -163,-82 -261,-82 -100,0 -188,27 -263,82 -76,55 -135,134 -178,237 -43,103 -64,226 -64,368 0,143 21,266 64,369 43,103 102,182 178,237 75,55 163,82 263,82z"/>
    <path id="2" class="fil0" d="M29715 19685c-119,0 -220,-23 -304,-70 -84,-46 -150,-108 -197,-185 -47,-78 -76,-162 -86,-253l255 0c15,90 52,158 110,206 59,48 133,72 224,72 126,0 229,-58 311,-176 81,-118 125,-298 130,-542 -41,75 -105,140 -192,193 -87,53 -187,80 -300,80 -101,0 -197,-24 -286,-72 -89,-48 -161,-116 -216,-202 -55,-87 -83,-190 -83,-308 0,-105 26,-204 77,-296 52,-93 124,-168 218,-226 94,-57 205,-86 334,-86 132,0 243,25 334,75 91,49 164,116 219,198 55,82 95,175 120,278 25,103 37,209 37,317 0,199 -27,373 -83,523 -56,149 -136,265 -241,349 -105,83 -232,125 -381,125zm13 -910c72,0 136,-16 193,-48 57,-33 102,-76 135,-130 34,-55 50,-114 50,-179 0,-71 -16,-133 -50,-187 -33,-54 -79,-97 -136,-128 -58,-31 -123,-46 -195,-46 -72,0 -136,15 -193,46 -57,31 -102,74 -135,128 -34,54 -51,115 -51,184 0,110 37,197 109,263 72,65 163,97 273,97z"/>
   </g>
   <g>
   </g>
   <g style="clip-path:url(#id2)">
    <g>
     <g id="_2259607630272">
      <g>
       <rect class="fil9" x="3942" y="2049" width="437" height="2184"/>
       <polygon class="fil9" points="4160,1607 5436,2883 5436,3501 4160,2224 2883,3501 2883,2883 "/>
      </g>
      <polygon class="fil0" points="3070,7573 3070,4963 3547,4963 4773,6801 4773,4963 5250,4963 5250,7573 4773,7573 3547,5739 3547,7573 "/>
     </g>
    </g>
   </g>
   <polygon class="fil6" points="0,0 7956,0 7956,7573 0,7573 "/>
  </g>
 </g>
</svg>
