<?xml version="1.0" encoding="UTF-8"?>
<!DOCTYPE svg PUBLIC "-//W3C//DTD SVG 1.1//EN" "http://www.w3.org/Graphics/SVG/1.1/DTD/svg11.dtd">
<!-- Creator: CorelDRAW X8 -->
<svg xmlns="http://www.w3.org/2000/svg" xml:space="preserve" width="2.63665in" height="2.32178in" version="1.1" style="shape-rendering:geometricPrecision; text-rendering:geometricPrecision; image-rendering:optimizeQuality; fill-rule:evenodd; clip-rule:evenodd"
viewBox="0 0 1485149 1307794"
 xmlns:xlink="http://www.w3.org/1999/xlink">
 <defs>
  <style type="text/css">
   <![CDATA[
    .str0 {stroke:#373435;stroke-width:1689.82}
    .str1 {stroke:#373435;stroke-width:1689.82;stroke-linecap:round}
    .fil4 {fill:none}
    .fil2 {fill:#FEFEFE}
    .fil6 {fill:#FEFEFE}
    .fil1 {fill:#E6E7E8}
    .fil5 {fill:#D2D3D5}
    .fil7 {fill:#373435}
    .fil3 {fill:#FEFEFE;fill-rule:nonzero}
    .fil0 {fill:#373435;fill-rule:nonzero}
   ]]>
  </style>
     <clipPath id="id0">
      <path d="M0 0l200904 0 0 191220 -200904 0 0 -191220z"/>
     </clipPath>
 </defs>
 <g id="Layer_x0020_1">
  <metadata id="CorelCorpID_0Corel-Layer"/>
  <g id="_2259895890192">
   <polygon class="fil0" points="396765,1306037 396765,1201255 410789,1201255 410789,1293745 462739,1293745 462739,1306037 "/>
   <polygon id="1" class="fil0" points="479735,1306037 479735,1201255 556038,1201255 556038,1213548 493757,1213548 493757,1245743 552051,1245743 552051,1258037 493757,1258037 493757,1293745 558546,1293745 558546,1306037 "/>
   <path id="2" class="fil0" d="M607990 1306037l-40833 -104782 15151 0 27452 76149c2191,6096 4058,11804 5533,17146 1625,-5732 3519,-11441 5683,-17146l28486 -76149 14265 0 -41200 104782 -14537 0z"/>
   <polygon id="3" class="fil0" points="676616,1306037 676616,1201255 752920,1201255 752920,1213548 690638,1213548 690638,1245743 748932,1245743 748932,1258037 690638,1258037 690638,1293745 755428,1293745 755428,1306037 "/>
   <polygon id="4" class="fil0" points="774171,1306037 774171,1201255 788193,1201255 788193,1293745 840143,1293745 840143,1306037 "/>
   <path id="5" class="fil0" d="M928669 1306037l0 -25025 -45897 0 0 -11854 48259 -67903 10629 0 0 67903 14315 0 0 11854 -14315 0 0 25025 -12991 0zm0 -36879l0 -47146 -33131 47146 33131 0z"/>
   <polygon id="6" class="fil0" points="967659,1274574 967659,1261694 1007805,1261694 1007805,1274574 "/>
   <path id="7" class="fil0" d="M1018429 1278526l13576 -1025c1009,6560 3347,11487 6988,14805 3639,3293 8092,4950 13330,4950 6320,0 11609,-2340 15916,-6999 4280,-4684 6420,-10880 6420,-18586 0,-7342 -2043,-13122 -6150,-17366 -4109,-4245 -9544,-6367 -16308,-6367 -4207,0 -7970,952 -11316,2854 -3320,1903 -5926,4367 -7846,7392l-12248 -1757 10181 -53854 52393 0 0 12292 -42037 0 -5632 28268c6320,-4413 12964,-6609 19900,-6609 9199,0 16972,3171 23292,9512 6322,6342 9496,14487 9496,24440 0,9487 -2779,17683 -8339,24586 -6763,8487 -16013,12732 -27722,12732 -9593,0 -17415,-2684 -23491,-8026 -6076,-5340 -9542,-12414 -10403,-21242z"/>
   <g>
    <path class="fil1" d="M0 0l1485149 0 0 897084 -65195 82145 -241223 80842 -697610 0c867,-9012 1324,-18144 1324,-27383 0,-156265 -126679,-282946 -282947,-282946 -77845,0 -148340,31441 -199498,82311l0 -832053z"/>
    <rect class="fil2 str0" x="98944" y="418871" width="36272" height="75899"/>
    <polygon class="fil2 str0" points="101524,420616 135216,420616 135216,422505 103800,422505 103800,491136 135216,491136 135216,493025 101524,493025 "/>
    <path class="fil2 str0" d="M135540 222916l61195 0 -355 119420 -3160 0 355 -22754c-14725,1130 -21112,11722 -20726,22754l-34186 0 0 34007 -3174 0 0 -36273 51 0 0 -117154z"/>
    <rect class="fil2" x="914610" y="551445" width="1088" height="37587"/>
    <rect class="fil2" x="642570" y="551445" width="1088" height="37587"/>
    <rect class="fil2" x="1186650" y="551445" width="1088" height="37587"/>
    <rect class="fil2" x="643116" y="548464" width="71688" height="47268"/>
    <rect class="fil2" x="840344" y="548464" width="74811" height="47268"/>
    <rect class="fil2" x="915154" y="548464" width="74811" height="47268"/>
    <rect class="fil2" x="1115739" y="548464" width="71456" height="47268"/>
    <rect class="fil2" x="1187195" y="548464" width="69552" height="47268"/>
    <rect class="fil2" x="343044" y="551639" width="110783" height="43971"/>
    <path class="fil2 str0" d="M135216 376343l130054 0 0 5125c1719,10725 8571,18468 20475,18633l0 -23758 65198 0 -634 125954 46208 -364 0 32610 35768 0 0 19169 -82520 -273 42 2936 16752 0c-1275,10561 -7901,16402 -16752,16714l-42 5287 -214549 455 0 -128282 -960 0c-9467,-1517 -16306,-7567 -16450,-18076l17410 0 0 -56130z"/>
    <rect class="fil2" x="262729" y="122775" width="150564" height="47663"/>
    <path class="fil2 str0" d="M404758 342356l-65513 0 -151 -23908c-17246,1440 -20916,13315 -20091,23908l-122592 0 324 -175122 117451 0c1182,-10117 7509,-17275 18260,-17410l0 17410 72633 0 -321 175122z"/>
    <path class="fil3 str0" d="M166187 255661l2817 0c397,0 756,187 1011,486 235,273 379,645 379,1047l0 49964c0,402 -144,772 -379,1047 -255,300 -614,486 -1011,486l-2817 0c-397,0 -756,-186 -1011,-486 -233,-275 -379,-645 -379,-1047l0 -49964c0,-402 146,-774 379,-1047 255,-299 614,-486 1011,-486zm2817 1153l-2817 0c-48,0 -97,29 -137,76 -60,71 -100,179 -100,304l0 49964c0,125 40,233 100,304 40,45 89,73 137,73l2817 0c49,0 97,-28 137,-73 60,-71 100,-179 100,-304l0 -49964c0,-125 -38,-233 -100,-304 -40,-47 -88,-76 -137,-76z"/>
    <path class="fil3 str0" d="M139348 250306c452,0 865,184 1162,481 297,297 481,710 481,1162l0 66816c0,448 -184,861 -481,1158 -302,299 -712,483 -1162,483l0 -1153c135,0 259,-55 346,-142 88,-88 144,-210 144,-346l0 -66816c0,-135 -56,-257 -144,-346 -89,-89 -211,-144 -346,-144l0 -1153z"/>
    <path class="fil4 str0" d="M140991 257194l23567 0m6076 0l23566 0"/>
    <path class="fil3 str0" d="M195841 244225c-450,0 -862,186 -1160,483 -297,298 -481,708 -481,1160l0 66817c0,450 184,860 481,1157 302,302 712,486 1160,486l0 -1153c-133,0 -257,-56 -343,-142 -89,-91 -145,-213 -145,-348l0 -66817c0,-133 56,-257 145,-343 88,-89 210,-145 343,-145l0 -1155z"/>
    <path class="fil4 str0" d="M140991 263449l23567 0m6076 0l23566 0"/>
    <path class="fil4 str0" d="M140991 269708l23567 0m6076 0l23566 0"/>
    <path class="fil4 str0" d="M140991 275963l23567 0m6076 0l23566 0"/>
    <path class="fil4 str0" d="M140991 282131l23567 0m6076 0l23566 0"/>
    <path class="fil4 str0" d="M140991 288389l23567 0m6076 -3l23566 0"/>
    <path class="fil4 str0" d="M140991 294645l23567 0m6076 0l23566 0"/>
    <path class="fil4 str0" d="M140991 300900l23567 0m6076 0l23566 0"/>
    <path class="fil4 str0" d="M140991 307068l23567 0m6076 0l23566 0"/>
    <polyline class="fil4 str0" points="350943,376343 350309,502297 396517,501933 396517,525338 "/>
    <polyline class="fil4 str0" points="396641,400065 396277,376437 450866,376437 450924,400065 "/>
    <polyline class="fil4 str0" points="396517,502944 396517,400065 450924,400065 450924,534543 396517,534543 396517,502944 "/>
    <polygon class="fil2 str0" points="402593,527586 443399,527586 443399,471093 402593,471093 402593,472816 399273,472816 399273,498026 402593,498026 "/>
    <polygon class="fil2 str0" points="402593,431828 399238,431828 399238,458761 402593,458761 402593,464382 443399,464382 443399,407346 402593,407346 "/>
    <path class="fil2 str0" d="M706600 578645l72534 186 0 -202488 -54023 0 0 5952c-1091,10042 -7651,17127 -20242,18178l0 -24130 -61754 -93 0 175196 63747 0 0 3446 -17772 0c-11,10968 8766,17945 17772,18131l-262 5622z"/>
    <path class="fil2 str0" d="M848232 578831l-69098 0 0 -202488 50963 0 0 23758c11904,-165 18756,-7908 20475,-18633l0 -5125 64583 0 0 175103 -46181 0c-823,10943 -7345,16430 -18475,17501l0 -17501 -2267 0c0,5302 0,10103 0,27385z"/>
    <path class="fil2 str0" d="M1249220 578649l137472 0 0 -167485 -43204 -86 0 -34373 -67810 0c-512,13561 -5204,21355 -20473,23396l0 -23396 -68011 -182 0 174923 62026 0 0 2539 -17703 77c-22,9441 8806,17779 17703,18054l0 6533z"/>
    <path class="fil2 str0" d="M1123699 578653l-72252 -4 -273 -202306 53864 0 0 5125c1719,10725 8569,18468 20475,18633l0 -23758 61681 180 0 174923 -63748 0 0 3446 17683 0c-204,10516 -8823,17922 -17805,18129l375 5632z"/>
    <path class="fil2 str0" d="M982349 578831l69098 -182 0 -202306 -50963 0 0 23758c-11904,-165 -18756,-7908 -20475,-18633l0 -5125 -64854 0 0 175103 46452 0c823,10943 7343,16430 18473,17501l0 -17501 2269 0c0,5302 0,10103 0,27385z"/>
    <path class="fil2 str0" d="M404758 342356l38227 -6 0 -5229c1718,-10723 8569,-18469 20473,-18633l0 23857 43638 -9 0 -202305 -102017 0 -321 202325z"/>
    <rect class="fil2" x="572220" y="122775" width="70894" height="49684"/>
    <path class="fil2 str0" d="M643115 342336l-61845 0 0 -23848c-11904,164 -18754,7910 -20473,18633l0 5215 -53701 0 0 -202305 72542 0 0 5646c8981,206 17495,7595 17410,18111l-17410 0 0 3446 63477 0 0 175102z"/>
    <rect class="fil2" x="643114" y="122775" width="136022" height="49684"/>
    <path class="fil2 str0" d="M643115 342336l62297 0 0 -23848c11904,164 18756,7910 20475,18633l0 5215 53247 0 2 -175102 -46277 0 0 -1468c-1541,-9227 -7693,-15891 -18379,-16033l0 17501 -71365 0 0 175102z"/>
    <rect class="fil2" x="779136" y="122775" width="75133" height="49684"/>
    <path class="fil2 str0" d="M915339 342336l-51166 0 0 -23848c-11905,164 -18757,7910 -20476,18633l0 5215 -64563 0 2 -175102 46346 0 0 -1468c1541,-9227 7693,-15891 18379,-16033l0 17501 2376 0 0 -26835 69067 -95 35 202032z"/>
    <rect class="fil2" x="976688" y="122775" width="74551" height="49684"/>
    <path class="fil2 str0" d="M915304 342336l50741 0 0 -23848c11904,164 18756,7910 20475,18633l0 5215 64719 0 0 -174829 -46417 0 0 -1118c-1535,-9584 -7660,-16510 -18302,-16656l0 17774 -2269 0 0 -27203 -68947 0 0 202032z"/>
    <rect class="fil2" x="1051238" y="122775" width="135916" height="49684"/>
    <path class="fil2 str0" d="M1187154 342336l-63714 0 0 -25118c-12592,1048 -19152,8136 -20243,18177l0 6941 -51958 0 0 -175102 46363 0 0 -845c1537,-9584 7662,-16510 18304,-16656l0 17501 71248 0 0 175102z"/>
    <rect class="fil2" x="1187154" y="122775" width="71583" height="49684"/>
    <path class="fil2 str0" d="M1248222 342336l2377 0 0 -5215c1719,-10723 8569,-18469 20473,-18633l0 23848 40148 0 0 -52934 81184 251 -363 -149400 -141113 0 0 26981 -4790 0 0 -17501c-10643,146 -16768,7072 -18305,16656l0 845 -40679 0 0 147356 61068 0 0 27746z"/>
    <rect class="fil2 str0" x="264759" y="125163" width="11335" height="11335"/>
    <polyline class="fil4 str0" points="264687,167041 264760,125164 411191,125055 411060,140217 "/>
    <polyline class="fil4 str0" points="262729,167148 262729,122776 413293,122895 413293,139944 "/>
    <rect class="fil2 str0" x="399691" y="125163" width="11572" height="11335"/>
    <rect class="fil2 str0" x="574250" y="125163" width="11335" height="11335"/>
    <polyline class="fil4 str0" points="574249,139944 574249,125164 852002,125164 852002,139944 "/>
    <polyline class="fil4 str0" points="572220,139944 572220,122776 854269,122895 854269,139944 "/>
    <rect class="fil2 str0" x="707459" y="125163" width="11335" height="11335"/>
    <rect class="fil2 str0" x="840668" y="125163" width="11335" height="11335"/>
    <rect class="fil2 str0" x="585585" y="128519" width="121874" height="907"/>
    <rect class="fil2 str0" x="718794" y="128519" width="121874" height="907"/>
    <rect class="fil2 str0" x="275950" y="128519" width="123741" height="907"/>
    <rect class="fil2 str0" x="978718" y="125163" width="11335" height="11335"/>
    <polyline class="fil4 str0" points="978719,139944 978719,125164 1256469,125164 1256469,139944 "/>
    <polyline class="fil4 str0" points="976687,139944 976687,122776 1258738,122895 1258738,139944 "/>
    <rect class="fil2 str0" x="1111926" y="125163" width="11335" height="11335"/>
    <rect class="fil2 str0" x="1245135" y="125163" width="11335" height="11335"/>
    <rect class="fil2 str0" x="990053" y="128519" width="121874" height="907"/>
    <rect class="fil2 str0" x="1123261" y="128519" width="121874" height="907"/>
    <rect class="fil2 str0" x="267881" y="136585" width="816" height="30650"/>
    <rect class="fil2 str0" x="778592" y="129648" width="1088" height="37587"/>
    <rect class="fil2 str0" x="642570" y="129920" width="1088" height="37587"/>
    <rect class="fil2 str0" x="1186650" y="129512" width="1088" height="37995"/>
    <rect class="fil2 str0" x="1050539" y="129512" width="1088" height="37995"/>
    <rect class="fil2 str0" x="914778" y="551716" width="1088" height="36985"/>
    <rect class="fil2 str0" x="1186914" y="551716" width="1088" height="36985"/>
    <path class="fil4 str1" d="M1187154 314590l61068 0 0 27746 -7870 0 -20347 11984c-2073,-3220 -3495,-7001 -3532,-11984 -471,4828 -1848,8944 -3908,12038l-20045 -12038 -5366 0 0 -27746z"/>
    <path class="fil2 str0" d="M1311224 342250l-26 -2974 22 -49874 93108 224 280 121722 -61120 -270 0 -68828 -5351 0 0 -5981c-1437,-9223 -9351,-16464 -20874,-18093l0 24160 -6039 -86z"/>
    <path class="fil3 str0" d="M1372747 319582l2817 0c397,0 756,186 1011,485 233,273 379,645 379,1047l0 56048c0,401 -146,774 -379,1046 -255,300 -614,486 -1011,486l-2817 0c-399,0 -756,-186 -1011,-486 -235,-272 -379,-645 -379,-1046l0 -56048c0,-402 144,-774 379,-1047 255,-299 612,-485 1011,-485zm2817 1153l-2817 0c-48,0 -97,29 -137,75 -62,71 -100,180 -100,304l0 56048c0,126 38,233 100,303 40,47 89,76 137,76l2817 0c48,0 97,-29 137,-76 60,-70 98,-177 98,-303l0 -56048c0,-124 -38,-233 -98,-304 -40,-46 -89,-75 -137,-75z"/>
    <path class="fil3 str0" d="M1347387 320309c452,0 865,186 1162,483 297,297 481,708 481,1160l0 66817c0,450 -184,860 -481,1157 -302,300 -712,486 -1162,486l0 -1155c135,0 259,-54 346,-142 88,-89 144,-211 144,-346l0 -66817c0,-133 -58,-257 -144,-346 -89,-86 -211,-142 -346,-142l0 -1155z"/>
    <path class="fil3 str0" d="M1400798 307853c-453,0 -863,184 -1160,481 -297,297 -483,709 -483,1162l0 66814c0,450 186,861 483,1160 299,299 710,483 1160,483l0 -1153c-135,0 -257,-55 -344,-142 -91,-88 -144,-213 -144,-348l0 -66814c0,-135 55,-257 144,-346 87,-89 211,-144 344,-144l0 -1153z"/>
    <path class="fil4 str0" d="M1349030 327197l22200 0m5724 0l22201 0"/>
    <path class="fil4 str0" d="M1349030 333455l22200 0m5724 0l22201 0"/>
    <path class="fil4 str0" d="M1349030 339711l22200 0m5724 0l22201 0"/>
    <path class="fil4 str0" d="M1349030 345969l22200 0m5724 0l22201 0"/>
    <path class="fil4 str0" d="M1349030 352134l22200 0m5724 0l22201 0"/>
    <path class="fil4 str0" d="M1349030 358392l22200 0m5724 0l22201 0"/>
    <path class="fil4 str0" d="M1349030 364648l22200 0m5724 0l22201 0"/>
    <path class="fil4 str0" d="M1349030 370906l22200 0m5724 0l22201 0"/>
    <line class="fil4 str0" x1="1376954" y1="321032" x2="1399155" y2= "321032" />
    <polygon class="fil5" points="560868,949076 1207598,949076 1207598,923990 1282227,923990 1288128,932018 1386871,862873 1381068,854391 1381068,734800 560868,734800 "/>
    <rect class="fil6 str0" x="575938" y="548464" width="67178" height="47268"/>
    <path class="fil6 str0" d="M450866 376437c27738,-25 46878,-38 63211,-36l0 23700c11904,-165 18756,-7908 20475,-18633l0 -5054 108563 -164 0 175196 -60572 0 42 1993 18091 0c-1337,11086 -7894,19571 -17410,19316l0 5894 -88950 0 -29723 0 -17892 0c0,-17887 0,-20096 0,-24937l-14416 0 0 -19169 18639 0 -58 -158106z"/>
    <rect class="fil2 str0" x="577968" y="582008" width="11335" height="11335"/>
    <polyline class="fil4 str0" points="577968,578563 577968,593343 712774,593343 712537,578563 "/>
    <polyline class="fil4 str0" points="575937,578290 575937,595731 714803,595609 714803,578563 "/>
    <rect class="fil2 str0" x="700878" y="582008" width="11797" height="11335"/>
    <rect class="fil2 str0" x="344921" y="582008" width="11335" height="11335"/>
    <polyline class="fil4 str0" points="344920,578563 344920,593343 451560,593343 451560,578563 "/>
    <polyline class="fil4 str0" points="342891,578290 342891,595731 453827,595609 453827,578563 "/>
    <rect class="fil2 str0" x="440225" y="582008" width="11335" height="11335"/>
    <rect class="fil2 str0" x="589303" y="589168" width="111575" height="816"/>
    <rect class="fil2 str0" x="842610" y="582095" width="11335" height="11335"/>
    <polyline class="fil4 str0" points="842611,578917 842611,593429 987698,593429 987698,578649 "/>
    <polyline class="fil4 str0" points="840344,578831 840344,595731 989966,595609 989966,578811 "/>
    <rect class="fil2 str0" x="976364" y="582095" width="11335" height="11335"/>
    <rect class="fil2 str0" x="854270" y="589168" width="122094" height="816"/>
    <rect class="fil2 str0" x="1118006" y="582095" width="10662" height="11335"/>
    <polyline class="fil4 str0" points="1118006,578917 1118006,593429 1254478,593429 1254478,578649 "/>
    <polyline class="fil4 str0" points="1115738,578831 1115738,595731 1256747,595609 1256747,578811 "/>
    <rect class="fil2 str0" x="1243144" y="582095" width="11335" height="11335"/>
    <rect class="fil2 str0" x="1129665" y="589168" width="113479" height="816"/>
    <rect class="fil2 str0" x="356255" y="589168" width="83970" height="816"/>
    <g>
    </g>
    <g style="clip-path:url(#id0)">
     <g>
      <g>
       <g>
        <rect class="fil7" x="99532" y="51745" width="11031" height="55159"/>
        <polygon class="fil7" points="105048,40571 137281,72804 137281,88405 105048,56172 72813,88407 72813,72804 "/>
       </g>
       <polygon class="fil0" points="77514,191222 77514,125328 89562,125328 120531,171736 120531,125328 132582,125328 132582,191222 120531,191222 89562,144907 89562,191222 "/>
      </g>
     </g>
    </g>
    <polygon class="fil4" points="0,0 200904,0 200904,191220 0,191220 "/>
    <polygon class="fil0" points="247633,277301 261682,254277 247503,231773 255373,231773 266104,248813 276119,231773 283860,231773 269745,254603 284053,277301 276185,277301 265388,260130 255373,277301 "/>
    <polygon id="1" class="fil0" points="295631,277301 295631,239579 288282,241269 288282,236197 298363,231773 302785,231773 302785,277301 "/>
    <path id="2" class="fil0" d="M327889 278081c-3209,0 -5983,-574 -8325,-1723 -2340,-1149 -4194,-2732 -5560,-4748 -1366,-2016 -2200,-4304 -2503,-6861l6763 0c433,2167 1517,3956 3251,5364 1734,1411 3881,2114 6440,2114 1907,0 3555,-466 4943,-1397 1386,-934 2471,-2180 3251,-3739 781,-1561 1171,-3318 1171,-5269 0,-3078 -867,-5540 -2601,-7383 -1734,-1843 -3925,-2763 -6569,-2763 -2255,0 -4184,530 -5790,1592 -1603,1063 -2774,2398 -3510,4001l-6569 0 3901 -25496 24584 0 0 6050 -19379 0 -2342 12161c996,-1126 2373,-2069 4129,-2830 1756,-758 3739,-1137 5952,-1137 3078,0 5722,705 7935,2113 2211,1411 3912,3307 5105,5693 1190,2384 1787,5029 1787,7934 0,3034 -650,5788 -1951,8259 -1300,2472 -3154,4433 -5560,5885 -2406,1453 -5258,2180 -8553,2180z"/>
    <polygon class="fil0" points="410916,269983 423598,249261 410798,229010 417904,229010 427590,244345 436631,229010 443619,229010 430879,249554 443794,269983 436691,269983 426945,254530 417904,269983 "/>
    <path id="1" class="fil0" d="M466458 270686c-3719,0 -6919,-890 -9600,-2664 -2681,-1776 -4737,-4253 -6165,-7433 -1430,-3183 -2144,-6879 -2144,-11093 0,-4215 714,-7912 2144,-11092 1428,-3180 3484,-5660 6165,-7434 2681,-1776 5881,-2663 9600,-2663 3717,0 6906,887 9569,2663 2663,1774 4708,4254 6134,7434 1430,3180 2144,6877 2144,11092 0,4214 -714,7910 -2144,11093 -1426,3180 -3471,5657 -6134,7433 -2663,1774 -5852,2664 -9569,2664zm0 -5562c2231,0 4218,-623 5959,-1872 1743,-1251 3100,-3045 4080,-5386 978,-2342 1468,-5132 1468,-8370 0,-3240 -490,-6029 -1468,-8371 -980,-2342 -2337,-4136 -4080,-5385 -1741,-1248 -3728,-1873 -5959,-1873 -2271,0 -4267,625 -5990,1873 -1723,1249 -3071,3043 -4051,5385 -978,2342 -1468,5131 -1468,8371 0,3238 490,6028 1468,8370 980,2341 2328,4135 4051,5386 1723,1249 3719,1872 5990,1872z"/>
    <polygon id="2" class="fil0" points="495460,269983 495460,236033 488827,237554 488827,232988 497926,229010 501920,229010 501920,269983 "/>
    <polygon class="fil0" points="516627,271202 530676,248179 516496,225675 524366,225675 535097,242715 545112,225675 552854,225675 538739,248505 553047,271202 545179,271202 534381,254031 524366,271202 "/>
    <path id="1" class="fil0" d="M578152 271983c-4118,0 -7664,-987 -10633,-2958 -2970,-1974 -5247,-4728 -6828,-8261 -1584,-3535 -2375,-7642 -2375,-12326 0,-4681 791,-8790 2375,-12323 1581,-3535 3858,-6287 6828,-8260 2969,-1974 6515,-2961 10633,-2961 4121,0 7653,987 10603,2961 2947,1973 5213,4725 6794,8260 1584,3533 2375,7642 2375,12323 0,4684 -791,8791 -2375,12326 -1581,3533 -3847,6287 -6794,8261 -2950,1971 -6482,2958 -10603,2958zm0 -6178c2473,0 4673,-695 6602,-2083 1929,-1386 3435,-3382 4520,-5983 1084,-2601 1625,-5701 1625,-9301 0,-3599 -541,-6699 -1625,-9300 -1085,-2601 -2591,-4595 -4520,-5983 -1929,-1388 -4129,-2080 -6602,-2080 -2515,0 -4725,692 -6633,2080 -1909,1388 -3404,3382 -4488,5983 -1084,2601 -1626,5701 -1626,9300 0,3600 542,6700 1626,9301 1084,2601 2579,4597 4488,5983 1908,1388 4118,2083 6633,2083z"/>
    <path id="2" class="fil0" d="M604169 271202l0 -4943c2947,-2342 5766,-4703 8454,-7090 2690,-2383 5085,-4736 7187,-7056 2102,-2320 3761,-4595 4976,-6828 1213,-2233 1821,-4391 1821,-6471 0,-1388 -240,-2699 -716,-3936 -477,-1235 -1258,-2233 -2342,-2992 -1082,-758 -2535,-1137 -4358,-1137 -2730,0 -4779,867 -6145,2601 -1366,1734 -2027,3816 -1984,6245l-6698 0c42,-3209 726,-5897 2049,-8066 1322,-2169 3098,-3816 5332,-4943 2233,-1126 4759,-1692 7577,-1692 4293,0 7728,1204 10310,3610 2579,2407 3869,5757 3869,10048 0,2560 -618,5096 -1853,7611 -1236,2515 -2841,4932 -4813,7252 -1973,2319 -4087,4497 -6342,6535 -2255,2038 -4402,3881 -6438,5529l20813 0 0 5723 -30699 0z"/>
    <polygon class="fil0" points="649180,272424 663229,249401 649049,226897 656919,226897 667650,243937 677665,226897 685407,226897 671292,249727 685600,272424 677732,272424 666934,255253 656919,272424 "/>
    <path id="1" class="fil0" d="M710705 273205c-4118,0 -7664,-987 -10633,-2959 -2970,-1973 -5247,-4728 -6828,-8260 -1584,-3535 -2375,-7642 -2375,-12326 0,-4681 791,-8790 2375,-12323 1581,-3535 3858,-6287 6828,-8260 2969,-1974 6515,-2961 10633,-2961 4121,0 7653,987 10603,2961 2947,1973 5213,4725 6794,8260 1584,3533 2375,7642 2375,12323 0,4684 -791,8791 -2375,12326 -1581,3532 -3847,6287 -6794,8260 -2950,1972 -6482,2959 -10603,2959zm0 -6179c2473,0 4673,-694 6602,-2082 1929,-1386 3435,-3382 4520,-5983 1084,-2601 1625,-5701 1625,-9301 0,-3599 -541,-6699 -1625,-9300 -1085,-2602 -2591,-4595 -4520,-5983 -1929,-1389 -4129,-2080 -6602,-2080 -2515,0 -4725,691 -6633,2080 -1909,1388 -3404,3381 -4488,5983 -1084,2601 -1626,5701 -1626,9300 0,3600 542,6700 1626,9301 1084,2601 2579,4597 4488,5983 1908,1388 4118,2082 6633,2082z"/>
    <path id="2" class="fil0" d="M752720 273205c-2949,0 -5626,-533 -8032,-1595 -2406,-1062 -4327,-2676 -5757,-4845 -1430,-2167 -2189,-4877 -2275,-8130l6828 0c86,2428 922,4477 2503,6147 1584,1670 3828,2504 6733,2504 2774,0 4899,-770 6373,-2309 1475,-1539 2211,-3457 2211,-5757 0,-2774 -986,-4834 -2958,-6178 -1974,-1344 -4391,-2016 -7251,-2016l-3382 0 0 -5723 3446 0c2557,0 4628,-608 6211,-1821 1582,-1213 2373,-2927 2373,-5138 0,-1865 -616,-3382 -1854,-4553 -1235,-1171 -2980,-1756 -5236,-1756 -2339,0 -4182,683 -5526,2049 -1346,1366 -2082,3067 -2213,5105l-6828 0c87,-2644 747,-4943 1983,-6892 1237,-1952 2938,-3471 5107,-4553 2166,-1085 4661,-1628 7477,-1628 3036,0 5584,532 7642,1595 2061,1062 3622,2492 4684,4293 1062,1798 1594,3761 1594,5885 0,2429 -672,4553 -2018,6374 -1343,1820 -3142,3036 -5397,3641 2601,566 4748,1832 6440,3805 1689,1974 2534,4520 2534,7642 0,2515 -583,4824 -1754,6928 -1171,2102 -2905,3781 -5204,5039 -2298,1257 -5116,1887 -8454,1887z"/>
    <polygon class="fil0" points="787403,273642 801452,250618 787273,228114 795143,228114 805874,245154 815889,228114 823630,228114 809515,250944 823823,273642 815955,273642 805158,256471 795143,273642 "/>
    <path id="1" class="fil0" d="M848929 274422c-4118,0 -7664,-987 -10634,-2958 -2969,-1974 -5247,-4728 -6828,-8261 -1583,-3535 -2375,-7642 -2375,-12325 0,-4682 792,-8791 2375,-12323 1581,-3535 3859,-6287 6828,-8261 2970,-1974 6516,-2960 10634,-2960 4120,0 7653,986 10602,2960 2947,1974 5214,4726 6795,8261 1583,3532 2375,7641 2375,12323 0,4683 -792,8790 -2375,12325 -1581,3533 -3848,6287 -6795,8261 -2949,1971 -6482,2958 -10602,2958zm0 -6178c2472,0 4672,-694 6601,-2082 1930,-1386 3436,-3382 4520,-5984 1084,-2601 1625,-5701 1625,-9300 0,-3599 -541,-6700 -1625,-9301 -1084,-2601 -2590,-4595 -4520,-5983 -1929,-1388 -4129,-2080 -6601,-2080 -2515,0 -4726,692 -6633,2080 -1910,1388 -3404,3382 -4489,5983 -1084,2601 -1625,5702 -1625,9301 0,3599 541,6699 1625,9300 1085,2602 2579,4598 4489,5984 1907,1388 4118,2082 6633,2082z"/>
    <path id="2" class="fil0" d="M897122 273642l0 -9106 -22828 0 0 -5462 21721 -30960 7935 0 0 30439 6375 0 0 5983 -6375 0 0 9106 -6828 0zm-15348 -15089l15738 0 0 -22828 -15738 22828z"/>
    <polygon class="fil0" points="920675,272420 934723,249396 920544,226892 928414,226892 939145,243932 949160,226892 956902,226892 942787,249722 957095,272420 949227,272420 938429,255249 928414,272420 "/>
    <path id="1" class="fil0" d="M982200 273200c-4118,0 -7664,-987 -10633,-2958 -2970,-1974 -5247,-4728 -6828,-8261 -1584,-3534 -2375,-7641 -2375,-12325 0,-4681 791,-8791 2375,-12323 1581,-3535 3858,-6287 6828,-8261 2969,-1974 6515,-2960 10633,-2960 4120,0 7653,986 10603,2960 2947,1974 5213,4726 6794,8261 1584,3532 2375,7642 2375,12323 0,4684 -791,8791 -2375,12325 -1581,3533 -3847,6287 -6794,8261 -2950,1971 -6483,2958 -10603,2958zm0 -6178c2473,0 4673,-694 6602,-2082 1929,-1386 3435,-3382 4519,-5983 1085,-2602 1626,-5702 1626,-9301 0,-3599 -541,-6699 -1626,-9301 -1084,-2601 -2590,-4595 -4519,-5983 -1929,-1388 -4129,-2080 -6602,-2080 -2515,0 -4726,692 -6633,2080 -1909,1388 -3404,3382 -4488,5983 -1085,2602 -1626,5702 -1626,9301 0,3599 541,6699 1626,9301 1084,2601 2579,4597 4488,5983 1907,1388 4118,2082 6633,2082z"/>
    <path id="2" class="fil0" d="M1025514 273200c-3208,0 -5983,-574 -8324,-1723 -2340,-1149 -4194,-2732 -5560,-4748 -1366,-2016 -2200,-4304 -2504,-6861l6764 0c433,2167 1517,3956 3251,5364 1734,1411 3881,2114 6440,2114 1907,0 3555,-466 4943,-1397 1386,-934 2470,-2180 3251,-3739 781,-1561 1171,-3318 1171,-5269 0,-3078 -867,-5540 -2601,-7383 -1734,-1842 -3925,-2763 -6569,-2763 -2255,0 -4184,530 -5790,1592 -1603,1063 -2774,2398 -3510,4001l-6569 0 3901 -25496 24584 0 0 6050 -19380 0 -2341 12161c995,-1126 2373,-2069 4129,-2829 1756,-759 3739,-1138 5952,-1138 3078,0 5721,705 7935,2113 2210,1411 3911,3307 5104,5693 1191,2384 1788,5029 1788,7934 0,3034 -650,5788 -1952,8259 -1299,2472 -3153,4433 -5559,5885 -2406,1453 -5258,2180 -8554,2180z"/>
    <polygon class="fil0" points="1054747,273642 1068796,250618 1054616,228114 1062486,228114 1073217,245154 1083232,228114 1090974,228114 1076859,250944 1091167,273642 1083299,273642 1072501,256471 1062486,273642 "/>
    <path id="1" class="fil0" d="M1116272 274422c-4118,0 -7664,-987 -10633,-2958 -2970,-1974 -5247,-4728 -6828,-8261 -1584,-3535 -2375,-7642 -2375,-12325 0,-4682 791,-8791 2375,-12323 1581,-3535 3858,-6287 6828,-8261 2969,-1974 6515,-2960 10633,-2960 4121,0 7653,986 10603,2960 2947,1974 5213,4726 6794,8261 1584,3532 2375,7641 2375,12323 0,4683 -791,8790 -2375,12325 -1581,3533 -3847,6287 -6794,8261 -2950,1971 -6482,2958 -10603,2958zm0 -6178c2473,0 4673,-694 6602,-2082 1929,-1386 3435,-3382 4520,-5984 1084,-2601 1625,-5701 1625,-9300 0,-3599 -541,-6700 -1625,-9301 -1085,-2601 -2591,-4595 -4520,-5983 -1929,-1388 -4129,-2080 -6602,-2080 -2515,0 -4725,692 -6633,2080 -1909,1388 -3404,3382 -4488,5983 -1084,2601 -1626,5702 -1626,9301 0,3599 542,6699 1626,9300 1084,2602 2579,4598 4488,5984 1908,1388 4118,2082 6633,2082z"/>
    <path id="2" class="fil0" d="M1160434 274422c-3340,0 -6159,-630 -8456,-1887 -2298,-1257 -4151,-2925 -5562,-5007 -1408,-2080 -2417,-4422 -3022,-7024 -608,-2601 -912,-5269 -912,-8001 0,-5029 705,-9429 2114,-13201 1410,-3772 3437,-6711 6080,-8813 2646,-2102 5855,-3155 9627,-3155 2991,0 5551,585 7675,1756 2124,1171 3783,2732 4974,4683 1193,1952 1918,4076 2180,6374l-6440 0c-390,-2255 -1322,-3990 -2796,-5203 -1475,-1215 -3360,-1820 -5657,-1820 -3167,0 -5780,1483 -7837,4455 -2061,2969 -3156,7533 -3285,13689 1040,-1907 2655,-3533 4843,-4876 2191,-1346 4717,-2018 7578,-2018 2559,0 4954,607 7187,1822 2233,1214 4054,2914 5462,5105 1411,2189 2116,4779 2116,7773 0,2644 -652,5136 -1952,7478 -1301,2342 -3133,4238 -5495,5690 -2364,1453 -5171,2180 -8422,2180zm-391 -5983c1821,0 3447,-390 4877,-1171 1430,-780 2559,-1854 3382,-3220 825,-1366 1237,-2916 1237,-4650 0,-2774 -900,-4985 -2701,-6633 -1798,-1648 -4085,-2473 -6861,-2473 -1821,0 -3457,413 -4910,1236 -1452,825 -2590,1920 -3415,3286 -823,1364 -1235,2872 -1235,4520 0,1776 423,3348 1268,4714 845,1366 1994,2440 3446,3220 1453,781 3090,1171 4912,1171z"/>
    <polygon class="fil0" points="1233074,273642 1247122,250618 1232943,228114 1240813,228114 1251544,245154 1261559,228114 1269300,228114 1255185,250944 1269493,273642 1261625,273642 1250828,256471 1240813,273642 "/>
    <path id="1" class="fil0" d="M1294599 274422c-4118,0 -7664,-987 -10634,-2958 -2969,-1974 -5246,-4728 -6828,-8261 -1583,-3535 -2375,-7642 -2375,-12325 0,-4682 792,-8791 2375,-12323 1582,-3535 3859,-6287 6828,-8261 2970,-1974 6516,-2960 10634,-2960 4120,0 7653,986 10602,2960 2947,1974 5214,4726 6795,8261 1583,3532 2375,7641 2375,12323 0,4683 -792,8790 -2375,12325 -1581,3533 -3848,6287 -6795,8261 -2949,1971 -6482,2958 -10602,2958zm0 -6178c2473,0 4672,-694 6602,-2082 1929,-1386 3435,-3382 4519,-5984 1085,-2601 1626,-5701 1626,-9300 0,-3599 -541,-6700 -1626,-9301 -1084,-2601 -2590,-4595 -4519,-5983 -1930,-1388 -4129,-2080 -6602,-2080 -2515,0 -4726,692 -6633,2080 -1909,1388 -3404,3382 -4488,5983 -1085,2601 -1626,5702 -1626,9301 0,3599 541,6699 1626,9300 1084,2602 2579,4598 4488,5984 1907,1388 4118,2082 6633,2082z"/>
    <polygon id="2" class="fil0" points="1324581,273642 1342206,234033 1318534,234033 1318534,228114 1349296,228114 1349296,233124 1331801,273642 "/>
    <polygon class="fil0" points="208131,495189 222180,472166 208000,449662 215871,449662 226602,466702 236616,449662 244358,449662 230243,472492 244551,495189 236683,495189 225885,478018 215871,495189 "/>
    <polygon id="1" class="fil0" points="256129,495189 256129,457468 248780,459158 248780,454086 258861,449662 263283,449662 263283,495189 "/>
    <path id="2" class="fil0" d="M293265 495189l0 -9105 -22828 0 0 -5462 21722 -30960 7934 0 0 30439 6376 0 0 5983 -6376 0 0 9105 -6828 0zm-15348 -15088l15738 0 0 -22828 -15738 22828z"/>
    <polygon class="fil0" points="498957,495189 513006,472166 498826,449662 506697,449662 517428,466702 527442,449662 535184,449662 521069,472492 535377,495189 527509,495189 516711,478018 506697,495189 "/>
    <polygon id="1" class="fil0" points="546955,495189 546955,457468 539606,459158 539606,454086 549687,449662 554109,449662 554109,495189 "/>
    <path id="2" class="fil0" d="M577913 495970c-2950,0 -5626,-532 -8032,-1595 -2407,-1062 -4327,-2676 -5757,-4845 -1431,-2167 -2189,-4876 -2276,-8130l6828 0c87,2429 923,4478 2504,6147 1583,1670 3828,2504 6733,2504 2774,0 4898,-769 6373,-2308 1475,-1539 2211,-3458 2211,-5757 0,-2774 -987,-4835 -2958,-6179 -1974,-1343 -4391,-2015 -7252,-2015l-3382 0 0 -5724 3447 0c2556,0 4628,-608 6211,-1821 1581,-1213 2373,-2927 2373,-5138 0,-1865 -617,-3382 -1854,-4553 -1235,-1170 -2980,-1756 -5236,-1756 -2339,0 -4182,683 -5526,2049 -1346,1366 -2082,3067 -2213,5105l-6828 0c86,-2643 747,-4943 1982,-6892 1238,-1952 2939,-3471 5107,-4553 2167,-1084 4662,-1628 7478,-1628 3036,0 5584,533 7642,1595 2060,1062 3621,2492 4684,4293 1062,1799 1594,3761 1594,5886 0,2428 -672,4552 -2018,6373 -1344,1821 -3142,3036 -5398,3641 2602,566 4748,1832 6440,3806 1690,1973 2535,4519 2535,7642 0,2514 -583,4823 -1754,6927 -1171,2103 -2905,3781 -5205,5039 -2297,1257 -5116,1887 -8453,1887z"/>
    <polygon class="fil0" points="662122,495090 676170,472117 661993,449666 669864,449666 680592,466667 690607,449666 698347,449666 684236,472443 698542,495090 690671,495090 679878,477959 669864,495090 "/>
    <polygon id="1" class="fil0" points="710115,495090 710115,457452 702768,459140 702768,454077 712847,449666 717269,449666 717269,495090 "/>
    <path id="2" class="fil0" d="M725596 495090l0 -4932c2948,-2336 5764,-4695 8454,-7072 2688,-2380 5083,-4728 7185,-7041 2105,-2315 3763,-4586 4976,-6815 1213,-2229 1821,-4380 1821,-6455 0,-1386 -237,-2695 -716,-3928 -475,-1233 -1255,-2226 -2340,-2985 -1084,-756 -2537,-1135 -4357,-1135 -2733,0 -4779,865 -6148,2597 -1363,1729 -2027,3805 -1980,6229l-6699 0c42,-3202 725,-5883 2046,-8048 1322,-2162 3101,-3807 5334,-4932 2233,-1124 4759,-1687 7577,-1687 4291,0 7727,1202 10308,3601 2579,2402 3870,5744 3870,10026 0,2552 -619,5085 -1854,7593 -1236,2510 -2841,4921 -4813,7236 -1973,2315 -4087,4488 -6340,6522 -2255,2034 -4402,3872 -6440,5515l20813 0 0 5711 -30697 0z"/>
    <polygon class="fil0" points="809189,495076 823320,472053 809056,449549 816973,449549 827768,466589 837841,449549 845629,449549 831430,472379 845822,495076 837907,495076 827048,477905 816973,495076 "/>
    <polygon id="1" class="fil0" points="857469,495076 857469,457355 850077,459045 850077,453973 860216,449549 864665,449549 864665,495076 "/>
    <polygon id="2" class="fil0" points="878665,495076 878665,457355 871271,459045 871271,453973 881412,449549 885861,449549 885861,495076 "/>
    <polygon class="fil0" points="930171,495189 944219,472166 930040,449662 937910,449662 948641,466702 958656,449662 966398,449662 952282,472492 966590,495189 958722,495189 947925,478018 937910,495189 "/>
    <polygon id="1" class="fil0" points="978169,495189 978169,457468 970819,459158 970819,454086 980901,449662 985323,449662 985323,495189 "/>
    <path id="2" class="fil0" d="M1012768 495970c-4118,0 -7664,-987 -10634,-2958 -2969,-1974 -5247,-4728 -6828,-8261 -1583,-3535 -2375,-7642 -2375,-12325 0,-4682 792,-8791 2375,-12324 1581,-3534 3859,-6287 6828,-8260 2970,-1974 6516,-2961 10634,-2961 4120,0 7653,987 10602,2961 2947,1973 5214,4726 6795,8260 1583,3533 2375,7642 2375,12324 0,4683 -792,8790 -2375,12325 -1581,3533 -3848,6287 -6795,8261 -2949,1971 -6482,2958 -10602,2958zm0 -6178c2472,0 4672,-694 6601,-2083 1930,-1386 3436,-3381 4520,-5983 1084,-2601 1625,-5701 1625,-9300 0,-3600 -541,-6700 -1625,-9301 -1084,-2601 -2590,-4595 -4520,-5983 -1929,-1388 -4129,-2080 -6601,-2080 -2515,0 -4726,692 -6633,2080 -1910,1388 -3404,3382 -4489,5983 -1084,2601 -1625,5701 -1625,9301 0,3599 541,6699 1625,9300 1085,2602 2579,4597 4489,5983 1907,1389 4118,2083 6633,2083z"/>
    <polygon class="fil0" points="1054747,495189 1068796,472166 1054616,449662 1062486,449662 1073217,466702 1083232,449662 1090974,449662 1076859,472492 1091167,495189 1083299,495189 1072501,478018 1062486,495189 "/>
    <path id="1" class="fil0" d="M1116272 495970c-4118,0 -7664,-987 -10633,-2958 -2970,-1974 -5247,-4728 -6828,-8261 -1584,-3535 -2375,-7642 -2375,-12325 0,-4682 791,-8791 2375,-12324 1581,-3534 3858,-6287 6828,-8260 2969,-1974 6515,-2961 10633,-2961 4121,0 7653,987 10603,2961 2947,1973 5213,4726 6794,8260 1584,3533 2375,7642 2375,12324 0,4683 -791,8790 -2375,12325 -1581,3533 -3847,6287 -6794,8261 -2950,1971 -6482,2958 -10603,2958zm0 -6178c2473,0 4673,-694 6602,-2083 1929,-1386 3435,-3381 4520,-5983 1084,-2601 1625,-5701 1625,-9300 0,-3600 -541,-6700 -1625,-9301 -1085,-2601 -2591,-4595 -4520,-5983 -1929,-1388 -4129,-2080 -6602,-2080 -2515,0 -4725,692 -6633,2080 -1909,1388 -3404,3382 -4488,5983 -1084,2601 -1626,5701 -1626,9301 0,3599 542,6699 1626,9300 1084,2602 2579,4597 4488,5983 1908,1389 4118,2083 6633,2083z"/>
    <path id="2" class="fil0" d="M1159001 495970c-2991,0 -5548,-585 -7673,-1756 -2124,-1171 -3783,-2732 -4976,-4684 -1193,-1949 -1918,-4074 -2178,-6373l6438 0c390,2255 1322,3989 2796,5204 1475,1213 3360,1821 5660,1821 3164,0 5776,-1486 7837,-4455 2058,-2972 3153,-7533 3284,-13692 -1040,1910 -2657,3535 -4846,4879 -2191,1344 -4714,2016 -7577,2016 -2557,0 -4965,-608 -7218,-1821 -2256,-1215 -4076,-2916 -5465,-5105 -1386,-2191 -2080,-4781 -2080,-7772 0,-2646 650,-5139 1952,-7480 1299,-2342 3131,-4238 5495,-5691 2362,-1452 5169,-2180 8422,-2180 3338,0 6157,630 8454,1887 2300,1258 4142,2928 5528,5008 1389,2082 2396,4424 3025,7025 628,2601 943,5267 943,7999 0,5030 -703,9432 -2114,13204 -1408,3772 -3435,6708 -6080,8813 -2646,2102 -5855,3153 -9627,3153zm326 -22959c1821,0 3446,-412 4879,-1235 1430,-825 2568,-1918 3413,-3284 847,-1366 1268,-2872 1268,-4520 0,-1778 -421,-3351 -1268,-4717 -845,-1366 -1994,-2439 -3446,-3217 -1453,-781 -3090,-1171 -4910,-1171 -1823,0 -3449,390 -4879,1171 -1430,778 -2568,1851 -3415,3217 -845,1366 -1269,2916 -1269,4651 0,2776 912,4987 2733,6635 1820,1647 4120,2470 6894,2470z"/>
    <polygon class="fil0" points="1229951,495189 1244000,472166 1229820,449662 1237691,449662 1248422,466702 1258436,449662 1266178,449662 1252063,472492 1266371,495189 1258503,495189 1247705,478018 1237691,495189 "/>
    <path id="1" class="fil0" d="M1291476 495970c-4118,0 -7664,-987 -10633,-2958 -2969,-1974 -5247,-4728 -6828,-8261 -1583,-3535 -2375,-7642 -2375,-12325 0,-4682 792,-8791 2375,-12324 1581,-3534 3859,-6287 6828,-8260 2969,-1974 6515,-2961 10633,-2961 4121,0 7653,987 10603,2961 2947,1973 5213,4726 6795,8260 1583,3533 2375,7642 2375,12324 0,4683 -792,8790 -2375,12325 -1582,3533 -3848,6287 -6795,8261 -2950,1971 -6482,2958 -10603,2958zm0 -6178c2473,0 4673,-694 6602,-2083 1930,-1386 3435,-3381 4520,-5983 1084,-2601 1625,-5701 1625,-9300 0,-3600 -541,-6700 -1625,-9301 -1085,-2601 -2590,-4595 -4520,-5983 -1929,-1388 -4129,-2080 -6602,-2080 -2514,0 -4725,692 -6632,2080 -1910,1388 -3404,3382 -4489,5983 -1084,2601 -1625,5701 -1625,9301 0,3599 541,6699 1625,9300 1085,2602 2579,4597 4489,5983 1907,1389 4118,2083 6632,2083z"/>
    <path id="2" class="fil0" d="M1334467 495970c-3036,0 -5779,-552 -8227,-1659 -2451,-1106 -4402,-2654 -5855,-4650 -1452,-1994 -2177,-4336 -2177,-7023 0,-2732 769,-5183 2308,-7349 1539,-2169 3588,-3644 6145,-4425 -2297,-909 -4076,-2242 -5333,-3998 -1258,-1756 -1885,-3697 -1885,-5821 0,-2211 585,-4238 1756,-6081 1171,-1843 2872,-3317 5105,-4424 2233,-1104 4954,-1659 8163,-1659 3209,0 5928,555 8161,1659 2233,1107 3936,2581 5107,4424 1169,1843 1754,3870 1754,6081 0,2080 -639,4020 -1918,5821 -1280,1799 -3067,3131 -5365,3998 2557,825 4606,2309 6145,4456 1539,2146 2309,4586 2309,7318 0,2687 -714,5029 -2144,7023 -1433,1996 -3373,3544 -5822,4650 -2450,1107 -5193,1659 -8227,1659zm0 -27317c2515,0 4497,-649 5950,-1951 1452,-1300 2180,-2969 2180,-5007 0,-2298 -717,-4054 -2147,-5267 -1430,-1215 -3426,-1823 -5983,-1823 -2559,0 -4553,608 -5983,1823 -1433,1213 -2147,2969 -2147,5267 0,2038 714,3707 2147,5007 1430,1302 3424,1951 5983,1951zm0 21462c3120,0 5462,-747 7023,-2242 1561,-1496 2342,-3415 2342,-5756 0,-2602 -834,-4606 -2504,-6017 -1670,-1408 -3956,-2113 -6861,-2113 -2905,0 -5205,705 -6895,2113 -1692,1411 -2536,3415 -2536,6017 0,2341 791,4260 2375,5756 1581,1495 3934,2242 7056,2242z"/>
   </g>
  </g>
 </g>
</svg>
