<?xml version="1.0" encoding="UTF-8"?>
<!DOCTYPE svg PUBLIC "-//W3C//DTD SVG 1.1//EN" "http://www.w3.org/Graphics/SVG/1.1/DTD/svg11.dtd">
<!-- Creator: CorelDRAW X8 -->
<svg xmlns="http://www.w3.org/2000/svg" xml:space="preserve" width="2.63665in" height="2.32256in" version="1.1" style="shape-rendering:geometricPrecision; text-rendering:geometricPrecision; image-rendering:optimizeQuality; fill-rule:evenodd; clip-rule:evenodd"
viewBox="0 0 105732 93137"
 xmlns:xlink="http://www.w3.org/1999/xlink">
 <defs>
  <style type="text/css">
   <![CDATA[
    .str0 {stroke:#373435;stroke-width:120.303}
    .fil5 {fill:none}
    .fil2 {fill:#FEFEFE}
    .fil1 {fill:#E6E7E8}
    .fil3 {fill:#D2D3D5}
    .fil7 {fill:#373435}
    .fil4 {fill:#FEFEFE;fill-rule:nonzero}
    .fil0 {fill:#373435;fill-rule:nonzero}
    .fil6 {fill:#FEFEFE}
   ]]>
  </style>
     <clipPath id="id0">
      <path d="M0 0l14303 0 0 13613 -14303 0 0 -13613z"/>
     </clipPath>
 </defs>
 <g id="Layer_x0020_1">
  <metadata id="CorelCorpID_0Corel-Layer"/>
  <g id="_2259897738448">
   <polygon class="fil0" points="32944,93012 32944,85552 33943,85552 33943,92137 37641,92137 37641,93012 "/>
   <polygon id="1" class="fil0" points="38851,93012 38851,85552 44283,85552 44283,86427 39849,86427 39849,88719 44000,88719 44000,89594 39849,89594 39849,92137 44462,92137 44462,93012 "/>
   <path id="2" class="fil0" d="M47982 93012l-2907 -7460 1079 0 1954 5421c156,434 289,841 394,1221 116,-408 250,-815 405,-1221l2027 -5421 1016 0 -2933 7460 -1035 0z"/>
   <polygon id="3" class="fil0" points="52868,93012 52868,85552 58300,85552 58300,86427 53866,86427 53866,88719 58016,88719 58016,89594 53866,89594 53866,92137 58479,92137 58479,93012 "/>
   <polygon id="4" class="fil0" points="59813,93012 59813,85552 60811,85552 60811,92137 64510,92137 64510,93012 "/>
   <path id="5" class="fil0" d="M72661 87375l-914 73c-82,-359 -199,-621 -352,-785 -250,-262 -560,-392 -928,-392 -296,0 -558,81 -784,245 -291,210 -519,515 -688,918 -169,405 -256,980 -263,1725 222,-336 495,-586 818,-747 322,-163 658,-245 1012,-245 616,0 1142,226 1576,676 432,449 650,1029 650,1743 0,469 -102,903 -305,1306 -205,403 -483,710 -841,923 -355,214 -760,322 -1212,322 -768,0 -1397,-282 -1884,-842 -485,-561 -728,-1487 -728,-2775 0,-1441 269,-2490 807,-3145 469,-569 1102,-854 1898,-854 592,0 1079,165 1457,493 378,328 606,781 681,1361zm-3782 3220c0,316 68,618 203,906 135,288 324,507 564,658 242,151 497,228 769,228 394,0 730,-157 1008,-469 279,-313 419,-737 419,-1273 0,-516 -138,-922 -413,-1219 -275,-297 -626,-446 -1051,-446 -417,0 -772,149 -1063,446 -291,297 -436,686 -436,1169z"/>
   <g>
    <path class="fil1" d="M0 0l105732 0 0 63866 -4642 5848 -17173 5755 -49665 0c62,-641 95,-1291 95,-1949 0,-11125 -9019,-20144 -20144,-20144 -5542,0 -10561,2239 -14203,5860l0 -59236z"/>
    <rect class="fil2 str0" x="19100" y="8917" width="9739" height="3008"/>
    <rect class="fil2 str0" x="79594" y="39259" width="4926" height="2989"/>
    <rect class="fil2 str0" x="65149" y="39259" width="5168" height="2989"/>
    <rect class="fil2 str0" x="45791" y="39259" width="4913" height="2989"/>
    <polygon class="fil3" points="39930,67567 85972,67567 85972,65781 91285,65781 91705,66353 98735,61430 98322,60826 98322,52312 39930,52312 "/>
    <path class="fil2 str0" d="M9649 15870l4357 0 -25 8502 -225 0 25 -1620c-1048,80 -1503,835 -1476,1620l-2433 0 0 2421 -226 0 0 -2582 3 0 0 -8341z"/>
    <rect class="fil2 str0" x="18826" y="8917" width="807" height="807"/>
    <rect class="fil2 str0" x="19633" y="9156" width="8799.22" height="64.5398"/>
    <rect class="fil2 str0" x="28432" y="8917" width="807" height="807"/>
    <rect class="fil2 str0" x="41240" y="8917" width="18990" height="3341"/>
    <rect class="fil2 str0" x="40859" y="8917" width="807" height="807"/>
    <rect class="fil2 str0" x="41666" y="9156" width="8676.57" height="64.5398"/>
    <rect class="fil2 str0" x="50343" y="8917" width="807" height="807"/>
    <rect class="fil2 str0" x="59826" y="8917" width="807" height="807"/>
    <rect class="fil2 str0" x="51150" y="9156" width="8676.57" height="64.5398"/>
    <rect class="fil2 str0" x="70072" y="8917" width="18990" height="2989"/>
    <rect class="fil2 str0" x="69691" y="8917" width="807" height="807"/>
    <rect class="fil2 str0" x="70498" y="9156" width="8676.57" height="64.5398"/>
    <rect class="fil2 str0" x="79174" y="8917" width="807" height="807"/>
    <rect class="fil2 str0" x="88658" y="8917" width="807" height="807"/>
    <rect class="fil2 str0" x="79981" y="9156" width="8676.57" height="64.5398"/>
    <rect class="fil2 str0" x="24533" y="39299" width="7592" height="2948"/>
    <rect class="fil2 str0" x="24533" y="41441" width="807" height="807"/>
    <rect class="fil2 str0" x="25340" y="41938" width="5978.03" height="64.5398"/>
    <rect class="fil2 str0" x="31318" y="41441" width="807" height="807"/>
    <rect class="fil2 str0" x="41124" y="39259" width="4667" height="2989"/>
    <rect class="fil2 str0" x="41124" y="41441" width="807" height="807"/>
    <rect class="fil2 str0" x="41931" y="41938" width="7966.41" height="64.5398"/>
    <rect class="fil2 str0" x="49897" y="41441" width="807" height="807"/>
    <polygon class="fil4 str0" points="45826,39259 45826,41944 45744,41944 45744,39259 "/>
    <rect class="fil2 str0" x="59988" y="39259" width="5161" height="2989"/>
    <rect class="fil2 str0" x="59988" y="41441" width="807" height="807"/>
    <rect class="fil2 str0" x="60795" y="41938" width="8715.3" height="64.5398"/>
    <rect class="fil2 str0" x="69510" y="41441" width="807" height="807"/>
    <polygon class="fil4 str0" points="65193,39259 65193,41944 65111,41944 65111,39259 "/>
    <rect class="fil2 str0" x="79594" y="39259" width="9800" height="2989"/>
    <rect class="fil2 str0" x="79594" y="41441" width="807" height="807"/>
    <rect class="fil2 str0" x="80401" y="41938" width="8185.91" height="64.5398"/>
    <rect class="fil2 str0" x="88587" y="41441" width="807" height="807"/>
    <polygon class="fil4 str0" points="84561,39259 84561,41944 84479,41944 84479,39259 "/>
    <path class="fil4 str0" d="M11831 18201l201 0c28,0 54,14 72,35 16,19 27,46 27,74l0 3557c0,29 -11,55 -27,75 -18,21 -44,35 -72,35l-201 0c-28,0 -54,-14 -72,-35 -16,-20 -27,-46 -27,-75l0 -3557c0,-28 11,-55 27,-74 18,-21 44,-35 72,-35zm201 82l-201 0c-3,0 -7,2 -10,6 -4,5 -7,12 -7,21l0 3557c0,9 3,17 7,22 3,3 7,5 10,5l201 0c3,0 7,-2 9,-5 5,-5 8,-13 8,-22l0 -3557c0,-9 -3,-16 -8,-21 -2,-4 -6,-6 -9,-6z"/>
    <path class="fil4 str0" d="M9921 17820c32,0 61,13 82,34 21,21 35,51 35,83l0 4757c0,32 -14,61 -35,82 -21,22 -51,35 -82,35l0 -82c9,0 18,-4 24,-11 6,-6 10,-15 10,-24l0 -4757c0,-10 -4,-18 -10,-25 -6,-6 -15,-10 -24,-10l0 -82z"/>
    <path class="fil5 str0" d="M10038 18310l1677 0m433 0l1678 0"/>
    <path class="fil4 str0" d="M13942 17387c-32,0 -61,13 -82,34 -21,22 -34,51 -34,83l0 4757c0,32 13,61 34,82 21,22 50,35 82,35l0 -82c-9,0 -18,-4 -24,-10 -6,-7 -10,-15 -10,-25l0 -4757c0,-9 4,-18 10,-24 6,-7 15,-11 24,-11l0 -82z"/>
    <path class="fil5 str0" d="M10038 18756l1677 0m433 0l1678 0"/>
    <path class="fil5 str0" d="M10038 19201l1677 0m433 0l1678 0"/>
    <path class="fil5 str0" d="M10038 19647l1677 0m433 0l1678 0"/>
    <path class="fil5 str0" d="M10038 20086l1677 0m433 0l1678 0"/>
    <path class="fil5 str0" d="M10038 20531l1677 0m433 0l1678 0"/>
    <path class="fil5 str0" d="M10038 20977l1677 0m433 0l1678 0"/>
    <path class="fil5 str0" d="M10038 21422l1677 0m433 0l1678 0"/>
    <path class="fil5 str0" d="M10038 21861l1677 0m433 0l1678 0"/>
    <path class="fil2 str0" d="M93350 24366l-2 -212 -32 -3551 6682 51 0 8631 -4351 -19 0 -4900 -381 0 0 -426c-103,-657 -650,-1178 -1470,-1294l0 1720 -446 0z"/>
    <path class="fil4 str0" d="M97730 22752l200 0c29,0 54,13 72,34 17,20 27,46 27,75l0 3990c0,29 -10,55 -27,75 -18,21 -43,34 -72,34l-200 0c-29,0 -54,-13 -72,-34 -17,-20 -27,-46 -27,-75l0 -3990c0,-29 10,-55 27,-75 18,-21 43,-34 72,-34zm200 82l-200 0c-4,0 -7,2 -10,5 -4,5 -7,13 -7,22l0 3990c0,9 3,17 7,22 3,3 6,5 10,5l200 0c4,0 7,-2 10,-5 4,-5 7,-13 7,-22l0 -3990c0,-9 -3,-17 -7,-22 -3,-3 -6,-5 -10,-5z"/>
    <path class="fil4 str0" d="M95924 22804c32,0 62,13 83,34 21,21 34,50 34,83l0 4757c0,32 -13,61 -34,82 -21,21 -51,35 -83,35l0 -83c10,0 19,-4 25,-10 6,-6 10,-15 10,-24l0 -4757c0,-10 -4,-19 -10,-25 -6,-6 -15,-10 -25,-10l0 -82z"/>
    <path class="fil4 str0" d="M99727 21917c-32,0 -62,13 -83,34 -21,21 -34,51 -34,83l0 4757c0,32 13,61 34,82 21,21 51,35 83,35l0 -83c-10,0 -19,-3 -25,-10 -6,-6 -10,-15 -10,-24l0 -4757c0,-10 4,-18 10,-25 6,-6 15,-10 25,-10l0 -82z"/>
    <path class="fil5 str0" d="M96041 23294l1581 0m407 0l1581 0"/>
    <path class="fil5 str0" d="M96041 23740l1581 0m407 0l1581 0"/>
    <path class="fil5 str0" d="M96041 24185l1581 0m407 0l1581 0"/>
    <path class="fil5 str0" d="M96041 24630l1581 0m407 0l1581 0"/>
    <path class="fil5 str0" d="M96041 25069l1581 0m407 0l1581 0"/>
    <path class="fil5 str0" d="M96041 25515l1581 0m407 0l1581 0"/>
    <path class="fil5 str0" d="M96041 25960l1581 0m407 0l1581 0"/>
    <path class="fil5 str0" d="M96041 26406l1581 0m407 0l1581 0"/>
    <line class="fil5 str0" x1="98029" y1="22855" x2="99610" y2= "22855" />
    <polyline class="fil5 str0" points="24985,26793 24939,35760 28229,35734 28229,37400 "/>
    <polyline class="fil5 str0" points="28238,28482 28212,26800 32098,26800 32103,28482 "/>
    <polyline class="fil5 str0" points="28229,35806 28229,28482 32103,28482 32103,38056 28229,38056 28229,35806 "/>
    <polygon class="fil2 str0" points="28662,37560 31567,37560 31567,33538 28662,33538 28662,33661 28425,33661 28425,35456 28662,35456 "/>
    <polygon class="fil2 str0" points="28662,30743 28423,30743 28423,32660 28662,32660 28662,33061 31567,33061 31567,29000 28662,29000 "/>
    <path class="fil2 str0" d="M24985 26793l-4642 0 0 1691c-848,-11 -1335,-539 -1458,-1271l0 -420 -9259 0 0 14403 15133 0 0 -381 236 0c480,-128 933,-399 1029,-1190l-1265 0 0 -210 6019 5 -3 -1364 -2546 0 0 -2322 -3290 26 46 -8967z"/>
    <path class="fil6 str0" d="M32098 26800l1 0 0 742 2911 0 0 -736 1601 4 0 1681c780,-1 1245,-526 1457,-1271l0 -406 7717 18 6 12427 -4280 0 -6 141 1259 1c-19,710 -610,1237 -1239,1259l-20 516 -603 0 -9081 0 0 -1756 -1043 0 0 -1364 1327 0 -7 -11256z"/>
    <path class="fil1 str0" d="M32099 27542l2911 0 0 -749 -267 0 -643 -633c-194,180 -285,392 -281,633l-606 0c0,-229 -105,-437 -275,-633l-637 633 -202 0 0 749z"/>
    <path class="fil2 str0" d="M55469 26843c-4225,0 -1528,0 -3830,0l0 370c-122,732 -610,1260 -1458,1271l0 -1641 -4390 0 0 12416 4560 0 -2 245 -1291 0c3,809 638,1267 1266,1291l0 401 5145 0 0 -14353z"/>
    <path class="fil2 str0" d="M55482 26845l3506 0 0 1639c848,-11 1336,-539 1458,-1271l0 -368 4706 0 14 12409 -3316 0 0 111c-110,657 -548,1131 -1308,1141l0 -1252 -173 0 0 1942 -268 0 -4632 0 13 -14351z"/>
    <path class="fil2 str0" d="M74833 26819l-3632 5 0 1660c-847,-11 -1335,-563 -1457,-1326l0 -331 -4595 7 0 12425 3292 0 0 105c109,656 547,1131 1308,1141l0 -1246 161 0 0 1941 344 0 4579 5 0 -14386z"/>
    <path class="fil2 str0" d="M98968 41221l-9343 -25 -690 0 0 -465c-624,-27 -1244,-534 -1272,-1292l1272 0 0 -185 -4415 0 0 -12435 4833 3 8 1662c1011,-37 1490,-807 1448,-1662l4838 23 0 2421 3336 15 -15 11940z"/>
    <path class="fil2 str0" d="M84520 26819l-4397 0 0 1665c-847,-11 -1335,-563 -1457,-1326l0 -339 -3830 0 0 14377 4694 0 451 0 0 -401c643,-12 1307,-580 1230,-1291l-1230 0 0 -250 4539 0 0 -12435z"/>
    <path class="fil2 str0" d="M28850 11906l-5182 0 0 -1240c-757,10 -1192,482 -1302,1135l0 105 -8385 0 0 12440 8713 0 0 -383c122,-732 610,-1260 1458,-1272l0 1655 4698 0 0 -12440z"/>
    <path class="fil2 str0" d="M28858 9969l7243 0 0 14377 -3111 0 0 -1672c-848,11 -1336,540 -1458,1271l0 401 -2674 0 0 -14377z"/>
    <path class="fil2 str0" d="M41266 9969l-5165 0 0 14377 3824 0 0 -401c122,-731 610,-1260 1457,-1271l0 1672 4403 0 -1 -12423 -4518 -2 0 -260 1240 0c-10,-757 -482,-1192 -1135,-1302l-105 0 0 -390z"/>
    <path class="fil2 str0" d="M55467 11923l2 12423 -3791 0 0 -420c-123,-732 -610,-1260 -1458,-1271l0 1691 -4435 0 -1 -12423 5105 0 0 -1257c756,10 1192,482 1301,1135l0 122 3277 0z"/>
    <path class="fil2 str0" d="M65152 9974l4900 0 0 1951 223 0 0 -1259c757,10 1192,482 1301,1135l0 124 3376 0 -116 12421 -4598 0 0 -420c-122,-732 -610,-1260 -1457,-1271l0 1691 -3636 0 7 -14372z"/>
    <path class="fil2 str0" d="M74952 11925l-116 12421c2083,0 3112,3 3785,6l0 -426c122,-732 610,-1260 1457,-1271l0 1708c707,5 1796,9 4442,9l3 -12447 -5090 0 0 -1259c-757,10 -1192,482 -1302,1135l0 124 -3179 0z"/>
    <path class="fil2 str0" d="M65152 9974l-4925 0c0,928 0,1746 0,1951l-162 0 0 -1259c-756,10 -1192,482 -1301,1135l0 124 -3295 0 0 12421 4591 0 0 -420c122,-732 610,-1260 1458,-1271l0 1691 3627 0 7 -14372z"/>
    <path class="fil2 str0" d="M89022 9974l10107 0 0 10673 -5813 -44 33 3769 -2858 0 0 -1698c-847,12 -1335,563 -1457,1327l0 371 -170 0 0 -1975 -4341 0 0 -10472 2892 0 0 -124c109,-653 544,-1125 1301,-1135l0 1259 306 0 0 -1951z"/>
    <path class="fil1 str0" d="M84517 22397l4347 0 0 1975 -560 0 -1449 853c-147,-229 -248,-498 -251,-853 -33,344 -131,637 -278,857l-1427 -857 -382 0 0 -1975z"/>
    <rect class="fil2 str0" x="45746" y="9249" width="77.4916" height="2675.92"/>
    <rect class="fil2 str0" x="55430" y="9249" width="77.4916" height="2675.92"/>
    <rect class="fil2 str0" x="74933" y="9249" width="77.4916" height="2675.92"/>
    <rect class="fil2 str0" x="84523" y="9249" width="77.4916" height="2675.92"/>
    <g>
    </g>
    <g style="clip-path:url(#id0)">
     <g>
      <g>
       <g>
        <rect class="fil7" x="7086" y="3684" width="785" height="3927"/>
        <polygon class="fil7" points="7479,2888 9773,5183 9773,6294 7479,3999 5184,6294 5184,5183 "/>
       </g>
       <polygon class="fil0" points="5518,13614 5518,8922 6376,8922 8581,12226 8581,8922 9439,8922 9439,13614 8581,13614 6376,10316 6376,13614 "/>
      </g>
     </g>
    </g>
    <polygon class="fil5" points="0,0 14303,0 14303,13613 0,13613 "/>
    <path class="fil0" d="M18970 19492c-237,0 -438,-45 -602,-134 -163,-90 -295,-209 -396,-357 -100,-148 -172,-315 -215,-500 -43,-185 -65,-375 -65,-570 0,-358 50,-671 151,-939 100,-269 244,-478 433,-628 188,-149 416,-224 685,-224 213,0 395,41 546,125 152,83 270,194 354,333 85,139 137,290 156,454l-459 0c-28,-161 -94,-284 -199,-371 -105,-86 -239,-129 -403,-129 -225,0 -411,105 -558,317 -146,211 -224,536 -233,974 74,-135 189,-251 344,-347 156,-96 336,-143 540,-143 182,0 353,43 512,129 159,87 288,208 388,364 101,156 151,340 151,553 0,188 -46,366 -139,533 -93,166 -223,301 -391,405 -168,103 -368,155 -600,155zm-28 -426c130,0 246,-28 348,-83 101,-56 182,-132 240,-230 59,-97 89,-207 89,-331 0,-197 -65,-355 -193,-472 -128,-117 -291,-176 -488,-176 -130,0 -246,29 -350,88 -103,59 -184,137 -243,234 -59,97 -88,204 -88,322 0,126 30,238 90,335 61,98 142,174 246,230 103,55 220,83 349,83z"/>
    <polygon id="1" class="fil0" points="21040,19436 21040,16751 20517,16871 20517,16510 21234,16195 21549,16195 21549,19436 "/>
    <path id="2" class="fil0" d="M23336 19492c-228,0 -426,-41 -592,-123 -167,-82 -299,-194 -396,-338 -97,-143 -157,-306 -178,-488l481 0c31,154 108,281 232,382 123,100 276,150 458,150 136,0 253,-33 352,-99 99,-67 176,-156 231,-267 56,-111 84,-236 84,-375 0,-219 -62,-394 -185,-525 -124,-131 -280,-197 -468,-197 -161,0 -298,38 -412,113 -114,76 -198,171 -250,285l-468 0 278 -1815 1750 0 0 431 -1380 0 -166 866c71,-81 169,-148 294,-202 125,-54 266,-81 423,-81 220,0 408,50 565,151 158,100 279,235 364,405 85,170 127,358 127,565 0,216 -46,412 -139,588 -92,176 -224,315 -396,419 -171,103 -374,155 -609,155z"/>
    <path class="fil0" d="M30500 19486c-214,0 -395,-40 -542,-121 -147,-80 -266,-187 -356,-320 -90,-134 -155,-284 -194,-450 -39,-167 -58,-338 -58,-513 0,-322 45,-604 135,-846 90,-242 220,-430 390,-565 169,-134 375,-202 617,-202 191,0 355,38 491,113 136,75 243,175 319,300 77,125 123,261 140,408l-413 0c-25,-144 -85,-255 -179,-333 -95,-78 -215,-117 -363,-117 -202,0 -370,95 -502,286 -132,190 -202,482 -210,877 66,-122 170,-227 310,-313 141,-86 302,-129 486,-129 164,0 317,39 460,117 143,78 260,187 350,327 90,140 136,306 136,498 0,169 -42,329 -125,479 -84,150 -201,272 -352,365 -152,93 -332,139 -540,139zm-25 -383c116,0 221,-25 312,-75 92,-50 164,-119 217,-206 53,-88 79,-187 79,-298 0,-178 -57,-320 -173,-425 -115,-106 -262,-159 -439,-159 -117,0 -222,27 -315,80 -93,52 -166,122 -219,210 -52,87 -79,184 -79,290 0,114 27,214 81,302 55,87 128,156 221,206 93,50 198,75 315,75z"/>
    <path id="1" class="fil0" d="M33229 19486c-264,0 -491,-63 -681,-189 -190,-127 -336,-303 -437,-529 -102,-227 -153,-490 -153,-790 0,-300 51,-563 153,-790 101,-226 247,-403 437,-529 190,-127 417,-190 681,-190 264,0 491,63 680,190 189,126 334,303 435,529 102,227 152,490 152,790 0,300 -50,563 -152,790 -101,226 -246,402 -435,529 -189,126 -416,189 -680,189zm0 -396c159,0 300,-44 423,-133 124,-89 220,-217 290,-383 69,-167 104,-366 104,-596 0,-231 -35,-429 -104,-596 -70,-167 -166,-295 -290,-383 -123,-89 -264,-134 -423,-134 -161,0 -302,45 -425,134 -122,88 -218,216 -287,383 -70,167 -104,365 -104,596 0,230 34,429 104,596 69,166 165,294 287,383 123,89 264,133 425,133z"/>
    <polygon id="2" class="fil0" points="35288,19436 35288,17019 34817,17128 34817,16803 35463,16519 35746,16519 35746,19436 "/>
    <path class="fil0" d="M38121 19492c-238,0 -439,-45 -602,-134 -164,-90 -296,-209 -396,-357 -100,-148 -172,-315 -215,-500 -44,-185 -65,-375 -65,-570 0,-358 50,-671 150,-939 101,-269 245,-478 433,-628 189,-149 417,-224 686,-224 212,0 395,41 546,125 151,83 269,194 354,333 85,139 137,290 155,454l-458 0c-28,-161 -94,-284 -199,-371 -105,-86 -240,-129 -403,-129 -226,0 -411,105 -558,317 -147,211 -225,536 -234,974 74,-135 189,-251 345,-347 156,-96 336,-143 539,-143 183,0 353,43 512,129 159,87 289,208 389,364 100,156 151,340 151,553 0,188 -47,366 -139,533 -93,166 -223,301 -392,405 -168,103 -368,155 -599,155zm-28 -426c130,0 245,-28 347,-83 102,-56 182,-132 241,-230 59,-97 88,-207 88,-331 0,-197 -64,-355 -192,-472 -128,-117 -291,-176 -489,-176 -129,0 -246,29 -349,88 -104,59 -185,137 -243,234 -59,97 -88,204 -88,322 0,126 30,238 90,335 60,98 142,174 245,230 104,55 220,83 350,83z"/>
    <path id="1" class="fil0" d="M41154 19492c-294,0 -546,-70 -758,-211 -211,-140 -373,-336 -486,-588 -112,-251 -169,-544 -169,-877 0,-334 57,-626 169,-878 113,-251 275,-447 486,-588 212,-140 464,-210 758,-210 293,0 544,70 754,210 210,141 371,337 484,588 113,252 169,544 169,878 0,333 -56,626 -169,877 -113,252 -274,448 -484,588 -210,141 -461,211 -754,211zm0 -440c176,0 332,-49 470,-148 137,-99 244,-241 321,-426 77,-185 116,-406 116,-662 0,-257 -39,-477 -116,-662 -77,-186 -184,-328 -321,-426 -138,-99 -294,-148 -470,-148 -180,0 -337,49 -473,148 -136,98 -242,240 -319,426 -77,185 -116,405 -116,662 0,256 39,477 116,662 77,185 183,327 319,426 136,99 293,148 473,148z"/>
    <path id="2" class="fil0" d="M43006 19436l0 -352c210,-166 410,-334 602,-504 191,-170 362,-338 511,-503 150,-165 268,-327 355,-486 86,-159 129,-312 129,-460 0,-99 -17,-193 -51,-281 -34,-88 -89,-159 -167,-213 -77,-54 -180,-81 -310,-81 -194,0 -340,62 -437,186 -98,123 -145,271 -142,444l-476 0c3,-228 51,-420 145,-574 95,-155 221,-272 380,-352 159,-80 339,-120 540,-120 305,0 550,85 733,257 184,171 276,409 276,715 0,182 -44,363 -132,542 -88,179 -202,351 -343,516 -140,165 -291,320 -451,465 -161,145 -314,277 -458,394l1481 0 0 407 -2185 0z"/>
    <path class="fil0" d="M47558 19492c-238,0 -439,-45 -602,-134 -164,-90 -296,-209 -396,-357 -101,-148 -172,-315 -215,-500 -44,-185 -65,-375 -65,-570 0,-358 50,-671 150,-939 100,-269 245,-478 433,-628 188,-149 417,-224 685,-224 213,0 396,41 547,125 151,83 269,194 354,333 85,139 136,290 155,454l-458 0c-28,-161 -95,-284 -199,-371 -105,-86 -240,-129 -403,-129 -226,0 -412,105 -558,317 -147,211 -225,536 -234,974 74,-135 189,-251 345,-347 156,-96 336,-143 539,-143 182,0 353,43 512,129 159,87 289,208 389,364 100,156 150,340 150,553 0,188 -46,366 -139,533 -92,166 -223,301 -391,405 -168,103 -368,155 -599,155zm-28 -426c129,0 245,-28 347,-83 102,-56 182,-132 241,-230 59,-97 88,-207 88,-331 0,-197 -64,-355 -192,-472 -128,-117 -291,-176 -489,-176 -129,0 -246,29 -349,88 -104,59 -185,137 -244,234 -58,97 -87,204 -87,322 0,126 30,238 90,335 60,98 142,174 245,230 104,55 220,83 350,83z"/>
    <path id="1" class="fil0" d="M50590 19492c-293,0 -545,-70 -757,-211 -211,-140 -373,-336 -486,-588 -113,-251 -169,-544 -169,-877 0,-334 56,-626 169,-878 113,-251 275,-447 486,-588 212,-140 464,-210 757,-210 294,0 545,70 755,210 210,141 371,337 484,588 113,252 169,544 169,878 0,333 -56,626 -169,877 -113,252 -274,448 -484,588 -210,141 -461,211 -755,211zm0 -440c176,0 333,-49 470,-148 138,-99 245,-241 322,-426 77,-185 116,-406 116,-662 0,-257 -39,-477 -116,-662 -77,-186 -184,-328 -322,-426 -137,-99 -294,-148 -470,-148 -179,0 -336,49 -472,148 -136,98 -242,240 -319,426 -78,185 -116,405 -116,662 0,256 38,477 116,662 77,185 183,327 319,426 136,99 293,148 472,148z"/>
    <path id="2" class="fil0" d="M53581 19492c-210,0 -400,-38 -571,-114 -172,-75 -308,-190 -410,-345 -102,-154 -156,-347 -162,-578l486 0c6,173 66,318 178,437 113,119 273,179 479,179 198,0 349,-55 454,-165 105,-109 158,-246 158,-410 0,-197 -71,-344 -211,-440 -141,-95 -313,-143 -516,-143l-241 0 0 -408 245 0c182,0 330,-43 443,-129 112,-86 168,-209 168,-366 0,-133 -43,-241 -132,-324 -87,-83 -212,-125 -372,-125 -167,0 -298,49 -394,146 -96,97 -148,218 -157,363l-486 0c6,-188 53,-352 141,-490 88,-139 209,-248 363,-325 155,-77 332,-115 533,-115 216,0 397,37 544,113 146,76 258,177 333,306 76,128 114,267 114,419 0,173 -48,324 -144,453 -96,130 -224,217 -384,260 185,40 338,130 458,271 121,140 181,321 181,544 0,179 -42,343 -125,493 -84,150 -207,269 -371,359 -163,89 -364,134 -602,134z"/>
    <path class="fil0" d="M57398 19492c-237,0 -438,-45 -602,-134 -163,-90 -295,-209 -396,-357 -100,-148 -172,-315 -215,-500 -43,-185 -65,-375 -65,-570 0,-358 51,-671 151,-939 100,-269 244,-478 433,-628 188,-149 416,-224 685,-224 213,0 395,41 546,125 152,83 270,194 355,333 84,139 136,290 155,454l-459 0c-28,-161 -94,-284 -199,-371 -105,-86 -239,-129 -403,-129 -225,0 -411,105 -558,317 -146,211 -224,536 -233,974 74,-135 189,-251 344,-347 156,-96 336,-143 540,-143 182,0 353,43 512,129 159,87 288,208 388,364 101,156 151,340 151,553 0,188 -46,366 -139,533 -93,166 -223,301 -391,405 -168,103 -368,155 -600,155zm-27 -426c129,0 245,-28 347,-83 102,-56 182,-132 240,-230 59,-97 89,-207 89,-331 0,-197 -65,-355 -193,-472 -128,-117 -291,-176 -488,-176 -130,0 -246,29 -350,88 -103,59 -184,137 -243,234 -58,97 -88,204 -88,322 0,126 30,238 90,335 61,98 142,174 246,230 103,55 220,83 350,83z"/>
    <path id="1" class="fil0" d="M60431 19492c-293,0 -546,-70 -757,-211 -211,-140 -374,-336 -486,-588 -113,-251 -169,-544 -169,-877 0,-334 56,-626 169,-878 112,-251 275,-447 486,-588 211,-140 464,-210 757,-210 293,0 545,70 755,210 210,141 371,337 484,588 112,252 169,544 169,878 0,333 -57,626 -169,877 -113,252 -274,448 -484,588 -210,141 -462,211 -755,211zm0 -440c176,0 333,-49 470,-148 137,-99 245,-241 322,-426 77,-185 115,-406 115,-662 0,-257 -38,-477 -115,-662 -77,-186 -185,-328 -322,-426 -137,-99 -294,-148 -470,-148 -179,0 -336,49 -472,148 -136,98 -243,240 -320,426 -77,185 -115,405 -115,662 0,256 38,477 115,662 77,185 184,327 320,426 136,99 293,148 472,148z"/>
    <path id="2" class="fil0" d="M63862 19436l0 -648 -1625 0 0 -389 1546 -2204 565 0 0 2167 454 0 0 426 -454 0 0 648 -486 0zm-1093 -1074l1121 0 0 -1625 -1121 1625z"/>
    <path class="fil0" d="M67233 19492c-237,0 -438,-45 -602,-134 -163,-90 -295,-209 -396,-357 -100,-148 -172,-315 -215,-500 -43,-185 -65,-375 -65,-570 0,-358 51,-671 151,-939 100,-269 244,-478 433,-628 188,-149 416,-224 685,-224 213,0 395,41 546,125 152,83 270,194 355,333 84,139 136,290 155,454l-459 0c-28,-161 -94,-284 -199,-371 -105,-86 -239,-129 -403,-129 -225,0 -411,105 -558,317 -146,211 -224,536 -233,974 74,-135 189,-251 344,-347 156,-96 336,-143 540,-143 182,0 353,43 512,129 159,87 288,208 388,364 101,156 151,340 151,553 0,188 -46,366 -139,533 -93,166 -223,301 -391,405 -168,103 -368,155 -600,155zm-27 -426c129,0 245,-28 347,-83 102,-56 182,-132 240,-230 59,-97 89,-207 89,-331 0,-197 -65,-355 -193,-472 -128,-117 -291,-176 -488,-176 -130,0 -246,29 -350,88 -103,59 -184,137 -243,234 -58,97 -88,204 -88,322 0,126 30,238 90,335 61,98 142,174 246,230 103,55 220,83 350,83z"/>
    <path id="1" class="fil0" d="M70266 19492c-293,0 -546,-70 -757,-211 -211,-140 -374,-336 -486,-588 -113,-251 -169,-544 -169,-877 0,-334 56,-626 169,-878 112,-251 275,-447 486,-588 211,-140 464,-210 757,-210 293,0 545,70 755,210 210,141 371,337 484,588 112,252 169,544 169,878 0,333 -57,626 -169,877 -113,252 -274,448 -484,588 -210,141 -462,211 -755,211zm0 -440c176,0 333,-49 470,-148 137,-99 245,-241 322,-426 77,-185 115,-406 115,-662 0,-257 -38,-477 -115,-662 -77,-186 -185,-328 -322,-426 -137,-99 -294,-148 -470,-148 -179,0 -336,49 -472,148 -136,98 -243,240 -320,426 -77,185 -115,405 -115,662 0,256 38,477 115,662 77,185 184,327 320,426 136,99 293,148 472,148z"/>
    <path id="2" class="fil0" d="M73350 19492c-229,0 -426,-41 -593,-123 -167,-82 -299,-194 -396,-338 -97,-143 -156,-306 -178,-488l481 0c31,154 108,281 232,382 123,100 276,150 458,150 136,0 253,-33 352,-99 99,-67 176,-156 232,-267 55,-111 83,-236 83,-375 0,-219 -62,-394 -185,-525 -124,-131 -280,-197 -468,-197 -160,0 -298,38 -412,113 -114,76 -197,171 -250,285l-467 0 277 -1815 1750 0 0 431 -1379 0 -167 866c71,-81 169,-148 294,-202 125,-54 266,-81 424,-81 219,0 407,50 565,151 157,100 278,235 363,405 85,170 127,358 127,565 0,216 -46,412 -139,588 -92,176 -224,315 -395,419 -172,103 -375,155 -609,155z"/>
    <path class="fil0" d="M76691 19492c-237,0 -438,-45 -602,-134 -163,-90 -295,-209 -395,-357 -101,-148 -173,-315 -216,-500 -43,-185 -65,-375 -65,-570 0,-358 51,-671 151,-939 100,-269 245,-478 433,-628 188,-149 417,-224 685,-224 213,0 395,41 547,125 151,83 269,194 354,333 85,139 136,290 155,454l-459 0c-27,-161 -94,-284 -199,-371 -105,-86 -239,-129 -402,-129 -226,0 -412,105 -558,317 -147,211 -225,536 -234,974 74,-135 189,-251 345,-347 156,-96 335,-143 539,-143 182,0 353,43 512,129 159,87 288,208 389,364 100,156 150,340 150,553 0,188 -46,366 -139,533 -92,166 -223,301 -391,405 -168,103 -368,155 -600,155zm-27 -426c129,0 245,-28 347,-83 102,-56 182,-132 241,-230 58,-97 88,-207 88,-331 0,-197 -64,-355 -193,-472 -128,-117 -290,-176 -488,-176 -130,0 -246,29 -350,88 -103,59 -184,137 -243,234 -58,97 -88,204 -88,322 0,126 30,238 91,335 60,98 142,174 245,230 103,55 220,83 350,83z"/>
    <path id="1" class="fil0" d="M79724 19492c-293,0 -546,-70 -757,-211 -211,-140 -373,-336 -486,-588 -113,-251 -169,-544 -169,-877 0,-334 56,-626 169,-878 113,-251 275,-447 486,-588 211,-140 464,-210 757,-210 293,0 545,70 755,210 210,141 371,337 484,588 112,252 169,544 169,878 0,333 -57,626 -169,877 -113,252 -274,448 -484,588 -210,141 -462,211 -755,211zm0 -440c176,0 333,-49 470,-148 137,-99 245,-241 322,-426 77,-185 116,-406 116,-662 0,-257 -39,-477 -116,-662 -77,-186 -185,-328 -322,-426 -137,-99 -294,-148 -470,-148 -179,0 -336,49 -472,148 -136,98 -242,240 -320,426 -77,185 -115,405 -115,662 0,256 38,477 115,662 78,185 184,327 320,426 136,99 293,148 472,148z"/>
    <path id="2" class="fil0" d="M82868 19492c-238,0 -438,-45 -602,-134 -163,-90 -295,-209 -396,-357 -100,-148 -172,-315 -215,-500 -43,-185 -65,-375 -65,-570 0,-358 50,-671 151,-939 100,-269 244,-478 432,-628 189,-149 417,-224 686,-224 213,0 395,41 546,125 151,83 270,194 354,333 85,139 137,290 156,454l-459 0c-28,-161 -94,-284 -199,-371 -105,-86 -239,-129 -403,-129 -225,0 -411,105 -558,317 -146,211 -224,536 -234,974 74,-135 189,-251 345,-347 156,-96 336,-143 540,-143 182,0 352,43 511,129 159,87 289,208 389,364 101,156 151,340 151,553 0,188 -47,366 -139,533 -93,166 -223,301 -391,405 -169,103 -368,155 -600,155zm-28 -426c130,0 246,-28 347,-83 102,-56 183,-132 241,-230 59,-97 88,-207 88,-331 0,-197 -64,-355 -192,-472 -128,-117 -291,-176 -488,-176 -130,0 -247,29 -350,88 -103,59 -184,137 -243,234 -59,97 -88,204 -88,322 0,126 30,238 90,335 60,98 142,174 246,230 103,55 220,83 349,83z"/>
    <path class="fil0" d="M89127 19492c-238,0 -439,-45 -602,-134 -164,-90 -296,-209 -396,-357 -101,-148 -172,-315 -215,-500 -44,-185 -65,-375 -65,-570 0,-358 50,-671 150,-939 101,-269 245,-478 433,-628 188,-149 417,-224 685,-224 213,0 396,41 547,125 151,83 269,194 354,333 85,139 136,290 155,454l-458 0c-28,-161 -94,-284 -199,-371 -105,-86 -240,-129 -403,-129 -226,0 -412,105 -558,317 -147,211 -225,536 -234,974 74,-135 189,-251 345,-347 156,-96 336,-143 539,-143 183,0 353,43 512,129 159,87 289,208 389,364 100,156 150,340 150,553 0,188 -46,366 -138,533 -93,166 -224,301 -392,405 -168,103 -368,155 -599,155zm-28 -426c130,0 245,-28 347,-83 102,-56 182,-132 241,-230 59,-97 88,-207 88,-331 0,-197 -64,-355 -192,-472 -128,-117 -291,-176 -489,-176 -129,0 -246,29 -349,88 -104,59 -185,137 -244,234 -58,97 -87,204 -87,322 0,126 30,238 90,335 60,98 142,174 245,230 104,55 220,83 350,83z"/>
    <path id="1" class="fil0" d="M92159 19492c-293,0 -545,-70 -757,-211 -211,-140 -373,-336 -486,-588 -112,-251 -169,-544 -169,-877 0,-334 57,-626 169,-878 113,-251 275,-447 486,-588 212,-140 464,-210 757,-210 294,0 545,70 755,210 210,141 371,337 484,588 113,252 169,544 169,878 0,333 -56,626 -169,877 -113,252 -274,448 -484,588 -210,141 -461,211 -755,211zm0 -440c176,0 333,-49 470,-148 138,-99 245,-241 322,-426 77,-185 116,-406 116,-662 0,-257 -39,-477 -116,-662 -77,-186 -184,-328 -322,-426 -137,-99 -294,-148 -470,-148 -179,0 -336,49 -472,148 -136,98 -242,240 -319,426 -78,185 -116,405 -116,662 0,256 38,477 116,662 77,185 183,327 319,426 136,99 293,148 472,148z"/>
    <polygon id="2" class="fil0" points="94294,19436 95549,16616 93863,16616 93863,16195 96053,16195 96053,16552 94808,19436 "/>
    <path class="fil0" d="M14676 35336c-238,0 -438,-44 -602,-134 -163,-90 -295,-208 -396,-357 -100,-148 -172,-314 -215,-500 -43,-185 -65,-375 -65,-569 0,-358 50,-671 151,-940 100,-269 244,-478 432,-627 189,-150 417,-225 686,-225 213,0 395,42 546,125 151,83 270,195 354,333 85,139 137,291 156,454l-459 0c-28,-160 -94,-284 -199,-370 -105,-87 -239,-130 -403,-130 -225,0 -411,106 -558,317 -146,212 -224,537 -233,975 74,-136 188,-252 344,-347 156,-96 336,-144 540,-144 182,0 352,43 511,130 159,86 289,207 389,363 101,156 151,341 151,554 0,188 -46,365 -139,532 -93,167 -223,302 -391,405 -169,104 -368,155 -600,155zm-28 -426c130,0 246,-27 348,-83 101,-56 182,-132 240,-229 59,-97 88,-208 88,-331 0,-198 -64,-355 -192,-472 -128,-118 -291,-177 -488,-177 -130,0 -247,30 -350,88 -103,59 -184,137 -243,234 -59,97 -88,205 -88,322 0,127 30,239 90,336 60,97 142,173 246,229 103,56 220,83 349,83z"/>
    <polygon id="1" class="fil0" points="16746,35281 16746,32595 16223,32716 16223,32355 16940,32040 17255,32040 17255,35281 "/>
    <path id="2" class="fil0" d="M19390 35281l0 -648 -1626 0 0 -389 1547 -2204 565 0 0 2167 454 0 0 426 -454 0 0 648 -486 0zm-1093 -1074l1120 0 0 -1626 -1120 1626z"/>
    <path class="fil0" d="M36693 35336c-238,0 -438,-44 -602,-134 -163,-90 -295,-208 -396,-357 -100,-148 -172,-314 -215,-500 -43,-185 -65,-375 -65,-569 0,-358 50,-671 151,-940 100,-269 244,-478 432,-627 189,-150 417,-225 686,-225 213,0 395,42 546,125 151,83 270,195 354,333 85,139 137,291 156,454l-459 0c-28,-160 -94,-284 -199,-370 -105,-87 -239,-130 -403,-130 -225,0 -411,106 -558,317 -146,212 -224,537 -234,975 75,-136 189,-252 345,-347 156,-96 336,-144 540,-144 182,0 352,43 511,130 159,86 289,207 389,363 101,156 151,341 151,554 0,188 -47,365 -139,532 -93,167 -223,302 -391,405 -169,104 -368,155 -600,155zm-28 -426c130,0 246,-27 348,-83 101,-56 182,-132 240,-229 59,-97 88,-208 88,-331 0,-198 -64,-355 -192,-472 -128,-118 -291,-177 -488,-177 -130,0 -247,30 -350,88 -103,59 -184,137 -243,234 -59,97 -88,205 -88,322 0,127 30,239 90,336 60,97 142,173 246,229 103,56 220,83 349,83z"/>
    <polygon id="1" class="fil0" points="38763,35281 38763,32595 38240,32716 38240,32355 38957,32040 39272,32040 39272,35281 "/>
    <path id="2" class="fil0" d="M40967 35336c-210,0 -401,-38 -572,-113 -171,-76 -308,-191 -410,-345 -102,-154 -156,-347 -162,-579l486 0c6,173 66,319 178,438 113,119 273,178 480,178 197,0 348,-55 453,-164 105,-110 158,-247 158,-410 0,-198 -70,-344 -211,-440 -140,-96 -312,-144 -516,-144l-241 0 0 -407 246 0c182,0 329,-43 442,-130 112,-86 169,-208 169,-365 0,-133 -44,-241 -132,-325 -88,-83 -212,-125 -373,-125 -167,0 -298,49 -393,146 -96,97 -149,219 -158,364l-486 0c6,-189 53,-352 141,-491 88,-139 209,-247 364,-324 154,-77 331,-116 532,-116 216,0 398,38 544,113 147,76 258,178 333,306 76,128 114,268 114,419 0,173 -48,324 -144,454 -95,129 -223,216 -384,259 185,40 338,131 459,271 120,141 180,322 180,544 0,179 -42,343 -125,493 -83,150 -207,269 -370,359 -164,90 -365,134 -602,134z"/>
    <path class="fil0" d="M48856 35336c-238,0 -438,-44 -602,-134 -163,-90 -295,-208 -396,-357 -100,-148 -172,-314 -215,-500 -43,-185 -65,-375 -65,-569 0,-358 50,-671 151,-940 100,-269 244,-478 433,-627 188,-150 416,-225 685,-225 213,0 395,42 546,125 152,83 270,195 354,333 85,139 137,291 156,454l-459 0c-28,-160 -94,-284 -199,-370 -105,-87 -239,-130 -403,-130 -225,0 -411,106 -558,317 -146,212 -224,537 -233,975 74,-136 189,-252 344,-347 156,-96 336,-144 540,-144 182,0 353,43 512,130 158,86 288,207 388,363 101,156 151,341 151,554 0,188 -46,365 -139,532 -93,167 -223,302 -391,405 -168,104 -368,155 -600,155zm-28 -426c130,0 246,-27 348,-83 101,-56 182,-132 240,-229 59,-97 88,-208 88,-331 0,-198 -64,-355 -192,-472 -128,-118 -291,-177 -488,-177 -130,0 -246,30 -350,88 -103,59 -184,137 -243,234 -59,97 -88,205 -88,322 0,127 30,239 90,336 61,97 142,173 246,229 103,56 220,83 349,83z"/>
    <polygon id="1" class="fil0" points="50926,35281 50926,32595 50403,32716 50403,32355 51120,32040 51435,32040 51435,35281 "/>
    <path id="2" class="fil0" d="M52028 35281l0 -352c210,-167 410,-335 602,-505 191,-170 362,-337 511,-502 150,-165 268,-327 355,-486 86,-159 129,-313 129,-461 0,-99 -17,-192 -51,-280 -34,-88 -89,-159 -167,-213 -77,-54 -180,-81 -310,-81 -194,0 -340,61 -437,185 -97,123 -145,272 -142,445l-476 0c3,-229 51,-420 146,-575 94,-154 220,-271 379,-352 159,-80 339,-120 540,-120 305,0 550,86 734,257 183,171 275,410 275,715 0,183 -44,363 -132,542 -88,179 -202,351 -343,516 -140,166 -291,321 -451,466 -161,145 -313,276 -458,393l1481 0 0 408 -2185 0z"/>
    <path class="fil0" d="M59302 35336c-238,0 -438,-44 -602,-134 -163,-90 -295,-208 -396,-357 -100,-148 -172,-314 -215,-500 -43,-185 -65,-375 -65,-569 0,-358 50,-671 151,-940 100,-269 244,-478 433,-627 188,-150 416,-225 685,-225 213,0 395,42 546,125 152,83 270,195 354,333 85,139 137,291 156,454l-459 0c-28,-160 -94,-284 -199,-370 -105,-87 -239,-130 -403,-130 -225,0 -411,106 -558,317 -146,212 -224,537 -233,975 74,-136 189,-252 344,-347 156,-96 336,-144 540,-144 182,0 352,43 511,130 159,86 289,207 389,363 101,156 151,341 151,554 0,188 -46,365 -139,532 -93,167 -223,302 -391,405 -169,104 -368,155 -600,155zm-28 -426c130,0 246,-27 348,-83 101,-56 182,-132 240,-229 59,-97 88,-208 88,-331 0,-198 -64,-355 -192,-472 -128,-118 -291,-177 -488,-177 -130,0 -246,30 -350,88 -103,59 -184,137 -243,234 -59,97 -88,205 -88,322 0,127 30,239 90,336 60,97 142,173 246,229 103,56 220,83 349,83z"/>
    <polygon id="1" class="fil0" points="61372,35281 61372,32595 60849,32716 60849,32355 61566,32040 61881,32040 61881,35281 "/>
    <polygon id="2" class="fil0" points="62872,35281 62872,32595 62349,32716 62349,32355 63066,32040 63381,32040 63381,35281 "/>
    <path class="fil0" d="M67920 35336c-238,0 -438,-44 -602,-134 -163,-90 -295,-208 -396,-357 -100,-148 -172,-314 -215,-500 -43,-185 -65,-375 -65,-569 0,-358 50,-671 151,-940 100,-269 244,-478 433,-627 188,-150 416,-225 685,-225 213,0 395,42 546,125 152,83 270,195 354,333 85,139 137,291 156,454l-459 0c-28,-160 -94,-284 -199,-370 -105,-87 -239,-130 -403,-130 -225,0 -411,106 -558,317 -146,212 -224,537 -233,975 74,-136 189,-252 344,-347 156,-96 336,-144 540,-144 182,0 353,43 512,130 159,86 288,207 388,363 101,156 151,341 151,554 0,188 -46,365 -139,532 -93,167 -223,302 -391,405 -168,104 -368,155 -600,155zm-28 -426c130,0 246,-27 348,-83 101,-56 182,-132 240,-229 59,-97 88,-208 88,-331 0,-198 -64,-355 -192,-472 -128,-118 -291,-177 -488,-177 -130,0 -246,30 -350,88 -103,59 -184,137 -243,234 -59,97 -88,205 -88,322 0,127 30,239 90,336 61,97 142,173 246,229 103,56 220,83 349,83z"/>
    <polygon id="1" class="fil0" points="69990,35281 69990,32595 69467,32716 69467,32355 70184,32040 70499,32040 70499,35281 "/>
    <path id="2" class="fil0" d="M72453 35336c-293,0 -546,-70 -757,-210 -211,-141 -373,-337 -486,-588 -113,-252 -169,-544 -169,-878 0,-333 56,-626 169,-877 113,-252 275,-448 486,-588 211,-141 464,-211 757,-211 293,0 545,70 755,211 210,140 371,336 484,588 112,251 169,544 169,877 0,334 -57,626 -169,878 -113,251 -274,447 -484,588 -210,140 -462,210 -755,210zm0 -440c176,0 333,-49 470,-148 137,-98 245,-241 322,-426 77,-185 116,-406 116,-662 0,-256 -39,-477 -116,-662 -77,-185 -185,-327 -322,-426 -137,-99 -294,-148 -470,-148 -179,0 -336,49 -472,148 -136,99 -242,241 -320,426 -77,185 -115,406 -115,662 0,256 38,477 115,662 78,185 184,328 320,426 136,99 293,148 472,148z"/>
    <path class="fil0" d="M76792 35336c-238,0 -439,-44 -602,-134 -164,-90 -296,-208 -396,-357 -100,-148 -172,-314 -215,-500 -44,-185 -65,-375 -65,-569 0,-358 50,-671 150,-940 101,-269 245,-478 433,-627 189,-150 417,-225 686,-225 213,0 395,42 546,125 151,83 269,195 354,333 85,139 137,291 155,454l-458 0c-28,-160 -94,-284 -199,-370 -105,-87 -239,-130 -403,-130 -225,0 -411,106 -558,317 -147,212 -225,537 -234,975 74,-136 189,-252 345,-347 156,-96 336,-144 539,-144 183,0 353,43 512,130 159,86 289,207 389,363 100,156 151,341 151,554 0,188 -47,365 -139,532 -93,167 -223,302 -392,405 -168,104 -368,155 -599,155zm-28 -426c130,0 245,-27 347,-83 102,-56 182,-132 241,-229 59,-97 88,-208 88,-331 0,-198 -64,-355 -192,-472 -128,-118 -291,-177 -489,-177 -129,0 -246,30 -349,88 -104,59 -185,137 -243,234 -59,97 -88,205 -88,322 0,127 30,239 90,336 60,97 142,173 245,229 104,56 220,83 350,83z"/>
    <path id="1" class="fil0" d="M79825 35336c-294,0 -546,-70 -757,-210 -212,-141 -374,-337 -487,-588 -112,-252 -169,-544 -169,-878 0,-333 57,-626 169,-877 113,-252 275,-448 487,-588 211,-141 463,-211 757,-211 293,0 544,70 754,211 210,140 372,336 484,588 113,251 169,544 169,877 0,334 -56,626 -169,878 -112,251 -274,447 -484,588 -210,140 -461,210 -754,210zm0 -440c176,0 332,-49 470,-148 137,-98 244,-241 321,-426 77,-185 116,-406 116,-662 0,-256 -39,-477 -116,-662 -77,-185 -184,-327 -321,-426 -138,-99 -294,-148 -470,-148 -179,0 -337,49 -473,148 -136,99 -242,241 -319,426 -77,185 -116,406 -116,662 0,256 39,477 116,662 77,185 183,328 319,426 136,99 294,148 473,148z"/>
    <path id="2" class="fil0" d="M82867 35336c-213,0 -395,-41 -547,-125 -151,-83 -269,-194 -354,-333 -85,-139 -137,-290 -155,-454l458 0c28,161 94,284 199,371 105,86 240,129 403,129 226,0 412,-105 558,-317 147,-211 225,-536 234,-975 -74,136 -189,252 -345,348 -156,95 -336,143 -539,143 -182,0 -354,-43 -514,-129 -161,-87 -290,-208 -389,-364 -99,-156 -148,-340 -148,-553 0,-189 46,-366 139,-533 92,-166 222,-301 391,-405 168,-103 368,-155 599,-155 238,0 439,45 602,134 164,90 295,209 394,357 99,148 170,315 215,500 45,185 67,375 67,569 0,358 -50,672 -150,940 -100,269 -245,478 -433,628 -188,150 -417,224 -685,224zm23 -1634c129,0 245,-30 347,-88 102,-59 183,-137 243,-234 60,-97 90,-204 90,-322 0,-126 -30,-238 -90,-335 -60,-98 -142,-174 -245,-230 -104,-55 -220,-83 -350,-83 -130,0 -245,28 -347,83 -102,56 -183,132 -243,230 -60,97 -91,207 -91,331 0,197 65,355 195,472 130,117 293,176 491,176z"/>
    <path class="fil0" d="M89243 35336c-238,0 -438,-44 -602,-134 -164,-90 -295,-208 -396,-357 -100,-148 -172,-314 -215,-500 -43,-185 -65,-375 -65,-569 0,-358 50,-671 150,-940 101,-269 245,-478 433,-627 189,-150 417,-225 686,-225 213,0 395,42 546,125 151,83 269,195 354,333 85,139 137,291 155,454l-458 0c-28,-160 -94,-284 -199,-370 -105,-87 -239,-130 -403,-130 -225,0 -411,106 -558,317 -146,212 -224,537 -234,975 74,-136 189,-252 345,-347 156,-96 336,-144 540,-144 182,0 352,43 511,130 159,86 289,207 389,363 101,156 151,341 151,554 0,188 -47,365 -139,532 -93,167 -223,302 -391,405 -169,104 -369,155 -600,155zm-28 -426c130,0 246,-27 347,-83 102,-56 183,-132 241,-229 59,-97 88,-208 88,-331 0,-198 -64,-355 -192,-472 -128,-118 -291,-177 -488,-177 -130,0 -247,30 -350,88 -103,59 -184,137 -243,234 -59,97 -88,205 -88,322 0,127 30,239 90,336 60,97 142,173 246,229 103,56 219,83 349,83z"/>
    <path id="1" class="fil0" d="M92276 35336c-293,0 -546,-70 -757,-210 -212,-141 -374,-337 -486,-588 -113,-252 -170,-544 -170,-878 0,-333 57,-626 170,-877 112,-252 274,-448 486,-588 211,-141 464,-211 757,-211 293,0 545,70 755,211 209,140 371,336 483,588 113,251 169,544 169,877 0,334 -56,626 -169,878 -112,251 -274,447 -483,588 -210,140 -462,210 -755,210zm0 -440c176,0 332,-49 470,-148 137,-98 244,-241 321,-426 78,-185 116,-406 116,-662 0,-256 -38,-477 -116,-662 -77,-185 -184,-327 -321,-426 -138,-99 -294,-148 -470,-148 -179,0 -337,49 -472,148 -136,99 -243,241 -320,426 -77,185 -116,406 -116,662 0,256 39,477 116,662 77,185 184,328 320,426 135,99 293,148 472,148z"/>
    <path id="2" class="fil0" d="M95336 35336c-216,0 -411,-39 -585,-118 -175,-79 -314,-189 -417,-331 -104,-142 -155,-308 -155,-500 0,-194 55,-369 164,-523 110,-154 256,-259 438,-315 -164,-65 -291,-160 -380,-285 -90,-125 -134,-263 -134,-414 0,-157 41,-302 125,-433 83,-131 204,-236 363,-315 159,-79 353,-118 581,-118 229,0 422,39 581,118 159,79 281,184 364,315 83,131 125,276 125,433 0,148 -46,286 -137,414 -91,128 -218,223 -382,285 182,59 328,164 438,317 109,153 164,327 164,521 0,192 -51,358 -153,500 -102,142 -240,252 -414,331 -174,79 -370,118 -586,118zm0 -1944c179,0 321,-47 424,-139 103,-93 155,-212 155,-357 0,-163 -51,-288 -153,-375 -102,-86 -244,-130 -426,-130 -182,0 -324,44 -426,130 -102,87 -152,212 -152,375 0,145 50,264 152,357 102,92 244,139 426,139zm0 1528c222,0 389,-54 500,-160 111,-107 167,-243 167,-410 0,-185 -59,-328 -178,-428 -119,-100 -282,-151 -489,-151 -206,0 -370,51 -491,151 -120,100 -180,243 -180,428 0,167 56,303 169,410 113,106 280,160 502,160z"/>
   </g>
  </g>
 </g>
</svg>
