<?xml version="1.0" encoding="UTF-8"?>
<!DOCTYPE svg PUBLIC "-//W3C//DTD SVG 1.1//EN" "http://www.w3.org/Graphics/SVG/1.1/DTD/svg11.dtd">
<!-- Creator: CorelDRAW X8 -->
<svg xmlns="http://www.w3.org/2000/svg" xml:space="preserve" width="2.63664in" height="2.32256in" version="1.1" style="shape-rendering:geometricPrecision; text-rendering:geometricPrecision; image-rendering:optimizeQuality; fill-rule:evenodd; clip-rule:evenodd"
viewBox="0 0 121564 107083"
 xmlns:xlink="http://www.w3.org/1999/xlink">
 <defs>
  <style type="text/css">
   <![CDATA[
    .str0 {stroke:#373435;stroke-width:138.317}
    .fil4 {fill:none}
    .fil6 {fill:none;fill-rule:nonzero}
    .fil2 {fill:#FEFEFE}
    .fil3 {fill:#FEFEFE}
    .fil1 {fill:#E6E7E8}
    .fil7 {fill:#D2D3D5}
    .fil8 {fill:#373435}
    .fil5 {fill:#FEFEFE;fill-rule:nonzero}
    .fil0 {fill:#373435;fill-rule:nonzero}
   ]]>
  </style>
     <clipPath id="id0">
      <path d="M0 0l16445 0 0 15652 -16445 0 0 -15652z"/>
     </clipPath>
 </defs>
 <g id="Layer_x0020_1">
  <metadata id="CorelCorpID_0Corel-Layer"/>
  <g id="_2259895851440">
   <polygon class="fil0" points="37877,106940 37877,98363 39025,98363 39025,105933 43277,105933 43277,106940 "/>
   <polygon id="1" class="fil0" points="44669,106940 44669,98363 50914,98363 50914,99369 45817,99369 45817,102004 50588,102004 50588,103011 45817,103011 45817,105933 51120,105933 51120,106940 "/>
   <path id="2" class="fil0" d="M55167 106940l-3342 -8577 1240 0 2247 6233c179,499 332,966 453,1403 133,-469 288,-936 465,-1403l2332 -6233 1167 0 -3372 8577 -1190 0z"/>
   <polygon id="3" class="fil0" points="60784,106940 60784,98363 67030,98363 67030,99369 61932,99369 61932,102004 66704,102004 66704,103011 61932,103011 61932,105933 67235,105933 67235,106940 "/>
   <polygon id="4" class="fil0" points="68769,106940 68769,98363 69917,98363 69917,105933 74169,105933 74169,106940 "/>
   <path id="5" class="fil0" d="M78021 104664l1063 -144c123,599 328,1030 620,1294 292,263 651,395 1076,395 503,0 928,-172 1270,-515 342,-344 513,-769 513,-1276 0,-483 -159,-882 -479,-1198 -318,-313 -723,-471 -1216,-471 -201,0 -451,40 -751,118l119 -923c70,8 129,12 171,12 455,0 862,-118 1226,-351 363,-234 544,-593 544,-1078 0,-385 -133,-705 -397,-958 -264,-254 -604,-380 -1021,-380 -414,0 -759,130 -1034,390 -276,259 -453,648 -532,1167l-1063 -191c131,-707 425,-1256 886,-1645 459,-389 1033,-583 1717,-583 471,0 906,100 1303,301 399,200 703,473 912,819 211,347 316,715 316,1104 0,369 -101,705 -300,1008 -201,303 -499,545 -892,725 512,116 908,359 1192,729 282,367 423,830 423,1383 0,749 -276,1386 -826,1907 -551,521 -1248,780 -2090,780 -759,0 -1389,-225 -1890,-675 -504,-449 -789,-1030 -860,-1744z"/>
   <g>
    <path class="fil1" d="M0 0l121564 0 0 73429 -5336 6724 -19745 6617 -57102 0c71,-737 109,-1485 109,-2241 0,-12791 -10370,-23160 -23161,-23160 -6371,0 -12142,2574 -16329,6737l0 -68106z"/>
    <rect class="fil2" x="28067" y="45294" width="9081" height="3469"/>
    <rect class="fil2" x="52668" y="45131" width="5842" height="3632"/>
    <rect class="fil2" x="74927" y="45131" width="6131" height="3632"/>
    <rect class="fil2" x="97208" y="45131" width="5687" height="3632"/>
    <rect class="fil3" x="47142" y="45131" width="5525" height="3632"/>
    <rect class="fil2" x="68831" y="45131" width="6097" height="3632"/>
    <rect class="fil2" x="91373" y="45131" width="5835" height="3632"/>
    <rect class="fil2" x="21505" y="10050" width="12324" height="3632"/>
    <rect class="fil2" x="46838" y="10050" width="5752" height="3632"/>
    <rect class="fil2" x="52591" y="10050" width="11207" height="3632"/>
    <rect class="fil2" x="63797" y="10050" width="6128" height="3632"/>
    <rect class="fil2" x="79945" y="10050" width="6090" height="3632"/>
    <rect class="fil2" x="86035" y="10050" width="11168" height="3632"/>
    <rect class="fil2" x="97202" y="10050" width="5829" height="3632"/>
    <rect class="fil2 str0" x="21671" y="10245" width="928" height="928"/>
    <polyline class="fil4 str0" points="21666,13673 21671,10245 33657,10236 33647,11477 "/>
    <polyline class="fil4 str0" points="21505,13682 21505,10050 33829,10060 33829,11455 "/>
    <rect class="fil2 str0" x="32716" y="10245" width="947" height="928"/>
    <rect class="fil2 str0" x="47004" y="10245" width="928" height="928"/>
    <polyline class="fil4 str0" points="47004,11455 47004,10245 69739,10245 69739,11455 "/>
    <polyline class="fil4 str0" points="46838,11455 46838,10050 69925,10060 69925,11455 "/>
    <rect class="fil2 str0" x="57908" y="10245" width="928" height="928"/>
    <rect class="fil2 str0" x="68811" y="10245" width="928" height="928"/>
    <rect class="fil2 str0" x="47932" y="10520" width="9975.78" height="74.2042"/>
    <rect class="fil2 str0" x="58836" y="10520" width="9975.78" height="74.2042"/>
    <rect class="fil2 str0" x="22587" y="10520" width="10128.6" height="74.2042"/>
    <rect class="fil2 str0" x="80111" y="10245" width="928" height="928"/>
    <polyline class="fil4 str0" points="80111,11455 80111,10245 102846,10245 102846,11455 "/>
    <polyline class="fil4 str0" points="79945,11455 79945,10050 103032,10060 103032,11455 "/>
    <rect class="fil2 str0" x="91015" y="10245" width="928" height="928"/>
    <rect class="fil2 str0" x="101918" y="10245" width="928" height="928"/>
    <rect class="fil2 str0" x="81039" y="10520" width="9975.78" height="74.2042"/>
    <rect class="fil2 str0" x="91943" y="10520" width="9975.78" height="74.2042"/>
    <rect class="fil2 str0" x="21927" y="11180" width="66.7768" height="2508.8"/>
    <rect class="fil2 str0" x="52591" y="10594" width="89.0953" height="3087.76"/>
    <rect class="fil2 str0" x="63752" y="10594" width="89.0953" height="3110"/>
    <rect class="fil2 str0" x="85989" y="10594" width="89.0953" height="3090.76"/>
    <rect class="fil2 str0" x="97158" y="10594" width="89.0953" height="3090.76"/>
    <path class="fil2 str0" d="M11094 18246l5009 0 0 9731 -258 0 0 -1818c-1206,92 -1700,915 -1669,1818l-3082 0 0 -9731z"/>
    <polyline class="fil4 str0" points="32466,32747 32437,30813 36905,30813 36910,32747 "/>
    <polyline class="fil4 str0" points="32456,41168 32456,32747 36910,32747 36910,43754 32456,43754 32456,41168 "/>
    <polygon class="fil2 str0" points="32953,43185 36294,43185 36294,38561 32953,38561 32953,38702 32682,38702 32682,40765 32953,40765 "/>
    <polygon class="fil2 str0" points="32953,35347 32679,35347 32679,37551 32953,37551 32953,38011 36294,38011 36294,33343 32953,33343 "/>
    <path class="fil3 str0" d="M36907 30827l5325 0 0 1928c904,-156 1350,-585 1555,-1560l0 -368 8840 -11 8 14315 -4889 0 2 164 1446 -1c-105,948 -598,1422 -1431,1484l6 579 -11178 0 22 -2063 -1203 0 -5 -1540 1505 0 -3 -12927z"/>
    <path class="fil4" d="M52667 45131l5219 0 0 282 -1422 0c17,863 533,1407 1422,1477l6 445"/>
    <path class="fil2 str0" d="M63801 30827l-4465 0 0 532c16,523 -537,1274 -1605,1384l0 -1916 -5096 0 0 14304 5251 0 0 274 -1455 0c109,909 674,1514 1455,1492l4 437 830 12 5071 0 10 -16519z"/>
    <path class="fil2 str0" d="M69635 30827l5300 0 -8 14304 -3772 0c-67,895 -601,1344 -1512,1432l0 -1432 -208 0c0,1007 0,700 0,2234l-331 0 -5303 0 0 -16538 4228 -14 0 1930c1201,-143 1606,-886 1606,-1916z"/>
    <path class="fil2 str0" d="M109969 30798l-5530 18c38,919 -408,1870 -1670,1927l-10 -1917 -5549 1 0 14281 5069 0 -1 260 -1446 0c110,910 702,1479 1484,1455l0 0 0 534 539 0 10677 0 0 -13687 -3563 -22 0 -2850z"/>
    <path class="fil2 str0" d="M86069 30827l4438 -29c0,1114 329,1813 1605,1945l0 -1945 5090 29 8 14281 -5226 23 6 282 1442 0c0,880 -700,1475 -1445,1484l-3 437 -613 38 -5302 -7 0 -16538z"/>
    <path class="fil2 str0" d="M80198 30827l-5263 0 -8 14304 3751 0c67,895 601,1344 1512,1432l0 -1432 208 0c0,1007 0,700 0,2234l331 0 5340 0 0 -16538 -4266 -14 0 1930c-1201,-143 -1605,-886 -1605,-1916z"/>
    <line class="fil4 str0" x1="102187" y1="28014" x2="102188" y2= "27626" />
    <path class="fil2 str0" d="M102187 28014l-19 -2308 -4966 2 0 -12026 3338 0c-33,-744 701,-1445 1487,-1433l0 1433 417 0 -46 -2227 11601 0 -29 12269 -6642 -35 0 4325 -3259 0 -1 -1952c-1185,92 -1660,814 -1666,1952l-215 0z"/>
    <path class="fil2 str0" d="M74935 11455l5656 0c0,1125 0,2099 0,2230l185 0 0 -1436c912,88 1446,538 1513,1436l3780 0 0 14300 -5296 0 0 -398c-42,-853 -637,-1486 -1667,-1525l0 1923 -4171 0 0 -16530z"/>
    <path class="fil2 str0" d="M86031 13682l38 14303 4369 29 0 -393c-28,-782 596,-1449 1664,-1559l0 1952 5100 0 0 -14332 -5849 0 0 -1433c-1180,8 -1472,929 -1491,1433l-3831 0z"/>
    <path class="fil2 str0" d="M74935 11440l-5641 0c0,1127 0,2135 0,2264l-208 0 0 -1465c-922,88 -1457,547 -1514,1465l-3775 0 4 14281 5290 0 0 -398c43,-853 637,-1486 1667,-1525l0 1923 4177 0 0 -16545z"/>
    <path class="fil2 str0" d="M47442 11455l-5908 0 0 16559 4404 0 0 -427c42,-853 637,-1486 1667,-1525l0 1952 5062 0 -37 -14332 -5188 3 0 -328 1455 0c-55,-937 -758,-1402 -1455,-1449l0 -453z"/>
    <path class="fil2 str0" d="M63797 13704l4 14281 -4355 11 0 -409c-42,-853 -637,-1486 -1667,-1525l0 1939 -5112 13 -37 -14332 5879 11 0 -1436c917,34 1446,597 1483,1357l0 82 3805 8z"/>
    <path class="fil2 str0" d="M33184 11477l8350 -22 0 16559 -3581 0 0 -1952c-1030,39 -1625,672 -1667,1525l0 427 -3102 0 0 -16537z"/>
    <path class="fil2 str0" d="M33184 13682l-5946 0 0 -1425c-916,34 -1445,597 -1483,1357l0 68 -9650 0 -4 14332 10020 0 0 -427c42,-853 637,-1486 1667,-1525l0 1952 5396 0 0 -14332z"/>
    <path class="fil4 str0" d="M13626 30784l1 -483 -1842 0c136,-1131 876,-1730 1848,-1700l-7 -616"/>
    <path class="fil5 str0" d="M13603 20927l230 0c33,0 62,15 83,39 19,23 31,53 31,86l0 4090c0,33 -12,63 -31,86 -21,24 -50,39 -83,39l-230 0c-33,0 -62,-15 -83,-39 -19,-23 -31,-53 -31,-86l0 -4090c0,-33 12,-63 31,-86 21,-24 50,-39 83,-39zm230 94l-230 0c-4,0 -8,2 -11,6 -5,6 -8,15 -8,25l0 4090c0,10 3,19 8,25 3,3 7,6 11,6l230 0c5,0 9,-3 12,-6 5,-6 8,-15 8,-25l0 -4090c0,-10 -3,-19 -8,-25 -3,-4 -7,-6 -12,-6z"/>
    <path class="fil5 str0" d="M11406 20488c37,0 71,16 95,40 24,24 40,58 40,95l0 5469c0,37 -16,70 -40,95 -24,24 -58,40 -95,40l0 -95c11,0 21,-5 28,-12 8,-7 12,-17 12,-28l0 -5469c0,-11 -5,-21 -12,-28 -7,-8 -17,-12 -28,-12l0 -95z"/>
    <path class="fil4 str0" d="M11541 21052l1929 0m497 0l1929 0"/>
    <path class="fil5 str0" d="M16030 19991c-37,0 -71,15 -95,39 -24,25 -39,58 -39,95l0 5469c0,37 15,71 39,95 25,25 58,40 95,40l0 -95c-11,0 -21,-4 -28,-11 -7,-7 -12,-18 -12,-29l0 -5469c0,-11 5,-21 12,-28 7,-7 17,-12 28,-12l0 -94z"/>
    <path class="fil4 str0" d="M11541 21564l1929 0m497 0l1929 0"/>
    <path class="fil4 str0" d="M11541 22076l1929 0m497 0l1929 0"/>
    <path class="fil4 str0" d="M11541 22589l1929 0m497 0l1929 0"/>
    <path class="fil4 str0" d="M11541 23093l1929 0m497 0l1929 0"/>
    <path class="fil4 str0" d="M11541 23606l1929 0m497 0l1929 0"/>
    <path class="fil4 str0" d="M11541 24118l1929 0m497 0l1929 0"/>
    <path class="fil4 str0" d="M11541 24630l1929 0m497 0l1929 0"/>
    <path class="fil4 str0" d="M11541 25135l1929 0m497 0l1929 0"/>
    <rect class="fil2 str0" x="8099" y="34286" width="2969" height="6213"/>
    <polygon class="fil2 str0" points="8310,34429 11068,34429 11068,34584 8496,34584 8496,40201 11068,40201 11068,40356 8310,40356 "/>
    <path class="fil2 str0" d="M28752 30813l-5342 -15 0 1939c-1436,-198 -1655,-936 -1655,-1939l-10662 0 18 4594 -1450 0c88,917 543,1452 1450,1514l0 10424 17567 27 0 -452c864,-107 1234,-604 1242,-1381l-1242 0 0 -230 6732 0 -5 -1540 -2949 0 0 -2765 -3704 0 0 -10176z"/>
    <rect class="fil2 str0" x="8099" y="18247" width="2995" height="12974"/>
    <polygon class="fil2 str0" points="8266,19394 8381,19389 8402,30999 11068,30999 11068,31154 8266,31154 "/>
    <polygon class="fil2 str0" points="8099,18618 8205,18618 8192,31221 11094,31221 11094,31407 8099,31407 "/>
    <path class="fil2 str0" d="M107328 28014l-2 -243 2 -4082 7621 18 23 9963 -5003 -22 0 -5634 -438 0 0 -489c-118,-755 -765,-1348 -1709,-1481l0 1977 -494 -7z"/>
    <path class="fil6 str0" d="M112364 26159l230 0c33,0 62,15 83,40 19,22 31,52 31,85l0 4588c0,33 -12,63 -31,86 -21,24 -50,40 -83,40l-230 0c-33,0 -62,-16 -83,-40 -19,-23 -31,-53 -31,-86l0 -4588c0,-33 12,-63 31,-85 21,-25 50,-40 83,-40zm230 94l-230 0c-4,0 -8,3 -11,6 -5,6 -8,15 -8,25l0 4588c0,10 3,19 8,25 3,4 7,6 11,6l230 0c4,0 9,-2 12,-6 5,-6 8,-15 8,-25l0 -4588c0,-10 -3,-19 -8,-25 -3,-3 -8,-6 -12,-6z"/>
    <path class="fil6 str0" d="M110288 26218c37,0 71,16 95,40 24,24 40,58 40,95l0 5469c0,37 -16,70 -40,95 -24,24 -58,40 -95,40l0 -95c11,0 21,-4 28,-11 8,-8 12,-18 12,-29l0 -5469c0,-11 -4,-21 -12,-28 -7,-8 -17,-12 -28,-12l0 -95z"/>
    <path class="fil6 str0" d="M114660 25199c-37,0 -71,15 -95,39 -24,24 -39,58 -39,95l0 5469c0,37 15,71 39,95 25,25 58,40 95,40l0 -95c-11,0 -21,-4 -28,-11 -8,-8 -12,-17 -12,-29l0 -5469c0,-11 4,-21 12,-28 7,-7 17,-12 28,-12l0 -94z"/>
    <path class="fil4 str0" d="M110423 26782l1817 0m468 0l1818 0"/>
    <path class="fil4 str0" d="M110423 27294l1817 0m468 0l1818 0"/>
    <path class="fil4 str0" d="M110423 27807l1817 0m468 -1l1818 0"/>
    <path class="fil4 str0" d="M110423 28319l1817 0m468 0l1818 0"/>
    <path class="fil4 str0" d="M110423 28824l1817 0m468 -1l1818 0"/>
    <path class="fil4 str0" d="M110423 29336l1817 0m468 0l1818 0"/>
    <path class="fil4 str0" d="M110423 29848l1817 0m468 0l1818 0"/>
    <path class="fil4 str0" d="M110423 30360l1817 0m468 0l1818 0"/>
    <line class="fil4 str0" x1="112708" y1="26278" x2="114526" y2= "26278" />
    <polygon class="fil7" points="45909,77685 98846,77685 98846,75632 104955,75632 105438,76289 113520,70629 113045,69935 113045,60146 45909,60146 "/>
    <rect class="fil2 str0" x="47309" y="47639" width="928" height="928"/>
    <polyline class="fil4 str0" points="47308,47357 47308,48567 58343,48567 58323,47357 "/>
    <polyline class="fil4 str0" points="47142,47335 47142,48763 58509,48753 58509,47357 "/>
    <rect class="fil2 str0" x="57415" y="47639" width="928" height="928"/>
    <rect class="fil2 str0" x="68997" y="47639" width="928" height="928"/>
    <polyline class="fil4 str0" points="68997,47357 68997,48567 80873,48567 80873,47357 "/>
    <polyline class="fil4 str0" points="68831,47335 68831,48763 81058,48753 81058,47357 "/>
    <rect class="fil2 str0" x="79964" y="47639" width="928" height="928"/>
    <rect class="fil2 str0" x="28233" y="47639" width="928" height="928"/>
    <polyline class="fil4 str0" points="28233,47357 28233,48567 36962,48567 36962,47357 "/>
    <polyline class="fil4 str0" points="28067,47335 28067,48763 37147,48753 37147,47357 "/>
    <rect class="fil2 str0" x="36034" y="47639" width="928" height="928"/>
    <rect class="fil2 str0" x="91539" y="47639" width="928" height="928"/>
    <polyline class="fil4 str0" points="91539,47357 91539,48567 102710,48567 102710,47357 "/>
    <polyline class="fil4 str0" points="91373,47335 91373,48763 102895,48753 102895,47357 "/>
    <rect class="fil2 str0" x="101782" y="47639" width="928" height="928"/>
    <path class="fil4 str0" d="M102151 28014l-614 0 0 1893c-1219,-104 -1803,-797 -1952,-1893 -182,1201 -842,1817 -1945,1893l0 -1893 -438 0"/>
    <rect class="fil2 str0" x="52591" y="45164" width="89.0953" height="3347.16"/>
    <rect class="fil2 str0" x="74941" y="45164" width="89.0953" height="3347.16"/>
    <rect class="fil2 str0" x="97228" y="45164" width="89.0953" height="3347.16"/>
    <g>
    </g>
    <g style="clip-path:url(#id0)">
     <g>
      <g>
       <g>
        <rect class="fil8" x="8147" y="4236" width="903" height="4515"/>
        <polygon class="fil8" points="8598,3321 11237,5959 11237,7236 8598,4598 5960,7236 5960,5959 "/>
       </g>
       <polygon class="fil0" points="6345,15652 6345,10259 7331,10259 9866,14057 9866,10259 10852,10259 10852,15652 9866,15652 7331,11861 7331,15652 "/>
      </g>
     </g>
    </g>
    <polygon class="fil4" points="0,0 16445,0 16445,15652 0,15652 "/>
    <path class="fil0" d="M21822 21951c-242,0 -461,-43 -658,-130 -197,-87 -354,-219 -471,-397 -117,-177 -179,-399 -186,-665l559 0c7,198 75,366 205,503 129,137 313,205 551,205 227,0 401,-63 521,-189 121,-126 181,-283 181,-471 0,-228 -80,-396 -242,-506 -161,-110 -359,-165 -593,-165l-277 0 0 -469 282 0c209,0 379,-49 508,-149 130,-99 195,-239 195,-420 0,-153 -51,-277 -152,-373 -101,-96 -244,-144 -429,-144 -191,0 -342,56 -452,168 -110,112 -170,251 -181,418l-559 0c7,-216 61,-405 162,-564 102,-160 241,-284 418,-373 178,-89 382,-133 612,-133 249,0 457,43 626,130 169,87 296,204 383,352 87,147 131,308 131,482 0,198 -55,372 -165,521 -110,149 -258,249 -442,298 213,47 388,150 527,312 138,161 207,370 207,625 0,206 -47,395 -143,567 -96,172 -238,310 -426,413 -188,103 -419,154 -692,154z"/>
    <polygon id="1" class="fil0" points="24095,21887 24095,18800 23493,18938 23493,18523 24319,18161 24681,18161 24681,21887 "/>
    <path id="2" class="fil0" d="M26735 21951c-262,0 -489,-47 -681,-141 -192,-94 -343,-223 -455,-388 -112,-165 -180,-353 -205,-562l554 0c35,177 124,324 266,439 142,115 317,173 527,173 156,0 291,-38 404,-114 114,-77 203,-179 266,-306 64,-128 96,-272 96,-432 0,-252 -71,-453 -213,-604 -142,-151 -321,-226 -537,-226 -185,0 -343,43 -474,130 -131,87 -227,196 -288,328l-537 0 319 -2087 2012 0 0 495 -1586 0 -192 995c82,-92 195,-169 338,-231 144,-62 306,-93 488,-93 252,0 468,57 649,173 181,115 320,270 418,466 97,195 146,411 146,649 0,248 -53,474 -159,676 -107,202 -259,363 -456,482 -196,119 -430,178 -700,178z"/>
    <path class="fil0" d="M34684 21948c-230,0 -438,-41 -625,-124 -187,-82 -336,-208 -447,-377 -112,-168 -171,-379 -178,-632l532 0c6,189 71,348 194,478 123,130 298,195 524,195 215,0 381,-60 495,-180 115,-120 172,-269 172,-447 0,-216 -76,-376 -230,-481 -153,-104 -341,-157 -564,-157l-263 0 0 -445 268 0c199,0 360,-47 483,-141 124,-95 185,-228 185,-400 0,-145 -48,-263 -144,-354 -96,-91 -232,-136 -407,-136 -182,0 -326,53 -430,159 -105,106 -162,238 -172,397l-531 0c7,-206 58,-385 154,-536 96,-152 229,-270 397,-354 169,-85 362,-127 582,-127 236,0 434,42 594,124 160,83 282,194 364,334 83,140 124,293 124,458 0,189 -52,354 -157,495 -104,142 -244,236 -420,284 203,43 370,142 501,296 132,153 197,351 197,594 0,195 -45,375 -136,538 -91,164 -226,295 -405,392 -178,98 -398,147 -657,147z"/>
    <path id="1" class="fil0" d="M37961 21948c-320,0 -596,-77 -827,-230 -231,-154 -408,-368 -531,-642 -123,-275 -184,-595 -184,-959 0,-364 61,-683 184,-958 123,-275 300,-489 531,-643 231,-153 507,-230 827,-230 321,0 595,77 825,230 229,154 405,368 528,643 123,275 185,594 185,958 0,364 -62,684 -185,959 -123,274 -299,488 -528,642 -230,153 -504,230 -825,230zm0 -481c192,0 363,-53 514,-161 150,-108 267,-263 351,-466 84,-202 126,-443 126,-723 0,-280 -42,-521 -126,-723 -84,-202 -201,-357 -351,-465 -151,-108 -322,-162 -514,-162 -195,0 -367,54 -516,162 -148,108 -264,263 -349,465 -84,202 -126,443 -126,723 0,280 42,521 126,723 85,203 201,358 349,466 149,108 321,161 516,161z"/>
    <polygon id="2" class="fil0" points="40460,21887 40460,18954 39888,19085 39888,18691 40672,18347 41016,18347 41016,21887 "/>
    <path class="fil0" d="M43805 21951c-241,0 -461,-43 -657,-130 -197,-87 -355,-219 -472,-397 -117,-177 -179,-399 -186,-665l559 0c7,198 75,366 205,503 129,137 313,205 551,205 227,0 401,-63 522,-189 120,-126 181,-283 181,-471 0,-228 -81,-396 -243,-506 -161,-110 -359,-165 -593,-165l-277 0 0 -469 282 0c209,0 379,-49 509,-149 129,-99 194,-239 194,-420 0,-153 -51,-277 -152,-373 -101,-96 -244,-144 -428,-144 -192,0 -343,56 -453,168 -110,112 -170,251 -181,418l-559 0c7,-216 61,-405 162,-564 102,-160 241,-284 418,-373 178,-89 382,-133 613,-133 248,0 457,43 625,130 169,87 296,204 383,352 87,147 131,308 131,482 0,198 -55,372 -165,521 -110,149 -257,249 -442,298 213,47 389,150 527,312 138,161 208,370 208,625 0,206 -48,395 -144,567 -96,172 -238,310 -426,413 -188,103 -419,154 -692,154z"/>
    <path id="1" class="fil0" d="M47255 21951c-338,0 -628,-81 -871,-242 -243,-161 -429,-387 -559,-676 -129,-289 -194,-626 -194,-1009 0,-383 65,-719 194,-1009 130,-289 316,-514 559,-676 243,-161 533,-242 871,-242 337,0 626,81 867,242 242,162 427,387 557,676 129,290 194,626 194,1009 0,383 -65,720 -194,1009 -130,289 -315,515 -557,676 -241,161 -530,242 -867,242zm0 -505c202,0 382,-57 540,-171 158,-113 281,-277 370,-490 89,-213 133,-466 133,-761 0,-295 -44,-548 -133,-761 -89,-213 -212,-376 -370,-490 -158,-114 -338,-170 -540,-170 -206,0 -387,56 -543,170 -157,114 -279,277 -368,490 -89,213 -133,466 -133,761 0,295 44,548 133,761 89,213 211,377 368,490 156,114 337,171 543,171z"/>
    <path id="2" class="fil0" d="M49384 21887l0 -404c241,-192 472,-385 692,-581 220,-195 416,-387 588,-577 172,-190 308,-376 408,-559 99,-183 149,-359 149,-530 0,-113 -20,-221 -59,-322 -39,-101 -103,-183 -192,-245 -88,-62 -207,-93 -356,-93 -224,0 -391,71 -503,213 -112,142 -166,312 -163,511l-548 0c4,-263 59,-483 168,-660 108,-178 253,-312 436,-405 183,-92 390,-138 620,-138 352,0 633,98 844,295 211,197 317,472 317,823 0,209 -51,417 -152,623 -101,206 -232,404 -394,593 -161,190 -334,368 -519,535 -184,167 -360,318 -527,453l1704 0 0 468 -2513 0z"/>
    <path class="fil0" d="M54655 21951c-241,0 -460,-43 -657,-130 -197,-87 -354,-219 -471,-397 -118,-177 -180,-399 -187,-665l559 0c7,198 76,366 205,503 130,137 313,205 551,205 227,0 401,-63 522,-189 121,-126 181,-283 181,-471 0,-228 -81,-396 -242,-506 -162,-110 -360,-165 -594,-165l-277 0 0 -469 282 0c210,0 379,-49 509,-149 129,-99 194,-239 194,-420 0,-153 -50,-277 -152,-373 -101,-96 -244,-144 -428,-144 -192,0 -343,56 -453,168 -110,112 -170,251 -181,418l-559 0c7,-216 62,-405 163,-564 101,-160 240,-284 418,-373 177,-89 381,-133 612,-133 248,0 457,43 625,130 169,87 297,204 384,352 87,147 130,308 130,482 0,198 -55,372 -165,521 -110,149 -257,249 -442,298 213,47 389,150 527,312 139,161 208,370 208,625 0,206 -48,395 -144,567 -96,172 -238,310 -426,413 -188,103 -419,154 -692,154z"/>
    <path id="1" class="fil0" d="M58105 21951c-337,0 -627,-81 -871,-242 -243,-161 -429,-387 -558,-676 -130,-289 -195,-626 -195,-1009 0,-383 65,-719 195,-1009 129,-289 315,-514 558,-676 244,-161 534,-242 871,-242 337,0 626,81 868,242 241,162 426,387 556,676 129,290 194,626 194,1009 0,383 -65,720 -194,1009 -130,289 -315,515 -556,676 -242,161 -531,242 -868,242zm0 -505c202,0 382,-57 540,-171 158,-113 281,-277 370,-490 89,-213 133,-466 133,-761 0,-295 -44,-548 -133,-761 -89,-213 -212,-376 -370,-490 -158,-114 -338,-170 -540,-170 -206,0 -387,56 -543,170 -156,114 -279,277 -367,490 -89,213 -134,466 -134,761 0,295 45,548 134,761 88,213 211,377 367,490 156,114 337,171 543,171z"/>
    <path id="2" class="fil0" d="M61544 21951c-242,0 -461,-43 -658,-130 -197,-87 -354,-219 -471,-397 -117,-177 -179,-399 -186,-665l559 0c7,198 75,366 205,503 129,137 313,205 551,205 227,0 401,-63 522,-189 120,-126 181,-283 181,-471 0,-228 -81,-396 -243,-506 -161,-110 -359,-165 -593,-165l-277 0 0 -469 282 0c209,0 379,-49 509,-149 129,-99 194,-239 194,-420 0,-153 -51,-277 -152,-373 -101,-96 -244,-144 -429,-144 -191,0 -342,56 -452,168 -110,112 -170,251 -181,418l-559 0c7,-216 61,-405 162,-564 102,-160 241,-284 418,-373 178,-89 382,-133 612,-133 249,0 458,43 626,130 169,87 296,204 383,352 87,147 131,308 131,482 0,198 -55,372 -165,521 -110,149 -258,249 -442,298 213,47 388,150 527,312 138,161 207,370 207,625 0,206 -47,395 -143,567 -96,172 -238,310 -426,413 -188,103 -419,154 -692,154z"/>
    <path class="fil0" d="M65969 21951c-241,0 -460,-43 -657,-130 -197,-87 -354,-219 -471,-397 -117,-177 -180,-399 -187,-665l559 0c7,198 76,366 205,503 130,137 314,205 551,205 227,0 401,-63 522,-189 121,-126 181,-283 181,-471 0,-228 -81,-396 -242,-506 -162,-110 -360,-165 -594,-165l-277 0 0 -469 283 0c209,0 378,-49 508,-149 129,-99 194,-239 194,-420 0,-153 -50,-277 -152,-373 -101,-96 -244,-144 -428,-144 -192,0 -342,56 -452,168 -111,112 -171,251 -182,418l-559 0c8,-216 62,-405 163,-564 101,-160 240,-284 418,-373 177,-89 381,-133 612,-133 248,0 457,43 625,130 169,87 297,204 384,352 87,147 130,308 130,482 0,198 -55,372 -165,521 -110,149 -257,249 -442,298 213,47 389,150 527,312 139,161 208,370 208,625 0,206 -48,395 -144,567 -96,172 -237,310 -426,413 -188,103 -418,154 -692,154z"/>
    <path id="1" class="fil0" d="M69419 21951c-337,0 -627,-81 -870,-242 -244,-161 -430,-387 -559,-676 -130,-289 -195,-626 -195,-1009 0,-383 65,-719 195,-1009 129,-289 315,-514 559,-676 243,-161 533,-242 870,-242 337,0 626,81 868,242 241,162 426,387 556,676 130,290 194,626 194,1009 0,383 -64,720 -194,1009 -130,289 -315,515 -556,676 -242,161 -531,242 -868,242zm0 -505c202,0 382,-57 540,-171 158,-113 281,-277 370,-490 89,-213 133,-466 133,-761 0,-295 -44,-548 -133,-761 -89,-213 -212,-376 -370,-490 -158,-114 -338,-170 -540,-170 -206,0 -387,56 -543,170 -156,114 -279,277 -367,490 -89,213 -133,466 -133,761 0,295 44,548 133,761 88,213 211,377 367,490 156,114 337,171 543,171z"/>
    <path id="2" class="fil0" d="M73364 21887l0 -745 -1869 0 0 -447 1778 -2534 650 0 0 2491 521 0 0 490 -521 0 0 745 -559 0zm-1257 -1235l1289 0 0 -1868 -1289 1868z"/>
    <path class="fil0" d="M76878 21951c-241,0 -460,-43 -657,-130 -197,-87 -355,-219 -472,-397 -117,-177 -179,-399 -186,-665l559 0c7,198 76,366 205,503 130,137 313,205 551,205 227,0 401,-63 522,-189 120,-126 181,-283 181,-471 0,-228 -81,-396 -242,-506 -162,-110 -360,-165 -594,-165l-277 0 0 -469 282 0c210,0 379,-49 509,-149 129,-99 194,-239 194,-420 0,-153 -51,-277 -152,-373 -101,-96 -244,-144 -428,-144 -192,0 -343,56 -453,168 -110,112 -170,251 -181,418l-559 0c7,-216 61,-405 162,-564 102,-160 241,-284 419,-373 177,-89 381,-133 612,-133 248,0 457,43 625,130 169,87 297,204 383,352 87,147 131,308 131,482 0,198 -55,372 -165,521 -110,149 -257,249 -442,298 213,47 389,150 527,312 138,161 208,370 208,625 0,206 -48,395 -144,567 -96,172 -238,310 -426,413 -188,103 -419,154 -692,154z"/>
    <path id="1" class="fil0" d="M80328 21951c-337,0 -628,-81 -871,-242 -243,-161 -429,-387 -559,-676 -129,-289 -194,-626 -194,-1009 0,-383 65,-719 194,-1009 130,-289 316,-514 559,-676 243,-161 534,-242 871,-242 337,0 626,81 867,242 242,162 427,387 557,676 129,290 194,626 194,1009 0,383 -65,720 -194,1009 -130,289 -315,515 -557,676 -241,161 -530,242 -867,242zm0 -505c202,0 382,-57 540,-171 158,-113 281,-277 370,-490 89,-213 133,-466 133,-761 0,-295 -44,-548 -133,-761 -89,-213 -212,-376 -370,-490 -158,-114 -338,-170 -540,-170 -206,0 -387,56 -543,170 -157,114 -279,277 -368,490 -88,213 -133,466 -133,761 0,295 45,548 133,761 89,213 211,377 368,490 156,114 337,171 543,171z"/>
    <path id="2" class="fil0" d="M83873 21951c-263,0 -490,-47 -681,-141 -192,-94 -344,-223 -455,-388 -112,-165 -181,-353 -205,-562l553 0c36,177 124,324 266,439 142,115 318,173 527,173 157,0 291,-38 405,-114 114,-77 202,-179 266,-306 64,-128 96,-272 96,-432 0,-252 -71,-453 -213,-604 -142,-151 -321,-226 -538,-226 -184,0 -342,43 -473,130 -132,87 -228,196 -288,328l-537 0 319 -2087 2012 0 0 495 -1586 0 -192 995c82,-92 194,-169 338,-231 144,-62 306,-93 487,-93 252,0 469,57 650,173 181,115 320,270 418,466 97,195 146,411 146,649 0,248 -53,474 -160,676 -106,202 -258,363 -455,482 -197,119 -430,178 -700,178z"/>
    <path class="fil0" d="M87852 21951c-241,0 -460,-43 -657,-130 -197,-87 -354,-219 -471,-397 -117,-177 -180,-399 -187,-665l559 0c7,198 76,366 205,503 130,137 314,205 551,205 227,0 401,-63 522,-189 121,-126 181,-283 181,-471 0,-228 -81,-396 -242,-506 -162,-110 -360,-165 -594,-165l-277 0 0 -469 283 0c209,0 378,-49 508,-149 129,-99 194,-239 194,-420 0,-153 -50,-277 -152,-373 -101,-96 -244,-144 -428,-144 -192,0 -342,56 -452,168 -111,112 -171,251 -182,418l-559 0c8,-216 62,-405 163,-564 101,-160 240,-284 418,-373 177,-89 381,-133 612,-133 248,0 457,43 625,130 169,87 297,204 384,352 87,147 130,308 130,482 0,198 -55,372 -165,521 -110,149 -257,249 -442,298 213,47 389,150 527,312 139,161 208,370 208,625 0,206 -48,395 -144,567 -96,172 -238,310 -426,413 -188,103 -419,154 -692,154z"/>
    <path id="1" class="fil0" d="M91302 21951c-337,0 -627,-81 -871,-242 -243,-161 -429,-387 -558,-676 -130,-289 -195,-626 -195,-1009 0,-383 65,-719 195,-1009 129,-289 315,-514 558,-676 244,-161 534,-242 871,-242 337,0 626,81 868,242 241,162 426,387 556,676 129,290 194,626 194,1009 0,383 -65,720 -194,1009 -130,289 -315,515 -556,676 -242,161 -531,242 -868,242zm0 -505c202,0 382,-57 540,-171 158,-113 281,-277 370,-490 89,-213 133,-466 133,-761 0,-295 -44,-548 -133,-761 -89,-213 -212,-376 -370,-490 -158,-114 -338,-170 -540,-170 -206,0 -387,56 -543,170 -156,114 -279,277 -367,490 -89,213 -133,466 -133,761 0,295 44,548 133,761 88,213 211,377 367,490 156,114 337,171 543,171z"/>
    <path id="2" class="fil0" d="M94917 21951c-274,0 -504,-51 -692,-154 -189,-103 -340,-240 -456,-410 -115,-170 -198,-362 -247,-575 -50,-213 -75,-431 -75,-655 0,-412 58,-772 173,-1080 116,-309 282,-550 498,-722 217,-172 479,-258 788,-258 245,0 454,48 628,144 174,95 310,223 407,383 98,160 157,334 179,522l-527 0c-32,-185 -109,-327 -229,-426 -121,-100 -275,-149 -463,-149 -260,0 -473,121 -642,364 -168,244 -258,617 -269,1121 85,-156 218,-289 397,-399 179,-110 386,-165 620,-165 210,0 406,49 588,149 183,99 332,238 447,418 116,179 174,391 174,636 0,216 -54,420 -160,612 -107,192 -257,347 -450,466 -193,119 -423,178 -689,178zm-32 -490c149,0 282,-31 399,-95 117,-64 209,-152 277,-264 67,-112 101,-239 101,-381 0,-227 -74,-408 -221,-542 -147,-135 -334,-203 -562,-203 -149,0 -283,34 -402,101 -119,68 -212,157 -279,269 -68,112 -101,235 -101,370 0,146 34,274 104,386 69,112 163,200 282,264 119,64 252,95 402,95z"/>
    <path class="fil0" d="M102449 21951c-241,0 -460,-43 -657,-130 -197,-87 -354,-219 -472,-397 -117,-177 -179,-399 -186,-665l559 0c7,198 76,366 205,503 130,137 313,205 551,205 227,0 401,-63 522,-189 121,-126 181,-283 181,-471 0,-228 -81,-396 -242,-506 -162,-110 -360,-165 -594,-165l-277 0 0 -469 282 0c210,0 379,-49 509,-149 129,-99 194,-239 194,-420 0,-153 -50,-277 -152,-373 -101,-96 -244,-144 -428,-144 -192,0 -343,56 -453,168 -110,112 -170,251 -181,418l-559 0c7,-216 61,-405 163,-564 101,-160 240,-284 418,-373 177,-89 381,-133 612,-133 248,0 457,43 625,130 169,87 297,204 384,352 87,147 130,308 130,482 0,198 -55,372 -165,521 -110,149 -257,249 -442,298 213,47 389,150 527,312 139,161 208,370 208,625 0,206 -48,395 -144,567 -96,172 -238,310 -426,413 -188,103 -419,154 -692,154z"/>
    <path id="1" class="fil0" d="M105899 21951c-337,0 -628,-81 -871,-242 -243,-161 -429,-387 -559,-676 -129,-289 -194,-626 -194,-1009 0,-383 65,-719 194,-1009 130,-289 316,-514 559,-676 243,-161 534,-242 871,-242 337,0 626,81 868,242 241,162 426,387 556,676 129,290 194,626 194,1009 0,383 -65,720 -194,1009 -130,289 -315,515 -556,676 -242,161 -531,242 -868,242zm0 -505c202,0 382,-57 540,-171 158,-113 281,-277 370,-490 89,-213 133,-466 133,-761 0,-295 -44,-548 -133,-761 -89,-213 -212,-376 -370,-490 -158,-114 -338,-170 -540,-170 -206,0 -387,56 -543,170 -157,114 -279,277 -368,490 -88,213 -133,466 -133,761 0,295 45,548 133,761 89,213 211,377 368,490 156,114 337,171 543,171z"/>
    <polygon id="2" class="fil0" points="108353,21887 109796,18645 107858,18645 107858,18161 110376,18161 110376,18571 108944,21887 "/>
    <path class="fil0" d="M16991 39951c-241,0 -460,-44 -657,-131 -197,-87 -354,-219 -471,-397 -117,-177 -179,-399 -187,-665l559 0c7,199 76,367 205,503 130,137 314,205 551,205 227,0 401,-63 522,-189 121,-126 181,-283 181,-471 0,-227 -81,-396 -242,-506 -162,-110 -359,-165 -594,-165l-276 0 0 -468 282 0c209,0 378,-50 508,-149 129,-100 194,-240 194,-421 0,-153 -50,-277 -151,-373 -102,-95 -244,-143 -429,-143 -192,0 -342,56 -452,167 -111,112 -171,251 -182,418l-558 0c7,-216 61,-404 162,-564 101,-160 240,-284 418,-373 177,-88 381,-133 612,-133 248,0 457,44 625,131 169,87 297,204 384,351 87,147 130,308 130,482 0,199 -55,373 -165,522 -110,149 -257,248 -442,298 213,46 389,150 527,311 139,162 208,370 208,626 0,206 -48,394 -144,567 -95,172 -237,309 -426,412 -188,103 -418,155 -692,155z"/>
    <polygon id="1" class="fil0" points="19265,39887 19265,36799 18663,36937 18663,36522 19488,36160 19850,36160 19850,39887 "/>
    <path id="2" class="fil0" d="M22304 39887l0 -746 -1868 0 0 -447 1778 -2534 649 0 0 2492 522 0 0 489 -522 0 0 746 -559 0zm-1256 -1235l1288 0 0 -1869 -1288 1869z"/>
    <path class="fil0" d="M41591 39951c-242,0 -461,-44 -658,-131 -197,-87 -354,-219 -471,-397 -117,-177 -179,-399 -186,-665l559 0c7,199 75,367 205,503 129,137 313,205 551,205 227,0 401,-63 522,-189 120,-126 180,-283 180,-471 0,-227 -80,-396 -242,-506 -161,-110 -359,-165 -593,-165l-277 0 0 -468 282 0c209,0 379,-50 508,-149 130,-100 195,-240 195,-421 0,-153 -51,-277 -152,-373 -101,-95 -244,-143 -429,-143 -191,0 -342,56 -452,167 -110,112 -170,251 -181,418l-559 0c7,-216 61,-404 162,-564 102,-160 241,-284 418,-373 178,-88 382,-133 612,-133 249,0 457,44 626,131 169,87 296,204 383,351 87,147 131,308 131,482 0,199 -55,373 -165,522 -110,149 -258,248 -442,298 213,46 388,150 527,311 138,162 207,370 207,626 0,206 -47,394 -143,567 -96,172 -238,309 -426,412 -188,103 -419,155 -692,155z"/>
    <polygon id="1" class="fil0" points="43864,39887 43864,36799 43262,36937 43262,36522 44088,36160 44450,36160 44450,39887 "/>
    <path id="2" class="fil0" d="M46398 39951c-241,0 -461,-44 -657,-131 -197,-87 -355,-219 -472,-397 -117,-177 -179,-399 -186,-665l559 0c7,199 75,367 205,503 129,137 313,205 551,205 227,0 401,-63 522,-189 120,-126 181,-283 181,-471 0,-227 -81,-396 -243,-506 -161,-110 -359,-165 -593,-165l-277 0 0 -468 282 0c209,0 379,-50 509,-149 129,-100 194,-240 194,-421 0,-153 -51,-277 -152,-373 -101,-95 -244,-143 -428,-143 -192,0 -343,56 -453,167 -110,112 -170,251 -181,418l-559 0c7,-216 61,-404 162,-564 102,-160 241,-284 418,-373 178,-88 382,-133 613,-133 248,0 457,44 625,131 169,87 296,204 383,351 87,147 131,308 131,482 0,199 -55,373 -165,522 -110,149 -257,248 -442,298 213,46 389,150 527,311 138,162 208,370 208,626 0,206 -48,394 -144,567 -96,172 -238,309 -426,412 -188,103 -419,155 -692,155z"/>
    <path class="fil0" d="M55749 39951c-241,0 -460,-44 -657,-131 -197,-87 -355,-219 -472,-397 -117,-177 -179,-399 -186,-665l559 0c7,199 76,367 205,503 130,137 313,205 551,205 227,0 401,-63 522,-189 120,-126 181,-283 181,-471 0,-227 -81,-396 -242,-506 -162,-110 -360,-165 -594,-165l-277 0 0 -468 282 0c210,0 379,-50 509,-149 129,-100 194,-240 194,-421 0,-153 -50,-277 -152,-373 -101,-95 -244,-143 -428,-143 -192,0 -343,56 -453,167 -110,112 -170,251 -181,418l-559 0c7,-216 61,-404 163,-564 101,-160 240,-284 418,-373 177,-88 381,-133 612,-133 248,0 457,44 625,131 169,87 297,204 384,351 86,147 130,308 130,482 0,199 -55,373 -165,522 -110,149 -257,248 -442,298 213,46 389,150 527,311 138,162 208,370 208,626 0,206 -48,394 -144,567 -96,172 -238,309 -426,412 -188,103 -419,155 -692,155z"/>
    <polygon id="1" class="fil0" points="58022,39887 58022,36799 57421,36937 57421,36522 58246,36160 58608,36160 58608,39887 "/>
    <path id="2" class="fil0" d="M59289 39887l0 -405c241,-192 472,-385 692,-580 220,-195 416,-388 589,-578 172,-190 307,-376 407,-559 99,-182 149,-359 149,-529 0,-114 -20,-221 -59,-323 -39,-101 -103,-182 -191,-244 -89,-62 -208,-94 -357,-94 -224,0 -391,71 -503,213 -112,142 -166,313 -163,512l-548 0c4,-263 60,-483 168,-661 108,-177 254,-312 436,-404 183,-92 390,-139 621,-139 351,0 632,99 843,296 212,197 317,471 317,822 0,210 -50,417 -152,623 -101,206 -232,404 -393,594 -162,190 -335,368 -520,535 -184,167 -360,317 -527,452l1704 0 0 469 -2513 0z"/>
    <path class="fil0" d="M67806 39951c-241,0 -461,-44 -658,-131 -196,-87 -354,-219 -471,-397 -117,-177 -179,-399 -186,-665l559 0c7,199 75,367 205,503 129,137 313,205 551,205 227,0 401,-63 522,-189 120,-126 181,-283 181,-471 0,-227 -81,-396 -243,-506 -161,-110 -359,-165 -593,-165l-277 0 0 -468 282 0c209,0 379,-50 509,-149 129,-100 194,-240 194,-421 0,-153 -51,-277 -152,-373 -101,-95 -244,-143 -429,-143 -191,0 -342,56 -452,167 -110,112 -170,251 -181,418l-559 0c7,-216 61,-404 162,-564 102,-160 241,-284 418,-373 178,-88 382,-133 612,-133 249,0 458,44 626,131 169,87 296,204 383,351 87,147 131,308 131,482 0,199 -55,373 -165,522 -110,149 -258,248 -442,298 213,46 389,150 527,311 138,162 207,370 207,626 0,206 -47,394 -143,567 -96,172 -238,309 -426,412 -188,103 -419,155 -692,155z"/>
    <polygon id="1" class="fil0" points="70079,39887 70079,36799 69478,36937 69478,36522 70303,36160 70665,36160 70665,39887 "/>
    <polygon id="2" class="fil0" points="71804,39887 71804,36799 71202,36937 71202,36522 72028,36160 72389,36160 72389,39887 "/>
    <path class="fil0" d="M77690 39951c-242,0 -461,-44 -658,-131 -197,-87 -354,-219 -471,-397 -117,-177 -179,-399 -186,-665l559 0c7,199 75,367 205,503 129,137 313,205 551,205 227,0 401,-63 521,-189 121,-126 181,-283 181,-471 0,-227 -80,-396 -242,-506 -161,-110 -359,-165 -593,-165l-277 0 0 -468 282 0c209,0 379,-50 508,-149 130,-100 195,-240 195,-421 0,-153 -51,-277 -152,-373 -101,-95 -244,-143 -429,-143 -191,0 -342,56 -452,167 -110,112 -170,251 -181,418l-559 0c7,-216 61,-404 162,-564 102,-160 241,-284 418,-373 178,-88 382,-133 612,-133 249,0 457,44 626,131 168,87 296,204 383,351 87,147 131,308 131,482 0,199 -55,373 -165,522 -110,149 -258,248 -442,298 213,46 388,150 527,311 138,162 207,370 207,626 0,206 -47,394 -143,567 -96,172 -238,309 -426,412 -188,103 -419,155 -692,155z"/>
    <polygon id="1" class="fil0" points="79963,39887 79963,36799 79361,36937 79361,36522 80187,36160 80549,36160 80549,39887 "/>
    <path id="2" class="fil0" d="M82795 39951c-337,0 -627,-81 -870,-243 -243,-161 -430,-387 -559,-676 -130,-289 -195,-625 -195,-1009 0,-383 65,-719 195,-1008 129,-290 316,-515 559,-676 243,-162 533,-243 870,-243 337,0 626,81 868,243 241,161 427,386 556,676 130,289 194,625 194,1008 0,384 -64,720 -194,1009 -129,289 -315,515 -556,676 -242,162 -531,243 -868,243zm0 -506c202,0 382,-57 540,-171 158,-113 282,-276 370,-489 89,-213 133,-467 133,-762 0,-294 -44,-548 -133,-761 -88,-213 -212,-376 -370,-490 -158,-113 -338,-170 -540,-170 -206,0 -387,57 -543,170 -156,114 -279,277 -367,490 -89,213 -133,467 -133,761 0,295 44,549 133,762 88,213 211,376 367,489 156,114 337,171 543,171z"/>
    <path class="fil0" d="M87852 39951c-241,0 -460,-44 -657,-131 -197,-87 -354,-219 -471,-397 -117,-177 -180,-399 -187,-665l559 0c7,199 76,367 205,503 130,137 314,205 551,205 227,0 401,-63 522,-189 121,-126 181,-283 181,-471 0,-227 -81,-396 -242,-506 -162,-110 -360,-165 -594,-165l-277 0 0 -468 283 0c209,0 378,-50 508,-149 129,-100 194,-240 194,-421 0,-153 -50,-277 -152,-373 -101,-95 -244,-143 -428,-143 -192,0 -342,56 -452,167 -111,112 -171,251 -182,418l-559 0c8,-216 62,-404 163,-564 101,-160 240,-284 418,-373 177,-88 381,-133 612,-133 248,0 457,44 625,131 169,87 297,204 384,351 87,147 130,308 130,482 0,199 -55,373 -165,522 -110,149 -257,248 -442,298 213,46 389,150 527,311 139,162 208,370 208,626 0,206 -48,394 -144,567 -96,172 -238,309 -426,412 -188,103 -419,155 -692,155z"/>
    <path id="1" class="fil0" d="M91302 39951c-337,0 -627,-81 -871,-243 -243,-161 -429,-387 -558,-676 -130,-289 -195,-625 -195,-1009 0,-383 65,-719 195,-1008 129,-290 315,-515 558,-676 244,-162 534,-243 871,-243 337,0 626,81 868,243 241,161 426,386 556,676 129,289 194,625 194,1008 0,384 -65,720 -194,1009 -130,289 -315,515 -556,676 -242,162 -531,243 -868,243zm0 -506c202,0 382,-57 540,-171 158,-113 281,-276 370,-489 89,-213 133,-467 133,-762 0,-294 -44,-548 -133,-761 -89,-213 -212,-376 -370,-490 -158,-113 -338,-170 -540,-170 -206,0 -387,57 -543,170 -156,114 -279,277 -367,490 -89,213 -133,467 -133,761 0,295 44,549 133,762 88,213 211,376 367,489 156,114 337,171 543,171z"/>
    <path id="2" class="fil0" d="M94799 39951c-244,0 -454,-48 -628,-144 -174,-96 -309,-224 -407,-384 -98,-159 -157,-333 -178,-521l527 0c32,184 108,326 229,426 120,99 275,149 463,149 259,0 473,-122 641,-365 169,-243 258,-616 269,-1121 -85,157 -217,290 -396,400 -180,110 -386,165 -621,165 -209,0 -406,-50 -591,-149 -184,-100 -333,-239 -447,-418 -113,-179 -170,-391 -170,-636 0,-217 53,-421 160,-613 106,-191 256,-346 449,-465 194,-119 424,-179 690,-179 273,0 504,52 692,155 188,103 339,239 452,410 114,170 196,362 248,575 51,213 77,431 77,654 0,412 -57,772 -173,1081 -115,309 -281,549 -498,721 -216,173 -479,259 -788,259zm27 -1880c149,0 282,-33 399,-101 117,-67 211,-157 280,-269 69,-111 104,-235 104,-370 0,-145 -35,-274 -104,-386 -69,-111 -163,-199 -282,-263 -119,-64 -253,-96 -402,-96 -149,0 -282,32 -400,96 -117,64 -210,152 -279,263 -69,112 -104,239 -104,381 0,227 75,408 224,543 149,135 337,202 564,202z"/>
    <path class="fil0" d="M102194 39951c-242,0 -461,-44 -658,-131 -197,-87 -354,-219 -471,-397 -117,-177 -179,-399 -186,-665l559 0c7,199 75,367 204,503 130,137 314,205 552,205 227,0 401,-63 521,-189 121,-126 181,-283 181,-471 0,-227 -81,-396 -242,-506 -161,-110 -359,-165 -594,-165l-276 0 0 -468 282 0c209,0 379,-50 508,-149 130,-100 194,-240 194,-421 0,-153 -50,-277 -151,-373 -101,-95 -244,-143 -429,-143 -191,0 -342,56 -452,167 -110,112 -171,251 -181,418l-559 0c7,-216 61,-404 162,-564 101,-160 240,-284 418,-373 177,-88 382,-133 612,-133 249,0 457,44 626,131 168,87 296,204 383,351 87,147 130,308 130,482 0,199 -55,373 -165,522 -110,149 -257,248 -442,298 213,46 389,150 528,311 138,162 207,370 207,626 0,206 -48,394 -143,567 -96,172 -238,309 -427,412 -188,103 -418,155 -691,155z"/>
    <path id="1" class="fil0" d="M105643 39951c-337,0 -627,-81 -870,-243 -243,-161 -430,-387 -559,-676 -130,-289 -195,-625 -195,-1009 0,-383 65,-719 195,-1008 129,-290 316,-515 559,-676 243,-162 533,-243 870,-243 337,0 627,81 868,243 241,161 427,386 556,676 130,289 195,625 195,1008 0,384 -65,720 -195,1009 -129,289 -315,515 -556,676 -241,162 -531,243 -868,243zm0 -506c203,0 383,-57 541,-171 157,-113 281,-276 369,-489 89,-213 133,-467 133,-762 0,-294 -44,-548 -133,-761 -88,-213 -212,-376 -369,-490 -158,-113 -338,-170 -541,-170 -206,0 -387,57 -543,170 -156,114 -278,277 -367,490 -89,213 -133,467 -133,761 0,295 44,549 133,762 89,213 211,376 367,489 156,114 337,171 543,171z"/>
    <path id="2" class="fil0" d="M109162 39951c-248,0 -473,-46 -673,-136 -201,-91 -361,-217 -480,-381 -118,-163 -178,-355 -178,-575 0,-223 63,-424 189,-601 126,-178 294,-298 503,-362 -188,-75 -334,-184 -436,-328 -103,-143 -155,-302 -155,-476 0,-181 48,-347 144,-498 96,-151 235,-271 418,-362 183,-90 405,-136 668,-136 263,0 485,46 668,136 183,91 322,211 418,362 96,151 144,317 144,498 0,170 -53,329 -157,476 -105,148 -251,257 -439,328 209,67 377,189 503,364 126,176 188,376 188,599 0,220 -58,412 -175,575 -117,164 -276,290 -477,381 -200,90 -425,136 -673,136zm0 -2236c206,0 368,-54 487,-160 119,-106 178,-243 178,-410 0,-188 -58,-332 -175,-431 -117,-100 -281,-149 -490,-149 -209,0 -373,49 -490,149 -117,99 -175,243 -175,431 0,167 58,304 175,410 117,106 281,160 490,160zm0 1756c255,0 447,-61 575,-183 128,-123 192,-280 192,-471 0,-213 -69,-377 -205,-493 -137,-115 -324,-173 -562,-173 -238,0 -426,58 -564,173 -139,116 -208,280 -208,493 0,191 65,348 194,471 130,122 322,183 578,183z"/>
   </g>
  </g>
 </g>
</svg>
