<svg version="1.2" xmlns="http://www.w3.org/2000/svg" viewBox="0 0 4768 4768" width="4768" height="4768"><style>.a{opacity:.5;fill:#f89a32}</style><path fill-rule="evenodd" class="a" d="m2383.7 0c658.2 0 1254.1 266.8 1685.5 698.2 431.3 431.3 698.1 1027.3 698.1 1685.5 0 658.2-266.8 1254.1-698.1 1685.5-431.4 431.3-1027.3 698.1-1685.5 698.1-658.2 0-1254.2-266.8-1685.5-698.1-431.4-431.4-698.2-1027.3-698.2-1685.5 0-658.2 266.8-1254.2 698.2-1685.5 431.3-431.4 1027.2-698.2 1685.5-698.2zm1526.7 857c-390.7-390.7-930.5-632.4-1526.7-632.4-596.2 0-1136 241.7-1526.7 632.4-390.7 390.7-632.4 930.5-632.4 1526.7 0 596.2 241.7 1136 632.4 1526.7 390.7 390.6 930.5 632.3 1526.7 632.3 596.2 0 1136-241.7 1526.6-632.3 390.7-390.7 632.4-930.5 632.4-1526.7 0-596.2-241.7-1136-632.3-1526.7z"/></svg>