<?xml version="1.0" encoding="UTF-8"?>
<!DOCTYPE svg PUBLIC "-//W3C//DTD SVG 1.1//EN" "http://www.w3.org/Graphics/SVG/1.1/DTD/svg11.dtd">
<!-- Creator: CorelDRAW X8 -->
<svg xmlns="http://www.w3.org/2000/svg" xml:space="preserve" width="6.4306in" height="6.4306in" version="1.1" style="shape-rendering:geometricPrecision; text-rendering:geometricPrecision; image-rendering:optimizeQuality; fill-rule:evenodd; clip-rule:evenodd"
viewBox="0 0 606846 606846"
 xmlns:xlink="http://www.w3.org/1999/xlink">
 <defs>
  <style type="text/css">
   <![CDATA[
    .fil0 {fill:#F89A32;fill-opacity:0.501961}
   ]]>
  </style>
 </defs>
 <g id="Layer_x0020_1">
  <metadata id="CorelCorpID_0Corel-Layer"/>
  <path class="fil0" d="M594417 389099c-23658,80354 -77654,143516 -145816,180670 -68161,37153 -150502,48306 -230857,24648 -80354,-23659 -143513,-77654 -180666,-145816 -37154,-68161 -48307,-150502 -24648,-230857 23656,-80346 77651,-143514 145812,-180667 68161,-37151 150502,-48307 230857,-24648 80354,23658 143514,77651 180668,145812 37153,68162 48309,150503 24650,230858zm-159496 155573c61737,-33651 110643,-90861 132073,-163647 21430,-72783 11328,-147368 -22324,-209104 -33651,-61736 -90859,-110639 -163645,-132069 -72783,-21430 -147368,-11327 -209103,22321 -61736,33652 -110640,90863 -132070,163646 -21430,72786 -11330,147366 22322,209103 33651,61736 90862,110642 163645,132072 72786,21430 147366,11330 209102,-22322z"/>
 </g>
</svg>
