<?xml version="1.0" encoding="UTF-8"?>
<!DOCTYPE svg PUBLIC "-//W3C//DTD SVG 1.1//EN" "http://www.w3.org/Graphics/SVG/1.1/DTD/svg11.dtd">
<!-- Creator: CorelDRAW X8 -->
<svg xmlns="http://www.w3.org/2000/svg" xml:space="preserve" width="2in" height="1.42757in" version="1.1" style="shape-rendering:geometricPrecision; text-rendering:geometricPrecision; image-rendering:optimizeQuality; fill-rule:evenodd; clip-rule:evenodd"
viewBox="0 0 39414 28133"
 xmlns:xlink="http://www.w3.org/1999/xlink">
 <defs>
  <style type="text/css">
   <![CDATA[
    .str0 {stroke:#373435;stroke-width:59.1216}
    .str1 {stroke:#373435;stroke-width:59.1216;stroke-linecap:round;stroke-linejoin:round}
    .fil4 {fill:none}
    .fil6 {fill:#FEFEFE}
    .fil0 {fill:#E6E7E8}
    .fil3 {fill:#D2D3D5}
    .fil9 {fill:#373435}
    .fil7 {fill:#FBE4CA}
    .fil8 {fill:#F89A32}
    .fil2 {fill:#D2D3D5;fill-rule:nonzero}
    .fil1 {fill:#373435;fill-rule:nonzero}
    .fil5 {fill:#D2D3D5}
   ]]>
  </style>
    <clipPath id="id0">
     <path d="M0 0l5332 0 0 5075 -5332 0 0 -5075z"/>
    </clipPath>
 </defs>
 <g id="Layer_x0020_1">
  <metadata id="CorelCorpID_0Corel-Layer"/>
  <g id="_2260314989456">
   <path class="fil0" d="M0 0l39414 0 0 23808 -1730 2180 -6402 2145 -18514 0c23,-239 36,-481 36,-726 0,-4148 -3362,-7509 -7510,-7509 -2065,0 -3936,834 -5294,2184l0 -22082z"/>
   <polygon class="fil1" points="3339,25234 3339,24613 3105,24613 3105,24531 3667,24531 3667,24613 3433,24613 3433,25234 "/>
   <polygon id="1" class="fil1" points="3768,25234 3768,24531 3862,24531 3862,24821 4228,24821 4228,24531 4323,24531 4323,25234 4228,25234 4228,24903 3862,24903 3862,25234 "/>
   <polygon id="2" class="fil1" points="4751,25234 4751,24531 4845,24531 4845,25152 5194,25152 5194,25234 "/>
   <polygon id="3" class="fil1" points="5308,25234 5308,24531 5820,24531 5820,24613 5402,24613 5402,24829 5793,24829 5793,24912 5402,24912 5402,25152 5837,25152 5837,25234 "/>
   <path id="4" class="fil1" d="M6169 25234l-274 -703 101 0 185 511c14,41 27,79 37,115 11,-38 23,-77 38,-115l191 -511 96 0 -277 703 -97 0z"/>
   <polygon id="5" class="fil1" points="6629,25234 6629,24531 7142,24531 7142,24613 6724,24613 6724,24829 7115,24829 7115,24912 6724,24912 6724,25152 7159,25152 7159,25234 "/>
   <polygon id="6" class="fil1" points="7284,25234 7284,24531 7379,24531 7379,25152 7727,25152 7727,25234 "/>
   <path id="7" class="fil1" d="M8370 25234l-87 0 0 -550c-21,20 -48,40 -82,59 -34,20 -65,35 -92,45l0 -84c48,-22 91,-50 128,-82 36,-32 62,-64 77,-94l56 0 0 706z"/>
   <g>
    <g>
     <path class="fil2" d="M8021 4743l56 -2083c249,-249 499,-497 748,-746l13778 0 0 354 7826 -24 0 -2014 3711 0 0 2633 2810 0 0 1842 -28929 38z"/>
     <path class="fil3" d="M3579 9087l1743 0 0 -3011 -1743 0 4 2243c-362,5 -505,212 -529,530l525 -2 0 240z"/>
     <g>
      <path class="fil3" d="M34799 9083l-1 -79 1 -1324 2471 6 7 3231 -1622 -7 0 -1827 -142 0 0 -159c-38,-244 -248,-437 -554,-480l0 641 -160 -2z"/>
      <g>
       <path class="fil2" d="M36431 8481l75 0c11,0 20,5 27,13 6,8 10,17 10,28l0 1585c0,10 -4,20 -10,27 -7,8 -16,13 -27,13l-75 0c-10,0 -20,-5 -26,-13 -7,-7 -11,-17 -11,-27l0 -1585c0,-11 4,-20 11,-28 6,-8 16,-13 26,-13zm75 31l-75 0c-1,0 -2,1 -3,2 -2,2 -3,5 -3,8l0 1585c0,3 1,6 3,8 1,1 2,2 3,2l75 0c1,0 3,-1 4,-2 1,-2 2,-5 2,-8l0 -1585c0,-3 -1,-6 -2,-8 -1,-1 -3,-2 -4,-2z"/>
       <path class="fil2" d="M37176 8245c-12,0 -23,5 -31,13 -8,8 -13,19 -13,31l0 1798c0,11 5,22 13,30 8,8 19,13 31,13l0 -31c-4,0 -7,-1 -9,-3 -3,-3 -4,-6 -4,-9l0 -1798c0,-4 1,-7 4,-9 2,-2 5,-4 9,-4l0 -31z"/>
       <g>
        <path class="fil4" d="M37132 9762l-589 0m-152 0l-589 0"/>
        <path class="fil4" d="M37132 9596l-589 0m-152 0l-589 0"/>
        <path class="fil4" d="M37132 9430l-589 0m-152 0l-589 0"/>
        <path class="fil4" d="M37132 9264l-589 0m-152 0l-589 0"/>
        <path class="fil4" d="M37132 9100l-589 0m-152 0l-589 0"/>
        <path class="fil4" d="M37132 8934l-589 0m-152 0l-589 0"/>
        <path class="fil4" d="M37132 8768l-589 0m-152 0l-589 0"/>
        <path class="fil4" d="M37132 8602l-589 0m-152 0l-589 0"/>
        <line class="fil4" x1="36391" y1="10092" x2="35802" y2= "10092" />
        <path class="fil4" d="M37132 9926l-589 0m-152 0l-589 0"/>
       </g>
      </g>
     </g>
     <g>
      <path class="fil4" d="M9322 9990l0 3400 132 0 -1 531c271,-27 431,-169 450,-456 19,292 182,431 453,456l1 -531c55,0 111,0 166,0l0 552"/>
      <g>
       <polyline class="fil4" points="10526,10617 10517,9990 11966,9990 11967,10617 "/>
       <g>
        <polyline class="fil4" points="10523,13348 10523,10617 11967,10617 11967,14186 10523,14186 10523,13348 "/>
        <g>
         <polygon class="fil3" points="10684,14002 11767,14002 11767,12502 10684,12502 10684,12548 10596,12548 10596,13217 10684,13217 "/>
         <polygon class="fil3" points="10684,11460 10595,11460 10595,12175 10684,12175 10684,12324 11767,12324 11767,10811 10684,10811 "/>
        </g>
       </g>
      </g>
     </g>
     <path class="fil5" d="M13446 9091l-4335 0 0 -513c-246,16 -397,157 -444,405l0 96 -13 0 0 -96c-48,-248 -199,-389 -445,-405l0 513 -2917 -4 46 -4650 5369 0 0 -722 2742 0 -3 5376z"/>
     <path class="fil4" d="M4391 9984l-1 -96 -614 0c17,-372 266,-547 615,-542l-1 -259 -811 0 0 -238 -525 0c32,-326 196,-514 525,-529l4 -1 -4 -2243 1743 0"/>
     <path class="fil5" d="M10500 15358l-6921 -4 0 -5365 5720 10 0 3406 189 0 -3 522c248,-27 394,-170 418,-451 22,264 155,413 424,451l4 -522 169 0 0 1953z"/>
     <polygon class="fil3" points="8818,2035 22473,2035 22473,2367 30474,2367 30474,350 34010,350 34010,2983 36823,2983 36823,3719 36950,3714 36943,2863 34162,2863 34130,230 30365,230 30354,2246 26830,2246 22603,2246 22593,1914 8772,1911 8002,2678 8002,4261 8604,4261 8604,2249 "/>
     <polygon class="fil3" points="8483,2369 8122,2730 8122,4140 8483,4140 "/>
     <path class="fil5" d="M17058 4453l-1685 -12 0 -120 462 0c-34,-283 -230,-441 -462,-452l0 -150 -1924 0 0 5372 1427 0 0 -139c58,-303 242,-474 543,-494l0 633 1639 0 0 -4638z"/>
     <path class="fil5" d="M17058 4441l1894 0 0 -462c269,19 437,179 497,462l1219 0 0 4650 -1415 0 0 -144c-12,-254 -220,-476 -543,-483l0 627 -1652 0 0 -4650z"/>
     <path class="fil5" d="M31497 4441l-1925 0 0 -462c-268,18 -432,171 -484,441l0 21 -3017 0 16 4640 3174 0 0 -129c58,-303 242,-474 543,-494l0 623 1693 0 0 -4640z"/>
     <path class="fil5" d="M31497 4436l1080 7 0 -23c52,-270 216,-423 484,-441l0 467 128 1 0 -717 3754 -11 0 3973 -2144 -12 0 1403 -1076 -1 0 -624c-301,20 -485,191 -543,494l0 130 -1683 -1 0 -4645z"/>
     <path class="fil5" d="M31497 10003l1805 0 0 621 3 0 0 14c287,-30 460,-172 501,-369 16,-43 30,-90 39,-140l0 -126 1810 0 1 907 1136 7 0 4441 -3655 8 0 -173c-212,-19 -462,-178 -463,-485l463 0 0 -68 -1640 0 0 -4637z"/>
     <path class="fil5" d="M31497 10003l-3127 -8 0 134c-58,304 -242,475 -543,495l0 -631 -1743 -4 3 4651 -29 5 -4 725 3759 -8 0 -149c284,-9 472,-274 462,-481l-462 0 0 -84 1684 -8 0 -4637z"/>
     <path class="fil5" d="M20668 9993l1752 -1 0 632c300,-20 484,-191 543,-495l0 -138 3121 -2 3 4651 -2922 6c-38,284 -211,441 -483,459l0 -458 -181 1 0 710 -1833 4 0 -5369z"/>
     <path class="fil5" d="M20668 9993l-1428 0 0 136c-59,304 -242,475 -543,495l0 -631 -1639 0 0 4655c796,0 804,0 1692,0l0 84 -470 0c8,306 242,469 470,481l0 149 1918 0 0 -5369z"/>
     <g>
      <path class="fil3" d="M16457 14632l-23 0 23 0zm300 2648l-1203 0 -84 0 -1377 0 0 1355 -2527 0 0 -2633 -1374 0 0 -640 1374 0 0 -7 2527 0 0 7 1377 0 0 -722 1287 0 0 2640z"/>
     </g>
     <line class="fil4" x1="8451" y1="4858" x2="8454" y2= "4858" />
     <path class="fil5" d="M17058 9993l-3167 0 0 1504 -75 0 0 592c-301,-19 -485,-191 -543,-494l0 -98 -143 0 0 -74 -609 0c28,-289 181,-467 495,-544l114 0 0 -889 -1164 0 0 4210 -1464 0 0 1162 4960 0 0 -714 632 0 0 22c58,304 242,475 543,495l0 -517 421 0 0 -4655z"/>
     <line class="fil4" x1="13130" y1="11488" x2="11946" y2= "11488" />
     <path class="fil2" d="M8035 4261l0 -1566c249,-249 498,-497 748,-745l13777 0 0 353 7827 -24 0 -2014 3710 0 0 2633 2811 0 0 831 -31 0 0 -801 -2810 0 0 -2632 -3649 0 0 2014c-2630,8 -5259,14 -7889,24l0 -354 -13734 0 -730 728 0 1553 -30 0z"/>
     <polygon class="fil3" points="8483,4140 8122,4140 8122,2730 8483,2369 "/>
     <g>
      <rect class="fil3" x="13147" y="2035" width="602" height="1680"/>
      <rect class="fil3" x="13268" y="2035" width="361" height="1384"/>
      <line class="fil4" x1="13147" y1="3539" x2="13749" y2= "3539" />
     </g>
     <g>
      <rect class="fil3" x="16757" y="2035" width="602" height="2407"/>
      <rect class="fil3" x="16877" y="2035" width="361" height="2106"/>
      <line class="fil4" x1="16757" y1="4261" x2="17359" y2= "4261" />
     </g>
     <g>
      <rect class="fil3" x="20367" y="2035" width="602" height="2407"/>
      <rect class="fil3" x="20487" y="2035" width="361" height="2106"/>
      <line class="fil4" x1="20367" y1="4261" x2="20968" y2= "4261" />
     </g>
     <g>
      <rect class="fil3" x="26354" y="2367" width="602" height="1263"/>
      <polyline class="fil4" points="26475,2367 26475,3510 26836,3510 26836,2367 "/>
     </g>
     <g>
      <rect class="fil3" x="31196" y="350" width="602" height="4086"/>
      <g>
       <polyline class="fil4" points="31317,350 31317,4140 31678,4140 31678,350 "/>
       <line class="fil4" x1="31196" y1="4261" x2="31798" y2= "4261" />
      </g>
     </g>
     <polygon class="fil3" points="31798,1224 33649,1224 33649,2502 34010,2502 34010,2622 33528,2622 33534,1348 31798,1348 "/>
     <path class="fil5" d="M22451 4441l-1783 0 0 4650 3127 -6 0 -133c58,-303 242,-474 543,-494l0 626 1749 -3 -16 -4640 43 0 0 -722 -3663 10 0 142c-237,7 -415,162 -449,444l449 0 0 126z"/>
     <path class="fil2" d="M35699 8544l0 426 31 0 0 -426c0,-16 41,-20 41,0l0 1774c0,3 -1,6 -3,9 -3,2 -6,4 -10,4l0 30c12,0 23,-5 31,-13 8,-8 13,-18 13,-30l0 -1774c0,-60 -103,-56 -103,0z"/>
     <g>
      <rect class="fil3" x="31196" y="14640" width="602" height="2099"/>
      <rect class="fil3" x="31317" y="14941" width="361" height="1798"/>
     </g>
     <g>
      <rect class="fil3" x="36190" y="15362" width="481" height="1377"/>
      <rect class="fil3" x="36310" y="15663" width="361" height="1076"/>
     </g>
     <polygon class="fil3" points="36190,16739 31798,16739 31798,14640 33136,14640 33136,15362 36190,15362 "/>
     <polygon class="fil3" points="31196,16739 27887,16739 27887,15355 29805,15355 29805,14648 31196,14648 "/>
     <g>
      <rect class="fil3" x="25753" y="15935" width="602" height="804"/>
      <rect class="fil3" x="25873" y="16055" width="361" height="683"/>
      <polygon class="fil3" points="25753,15935 26354,15935 26354,15362 26203,15362 26203,15755 25753,15755 "/>
      <rect class="fil3" x="25902" y="15454" width="301" height="301"/>
     </g>
     <rect class="fil3" x="26354" y="15369" width="1533" height="1369"/>
     <polygon class="fil3" points="24278,14633 22501,14633 22501,15358 20968,15358 20968,16739 24278,16739 "/>
     <polygon class="fil3" points="26054,14633 24278,14633 24278,16739 25753,16739 25753,15755 25902,15755 25902,15454 26054,15454 "/>
     <g>
      <rect class="fil3" x="20367" y="15362" width="602" height="1377"/>
      <rect class="fil3" x="20480" y="15662" width="368" height="1077"/>
     </g>
     <polygon class="fil3" points="20367,16739 17359,16739 17359,14640 18750,14640 18750,15355 20367,15355 "/>
     <polygon class="fil3" points="10072,19333 4592,19333 4592,15362 10072,15362 10072,16123 10964,16123 10964,19116 10072,19116 "/>
     <g>
      <g>
       <path class="fil2" d="M4410 6785l75 0c11,0 20,5 27,13 6,7 10,17 10,28l0 1326c0,10 -4,20 -10,28 -7,7 -16,12 -27,12l-75 0c-10,0 -20,-5 -26,-12 -7,-8 -10,-18 -10,-28l0 -1326c0,-11 3,-21 10,-28 6,-8 16,-13 26,-13zm75 31l-75 0c-1,0 -2,0 -3,2 -2,2 -3,4 -3,8l0 1326c0,3 1,6 3,8 1,1 2,2 3,2l75 0c1,0 3,-1 4,-2 1,-2 2,-5 2,-8l0 -1326c0,-4 -1,-6 -2,-8 -1,-2 -3,-2 -4,-2z"/>
       <path class="fil2" d="M3698 7183c12,0 23,5 31,13 8,8 13,19 13,31l0 875c0,12 -5,23 -13,31 -8,8 -19,13 -31,13l0 -31c4,0 7,-1 9,-3 3,-3 4,-6 4,-10l0 -875c0,-4 -1,-7 -4,-10 -2,-2 -5,-3 -9,-3l0 -31z"/>
       <path class="fil4" d="M3742 6826l625 0m161 0l626 0"/>
       <path class="fil2" d="M5197 6349c-12,0 -22,5 -30,13 -8,8 -13,18 -13,30l0 1774c0,12 5,23 13,30 8,8 19,13 30,13l0 -30c-3,0 -6,-2 -9,-4 -2,-2 -4,-6 -4,-9l0 -1774c0,-3 2,-6 4,-9 3,-2 6,-4 9,-4l0 -30z"/>
       <path class="fil4" d="M3742 6992l625 0m161 0l626 0"/>
       <path class="fil4" d="M3742 7158l625 0m161 0l626 0"/>
       <path class="fil4" d="M3742 7324l625 0m161 0l626 0"/>
       <path class="fil4" d="M3742 7488l625 0m161 0l626 0"/>
       <path class="fil4" d="M3742 7654l625 0m161 0l626 0"/>
       <path class="fil4" d="M3742 7820l625 0m161 0l626 0"/>
       <path class="fil4" d="M3742 7986l625 0m161 0l626 0"/>
       <path class="fil4" d="M3742 8149l625 0m161 0l626 0"/>
      </g>
      <path class="fil4" d="M5295 8857l-524 0c31,-326 195,-514 524,-530l4 0"/>
      <line class="fil4" x1="5292" y1="9087" x2="4390" y2= "9087" />
      <line class="fil4" x1="3742" y1="6826" x2="3742" y2= "7196" />
     </g>
     <rect class="fil3" x="3581" y="8970" width="166" height="1197"/>
     <rect class="fil3" x="17621" y="11097" width="18349" height="4917"/>
    </g>
    <rect class="fil3" x="6084" y="7710" width="7015" height="10926"/>
    <rect class="fil3" x="3580" y="6668" width="32586" height="6341"/>
    <rect class="fil3" x="14214" y="5729" width="7015" height="11010"/>
   </g>
   <g id="_2260314989616">
    <polygon class="fil6 str0" points="27856,25194 31468,25193 31468,26873 30932,27058 27856,27058 "/>
    <polygon class="fil7 str0" points="32017,24531 34031,24531 34621,24110 34777,24322 36245,23297 36099,23075 36635,22693 36642,20288 37499,20288 37499,24098 36792,25044 32475,26524 32070,26666 32070,25193 32012,25193 "/>
    <path class="fil8 str1" d="M32010 19506c2436,0 2094,0 4632,0l0 3189 -543 380 156 222 -371 257 237 340c-244,150 -459,84 -629,-111 154,184 114,412 -111,628l-239 -337 -365 260 -156 -224 -599 421 -2012 0 0 -5025z"/>
    <path class="fil6 str1" d="M32012 19506c-1760,0 -1761,0 -4274,0l0 5687 1160 0 0 96 691 0 0 142c55,270 229,423 512,441l0 -583 241 0 0 -96 1670 0 0 -5687z"/>
    <rect class="fil6 str0" x="23584" y="25194" width="3670" height="1864"/>
    <rect class="fil6 str0" x="19313" y="25193" width="3670" height="1865"/>
    <rect class="fil6 str0" x="13963" y="25193" width="4748" height="1865"/>
    <g>
     <rect class="fil6 str0" x="27254" y="25194" width="601" height="1896"/>
     <rect class="fil6 str0" x="27375" y="25494" width="361" height="1475"/>
    </g>
    <rect class="fil6 str0" x="22983" y="25194" width="602" height="1896"/>
    <rect class="fil6 str0" x="23103" y="25494" width="361" height="1475"/>
    <rect class="fil6 str0" x="18711" y="25186" width="602" height="1904"/>
    <rect class="fil6 str0" x="18831" y="25494" width="361" height="1475"/>
    <g>
     <polygon class="fil6 str0" points="31468,26906 32070,26697 32070,25193 31468,25193 "/>
     <polygon class="fil6 str0" points="31589,26736 31950,26613 31950,25494 31587,25493 "/>
    </g>
    <path class="fil6 str0" d="M16081 25289l691 0 0 142c55,270 228,423 512,441l0 -583 241 0 0 -103 1667 0 0 -5672c-1749,0 -1793,0 -4307,0l0 5672 1196 0 0 103z"/>
    <path class="fil6 str0" d="M20352 25289l692 0 0 142c55,270 228,423 512,441l0 -583 240 0 0 -96 1668 0 0 -5687c-1755,0 -1760,0 -4272,0l0 5687 1160 0 0 96z"/>
    <path class="fil6 str0" d="M24626 25289l692 0 0 142c55,270 228,423 512,441l0 -583 240 0 0 -96 1668 0 0 -5687c-1756,0 -1761,0 -4274,0l0 5687 1162 0 0 96z"/>
    <polygon class="fil1" points="16509,22920 16509,22257 16385,22284 16385,22221 16540,22154 16602,22154 16602,22920 "/>
    <path id="1" class="fil1" d="M17063 22934c-68,0 -126,-17 -175,-50 -50,-33 -88,-80 -114,-139 -26,-60 -39,-129 -39,-208 0,-79 13,-148 39,-207 26,-60 64,-106 114,-139 49,-33 107,-50 175,-50 68,0 127,17 175,50 49,33 87,79 113,139 26,59 40,128 40,207 0,79 -14,148 -40,208 -26,59 -64,106 -113,139 -48,33 -107,50 -175,50zm0 -81c45,0 85,-13 120,-38 36,-25 63,-62 83,-109 20,-47 30,-103 30,-169 0,-65 -10,-122 -30,-168 -20,-47 -47,-83 -83,-108 -35,-25 -75,-38 -120,-38 -45,0 -85,13 -120,38 -35,25 -63,61 -83,108 -21,46 -31,103 -31,168 0,66 10,122 31,169 20,47 48,84 83,109 35,25 75,38 120,38z"/>
    <polygon id="2" class="fil1" points="17599,22920 17599,22257 17475,22284 17475,22221 17629,22154 17692,22154 17692,22920 "/>
    <polygon class="fil1" points="20453,22920 20453,22257 20329,22284 20329,22221 20483,22154 20546,22154 20546,22920 "/>
    <path id="1" class="fil1" d="M21007 22934c-68,0 -127,-17 -176,-50 -49,-33 -87,-80 -113,-139 -26,-60 -40,-129 -40,-208 0,-79 14,-148 40,-207 26,-60 64,-106 113,-139 49,-33 108,-50 176,-50 68,0 126,17 175,50 49,33 87,79 113,139 26,59 39,128 39,207 0,79 -13,148 -39,208 -26,59 -64,106 -113,139 -49,33 -107,50 -175,50zm0 -81c44,0 84,-13 120,-38 35,-25 63,-62 83,-109 20,-47 30,-103 30,-169 0,-65 -10,-122 -30,-168 -20,-47 -48,-83 -83,-108 -36,-25 -76,-38 -120,-38 -45,0 -86,13 -121,38 -35,25 -62,61 -83,108 -20,46 -30,103 -30,168 0,66 10,122 30,169 21,47 48,84 83,109 35,25 76,38 121,38z"/>
    <path id="2" class="fil1" d="M21444 22920l0 -64c52,-41 101,-82 147,-124 46,-42 88,-84 124,-125 36,-41 64,-81 85,-120 21,-40 31,-77 31,-114 0,-27 -4,-52 -13,-76 -10,-23 -24,-42 -45,-56 -20,-14 -48,-21 -83,-21 -34,0 -62,7 -84,22 -23,15 -40,35 -51,60 -12,25 -17,51 -17,80l-89 0c0,-51 11,-94 32,-130 21,-36 50,-64 86,-83 37,-19 78,-28 124,-28 68,0 124,19 167,57 44,39 65,96 65,172 0,45 -11,90 -34,134 -22,44 -51,87 -86,128 -35,41 -73,80 -112,115 -40,36 -77,68 -112,97l370 0 0 76 -505 0z"/>
    <polygon class="fil1" points="25209,22920 25209,22257 25086,22284 25086,22221 25240,22154 25303,22154 25303,22920 "/>
    <path id="1" class="fil1" d="M25764 22934c-68,0 -127,-17 -176,-50 -49,-33 -87,-80 -114,-139 -26,-60 -39,-129 -39,-208 0,-79 13,-148 39,-207 27,-60 65,-106 114,-139 49,-33 108,-50 176,-50 67,0 126,17 175,50 49,33 86,79 112,139 27,59 40,128 40,207 0,79 -13,148 -40,208 -26,59 -63,106 -112,139 -49,33 -108,50 -175,50zm0 -81c44,0 84,-13 119,-38 36,-25 63,-62 84,-109 20,-47 30,-103 30,-169 0,-65 -10,-122 -30,-168 -21,-47 -48,-83 -84,-108 -35,-25 -75,-38 -119,-38 -46,0 -86,13 -121,38 -35,25 -63,61 -83,108 -21,46 -31,103 -31,168 0,66 10,122 31,169 20,47 48,84 83,109 35,25 75,38 121,38z"/>
    <path id="2" class="fil1" d="M26462 22934c-49,0 -93,-9 -132,-27 -40,-18 -71,-45 -95,-81 -24,-36 -37,-80 -38,-133l93 0c1,43 16,81 46,113 30,32 72,48 126,48 54,0 95,-15 122,-45 27,-30 41,-66 41,-109 0,-35 -8,-65 -26,-87 -17,-23 -40,-40 -69,-51 -28,-11 -60,-16 -94,-16l-57 0 0 -78 57 0c49,0 88,-11 116,-34 28,-22 42,-54 42,-95 0,-34 -11,-63 -33,-85 -22,-22 -55,-33 -99,-33 -42,0 -76,12 -102,38 -25,25 -40,56 -42,94l-94 0c3,-41 14,-78 34,-110 20,-32 47,-57 82,-75 36,-18 76,-27 122,-27 50,0 91,9 124,26 33,18 59,41 76,70 17,29 26,62 26,97 0,38 -11,73 -32,105 -21,32 -53,53 -95,64 45,10 82,31 112,65 30,33 45,78 45,132 0,43 -9,82 -29,117 -19,35 -48,64 -86,85 -38,21 -85,32 -141,32z"/>
    <polygon class="fil1" points="29205,22920 29205,22257 29081,22284 29081,22221 29235,22154 29298,22154 29298,22920 "/>
    <path id="1" class="fil1" d="M29759 22934c-68,0 -127,-17 -176,-50 -49,-33 -87,-80 -113,-139 -27,-60 -40,-129 -40,-208 0,-79 13,-148 40,-207 26,-60 64,-106 113,-139 49,-33 108,-50 176,-50 67,0 126,17 175,50 49,33 86,79 113,139 26,59 39,128 39,207 0,79 -13,148 -39,208 -27,59 -64,106 -113,139 -49,33 -108,50 -175,50zm0 -81c44,0 84,-13 119,-38 36,-25 64,-62 84,-109 20,-47 30,-103 30,-169 0,-65 -10,-122 -30,-168 -20,-47 -48,-83 -84,-108 -35,-25 -75,-38 -119,-38 -46,0 -86,13 -121,38 -35,25 -63,61 -83,108 -21,46 -31,103 -31,168 0,66 10,122 31,169 20,47 48,84 83,109 35,25 75,38 121,38z"/>
    <path id="2" class="fil1" d="M30565 22920l0 -164 -388 0 0 -71 372 -531 107 0 0 521 114 0 0 81 -114 0 0 164 -91 0zm-286 -245l291 0 0 -419 -291 419z"/>
    <polygon class="fil1" points="33743,22920 33743,22257 33619,22284 33619,22221 33773,22154 33836,22154 33836,22920 "/>
    <path id="1" class="fil1" d="M34297 22934c-68,0 -127,-17 -176,-50 -49,-33 -87,-80 -113,-139 -27,-60 -40,-129 -40,-208 0,-79 13,-148 40,-207 26,-60 64,-106 113,-139 49,-33 108,-50 176,-50 68,0 126,17 175,50 49,33 86,79 113,139 26,59 39,128 39,207 0,79 -13,148 -39,208 -27,59 -64,106 -113,139 -49,33 -107,50 -175,50zm0 -81c44,0 84,-13 120,-38 35,-25 63,-62 83,-109 20,-47 30,-103 30,-169 0,-65 -10,-122 -30,-168 -20,-47 -48,-83 -83,-108 -36,-25 -76,-38 -120,-38 -46,0 -86,13 -121,38 -35,25 -62,61 -83,108 -20,46 -31,103 -31,168 0,66 11,122 31,169 21,47 48,84 83,109 35,25 75,38 121,38z"/>
    <path id="2" class="fil1" d="M35017 22934c-52,0 -98,-10 -137,-29 -38,-19 -69,-45 -92,-78 -23,-33 -37,-71 -42,-114l89 0c9,43 30,77 62,103 32,26 72,39 121,39 37,0 68,-9 94,-26 27,-17 47,-40 61,-69 14,-30 22,-62 22,-98 0,-57 -17,-103 -49,-138 -32,-35 -73,-52 -124,-52 -43,0 -79,9 -109,28 -30,19 -52,44 -66,74l-87 0 66 -420 401 0 0 80 -330 0 -45 233c17,-21 42,-39 73,-52 31,-14 66,-21 106,-21 51,0 95,11 132,35 38,23 67,55 88,95 22,40 32,86 32,137 0,49 -10,94 -31,136 -21,41 -51,75 -91,99 -40,25 -88,38 -144,38z"/>
    <g>
     <rect class="fil6 str0" x="18890" y="17882" width="602" height="1624"/>
     <rect class="fil6 str0" x="19003" y="17882" width="369" height="1319"/>
     <rect class="fil6 str0" x="23162" y="17882" width="602" height="1624"/>
     <rect class="fil6 str0" x="23282" y="17882" width="361" height="1324"/>
     <rect class="fil6 str0" x="27436" y="17882" width="602" height="1624"/>
     <rect class="fil6 str0" x="27556" y="17882" width="361" height="1324"/>
     <rect class="fil6 str0" x="31708" y="17882" width="602" height="1624"/>
     <rect class="fil6 str0" x="31828" y="17882" width="361" height="1324"/>
     <rect class="fil6 str0" x="36189" y="17882" width="481" height="1624"/>
     <rect class="fil6 str0" x="36309" y="17882" width="361" height="1324"/>
     <rect class="fil6 str0" x="14573" y="17762" width="22097" height="1745"/>
     <rect class="fil4 str0" x="14693" y="17882" width="4197" height="1624"/>
     <rect class="fil6 str0" x="19492" y="17882" width="3670" height="1624"/>
     <rect class="fil6 str0" x="23764" y="17882" width="3672" height="1624"/>
     <rect class="fil6 str0" x="28038" y="17882" width="3670" height="1624"/>
     <rect class="fil7 str0" x="32309" y="17882" width="3879" height="1624"/>
    </g>
    <path class="fil4 str0" d="M17970 19514l0 630c-357,-48 -548,-247 -541,-630"/>
    <path class="fil4 str0" d="M22242 19514l0 630c-357,-48 -548,-247 -542,-630"/>
    <path class="fil4 str0" d="M26515 19514l0 630c-357,-48 -548,-247 -541,-630"/>
    <path class="fil4 str0" d="M30785 19514l0 630c-357,-48 -548,-247 -541,-630"/>
    <path class="fil4 str0" d="M34359 19514l0 630c-357,-48 -548,-247 -541,-630"/>
   </g>
   <g>
   </g>
   <g style="clip-path:url(#id0)">
    <g>
     <g id="_2260314990896">
      <g>
       <rect class="fil9" x="2641" y="1373" width="293" height="1464"/>
       <polygon class="fil9" points="2788,1077 3643,1932 3643,2346 2788,1491 1932,2346 1932,1932 "/>
      </g>
      <polygon class="fil1" points="2057,5075 2057,3326 2377,3326 3199,4558 3199,3326 3519,3326 3519,5075 3199,5075 2377,3846 2377,5075 "/>
     </g>
    </g>
   </g>
   <polygon class="fil4" points="0,0 5332,0 5332,5075 0,5075 "/>
  </g>
 </g>
</svg>
