<?xml version="1.0" encoding="UTF-8"?>
<!DOCTYPE svg PUBLIC "-//W3C//DTD SVG 1.1//EN" "http://www.w3.org/Graphics/SVG/1.1/DTD/svg11.dtd">
<!-- Creator: CorelDRAW X8 -->
<svg xmlns="http://www.w3.org/2000/svg" xml:space="preserve" width="0.335244in" height="0.335244in" version="1.1" style="shape-rendering:geometricPrecision; text-rendering:geometricPrecision; image-rendering:optimizeQuality; fill-rule:evenodd; clip-rule:evenodd"
viewBox="0 0 1398 1398"
 xmlns:xlink="http://www.w3.org/1999/xlink">
 <defs>
  <style type="text/css">
   <![CDATA[
    .fil1 {fill:#FEFEFE}
    .fil0 {fill:#F89A32}
   ]]>
  </style>
 </defs>
 <g id="Layer_x0020_1">
  <metadata id="CorelCorpID_0Corel-Layer"/>
  <g id="_2327410868464">
   <rect class="fil0" width="1398" height="1398"/>
   <g>
    <path class="fil1" d="M771 800c0,20 20,29 29,41 4,4 4,5 8,9 2,2 3,3 5,5l235 234 -172 0c-47,0 -38,58 -7,58l253 0c11,0 25,-14 25,-25l0 -253c0,-20 -30,-37 -50,-16 -6,6 -8,10 -8,21l0 172c-9,-6 -222,-221 -247,-246 -10,-10 -24,-29 -42,-29 -16,0 -29,13 -29,29z"/>
    <path class="fil1" d="M843 276c0,19 10,32 31,32l170 0c-4,7 -10,11 -16,17 -6,7 -11,10 -18,16l-209 200c-18,19 -30,23 -30,46 0,13 13,25 33,25 13,0 31,-21 39,-29 29,-29 59,-55 88,-85 6,-6 11,-9 18,-16l70 -67c13,-10 22,-23 35,-34l35 -33 0 174c0,11 2,15 7,22 20,22 51,4 51,-15l0 -253c0,-12 -14,-26 -25,-26l-253 0c-12,0 -26,14 -26,26z"/>
    <path class="fil1" d="M308 1048l0 -172c0,-12 -1,-16 -7,-22 -20,-23 -51,-5 -51,15l0 253c0,11 14,25 26,25l253 0c19,0 37,-30 16,-50 -6,-6 -10,-8 -22,-8l-171 0c5,-8 209,-210 233,-234 10,-10 27,-23 27,-40 0,-20 -24,-46 -55,-16l-59 59c-2,2 -2,2 -5,4l-185 186z"/>
    <path class="fil1" d="M250 276l0 253c0,31 58,38 58,-6l0 -173c14,9 160,160 187,187 3,3 2,2 5,4l40 40c0,0 0,1 1,1 13,13 25,30 42,30 16,0 29,-13 29,-29 0,-21 -45,-59 -60,-74 -16,-16 -195,-192 -200,-201l170 0c46,0 37,-58 7,-58l-253 0c-12,0 -26,14 -26,26z"/>
   </g>
  </g>
 </g>
</svg>
