<svg version="1.2" xmlns="http://www.w3.org/2000/svg" viewBox="0 0 2739 2738" width="2739" height="2738"><style>.a{fill:#857970}</style><path fill-rule="evenodd" class="a" d="m822.9 849.9v298.5h-124.6v-736.1h284.1c152.2 0 250.5 76.8 250.5 220.6 0 123.5-71.9 194.2-188.2 212.2l213.4 303.3h-141.4l-205-298.5zm0-104.3h157c82.7 0 129.5-44.4 129.5-112.7 0-68.3-46.8-112.7-129.5-112.7h-157z"/><path fill-rule="evenodd" class="a" d="m1038.1 1589.4l283 736.1h-127.1l-75.6-203.8h-281.7l-75.5 203.8h-125.9l282.9-736.1zm-161.8 424.4h201.4l-100.7-272.2z"/><path class="a" d="m677.4 1323.3h571v84.6h-571z"/><path fill-rule="evenodd" class="a" d="m1369.2 0c378 0 720.2 153.3 967.9 401 247.7 247.7 400.9 589.9 400.9 967.9 0 377.9-153.2 720.2-400.9 967.9-247.7 247.7-589.9 400.9-967.9 400.9-378 0-720.2-153.2-967.9-400.9-247.7-247.7-400.9-590-400.9-967.9 0-378 153.2-720.2 400.9-967.9 247.7-247.7 589.9-401 967.9-401zm876.7 492.2c-224.3-224.4-534.3-363.2-876.7-363.2-342.4 0-652.4 138.8-876.7 363.2-224.3 224.3-363.1 534.3-363.1 876.7 0 342.3 138.8 652.3 363.1 876.7 224.3 224.3 534.3 363.1 876.7 363.1 342.4 0 652.4-138.8 876.7-363.1 224.3-224.4 363.1-534.4 363.1-876.7 0-342.4-138.8-652.4-363.1-876.7z"/></svg>