<?xml version="1.0" encoding="UTF-8"?>
<!DOCTYPE svg PUBLIC "-//W3C//DTD SVG 1.1//EN" "http://www.w3.org/Graphics/SVG/1.1/DTD/svg11.dtd">
<!-- Creator: CorelDRAW X8 -->
<svg xmlns="http://www.w3.org/2000/svg" xml:space="preserve" width="3.48169in" height="0.524988in" version="1.1" style="shape-rendering:geometricPrecision; text-rendering:geometricPrecision; image-rendering:optimizeQuality; fill-rule:evenodd; clip-rule:evenodd"
viewBox="0 0 129636 19547"
 xmlns:xlink="http://www.w3.org/1999/xlink">
 <defs>
  <style type="text/css">
   <![CDATA[
    .fil0 {fill:#333333}
    .fil2 {fill:#7E7E7E}
    .fil1 {fill:white}
   ]]>
  </style>
 </defs>
 <g id="Layer_x0020_1">
  <metadata id="CorelCorpID_0Corel-Layer"/>
  <g id="_1662132388336">
   <path class="fil0" d="M16955 19503l3 -19503 -1904 0 -1 14428c-988,-1005 -2169,-2542 -3124,-3563 -717,-766 -1651,-1961 -2364,-2716 -672,-711 -1648,-1963 -2341,-2695 -690,-730 -1649,-1953 -2360,-2720 -285,-308 -537,-596 -789,-904l-1182 -1359c-150,-183 -262,-269 -378,-462l-2515 -4c131,254 336,402 509,623 513,655 1542,1739 2112,2434 182,221 365,394 542,616l4223 4868c848,1041 2381,2643 3177,3641 1006,1262 2592,2918 3680,4251l1604 1827c177,196 359,441 533,626l575 612z"/>
   <path class="fil0" d="M18838 19496c204,-119 384,-409 551,-584l12680 -14592c198,-221 355,-393 540,-618l1573 -1814c209,-226 362,-401 537,-621 198,-247 986,-1066 1073,-1261l-2518 -6c-194,355 -2536,2897 -3108,3620 -243,306 -512,580 -773,876 -742,839 -1636,1946 -2359,2721l-1556 1786c-517,623 -1058,1196 -1571,1817 -265,321 -533,580 -793,899 -246,301 -523,632 -785,910 -275,292 -1426,1696 -1594,1793l0 -14422 -1895 1 -2 19495z"/>
   <path class="fil0" d="M56290 10287l896 2 12 -4156 503 -1c373,566 2235,2856 2778,3589 96,130 381,533 497,562 118,30 867,11 1037,5 -55,-148 -2082,-2739 -2357,-3084 -142,-178 -750,-919 -792,-1073 1248,-84 1797,-144 2497,-855 551,-560 712,-1806 322,-2640 -380,-811 -1189,-1192 -2069,-1271 -923,-82 -2382,-101 -3313,-41l-11 8963z"/>
   <path class="fil0" d="M87851 10278l891 14 19 -4155 495 -7c116,129 255,328 388,493 149,185 256,324 409,527l2433 3134 1103 6 -1582 -2065c-229,-288 -1519,-1926 -1586,-2090 1204,-127 1831,-118 2495,-851 551,-610 768,-1770 323,-2659 -363,-724 -1039,-1163 -2081,-1261 -554,-52 -2818,-123 -3301,-28l-6 8942z"/>
   <path class="fil0" d="M121032 10292l959 0c316,-435 1188,-2651 1437,-2948l3822 -7c358,618 1206,2650 1444,2955l942 -3c-131,-413 -3207,-6881 -3659,-7876 -94,-207 -171,-385 -267,-580 -180,-369 -129,-524 -456,-509 -154,187 -4214,8881 -4222,8968z"/>
   <path class="fil0" d="M46236 10283l981 9c254,-425 487,-1005 711,-1473 233,-488 466,-1003 703,-1478l3843 3 1415 2945 951 3c-35,-247 -3400,-7336 -3940,-8505 -95,-207 -115,-459 -366,-469 -151,23 -504,892 -580,1058 -1012,2220 -2149,4534 -3203,6781 -130,279 -459,881 -515,1126z"/>
   <path class="fil0" d="M112565 10286l912 6 24 -6750c201,145 568,625 752,838l2640 3018c126,148 254,284 371,433 328,422 1072,1202 1495,1712 122,147 255,301 372,432 279,314 239,333 480,307l11 -8950 -890 -12 -8 6794c-286,-179 -4447,-5093 -4919,-5603l-930 -1077c-114,-121 -80,-125 -299,-109l-11 8961z"/>
   <path class="fil0" d="M80432 10287l910 3 16 -4124c256,156 2861,3067 3397,3564 131,121 408,526 586,558 138,24 964,11 1120,-8l-4317 -4623c-99,-112 -220,-187 -289,-348l3744 -3466c104,-94 465,-441 514,-515 -282,-28 -671,-15 -963,-13 -356,2 -783,536 -1128,866 -183,175 -369,308 -541,486 -259,267 -1926,1861 -2124,1958l0 -3296 -912 -11 -13 8969z"/>
   <path class="fil0" d="M39634 10282l903 10 24 -4129c247,133 3769,4072 3973,4121 134,33 933,10 1124,5l-4600 -4934 2648 -2497c194,-171 354,-347 549,-520l1055 -1016c-1266,-54 -1130,-59 -1589,393l-2104 1950c-207,206 -325,323 -526,499 -174,152 -333,376 -524,475l-9 -3320 -916 2 -8 8961z"/>
   <path class="fil0" d="M26108 14099l5053 5071c482,484 269,364 1327,364 564,0 1140,12 1703,-4 -126,-222 -4729,-4768 -5131,-5166 -186,-184 -1543,-1613 -1740,-1687 -230,204 -679,786 -911,1046 -127,142 -218,204 -301,376z"/>
   <path class="fil0" d="M1600 19531l2506 3c251,0 470,-315 745,-590 241,-241 450,-450 691,-691l4141 -4154c-84,-164 -1113,-1364 -1270,-1435l-1684 1697c-584,578 -1136,1132 -1716,1715 -418,421 -3307,3252 -3413,3455z"/>
   <path class="fil0" d="M98030 8174l-735 431c158,497 830,1267 1362,1569 2297,1301 5152,-1307 3311,-3623 -1007,-1267 -2616,-1904 -3048,-2790 -415,-851 119,-1640 897,-1724 1005,-109 1422,620 1836,1077l519 -381c117,-89 125,-87 194,-176 -286,-492 -906,-1100 -1536,-1332 -846,-310 -1681,-76 -2246,369 -488,384 -903,1174 -678,2114 186,773 752,1273 1243,1651 530,409 1165,867 1601,1297 1867,1844 38,3272 -1233,2925 -898,-246 -1297,-1244 -1487,-1407z"/>
   <path class="fil0" d="M39634 18232c743,152 2038,-36 2584,-374 1451,-898 1358,-3138 14,-3923 -637,-373 -1722,-498 -2588,-389l-10 4686z"/>
   <path class="fil0" d="M71778 10284l886 2c3,-469 -68,-4127 63,-4383 347,-683 2685,-4276 2753,-4583l-1015 -3 -1958 3207c-96,157 -174,359 -332,453l-1116 -1826c-386,-610 -756,-1243 -1142,-1832l-1012 -1c59,199 2089,3429 2238,3665 826,1305 634,812 634,2298 0,1000 -8,2003 1,3003z"/>
   <path class="fil0" d="M103537 2176c242,75 1622,30 1981,29l18 8076 897 11 21 -8080 1993 -8 4 -879 -4909 -6 -5 857z"/>
   <path class="fil1" d="M88790 5244c1572,50 3695,262 3745,-1486 23,-798 -494,-1341 -1178,-1480 -571,-117 -1956,-103 -2584,-66 -37,314 -45,2837 17,3032z"/>
   <path class="fil0" d="M68176 10255l1 -843 -3402 0c-95,-71 -26,34 -67,-86l-7 -7979 -848 -1 5 8909 4318 0z"/>
   <path class="fil1" d="M57194 5215c329,91 2189,33 2552,-44 1669,-355 1612,-2598 25,-2898 -384,-72 -2197,-122 -2571,-48l-6 2990z"/>
   <polygon class="fil0" points="109612,10281 110517,10290 110518,1320 109626,1319 "/>
   <polygon class="fil0" points="95255,10285 96161,10288 96162,1324 95273,1318 "/>
   <path class="fil0" d="M84825 18250l593 2 6 -3468c307,268 609,592 875,889 307,343 2447,2609 2657,2731l0 -4862 -589 -4 -2 3441 -2188 -2253c-155,-161 -275,-299 -428,-465l-915 -918 -9 4907z"/>
   <path class="fil0" d="M78693 15879l-1878 -9 2 552 1201 1c2,782 -888,1494 -1763,1368 -793,-114 -1437,-822 -1563,-1604 -163,-1003 449,-1770 1100,-2048 367,-157 855,-210 1282,-71 532,172 664,410 951,658 136,-66 275,-207 391,-359 -156,-479 -1652,-1395 -3072,-632 -826,444 -1577,1579 -1159,2914 753,2403 4506,2380 4508,-770z"/>
   <path class="fil1" d="M40233 17706c1347,55 2415,-431 2431,-1779 16,-1396 -1040,-1904 -2427,-1835l-4 3614z"/>
   <polygon class="fil0" points="49457,18247 51996,18253 51998,17721 50059,17709 50057,15945 51936,15935 51940,15393 50060,15392 50056,14101 51984,14083 51997,13540 49476,13534 "/>
   <path class="fil0" d="M58684 16911l-577 115c1,455 332,867 548,1027 1170,865 2863,-256 2316,-1692 -331,-866 -1419,-885 -1873,-1292 -360,-323 -190,-798 198,-987 516,-252 854,-6 1129,328 178,-35 350,-160 464,-266 -419,-1092 -2754,-889 -2581,663 48,422 363,709 666,877 627,348 1811,532 1425,1549 -297,781 -1563,823 -1715,-322z"/>
   <path class="fil1" d="M123831 6451l176 18 2673 -1 164 -5c-34,-183 -1400,-3074 -1505,-3189l-1508 3177z"/>
   <path class="fil1" d="M49068 6465l2999 2 -1485 -3193c-94,88 -1485,3001 -1514,3191z"/>
   <polygon class="fil0" points="67300,18234 67895,18250 67898,13544 67311,13536 "/>
   <path class="fil2" d="M68176 10255l-4318 0 -5 -8909 848 1 7 7979c41,120 -28,15 67,86 -73,-300 -29,-5294 -29,-6053 0,-596 52,-1479 -13,-2041l-913 -19 -15 8994c444,53 3005,13 3838,13l403 2c172,-23 65,5 130,-53z"/>
  </g>
 </g>
</svg>
