<?xml version="1.0" encoding="UTF-8"?>
<!DOCTYPE svg PUBLIC "-//W3C//DTD SVG 1.1//EN" "http://www.w3.org/Graphics/SVG/1.1/DTD/svg11.dtd">
<!-- Creator: CorelDRAW X8 -->
<svg xmlns="http://www.w3.org/2000/svg" xml:space="preserve" width="2.44424in" height="2in" version="1.1" style="shape-rendering:geometricPrecision; text-rendering:geometricPrecision; image-rendering:optimizeQuality; fill-rule:evenodd; clip-rule:evenodd"
viewBox="0 0 75341 61647"
 xmlns:xlink="http://www.w3.org/1999/xlink">
 <defs>
  <style type="text/css">
   <![CDATA[
    .fil0 {fill:#FCBD62;fill-rule:nonzero}
    .fil1 {fill:#282828;fill-rule:nonzero}
   ]]>
  </style>
 </defs>
 <g id="Layer_x0020_1">
  <metadata id="CorelCorpID_0Corel-Layer"/>
  <g id="_1626196214976">
   <path class="fil0" d="M45217 38110l8607 0 0 -22420 -8607 -5800 0 28220zm21516 0l8606 0 0 -7918 -8606 -5801 0 13719zm-31735 215l8606 0 0 -29522 -8606 -5801 0 35323zm20977 -215l8606 0 0 -15169 -8606 -5800 0 20969zm10758 -16731l0 2279 8606 5801 0 -2263 -8606 -5817zm-31735 -19110l8606 5800 0 -2257 -8606 -5812 0 2269zm20977 14139l8606 5800 0 -2367 -8606 -6170 0 2737zm-10758 -7251l8607 5801 0 -2189 -8607 -6225 0 2613z"/>
   <path class="fil1" d="M8972 38189l7121 0 0 -2104 -7121 0 0 2104zm8902 0l7120 0 0 -2104 -7120 0 0 2104zm-17803 0l7120 0 0 -2104 -7120 0 0 2104zm26259 136l7120 0 0 -2240 -7120 0 0 2240zm0 -20474l0 17631 7120 0 0 -21291 -7120 3660zm-8456 17631l7120 0 0 -17170 -7120 3920 0 13250zm-17803 0l7120 0 0 -7829 -7120 3664 0 4165zm8901 0l7121 0 0 -12683 -7121 3886 0 8797z"/>
   <path class="fil1" d="M14 52104l1282 0 0 -3988c295,74 648,88 1031,88 1252,0 2357,-369 3035,-1093 501,-517 766,-1226 766,-2127 0,-886 -324,-1610 -869,-2082 -589,-532 -1518,-828 -2784,-828 -1032,0 -1842,89 -2461,192l0 9838zm1282 -8907c221,-59 648,-103 1208,-103 1414,0 2342,635 2342,1949 0,1374 -942,2127 -2489,2127 -427,0 -781,-29 -1061,-103l0 -3870zm13583 5775l1060 3132 1371 0 -3389 -9956 -1546 0 -3374 9956 1326 0 1031 -3132 3521 0zm-3256 -1004l972 -2880c192,-606 354,-1211 501,-1802l30 0c147,576 294,1167 515,1816l973 2866 -2991 0zm9855 -5820l0 5864c0,3087 1533,4254 3566,4254 2151,0 3756,-1255 3756,-4313l0 -5805 -1296 0 0 5894c0,2201 -943,3176 -2416,3176 -1326,0 -2313,-946 -2313,-3176l0 -5894 -1297 0zm12685 9956l5524 0 0 -1078 -4243 0 0 -8878 -1281 0 0 9956zm9590 -488c530,355 1576,636 2534,636 2342,0 3476,-1330 3476,-2866 0,-1462 -854,-2275 -2534,-2924 -1370,-532 -1973,-990 -1973,-1921 0,-679 515,-1492 1870,-1492 899,0 1562,296 1886,473l354 -1049c-442,-251 -1179,-487 -2196,-487 -1929,0 -3211,1152 -3211,2703 0,1403 1002,2245 2622,2821 1341,517 1871,1049 1871,1980 0,1004 -766,1698 -2077,1698 -884,0 -1724,-295 -2298,-650l-324 1078zm10886 -9468l0 5864c0,3087 1532,4254 3565,4254 2151,0 3757,-1255 3757,-4313l0 -5805 -1296 0 0 5894c0,2201 -943,3176 -2416,3176 -1326,0 -2313,-946 -2313,-3176l0 -5894 -1297 0zm13892 9956l0 -4254c0,-1654 -29,-2851 -103,-4106l45 -15c500,1078 1163,2215 1856,3323l3152 5052 1297 0 0 -9956 -1208 0 0 4166c0,1551 29,2762 147,4091l-29 15c-472,-1019 -1046,-2068 -1783,-3235l-3182 -5037 -1399 0 0 9956 1207 0z"/>
   <path class="fil1" d="M0 61531c393,45 857,72 1411,72 1170,0 2099,-305 2662,-869 563,-555 866,-1361 866,-2345 0,-976 -312,-1675 -848,-2167 -527,-492 -1322,-752 -2439,-752 -616,0 -1179,54 -1652,125l0 5936zm777 -5363c205,-45 509,-80 911,-80 1644,0 2447,904 2439,2328 0,1629 -903,2560 -2564,2560 -304,0 -590,-9 -786,-45l0 -4763zm10254 1907l-2340 0 0 -1907 2474 0 0 -653 -3251 0 0 6034 3385 0 0 -654 -2608 0 0 -2175 2340 0 0 -645zm5502 3474l2152 -6034 -830 0 -1019 2981c-267,788 -518,1549 -687,2247l-18 0c-161,-707 -384,-1441 -643,-2256l-938 -2972 -840 0 1965 6034 858 0zm7887 -3474l-2340 0 0 -1907 2474 0 0 -653 -3252 0 0 6034 3386 0 0 -654 -2608 0 0 -2175 2340 0 0 -645zm3242 3474l3349 0 0 -654 -2572 0 0 -5380 -777 0 0 6034zm8271 -6133c-1608,0 -2796,1254 -2796,3170 0,1826 1117,3061 2707,3061 1536,0 2795,-1101 2795,-3178 0,-1790 -1062,-3053 -2706,-3053zm-36 636c1295,0 1921,1253 1921,2453 0,1370 -697,2507 -1930,2507 -1223,0 -1920,-1155 -1920,-2444 0,-1325 643,-2516 1929,-2516zm5717 5497l777 0 0 -2417c179,44 393,53 625,53 759,0 1429,-223 1840,-662 304,-313 465,-743 465,-1289 0,-538 -197,-976 -527,-1263 -358,-322 -920,-501 -1688,-501 -626,0 -1117,54 -1492,116l0 5963zm777 -5399c134,-36 393,-62 732,-62 858,0 1421,385 1421,1182 0,832 -572,1289 -1510,1289 -259,0 -473,-18 -643,-63l0 -2346zm11058 5399l759 0 -375 -6034 -992 0 -1072 2918c-268,761 -482,1424 -634,2033l-27 0c-151,-627 -357,-1290 -607,-2033l-1027 -2918 -992 0 -419 6034 741 0 161 -2587c53,-905 98,-1916 116,-2668l18 0c169,716 411,1495 696,2345l974 2874 590 0 1062 -2927c304,-833 554,-1585 760,-2292l26 0c-8,752 45,1763 90,2605l152 2650zm7038 -3474l-2340 0 0 -1907 2474 0 0 -653 -3251 0 0 6034 3385 0 0 -654 -2608 0 0 -2175 2340 0 0 -645zm3975 3474l0 -2578c0,-1003 -18,-1728 -63,-2489l27 -9c304,653 706,1343 1125,2014l1912 3062 786 0 0 -6034 -733 0 0 2524c0,941 18,1675 90,2480l-18 9c-286,-617 -634,-1253 -1081,-1960l-1929 -3053 -849 0 0 6034 733 0zm8253 0l786 0 0 -5372 1840 0 0 -662 -4457 0 0 662 1831 0 0 5372z"/>
  </g>
 </g>
</svg>
