<svg xmlns="http://www.w3.org/2000/svg" viewBox="0 0 646.53 162.88"><defs><style>.cls-1{fill:#a22b2a;}.cls-1,.cls-2{fill-rule:evenodd;}.cls-2,.cls-3{fill:#3d4643;}</style></defs><g id="Layer_2" data-name="Layer 2"><g id="Layer_1-2" data-name="Layer 1"><path class="cls-1" d="M0,126.09l39.18-12.52A53.14,53.14,0,0,0,99.8,131.25l26.29,31.63L113.57,123.7a52.88,52.88,0,0,0,17.88-24.48A49,49,0,1,1,93.33,29.71a52.89,52.89,0,0,0-30.25,1.92L36.79,0,49.31,39.18A53.1,53.1,0,0,0,31.63,99.79Z"/><path class="cls-2" d="M54.44,46.1a46.09,46.09,0,0,1,69.17,3.24l59.14-22.59L131.18,63.14A46,46,0,0,1,96.72,123.2,44.46,44.46,0,1,0,54.44,46.1"/><path class="cls-1" d="M13.23,61.54l9-.61,6.22-.42a57.8,57.8,0,0,0-2.94,10.07l-5-3.7Zm48.31,88.11-.61-9-.42-6.22a57.8,57.8,0,0,0,10.07,2.94l-3.7,5Z"/><path class="cls-2" d="M101.34,13.23,96,20.46l-3.7,5a57.8,57.8,0,0,1,10.07,2.94L102,22.2Zm48.31,88.11L142.41,96l-5-3.7a57.8,57.8,0,0,1-2.94,10.07l6.22-.42Z"/><path class="cls-3" d="M206.4,72.88c0,12.76-15.94,13.3-18.12,13.3H183v20.09h-5.25V61.77h13.93C195.42,61.77,206.4,63.1,206.4,72.88Zm-5.52.79c0-7.76-4.46-9.5-12-9.5H183v19.6h4C195.61,83.77,200.88,81.59,200.88,73.67Z"/><path class="cls-3" d="M225.74,61.77H231v44.5h-5.24Z"/><path class="cls-3" d="M275,103.86v2.41H251.46V61.77h5.24v42.09Z"/><path class="cls-3" d="M337.81,84.17c0,18.85-16,23.33-25.23,23.33S287.36,103,287.36,84.17c0-16.42,12.09-23.27,25.22-23.27S337.81,67.75,337.81,84.17Zm-5.38,0c0-18.36-12.73-20.86-19.85-20.86s-19.84,2.5-19.84,20.86c0,18.62,11.59,20.93,19.84,20.93S332.43,102.79,332.43,84.17Z"/><path class="cls-3" d="M382.47,64.17H368.28v42.1H363V64.17H348.84v-2.4h33.63Z"/><path class="cls-3" d="M433.69,61.77v44.5h-5.24V84.21H406.91v22.06h-5.24V61.77h5.24v20h21.54v-20Z"/><path class="cls-3" d="M503.48,84.17c0,18.85-16,23.33-25.22,23.33S453,103,453,84.17c0-16.42,12.09-23.27,25.23-23.27S503.48,67.75,503.48,84.17Zm-5.38,0c0-18.36-12.73-20.86-19.84-20.86s-19.85,2.5-19.85,20.86c0,18.62,11.59,20.93,19.85,20.93S498.1,102.79,498.1,84.17Z"/><path class="cls-3" d="M557.75,61.77v28c0,11.67-6.07,17.7-17.82,17.7-8.62,0-17.14-3.28-17.14-17.7v-28H528v28c0,5,.65,15.31,13,15.31,8.36,0,14.22-4.44,14.22-16V61.77Z"/><path class="cls-3" d="M588.38,105.59c5.13,0,11.29-2.5,11.29-9,0-8.2-8.95-9.85-11.66-11.18-4.69-2.29-11.74-3.93-11.74-12.76s8.09-12.22,13.92-12.22a22.2,22.2,0,0,1,10.29,2.65v2.4a20,20,0,0,0-10.27-2.64c-5.5,0-9.89,2.92-9.89,7.93s3.33,7.48,8.81,9.85c4.67,2,14.73,3.91,14.73,14.22,0,7.86-7.53,13.17-15.48,13.17s-12.4-3.46-12.4-3.46v-2.4C578.57,104.06,582.14,105.59,588.38,105.59Z"/><path class="cls-3" d="M628.42,64.17V81.81h16.14v2.42H628.42V103.9h18.11v2.37H623.17V61.77h23.36v2.4Z"/><path class="cls-3" d="M110.74,77.17l-9.57-10v0h0l-16-16.75-2.07-2.17L81,50.35,65,67.09H65v0l-9.57,10,4.15,4.34L65,75.83V102h36.18V75.83l5.42,5.69ZM95.3,95.8H70.86V69.68L83.08,56.87,95.3,69.68Z"/><path class="cls-3" d="M181.68,140.91v6.32h-2.93V130.56h6.86a6.75,6.75,0,0,1,4.56,1.42,5.12,5.12,0,0,1,0,7.51,6.75,6.75,0,0,1-4.56,1.42Zm0-2.23h3.93a3.32,3.32,0,0,0,2.45-.83,2.83,2.83,0,0,0,.82-2.09,2.9,2.9,0,0,0-.82-2.12,3.24,3.24,0,0,0-2.45-.85h-3.93Z"/><path class="cls-3" d="M211.23,140.31v6.92H208.3V130.56h6.49a7.22,7.22,0,0,1,4.55,1.26,4.3,4.3,0,0,1,1.6,3.59,3.57,3.57,0,0,1-.7,2.23,4.87,4.87,0,0,1-2.06,1.49,3.67,3.67,0,0,1,2.13,1.46,4.49,4.49,0,0,1,.66,2.49v1.39a5.3,5.3,0,0,0,.19,1.43,1.93,1.93,0,0,0,.65,1.06v.27h-3a1.83,1.83,0,0,1-.62-1.19,9.87,9.87,0,0,1-.14-1.59v-1.34a2.69,2.69,0,0,0-.77-2,2.87,2.87,0,0,0-2.12-.76Zm0-2.23h3.4a4.11,4.11,0,0,0,2.57-.64,2.35,2.35,0,0,0,.81-2,2.5,2.5,0,0,0-.8-2,3.52,3.52,0,0,0-2.42-.72h-3.56Z"/><path class="cls-3" d="M251.94,140.39a6.84,6.84,0,0,1-2,5.07,7.12,7.12,0,0,1-5.24,2,6.81,6.81,0,0,1-7.11-7.08v-3a7,7,0,0,1,2-5.06,6.88,6.88,0,0,1,5.12-2,7.13,7.13,0,0,1,5.25,2,6.86,6.86,0,0,1,2,5.06Zm-2.92-3a5,5,0,0,0-1.18-3.42,4,4,0,0,0-3.18-1.34,3.76,3.76,0,0,0-3,1.34,5.12,5.12,0,0,0-1.12,3.42v3a5.17,5.17,0,0,0,1.12,3.45,3.78,3.78,0,0,0,3.07,1.35,4,4,0,0,0,3.18-1.34,5.1,5.1,0,0,0,1.16-3.46Z"/><path class="cls-3" d="M275.89,130.56h2.93v11.85a4.67,4.67,0,0,1-1.56,3.7,6,6,0,0,1-4,1.36,6.48,6.48,0,0,1-4.19-1.25,4.26,4.26,0,0,1-1.48-3.65l0-.07h2.83a2.62,2.62,0,0,0,.75,2.07,3,3,0,0,0,2.07.67,2.57,2.57,0,0,0,1.91-.77,2.83,2.83,0,0,0,.75-2.07Z"/><path class="cls-3" d="M306.76,139.73h-7.69V145H308v2.24H296.14V130.56H307.9v2.23h-8.83v4.71h7.69Z"/><path class="cls-3" d="M336.86,141.7l0,.07a5.13,5.13,0,0,1-1.73,4.11,7,7,0,0,1-4.82,1.59,6.69,6.69,0,0,1-5-2,6.83,6.83,0,0,1-1.93-5v-3.17a6.94,6.94,0,0,1,1.9-5,6.57,6.57,0,0,1,4.94-2,7.28,7.28,0,0,1,4.91,1.55A5.11,5.11,0,0,1,336.9,136l0,.07H334a3.5,3.5,0,0,0-1-2.62,3.87,3.87,0,0,0-2.83-.94,3.42,3.42,0,0,0-2.85,1.35,5.3,5.3,0,0,0-1.06,3.39v3.19a5.29,5.29,0,0,0,1.08,3.41,3.54,3.54,0,0,0,2.92,1.35,3.78,3.78,0,0,0,2.76-.93,3.48,3.48,0,0,0,.94-2.61Z"/><path class="cls-3" d="M365.35,132.79H360v14.44h-2.93V132.79H351.8v-2.23h13.55Z"/><path class="cls-3" d="M404.78,130.56l5.05,12.82h.07L415,130.56h3.8v16.67h-2.93v-5.68l.29-7.22-.07,0-5.22,12.92h-2l-5.19-12.88h-.07l.29,7.19v5.68H401V130.56Z"/><path class="cls-3" d="M445.73,143.33h-6.88l-1.4,3.9h-3l6.46-16.67h2.77l6.38,16.67h-3Zm-6-2.32h5.2l-2.54-7.12h-.07Z"/><path class="cls-3" d="M468.65,140.31v6.92h-2.93V130.56h6.49a7.21,7.21,0,0,1,4.55,1.26,4.3,4.3,0,0,1,1.61,3.59,3.58,3.58,0,0,1-.71,2.23,4.81,4.81,0,0,1-2.06,1.49,3.73,3.73,0,0,1,2.14,1.46,4.57,4.57,0,0,1,.65,2.49v1.39a5.3,5.3,0,0,0,.19,1.43,2,2,0,0,0,.65,1.06v.27h-3a1.83,1.83,0,0,1-.62-1.19,8.85,8.85,0,0,1-.14-1.59v-1.34a2.73,2.73,0,0,0-.77-2,2.91,2.91,0,0,0-2.13-.76Zm0-2.23h3.41a4.13,4.13,0,0,0,2.57-.64,2.37,2.37,0,0,0,.8-2,2.5,2.5,0,0,0-.79-2,3.53,3.53,0,0,0-2.43-.72h-3.56Z"/><path class="cls-3" d="M500.63,140h-2v7.21h-2.93V130.56h2.93v7.06h1.68l5.51-7.06h3.48l-6.4,8,6.89,8.71h-3.58Z"/><path class="cls-3" d="M535.8,139.73h-7.68V145H537v2.24H525.18V130.56H537v2.23h-8.83v4.71h7.68Z"/><path class="cls-3" d="M565.1,132.79h-5.31v14.44h-2.93V132.79h-5.31v-2.23H565.1Z"/><path class="cls-3" d="M584.08,147.23h-2.93V130.56h2.93Z"/><path class="cls-3" d="M615.39,147.23h-2.92l-7.79-12.17-.07,0v12.15h-2.93V130.56h2.93l7.79,12.16.07,0V130.56h2.92Z"/><path class="cls-3" d="M645.92,145a6.07,6.07,0,0,1-2.3,1.73,9.51,9.51,0,0,1-4.11.77,7.38,7.38,0,0,1-5.22-1.91,6.41,6.41,0,0,1-2-4.93v-3.48a6.61,6.61,0,0,1,1.94-4.93,6.81,6.81,0,0,1,5-1.9,7.26,7.26,0,0,1,4.82,1.45,4.79,4.79,0,0,1,1.75,3.77l0,.07H643a3.15,3.15,0,0,0-1-2.22,3.93,3.93,0,0,0-2.71-.84,3.71,3.71,0,0,0-2.94,1.29,4.87,4.87,0,0,0-1.11,3.29v3.5a4.66,4.66,0,0,0,1.21,3.31,4.13,4.13,0,0,0,3.14,1.3,6.9,6.9,0,0,0,2.24-.31,3.16,3.16,0,0,0,1.24-.71v-3.38H639.5v-2.08h6.42Z"/></g></g></svg>