<?xml version="1.0" encoding="UTF-8"?>
<!DOCTYPE svg PUBLIC "-//W3C//DTD SVG 1.1//EN" "http://www.w3.org/Graphics/SVG/1.1/DTD/svg11.dtd">
<!-- Creator: CorelDRAW X8 -->
<svg xmlns="http://www.w3.org/2000/svg" xml:space="preserve" width="2.5565in" height="0.765831in" version="1.1" style="shape-rendering:geometricPrecision; text-rendering:geometricPrecision; image-rendering:optimizeQuality; fill-rule:evenodd; clip-rule:evenodd"
viewBox="0 0 193223 57882"
 xmlns:xlink="http://www.w3.org/1999/xlink">
 <defs>
  <style type="text/css">
   <![CDATA[
    .fil0 {fill:#DCD1C7}
    .fil1 {fill:#282829;fill-rule:nonzero}
   ]]>
  </style>
 </defs>
 <g id="Layer_x0020_1">
  <metadata id="CorelCorpID_0Corel-Layer"/>
  <g id="_1626629690560">
   <rect class="fil0" width="193223" height="57882"/>
   <path class="fil1" d="M73914 39406c0,602 48,1004 142,1200 98,196 284,358 563,480 118,59 240,108 382,142 137,39 284,69 441,89 245,39 407,88 480,151 73,64 108,152 108,265 0,78 -39,142 -113,186 -78,49 -186,74 -318,74 -20,0 -358,-30 -1019,-89 -662,-58 -1313,-88 -1950,-88 -651,0 -1308,30 -1969,88 -661,59 -994,89 -1004,89 -137,0 -245,-25 -324,-74 -83,-44 -122,-108 -122,-186 0,-93 34,-172 98,-230 68,-59 230,-118 490,-186 161,-20 308,-50 441,-89 132,-34 259,-83 372,-142 274,-122 465,-284 563,-480 103,-196 152,-598 152,-1200l0 -15460c0,-534 -54,-902 -157,-1102 -107,-201 -289,-358 -558,-461 -123,-49 -353,-108 -686,-186 -49,-10 -78,-15 -88,-15 -255,-49 -421,-88 -500,-127 -73,-39 -117,-93 -127,-172 0,-195 333,-342 1004,-436 59,-9 103,-19 142,-29 1014,-132 1989,-323 2925,-558 191,-49 303,-79 333,-89 103,0 181,40 225,113 49,78 74,201 74,363l0 18159z"/>
   <path id="1" class="fil1" d="M80492 35531c0,1979 358,3508 1068,4585 716,1073 1720,1612 3018,1612 1386,0 2439,-534 3155,-1607 720,-1073 1078,-2645 1078,-4717 0,-1960 -373,-3483 -1112,-4571 -740,-1082 -1779,-1626 -3121,-1626 -1220,0 -2209,573 -2959,1719 -749,1152 -1127,2685 -1127,4605zm-2850 -44c0,-1930 690,-3551 2067,-4864 1376,-1318 3076,-1975 5094,-1975 916,0 1774,162 2562,491 789,323 1514,803 2170,1444 672,671 1196,1426 1568,2259 373,837 559,1670 559,2503 0,911 -182,1793 -539,2645 -358,858 -867,1622 -1529,2288 -686,710 -1425,1230 -2214,1568 -793,333 -1680,499 -2665,499 -2047,0 -3737,-646 -5070,-1935 -1337,-1293 -2003,-2934 -2003,-4923z"/>
   <path id="2" class="fil1" d="M97124 33322c0,1293 259,2302 774,3042 514,735 1229,1102 2135,1102 936,0 1671,-362 2205,-1082 529,-721 793,-1725 793,-3003 0,-1313 -269,-2327 -808,-3057 -544,-725 -1288,-1088 -2248,-1088 -848,0 -1539,373 -2063,1117 -524,745 -788,1734 -788,2969zm759 4345c-1024,-382 -1818,-945 -2381,-1685 -563,-740 -848,-1597 -848,-2572 0,-1367 520,-2503 1558,-3405 1039,-906 2352,-1357 3939,-1357 744,0 1440,113 2082,338 637,226 1229,564 1763,1024l476 -298c499,-348 935,-593 1307,-750 373,-152 730,-225 1078,-225 544,0 980,117 1308,357 323,236 490,564 490,975 0,255 -93,475 -270,656 -176,182 -391,275 -651,275 -270,0 -593,-181 -970,-544 -377,-362 -710,-544 -999,-544 -142,0 -314,39 -510,128 -196,83 -455,230 -783,431 382,514 656,1014 827,1499 172,480 260,989 260,1523 0,1397 -436,2464 -1303,3199 -872,735 -2229,1181 -4076,1333 -1587,122 -2586,279 -2998,470 -411,186 -617,480 -617,887 10,592 1151,915 3419,965 265,0 466,0 603,0 2322,58 3992,445 5006,1161 1014,720 1524,1861 1524,3429 0,1567 -598,2807 -1788,3718 -1191,906 -2827,1361 -4904,1361 -1861,0 -3380,-386 -4546,-1160 -1170,-774 -1754,-1769 -1754,-2984 0,-642 226,-1210 676,-1700 446,-494 961,-739 1534,-739 304,0 548,39 725,112 176,79 264,177 264,304 0,30 -53,78 -156,157 -755,524 -1132,1274 -1132,2248 0,931 416,1666 1254,2210 838,543 1979,818 3424,818 1387,0 2479,-304 3273,-911 793,-608 1190,-1446 1190,-2509 0,-1033 -343,-1758 -1034,-2179 -691,-422 -2023,-642 -4002,-662 -1744,-19 -3008,-245 -3796,-676 -794,-431 -1186,-1107 -1186,-2038 0,-690 230,-1259 696,-1709 460,-446 1141,-760 2028,-931z"/>
   <path id="3" class="fil1" d="M112843 35531c0,1979 358,3508 1068,4585 716,1073 1719,1612 3018,1612 1386,0 2439,-534 3155,-1607 720,-1073 1077,-2645 1077,-4717 0,-1960 -372,-3483 -1112,-4571 -739,-1082 -1778,-1626 -3120,-1626 -1220,0 -2210,573 -2959,1719 -749,1152 -1127,2685 -1127,4605zm-2851 -44c0,-1930 691,-3551 2067,-4864 1377,-1318 3077,-1975 5095,-1975 916,0 1773,162 2562,491 789,323 1514,803 2170,1444 671,671 1195,1426 1568,2259 372,837 558,1670 558,2503 0,911 -181,1793 -539,2645 -357,858 -867,1622 -1528,2288 -686,710 -1426,1230 -2214,1568 -794,333 -1680,499 -2665,499 -2048,0 -3738,-646 -5070,-1935 -1337,-1293 -2004,-2934 -2004,-4923z"/>
  </g>
 </g>
</svg>
