<svg version="1.2" xmlns="http://www.w3.org/2000/svg" viewBox="0 0 51 51" width="51" height="51"><defs><clipPath clipPathUnits="userSpaceOnUse" id="cp1"><path d="m-871-1985h2280v2928h-2280z"/></clipPath></defs><style>.a{fill:#ff9428}.b{fill:#fff}.c{fill:none;stroke:#ff9428;stroke-miterlimit:2.61299991607666;stroke-width:1.4}</style><g clip-path="url(#cp1)"><path class="a" d="m25.3 5.3c11.2 0 20.3 9.1 20.3 20.4 0 11.2-9.1 20.3-20.3 20.3-11.2 0-20.3-9.1-20.3-20.3 0-11.3 9.1-20.4 20.3-20.4z"/><path fill-rule="evenodd" class="b" d="m18.8 19.5v3.6h-1.5v-8.8h3.4c1.8 0 3 0.9 3 2.6 0 1.5-0.9 2.3-2.3 2.5l2.6 3.7h-1.7l-2.5-3.6zm0-1.3h1.9c1 0 1.6-0.5 1.6-1.3 0-0.8-0.6-1.3-1.6-1.3h-1.9zm2.6 10l3.4 8.8h-1.5l-0.9-2.4h-3.4l-0.9 2.4h-1.5l3.4-8.8zm-2 5.1h2.5l-1.2-3.3zm-2.4-8.2h6.8v1h-6.8z"/><path fill-rule="evenodd" class="b" d="m25.3 9.3c4.5 0 8.6 1.9 11.6 4.8 2.9 3 4.7 7.1 4.7 11.6 0 4.5-1.8 8.6-4.7 11.5-3 3-7.1 4.8-11.6 4.8-4.5 0-8.6-1.8-11.5-4.8-3-2.9-4.8-7-4.8-11.5 0-4.5 1.8-8.6 4.8-11.6 2.9-2.9 7-4.8 11.5-4.8zm10.5 5.9c-2.7-2.7-6.4-4.3-10.5-4.3-4.1 0-7.8 1.6-10.5 4.3-2.6 2.7-4.3 6.4-4.3 10.5 0 4.1 1.7 7.8 4.3 10.4 2.7 2.7 6.4 4.4 10.5 4.4 4.1 0 7.8-1.7 10.5-4.4 2.6-2.6 4.3-6.3 4.3-10.4 0-4.1-1.7-7.8-4.3-10.5z"/><path class="c" d="m25.3 1.7c13.2 0 24 10.7 24 24 0 13.2-10.8 23.9-24 23.9-13.2 0-24-10.7-24-23.9 0-13.3 10.8-24 24-24z"/></g></svg>