<?xml version="1.0" encoding="UTF-8"?>
<!DOCTYPE svg PUBLIC "-//W3C//DTD SVG 1.1//EN" "http://www.w3.org/Graphics/SVG/1.1/DTD/svg11.dtd">
<!-- Creator: CorelDRAW X8 -->
<svg xmlns="http://www.w3.org/2000/svg" xml:space="preserve" width="0.783331in" height="0.783331in" version="1.1" style="shape-rendering:geometricPrecision; text-rendering:geometricPrecision; image-rendering:optimizeQuality; fill-rule:evenodd; clip-rule:evenodd"
viewBox="0 0 3658 3658"
 xmlns:xlink="http://www.w3.org/1999/xlink">
 <defs>
  <style type="text/css">
   <![CDATA[
    .fil0 {fill:#0098DA}
    .fil1 {fill:#FEFEFE;fill-rule:nonzero}
   ]]>
  </style>
 </defs>
 <g id="Layer_x0020_1">
  <metadata id="CorelCorpID_0Corel-Layer"/>
  <g id="_2406321650336">
   <rect class="fil0" width="3658" height="3658" rx="343" ry="343"/>
   <path class="fil1" d="M1470 2207c0,-9 1,-18 0,-27 -13,-97 -108,-193 -239,-155 -96,27 -151,131 -126,233 28,108 141,161 246,126 74,-26 120,-94 119,-177zm899 187c110,0 189,-79 189,-188 1,-102 -81,-190 -188,-190 -98,-1 -184,86 -184,188 0,109 78,190 183,190zm-541 -985l0 0c175,0 350,0 524,0 12,0 24,-1 36,-2 92,-10 161,-86 162,-179 0,-160 0,-320 0,-479 -1,-63 -27,-113 -80,-149 -34,-24 -73,-33 -114,-33 -352,0 -703,0 -1055,0 -4,0 -9,-1 -14,0 -20,4 -42,6 -61,13 -70,27 -112,92 -112,172 -1,157 -1,315 0,472 0,35 7,68 25,99 35,56 86,85 151,86 180,1 359,0 538,0zm625 1177c169,251 338,501 508,754l-15 0c-87,0 -174,-1 -262,0 -9,0 -14,-3 -19,-10 -109,-165 -220,-329 -330,-494 -5,-7 -10,-10 -19,-10 -325,0 -649,0 -973,0 -10,0 -16,3 -21,11 -109,163 -219,327 -328,490 -7,10 -13,13 -24,13 -86,-1 -172,0 -257,0l-16 0c170,-253 338,-503 506,-751 -30,-9 -60,-15 -88,-27 -128,-56 -208,-153 -239,-289 -7,-29 -9,-59 -9,-89 -1,-488 -1,-976 0,-1464 0,-166 79,-286 225,-363 56,-30 118,-39 181,-39 376,0 751,0 1126,1 125,0 226,53 304,148 46,55 74,119 84,190 3,22 4,44 4,67 1,485 1,971 1,1457 -1,156 -69,275 -202,356 -39,25 -83,38 -128,47 -3,1 -5,1 -9,2z"/>
  </g>
 </g>
</svg>
