<?xml version="1.0" encoding="UTF-8"?>
<!DOCTYPE svg PUBLIC "-//W3C//DTD SVG 1.1//EN" "http://www.w3.org/Graphics/SVG/1.1/DTD/svg11.dtd">
<!-- Creator: CorelDRAW X8 -->
<svg xmlns="http://www.w3.org/2000/svg" xml:space="preserve" width="1.00395in" height="1.02728in" version="1.1" style="shape-rendering:geometricPrecision; text-rendering:geometricPrecision; image-rendering:optimizeQuality; fill-rule:evenodd; clip-rule:evenodd"
viewBox="0 0 9268 9483"
 xmlns:xlink="http://www.w3.org/1999/xlink">
 <defs>
  <style type="text/css">
   <![CDATA[
    .fil0 {fill:#00AEEF}
    .fil1 {fill:white}
   ]]>
  </style>
 </defs>
 <g id="Layer_x0020_1">
  <metadata id="CorelCorpID_0Corel-Layer"/>
  <g id="_1397211352160">
   <rect class="fil0" x="217" y="7292" width="8833" height="1974"/>
   <g>
    <rect class="fil1" width="9268" height="7292"/>
    <g>
     <g>
      <path class="fil0" d="M4633 1034c1817,0 3427,894 4417,2266l0 -3082 -8832 0 0 3081c989,-1371 2600,-2265 4415,-2265z"/>
      <path class="fil0" d="M4633 1252c-1838,0 -3462,940 -4415,2364l0 3458 8832 0 0 -3457c-953,-1425 -2577,-2365 -4417,-2365z"/>
      <path class="fil1" d="M4633 1252c1840,0 3464,940 4417,2365l0 -317c-990,-1372 -2600,-2266 -4417,-2266 -1815,0 -3426,894 -4415,2265l0 317c953,-1424 2577,-2364 4415,-2364z"/>
     </g>
     <g>
      <path class="fil1" d="M1088 4880c-19,36 -33,70 -44,103 -355,106 -591,12 -607,5 -36,-15 -76,2 -91,37 -16,36 1,76 36,91 17,8 263,108 630,20 0,4 -1,9 -1,14 0,103 44,174 101,211 159,104 510,15 1020,-505 -33,94 -63,197 -81,303 -1,5 -2,10 -2,14 0,29 18,56 45,66 55,23 87,-23 115,-63l70 -105c61,-92 199,-299 292,-408 -11,60 -23,127 -23,191 0,86 21,164 91,205 58,34 151,46 354,-75 17,47 51,69 71,79 129,60 373,-70 628,-313 -35,77 -61,141 -68,167 -2,8 -2,15 -2,21 0,33 19,56 42,66 56,25 91,-24 119,-64l77 -111c64,-94 213,-314 301,-405 26,63 72,143 155,190 -24,54 -36,101 -36,141 0,48 18,85 54,110 66,44 165,20 268,-36 -330,327 -482,654 -487,799 0,3 0,6 0,8 0,81 40,114 64,126 50,25 112,9 183,-47 249,-198 430,-667 522,-954 125,-101 270,-199 437,-289 -54,95 -85,185 -85,257 0,27 4,51 11,72 20,51 61,83 113,89 115,12 274,-108 461,-339 -16,46 -32,90 -48,134 -520,410 -753,848 -783,1086 -3,19 -4,37 -4,53 0,95 38,139 73,159 39,23 107,33 206,-42 110,-84 372,-495 626,-1173 337,-259 800,-507 1415,-677 31,-9 51,-36 51,-67 0,-6 -1,-13 -3,-19 -10,-37 -48,-58 -86,-48 -537,149 -962,357 -1295,582 40,-117 79,-242 118,-373 1,-6 2,-13 2,-19 0,-27 -15,-52 -41,-64 -31,-14 -69,-2 -87,27 -347,544 -543,643 -586,642 -3,-5 -4,-12 -4,-22 0,-62 53,-217 224,-398 12,-14 19,-31 19,-48 0,-14 -4,-28 -12,-40 -19,-27 -54,-37 -85,-24 -219,92 -407,202 -571,318 2,-7 3,-12 3,-14 2,-6 3,-11 3,-17 0,-25 -15,-49 -38,-61 -1,-1 -2,-1 -3,-1 47,-38 97,-80 149,-127 54,-51 68,-97 68,-132 0,-15 -2,-27 -6,-37 -16,-49 -61,-82 -124,-89 -154,-18 -397,112 -616,434 -74,-40 -103,-137 -117,-182l-5 -18c-9,-29 -36,-47 -67,-47 -47,1 -98,33 -177,126 1,-2 2,-4 4,-6 4,-10 6,-20 6,-30 0,-24 -12,-47 -33,-60 -31,-18 -71,-11 -92,18 -388,523 -728,668 -781,642 -1,-2 -2,-6 -2,-15 0,-6 1,-14 3,-24 87,-62 189,-143 310,-249 113,-98 139,-177 139,-229 0,-23 -6,-41 -11,-53 -23,-54 -78,-84 -145,-78 -144,12 -324,181 -415,524 -225,154 -286,131 -294,126 -31,-18 -28,-114 7,-286 15,-77 22,-112 5,-144 -17,-31 -46,-49 -80,-51 -73,-3 -156,73 -328,317 68,-163 134,-274 136,-276 7,-11 10,-24 10,-36 0,-22 -10,-43 -30,-57 -29,-21 -70,-15 -94,13 -612,747 -1028,903 -1147,825 -25,-16 -38,-49 -38,-92 0,-18 3,-38 7,-60 230,-81 495,-238 775,-526 166,-169 255,-328 255,-448 0,-27 -5,-52 -14,-75 -24,-63 -81,-101 -155,-105 -220,-10 -592,277 -930,942zm924 -803c26,1 30,11 32,16 2,7 4,15 4,25 0,60 -54,185 -216,351 -217,222 -422,361 -605,444 322,-619 651,-842 785,-836zm1373 365c23,-12 39,-14 48,-14 -3,16 -21,56 -89,116 -51,44 -98,83 -140,118 70,-149 151,-204 181,-220zm1545 -239c25,-6 43,-6 54,-5 -4,5 -8,11 -15,17 -160,149 -301,243 -413,280 175,-227 326,-281 374,-292zm-210 372c-135,119 -258,174 -301,175 0,-14 6,-44 33,-100 80,3 169,-22 268,-75zm-54 386c-95,243 -229,517 -391,645 -8,6 -15,11 -20,15 7,-101 130,-371 411,-660zm459 863c0,-32 7,-83 33,-157 64,-182 224,-442 508,-708 -213,512 -413,815 -486,872 -24,18 -41,26 -50,28 -3,-6 -5,-17 -5,-35z"/>
      <path class="fil1" d="M7119 2524c-43,0 -81,26 -97,66 0,0 -383,981 -427,1093 -120,6 -1165,61 -1165,61 -56,3 -99,50 -99,105 0,1 0,3 0,5 3,58 52,102 110,99l1233 -65c40,-2 77,-29 92,-67 0,0 233,-599 353,-906 119,306 351,903 351,903 15,38 51,63 91,66 0,0 637,36 962,55 -251,209 -743,618 -743,618 -24,20 -38,49 -38,80 0,8 1,17 3,26 0,0 158,617 240,934 -274,-177 -808,-522 -808,-522 -34,-22 -78,-22 -113,0 0,0 -539,344 -819,521 85,-307 239,-861 239,-861 2,-9 3,-18 3,-27 0,-46 -30,-88 -77,-101 -55,-15 -113,17 -128,73l-310 1122c-12,42 4,86 38,112 35,25 82,27 119,4 0,0 890,-567 991,-631 100,65 976,629 976,629 36,23 82,22 117,-3 28,-20 44,-51 44,-84 0,-9 -2,-18 -4,-26 0,0 -260,-1014 -289,-1128 91,-76 896,-745 896,-745 24,-20 38,-49 38,-80 0,-11 -2,-22 -6,-32 -13,-41 -50,-69 -93,-72 0,0 -1039,-59 -1159,-66 -43,-112 -424,-1090 -424,-1090 -15,-40 -54,-66 -97,-66l0 0z"/>
     </g>
    </g>
   </g>
   <polygon class="fil1" points="9050,7292 9050,9266 217,9266 217,7292 0,7292 0,9266 0,9483 217,9483 9050,9483 9268,9483 9268,9483 9268,7292 "/>
   <g>
    <polygon class="fil1" points="598,8831 598,7726 1167,7726 1167,7849 739,7849 739,8204 1137,8204 1137,8326 739,8326 739,8709 1177,8709 1177,8831 598,8831 "/>
    <polygon class="fil1" points="2110,7726 2110,8831 1917,8831 1481,7873 1478,7873 1478,8831 1353,8831 1353,7726 1552,7726 1982,8672 1985,8672 1985,7726 "/>
    <polygon class="fil1" points="2306,8831 2306,7726 2875,7726 2875,7849 2446,7849 2446,8204 2844,8204 2844,8326 2446,8326 2446,8709 2884,8709 2884,8831 2306,8831 "/>
    <path class="fil1" d="M3194 7849l213 0c108,0 148,89 148,168 0,97 -49,184 -150,184l-211 0 0 -352 0 0zm165 474c48,0 156,6 167,141 12,147 3,291 43,367l147 0c-22,-68 -37,-242 -38,-289 -8,-222 -54,-264 -181,-284l0 -4c130,-23 202,-122 202,-252 0,-138 -69,-276 -265,-276l-381 0 0 1105 141 0 0 -508 165 0 0 0z"/>
    <path class="fil1" d="M4381 8022c0,-130 -54,-201 -196,-201 -45,0 -204,8 -204,239l0 374c0,241 71,302 204,302 101,0 168,-27 197,-49l0 -330 -203 0 0 -122 344 0 0 537c-90,49 -196,82 -338,82 -234,0 -347,-121 -347,-427l0 -362c0,-221 113,-361 347,-361 239,0 352,87 343,318l-147 0 0 0z"/>
    <polygon class="fil1" points="5197,7726 5340,7726 5038,8410 5038,8831 4898,8831 4898,8410 4601,7726 4758,7726 4974,8260 "/>
    <path class="fil1" d="M5815 8502l0 32c0,150 95,198 185,198 112,0 198,-48 198,-179 0,-245 -496,-217 -496,-550 0,-195 139,-299 325,-299 202,0 315,98 305,323l-146 0c1,-122 -37,-201 -170,-201 -84,0 -170,43 -170,162 0,243 496,208 496,559 0,232 -161,307 -343,307 -326,3 -326,-246 -323,-352l139 0 0 0z"/>
    <polygon class="fil1" points="7127,7726 7127,7849 6837,7849 6837,8831 6696,8831 6696,7849 6405,7849 6405,7726 7127,7726 "/>
    <path class="fil1" d="M7624 8446l-353 0 172 -589 3 0 178 589zm-613 385l142 0 83 -263 427 0 79 263 158 0 -360 -1105 -179 0 -350 1105z"/>
    <path class="fil1" d="M8149 7849l213 0c108,0 148,89 148,168 0,97 -49,184 -150,184l-211 0 0 -352 0 0zm165 474c48,0 156,6 167,141 12,147 3,291 43,367l147 0c-22,-68 -37,-242 -39,-289 -7,-222 -53,-264 -180,-284l0 -4c130,-23 202,-122 202,-252 0,-138 -69,-276 -265,-276l-381 0 0 1105 141 0 0 -508 165 0 0 0z"/>
   </g>
  </g>
 </g>
</svg>
