<?xml version="1.0" encoding="UTF-8"?>
<!DOCTYPE svg PUBLIC "-//W3C//DTD SVG 1.1//EN" "http://www.w3.org/Graphics/SVG/1.1/DTD/svg11.dtd">
<!-- Creator: CorelDRAW X8 -->
<svg xmlns="http://www.w3.org/2000/svg" xml:space="preserve" width="3.23322in" height="0.642051in" version="1.1" style="shape-rendering:geometricPrecision; text-rendering:geometricPrecision; image-rendering:optimizeQuality; fill-rule:evenodd; clip-rule:evenodd"
viewBox="0 0 133859 26582"
 xmlns:xlink="http://www.w3.org/1999/xlink">
 <defs>
  <style type="text/css">
   <![CDATA[
    .fil0 {fill:#1B2B58;fill-rule:nonzero}
    .fil1 {fill:#2354A5;fill-rule:nonzero}
   ]]>
  </style>
 </defs>
 <g id="Layer_x0020_1">
  <metadata id="CorelCorpID_0Corel-Layer"/>
  <g id="_1397211350496">
   <g>
    <path class="fil0" d="M20548 12005l9583 0 0 -11382 -9583 0 0 11382zm-10920 0l10823 0 -9196 -11382 -11255 0 0 22960 9583 -11512 45 -66z"/>
    <g>
     <path class="fil1" d="M30131 13344l-19416 0 8633 12963c2859,-1252 6582,-2183 10795,-2649l-12 -10314zm0 0l0 0 0 0z"/>
    </g>
    <polygon class="fil1" points="131257,17316 130834,17316 130834,17084 131975,17084 131975,17316 131552,17316 131552,18559 131257,18559 "/>
    <polygon class="fil1" points="132206,17084 132680,17084 133030,18202 133034,18202 133385,17084 133859,17084 133859,18559 133575,18559 133575,17341 133571,17341 133174,18559 132891,18559 132494,17341 132489,17346 132489,18559 132206,18559 "/>
    <polygon class="fil1" points="35545,9666 37272,9666 37272,2939 37298,2939 40739,9666 42943,9666 42943,671 41216,671 41216,7398 41190,7398 37762,671 35545,671 "/>
    <path class="fil1" d="M45134 4859c580,-438 1315,-722 2049,-722 1019,0 1495,361 1495,1431l-954 0c-721,0 -1572,64 -2229,387 -657,322 -1134,902 -1134,1894 0,1263 1147,1972 2320,1972 786,0 1649,-412 2049,-1147l26 0c13,206 13,644 77,992l1521 0c-39,-515 -65,-979 -78,-1482 -12,-489 -25,-992 -25,-1662l0 -851c0,-1959 -838,-2797 -2862,-2797 -734,0 -1636,194 -2307,503l52 1482zm877 2887c0,-1018 1147,-1147 1920,-1147l747 0c0,516 -77,993 -360,1366 -271,361 -684,593 -1212,593 -619,0 -1095,-245 -1095,-812z"/>
    <path class="fil1" d="M52519 7669c0,1315 747,2152 2101,2152 515,0 915,-51 1276,-155l-52 -1366c-181,116 -477,181 -786,181 -657,0 -812,-529 -812,-1096l0 -3093 1534 0 0 -1263 -1534 0 0 -1882 -1727 555 0 1327 -1276 0 0 1263 1276 0 0 3377z"/>
    <path class="fil1" d="M57004 9666l1727 0 0 -6637 -1727 0 0 6637zm0 -7848l1727 0 0 -1650 -1727 0 0 1650z"/>
    <path class="fil1" d="M60122 6393c0,1907 1276,3428 3467,3428 2204,0 3480,-1521 3480,-3428 0,-2191 -1508,-3519 -3480,-3519 -1959,0 -3467,1328 -3467,3519zm1805 -206c0,-993 541,-1972 1662,-1972 1134,0 1676,954 1676,1972 0,1108 -348,2294 -1676,2294 -1314,0 -1662,-1199 -1662,-2294z"/>
    <path class="fil1" d="M68422 9666l1727 0 0 -3247c0,-851 271,-2204 1521,-2204 1109,0 1121,1095 1121,1907l0 3544 1727 0 0 -4188c0,-1495 -683,-2604 -2255,-2604 -902,0 -1637,297 -2178,1057l-26 0 0 -902 -1637 0 0 6637z"/>
    <path class="fil1" d="M76645 4859c580,-438 1315,-722 2049,-722 1018,0 1495,361 1495,1431l-954 0c-721,0 -1572,64 -2229,387 -657,322 -1134,902 -1134,1894 0,1263 1147,1972 2320,1972 786,0 1649,-412 2049,-1147l26 0c12,206 12,644 77,992l1521 0c-39,-515 -65,-979 -78,-1482 -13,-489 -25,-992 -25,-1662l0 -851c0,-1959 -838,-2797 -2862,-2797 -734,0 -1636,194 -2307,503l52 1482zm876 2887c0,-1018 1147,-1147 1921,-1147l747 0c0,516 -77,993 -361,1366 -270,361 -683,593 -1211,593 -619,0 -1096,-245 -1096,-812z"/>
    <rect class="fil1" x="83502" width="1727" height="9666"/>
    <polygon class="fil1" points="35562,23720 37367,23720 37367,19776 40975,19776 40975,23720 42780,23720 42780,14724 40975,14724 40975,18359 37367,18359 37367,14724 35562,14724 "/>
    <path class="fil1" d="M44287 20447c0,1907 1276,3428 3467,3428 2204,0 3480,-1521 3480,-3428 0,-2191 -1508,-3519 -3480,-3519 -1959,0 -3467,1328 -3467,3519zm1805 -206c0,-993 541,-1973 1662,-1973 1134,0 1676,954 1676,1973 0,1108 -348,2294 -1676,2294 -1314,0 -1662,-1199 -1662,-2294z"/>
    <path class="fil1" d="M52561 23720l1727 0 0 -3222c0,-863 142,-2230 1289,-2230 993,0 993,877 993,1495l0 3957 1727 0 0 -3222c0,-863 141,-2230 1288,-2230 993,0 993,877 993,1495l0 3957 1727 0 0 -4189c0,-1481 -464,-2603 -2101,-2603 -812,0 -1675,374 -2075,1173 -374,-825 -1031,-1173 -1959,-1173 -644,0 -1430,271 -1972,1083l-26 0 0 -928 -1611 0 0 6637z"/>
    <path class="fil1" d="M65269 19751c77,-890 567,-1560 1534,-1560 966,0 1353,722 1405,1560l-2939 0zm4099 2191c-645,361 -1367,670 -2204,670 -1070,0 -1818,-606 -1895,-1676l4588 0c0,-2320 -696,-4008 -3157,-4008 -2062,0 -3081,1586 -3081,3506 0,2178 1276,3441 3467,3441 928,0 1650,-181 2282,-529l0 -1404z"/>
    <polygon class="fil1" points="76417,23720 78750,23720 80348,16529 80373,16529 81997,23720 84317,23720 86663,14724 84910,14724 83222,21916 83196,21916 81611,14724 79162,14724 77628,21916 77602,21916 75927,14724 74033,14724 "/>
    <path class="fil1" d="M87552 18913c580,-438 1315,-722 2050,-722 1018,0 1495,361 1495,1431l-954 0c-722,0 -1573,64 -2230,387 -657,322 -1134,902 -1134,1894 0,1263 1147,1972 2320,1972 786,0 1650,-413 2049,-1147l26 0c13,206 13,644 77,992l1521 0c-39,-515 -64,-979 -77,-1482 -13,-490 -26,-992 -26,-1663l0 -850c0,-1959 -838,-2797 -2861,-2797 -735,0 -1637,193 -2308,503l52 1482zm877 2887c0,-1018 1147,-1147 1920,-1147l748 0c0,515 -78,992 -361,1366 -271,361 -684,593 -1212,593 -619,0 -1095,-245 -1095,-812z"/>
    <path class="fil1" d="M94409 23720l1727 0 0 -2436c0,-953 0,-2706 1404,-2706 310,0 619,51 774,142l0 -1740c-181,-52 -361,-52 -529,-52 -1031,0 -1740,1044 -1817,1663l-26 0 0 -1508 -1533 0 0 6637z"/>
    <path class="fil1" d="M99422 23720l1727 0 0 -2436c0,-953 0,-2706 1405,-2706 309,0 619,51 773,142l0 -1740c-180,-52 -361,-52 -528,-52 -1031,0 -1740,1044 -1818,1663l-25 0 0 -1508 -1534 0 0 6637z"/>
    <path class="fil1" d="M104745 18913c580,-438 1314,-722 2049,-722 1018,0 1495,361 1495,1431l-954 0c-721,0 -1572,64 -2229,387 -658,322 -1134,902 -1134,1894 0,1263 1147,1972 2319,1972 787,0 1650,-413 2050,-1147l25 0c13,206 13,644 78,992l1520 0c-38,-515 -64,-979 -77,-1482 -13,-490 -26,-992 -26,-1663l0 -850c0,-1959 -838,-2797 -2861,-2797 -734,0 -1637,193 -2307,503l52 1482zm876 2887c0,-1018 1147,-1147 1920,-1147l748 0c0,515 -77,992 -361,1366 -270,361 -683,593 -1211,593 -619,0 -1096,-245 -1096,-812z"/>
    <path class="fil1" d="M111563 23720l1727 0 0 -3248c0,-850 270,-2204 1520,-2204 1109,0 1122,1096 1122,1908l0 3544 1727 0 0 -4189c0,-1495 -684,-2603 -2256,-2603 -902,0 -1637,297 -2178,1057l-26 0 0 -902 -1636 0 0 6637z"/>
    <path class="fil1" d="M120004 21722c0,1315 748,2153 2101,2153 515,0 915,-52 1276,-155l-52 -1366c-180,116 -477,181 -786,181 -657,0 -812,-529 -812,-1096l0 -3093 1534 0 0 -1263 -1534 0 0 -1882 -1727 554 0 1328 -1276 0 0 1263 1276 0 0 3376z"/>
    <path class="fil1" d="M125610 17083l-1907 0 2539 6972c0,709 -425,1186 -1121,1186 -426,0 -670,-39 -890,-116l-116 1276c400,116 812,181 1225,181 1804,0 2204,-1444 2758,-2913l2487 -6586 -1753 0 -1598 4846 -26 0 -1598 -4846z"/>
   </g>
  </g>
 </g>
</svg>
