<?xml version="1.0" encoding="UTF-8"?>
<!DOCTYPE svg PUBLIC "-//W3C//DTD SVG 1.1//EN" "http://www.w3.org/Graphics/SVG/1.1/DTD/svg11.dtd">
<!-- Creator: CorelDRAW X8 -->
<svg xmlns="http://www.w3.org/2000/svg" xml:space="preserve" width="6.70833in" height="0.833331in" version="1.1" style="shape-rendering:geometricPrecision; text-rendering:geometricPrecision; image-rendering:optimizeQuality; fill-rule:evenodd; clip-rule:evenodd"
viewBox="0 0 479672 59586"
 xmlns:xlink="http://www.w3.org/1999/xlink">
 <defs>
  <style type="text/css">
   <![CDATA[
    .fil0 {fill:#F0F0F0}
    .fil1 {fill:#DCD1C7}
    .fil2 {fill:#60492F;fill-rule:nonzero}
   ]]>
  </style>
 </defs>
 <g id="Layer_x0020_1">
  <metadata id="CorelCorpID_0Corel-Layer"/>
  <g id="interiortab">
   <rect id="base" class="fil0" width="479672" height="59586"/>
   <g id="white">
    <polygon class="fil1" points="5529,5959 191098,5959 140425,53628 5529,53628 "/>
    <path class="fil2" d="M65242 33958l3046 -10210c96,-331 182,-542 251,-642 73,-96 166,-146 282,-146 208,0 384,259 532,769 14,33 20,56 20,69l3046 9931 1824 -5949c212,-672 374,-1291 490,-1860 112,-569 169,-1053 169,-1457 0,-271 -83,-493 -252,-668 -169,-173 -410,-288 -728,-338 -76,-13 -182,-27 -311,-40 -278,-33 -421,-112 -427,-241 0,-66 39,-116 112,-156 76,-40 176,-60 305,-60 73,0 136,4 195,7 60,3 116,7 176,13 62,0 182,7 357,20 629,53 1175,80 1639,80 142,0 311,-14 503,-40 195,-26 305,-40 331,-40 53,-6 109,-10 169,-13 63,-3 139,-7 228,-7 93,0 166,17 219,50 56,33 82,73 82,126 0,102 -152,205 -456,301l0 0c-43,0 -100,7 -166,23 -63,17 -136,43 -212,73 -238,99 -437,265 -596,500 -158,235 -344,702 -559,1394l-3112 10007c-122,394 -245,688 -367,880 -123,196 -245,292 -371,292 -136,0 -248,-66 -338,-196 -89,-129 -192,-384 -301,-764l-2860 -9706 -2900 9570c-116,400 -232,682 -344,847 -113,166 -242,249 -384,249 -225,0 -447,-335 -669,-1000 -7,-20 -10,-30 -10,-36l-3433 -10746c-155,-473 -301,-794 -440,-970 -139,-175 -331,-295 -576,-361 -86,-19 -205,-36 -361,-56 -341,-46 -513,-139 -513,-281 0,-66 23,-110 66,-136 46,-26 142,-40 291,-40 60,0 189,7 391,20 715,40 1387,60 2016,60 311,0 738,-17 1288,-50 549,-33 943,-50 1175,-50 195,0 334,17 421,50 89,30 132,86 132,162 0,113 -129,179 -387,206 -169,19 -305,39 -408,59 -384,76 -645,179 -791,305 -145,125 -218,314 -218,566 0,446 768,3188 2307,8226 189,612 331,1082 427,1404z"/>
    <path id="1" class="fil2" d="M81569 29015c361,-543 804,-953 1327,-1228 523,-278 1129,-417 1814,-417 951,0 1675,225 2182,672 503,450 755,1092 755,1933l0 4625c0,407 33,675 96,804 66,133 192,242 377,331 83,40 172,73 262,96 89,27 188,47 298,60 162,26 268,59 321,103 50,43 76,102 76,178 0,53 -30,96 -93,126 -59,33 -136,50 -225,50 -20,0 -251,-20 -688,-60 -441,-40 -871,-59 -1298,-59 -427,0 -861,19 -1308,59 -443,40 -675,60 -695,60 -99,0 -172,-17 -225,-53 -50,-37 -76,-90 -76,-162 0,-63 26,-113 76,-149 53,-37 159,-67 321,-93 23,-7 56,-13 96,-20 199,-53 354,-96 464,-136 178,-82 304,-192 370,-324 70,-133 103,-404 103,-811l0 -4509c0,-705 -156,-1232 -464,-1582 -311,-348 -781,-523 -1406,-523 -699,0 -1292,274 -1785,824 -490,549 -735,1228 -735,2036l0 3754c0,407 33,675 96,804 67,133 192,242 378,331 82,40 172,73 261,96 90,27 189,47 298,60 162,26 268,59 321,103 50,43 77,102 77,178 0,53 -27,96 -83,126 -53,33 -126,50 -219,50 -20,0 -251,-20 -698,-60 -447,-40 -884,-59 -1308,-59 -427,0 -861,19 -1301,59 -440,40 -669,60 -688,60 -100,0 -176,-17 -229,-53 -56,-37 -83,-90 -83,-162 0,-63 27,-113 80,-149 49,-37 156,-67 311,-93 23,-7 56,-13 96,-20 208,-53 364,-96 467,-136 182,-82 308,-192 374,-324 69,-133 103,-404 103,-811l0 -10445c0,-384 -34,-635 -96,-761 -67,-129 -186,-225 -361,-298 -87,-33 -172,-59 -262,-82 -93,-24 -189,-40 -295,-54 -172,-33 -288,-62 -337,-96 -53,-33 -80,-72 -80,-122 0,-116 216,-205 643,-268 69,-13 122,-23 155,-30 480,-73 960,-162 1447,-271 486,-110 745,-166 778,-166 73,7 126,36 159,86 36,53 56,133 56,235l0 6687z"/>
    <path id="2" class="fil2" d="M91282 23172c0,-281 99,-526 301,-725 198,-202 443,-301 728,-301 275,0 517,99 715,301 202,199 302,444 302,725 0,285 -100,527 -295,725 -199,196 -440,295 -722,295 -285,0 -530,-99 -728,-295 -202,-198 -301,-440 -301,-725zm357 6025c0,-265 -26,-453 -83,-559 -53,-106 -152,-186 -294,-239 -56,-23 -129,-43 -212,-56 -83,-13 -205,-20 -368,-20 -13,0 -36,-3 -66,-10 -231,-19 -347,-69 -347,-155 3,-110 158,-192 463,-242 142,-26 258,-49 348,-69 460,-96 913,-222 1367,-381 454,-156 692,-235 718,-235 76,0 133,23 169,73 37,46 53,122 53,225l0 7071c0,407 33,678 96,811 66,132 192,242 381,324 79,40 162,73 258,96 93,27 192,47 298,60 165,26 275,59 324,103 50,43 73,102 73,178 0,53 -30,96 -86,126 -60,33 -132,50 -225,50 -13,0 -238,-20 -679,-60 -440,-40 -877,-59 -1307,-59 -441,0 -884,19 -1331,59 -447,40 -672,60 -679,60 -92,0 -165,-17 -218,-50 -57,-30 -83,-73 -83,-126 0,-63 23,-116 66,-155 47,-40 156,-80 331,-126 110,-13 209,-33 298,-60 90,-23 176,-56 252,-96 185,-89 314,-202 381,-337 69,-140 102,-404 102,-798l0 -5403z"/>
    <path id="3" class="fil2" d="M96880 28164l-613 0c-129,0 -225,-13 -288,-43 -63,-30 -92,-73 -92,-132 0,-56 158,-205 479,-440 322,-235 606,-487 851,-752 272,-291 517,-612 735,-963 215,-354 358,-530 421,-530 66,0 112,20 135,63 27,43 40,116 40,219l0 1982 1824 0c255,0 414,20 483,63 67,44 100,123 100,239 0,106 -43,182 -136,225 -89,46 -245,69 -464,69l-1787 0 0 5982c0,626 103,1083 304,1364 206,282 527,420 967,420 364,0 689,-158 977,-476 288,-315 460,-473 519,-473 63,0 120,26 163,82 46,53 69,116 69,189 0,301 -235,589 -708,864 -474,275 -1030,410 -1669,410 -841,0 -1437,-185 -1787,-556 -348,-370 -523,-1009 -523,-1920l0 -5886z"/>
    <path id="4" class="fil2" d="M104626 30290l4055 0c129,0 219,-33 275,-103 56,-66 83,-185 83,-354 0,-632 -179,-1139 -533,-1520 -358,-377 -828,-566 -1417,-566 -659,0 -1205,225 -1639,676 -434,450 -708,1072 -824,1867zm-119 576c-23,155 -43,318 -57,483 -13,169 -19,338 -19,507 0,1168 297,2125 893,2866 596,739 1361,1109 2301,1109 430,0 811,-66 1132,-195 325,-129 649,-341 973,-639 50,-46 116,-113 192,-205 143,-153 265,-232 371,-232 56,0 103,20 139,60 37,36 53,89 53,155 0,401 -344,801 -1032,1205 -689,404 -1497,606 -2421,606 -1330,0 -2429,-420 -3293,-1261 -864,-838 -1295,-1890 -1295,-3149 0,-619 113,-1221 341,-1807 225,-586 550,-1106 970,-1566 457,-496 964,-867 1516,-1109 553,-241 1172,-364 1861,-364 1026,0 1903,308 2628,924 725,619 1086,1344 1086,2175 0,175 -26,291 -83,351 -56,56 -198,86 -433,86l-5823 0z"/>
   </g>
   <g id="warm">
    <polygon class="fil1" points="197964,5959 332620,5959 281947,53628 147052,53628 "/>
    <path class="fil2" d="M219949 33958l3046 -10210c96,-331 182,-542 251,-642 73,-96 166,-146 282,-146 208,0 383,259 532,769 14,33 20,56 20,69l3046 9931 1824 -5949c212,-672 374,-1291 490,-1860 112,-569 169,-1053 169,-1457 0,-271 -83,-493 -252,-668 -169,-173 -410,-288 -728,-338 -76,-13 -182,-27 -311,-40 -278,-33 -421,-112 -427,-241 0,-66 39,-116 112,-156 76,-40 176,-60 305,-60 72,0 136,4 195,7 60,3 116,7 176,13 62,0 182,7 357,20 629,53 1175,80 1639,80 142,0 311,-14 503,-40 195,-26 304,-40 331,-40 53,-6 109,-10 169,-13 63,-3 139,-7 228,-7 93,0 166,17 219,50 56,33 82,73 82,126 0,102 -152,205 -457,301l0 0c-42,0 -99,7 -165,23 -63,17 -136,43 -212,73 -238,99 -437,265 -596,500 -158,235 -344,702 -559,1394l-3112 10007c-122,394 -245,688 -367,880 -123,196 -245,292 -371,292 -136,0 -248,-66 -338,-196 -89,-129 -192,-384 -301,-764l-2860 -9706 -2900 9570c-116,400 -232,682 -344,847 -113,166 -242,249 -384,249 -226,0 -447,-335 -669,-1000 -7,-20 -10,-30 -10,-36l-3433 -10746c-156,-473 -301,-794 -440,-970 -139,-175 -331,-295 -576,-361 -86,-19 -205,-36 -361,-56 -341,-46 -513,-139 -513,-281 0,-66 23,-110 66,-136 46,-26 142,-40 291,-40 60,0 189,7 391,20 715,40 1387,60 2016,60 311,0 738,-17 1288,-50 549,-33 943,-50 1175,-50 195,0 334,17 421,50 89,30 132,86 132,162 0,113 -129,179 -388,206 -168,19 -304,39 -407,59 -384,76 -645,179 -791,305 -145,125 -218,314 -218,566 0,446 768,3188 2307,8226 189,612 331,1082 427,1404z"/>
    <path id="1" class="fil2" d="M237153 31303c-1311,503 -2244,989 -2801,1460 -556,466 -834,993 -834,1575 0,450 119,811 358,1076 241,265 563,397 970,397 549,0 1072,-182 1565,-542 494,-361 742,-758 742,-1186l0 -2780zm-59 3886c-471,447 -1000,788 -1586,1023 -586,235 -1189,354 -1808,354 -629,0 -1122,-162 -1486,-490 -361,-324 -543,-768 -543,-1324 0,-708 358,-1334 1073,-1870 715,-537 2184,-1209 4409,-2016l0 -1569c0,-530 -155,-921 -467,-1172 -307,-252 -791,-378 -1443,-378 -490,0 -887,83 -1192,252 -304,169 -473,404 -513,708 -69,437 -165,719 -285,841 -119,123 -308,186 -566,186 -208,0 -374,-67 -503,-202 -129,-136 -195,-315 -195,-533 0,-480 314,-874 943,-1185 633,-308 1464,-464 2496,-464 1172,0 2033,185 2586,556 553,371 827,950 827,1732l0 5038c0,344 57,609 169,794 113,189 278,282 490,282 136,0 295,-63 470,-189 179,-126 295,-189 345,-189 59,0 102,14 132,44 30,29 43,72 43,132 0,212 -172,437 -520,679 -344,238 -721,357 -1129,357 -447,0 -827,-126 -1138,-377 -315,-252 -517,-593 -609,-1020z"/>
    <path id="2" class="fil2" d="M244707 29369c272,-592 659,-1059 1159,-1397 503,-334 1059,-503 1675,-503 454,0 818,96 1096,291 278,192 417,447 417,755 0,248 -63,441 -186,583 -122,142 -288,215 -493,215 -155,0 -284,-36 -387,-106 -106,-73 -192,-182 -265,-328 -16,-39 -43,-96 -76,-165 -156,-367 -427,-550 -815,-550 -589,0 -1072,249 -1446,742 -374,493 -563,1139 -563,1940l0 3754c0,407 33,678 96,811 66,132 192,242 381,324 79,40 162,73 258,96 93,27 192,47 298,60 159,26 268,59 318,103 53,43 79,102 79,178 0,53 -26,96 -76,126 -53,33 -126,50 -215,50 -13,0 -242,-20 -689,-60 -447,-40 -887,-59 -1317,-59 -441,0 -884,19 -1331,59 -447,40 -672,60 -678,60 -93,0 -166,-17 -219,-50 -56,-30 -83,-73 -83,-126 0,-63 23,-116 66,-155 47,-40 156,-80 332,-126 109,-13 208,-33 297,-60 90,-23 176,-56 252,-96 185,-82 314,-192 381,-324 69,-133 102,-404 102,-811l0 -4569c0,-506 -56,-883 -165,-1132 -110,-248 -295,-420 -553,-520 -70,-23 -149,-42 -232,-56 -86,-13 -208,-20 -367,-20 -189,0 -308,-16 -361,-52 -53,-34 -76,-90 -76,-169 0,-57 49,-110 155,-156 103,-50 292,-103 570,-159 506,-96 989,-208 1456,-331 467,-122 699,-185 699,-185 188,0 324,420 410,1258 30,347 63,635 96,860z"/>
    <path id="3" class="fil2" d="M253258 29118c361,-599 801,-1046 1321,-1344 516,-295 1115,-444 1804,-444 722,0 1314,153 1774,454 457,304 745,735 864,1294 361,-566 818,-1000 1371,-1298 553,-301 1162,-450 1827,-450 957,0 1662,232 2109,699 450,463 675,1195 675,2194l0 4377c0,407 33,678 96,811 67,132 192,242 381,324 79,40 162,73 251,96 93,27 192,47 305,60 159,26 268,59 318,103 53,43 79,102 79,178 0,53 -26,96 -76,126 -53,33 -129,50 -225,50 -6,0 -232,-20 -678,-60 -447,-40 -891,-59 -1328,-59 -434,0 -874,19 -1321,59 -447,40 -672,60 -679,60 -96,0 -172,-17 -225,-50 -49,-30 -76,-73 -76,-126 0,-63 24,-116 70,-155 43,-40 155,-80 328,-126 112,-13 211,-33 304,-60 90,-23 176,-56 252,-96 188,-82 314,-192 380,-324 63,-133 96,-404 96,-811l0 -4668c0,-639 -145,-1122 -437,-1453 -291,-328 -721,-493 -1291,-493 -715,0 -1277,258 -1698,774 -417,517 -626,1218 -626,2106l0 3734c0,407 34,678 96,811 67,132 192,242 381,324 83,40 172,73 262,96 92,27 182,47 274,60 163,26 269,59 322,103 49,43 76,102 76,178 0,53 -27,96 -76,126 -53,33 -130,50 -226,50 -6,0 -228,-20 -668,-60 -441,-40 -881,-59 -1318,-59 -434,0 -874,19 -1321,59 -447,40 -672,60 -678,60 -96,0 -172,-17 -225,-50 -50,-30 -77,-73 -77,-126 0,-63 24,-116 70,-155 43,-40 156,-80 328,-126 99,-13 192,-33 278,-60 89,-23 179,-59 268,-106 182,-76 308,-185 381,-324 69,-139 106,-407 106,-801l0 -4668c0,-639 -146,-1122 -437,-1453 -292,-328 -722,-493 -1295,-493 -711,0 -1281,258 -1705,774 -423,517 -635,1218 -635,2106l0 3734c0,407 33,678 96,811 66,132 192,242 380,324 80,40 163,73 252,96 93,27 192,47 305,60 158,26 268,59 317,103 53,43 80,102 80,178 0,53 -27,96 -83,126 -53,33 -126,50 -218,50 -7,0 -232,-20 -679,-60 -447,-40 -891,-59 -1327,-59 -434,0 -875,19 -1321,59 -447,40 -672,60 -679,60 -96,0 -172,-17 -225,-50 -50,-30 -76,-73 -76,-126 0,-63 23,-116 69,-155 43,-40 156,-80 328,-126 113,-13 212,-33 305,-60 89,-23 175,-56 251,-96 189,-82 315,-192 381,-324 63,-133 96,-404 96,-811l0 -4774c0,-467 -33,-794 -103,-983 -66,-192 -192,-331 -374,-424 -102,-46 -271,-82 -506,-116 -13,0 -24,0 -30,0 -169,-20 -275,-39 -325,-66 -49,-26 -72,-63 -72,-116 0,-109 208,-202 629,-284 59,-14 99,-23 126,-30 374,-80 767,-185 1178,-328 410,-139 642,-208 702,-208 122,0 208,105 261,314 53,209 96,722 136,1533z"/>
   </g>
   <g id="dark">
    <polygon class="fil1" points="474142,53628 288574,53628 339247,5959 474142,5959 "/>
    <path class="fil2" d="M375228 25105c0,-506 -50,-870 -146,-1092 -96,-225 -265,-391 -503,-500 -155,-79 -414,-129 -774,-155 -14,0 -20,0 -20,0 -14,-7 -33,-10 -57,-10 -298,-47 -446,-110 -446,-196 6,-62 43,-115 105,-152 67,-40 156,-59 272,-59 46,0 155,6 331,19 788,53 1546,80 2278,80 297,0 748,-17 1357,-50 606,-33 1066,-49 1373,-49 2387,0 4248,605 5585,1814 1338,1208 2006,2893 2006,5055 0,2184 -602,3826 -1804,4919 -1202,1092 -2996,1639 -5386,1639 -513,0 -1149,-14 -1917,-40 -764,-27 -1271,-40 -1516,-40 -698,0 -1397,23 -2092,70 -122,6 -202,10 -235,10 -116,0 -205,-17 -265,-50 -63,-30 -92,-80 -92,-146 6,-129 168,-212 483,-251 26,-7 46,-10 59,-10 163,-13 302,-33 421,-63 119,-30 228,-66 324,-113 245,-122 417,-294 513,-513 96,-222 146,-592 146,-1115l0 -9002zm2105 8061c0,1027 179,1738 533,2132 355,394 974,593 1851,593 1559,0 2691,-454 3403,-1357 712,-907 1066,-2361 1066,-4367 0,-2354 -434,-4065 -1304,-5141 -868,-1072 -2255,-1609 -4152,-1609 -615,0 -999,73 -1158,219 -159,146 -239,440 -239,887l0 8643z"/>
    <path id="1" class="fil2" d="M393760 31342c-1311,503 -2245,990 -2801,1460 -556,467 -834,993 -834,1576 0,450 119,811 357,1076 242,265 563,397 970,397 550,0 1073,-182 1566,-543 494,-361 742,-758 742,-1185l0 -2781zm-60 3887c-470,447 -1000,788 -1586,1023 -585,235 -1188,354 -1807,354 -629,0 -1122,-162 -1486,-490 -361,-325 -543,-768 -543,-1324 0,-709 357,-1334 1072,-1871 715,-536 2185,-1208 4410,-2016l0 -1569c0,-529 -156,-920 -467,-1172 -308,-251 -791,-377 -1444,-377 -489,0 -887,83 -1191,252 -305,168 -474,404 -513,708 -70,437 -166,718 -285,841 -119,122 -308,185 -566,185 -209,0 -374,-66 -503,-202 -129,-135 -196,-314 -196,-533 0,-480 315,-874 944,-1185 632,-308 1463,-463 2496,-463 1172,0 2033,185 2585,556 553,371 828,950 828,1731l0 5039c0,344 56,609 169,794 112,189 278,281 490,281 135,0 294,-62 470,-188 179,-126 294,-189 344,-189 60,0 103,13 132,43 30,30 44,73 44,133 0,212 -173,436 -520,678 -344,238 -722,358 -1129,358 -447,0 -828,-126 -1139,-378 -314,-251 -516,-592 -609,-1019z"/>
    <path id="2" class="fil2" d="M401314 29409c271,-592 659,-1059 1159,-1397 503,-334 1059,-503 1675,-503 453,0 817,96 1095,291 278,192 417,447 417,755 0,248 -63,440 -185,583 -123,142 -288,215 -493,215 -156,0 -285,-37 -388,-106 -106,-73 -192,-182 -264,-328 -17,-40 -43,-96 -77,-165 -155,-368 -427,-550 -814,-550 -589,0 -1073,248 -1446,742 -375,493 -563,1138 -563,1939l0 3754c0,408 33,679 96,811 66,133 192,242 380,325 80,40 163,73 259,96 92,27 192,46 297,59 160,27 269,60 318,103 53,43 80,103 80,179 0,53 -27,96 -76,126 -53,33 -126,49 -215,49 -14,0 -242,-19 -689,-59 -447,-40 -887,-60 -1318,-60 -440,0 -883,20 -1330,60 -447,40 -672,59 -679,59 -93,0 -165,-16 -219,-49 -56,-30 -82,-73 -82,-126 0,-63 23,-116 66,-156 46,-39 155,-79 331,-126 109,-13 208,-32 298,-59 89,-23 175,-56 252,-96 185,-83 314,-192 380,-325 70,-132 103,-403 103,-811l0 -4568c0,-506 -56,-884 -166,-1132 -109,-248 -294,-420 -552,-520 -70,-23 -149,-43 -232,-56 -86,-13 -209,-20 -368,-20 -188,0 -307,-16 -360,-53 -54,-33 -77,-89 -77,-169 0,-56 50,-109 156,-155 102,-50 291,-103 569,-159 507,-96 990,-209 1457,-331 467,-123 698,-186 698,-186 189,0 325,421 411,1258 30,348 63,636 96,861z"/>
    <path id="3" class="fil2" d="M408282 24192c0,-361 -33,-609 -102,-745 -66,-136 -192,-242 -374,-311 -90,-33 -245,-73 -467,-126 -33,-7 -57,-10 -70,-10 -169,-33 -278,-63 -334,-93 -56,-29 -83,-66 -83,-112 0,-136 195,-232 583,-292 76,-6 139,-13 182,-19 433,-63 894,-153 1377,-265 483,-116 748,-172 795,-172 76,6 128,33 155,76 27,43 40,122 46,238l0 9554 1275 -1327c596,-623 1019,-1096 1271,-1427 252,-331 378,-576 378,-738 0,-103 -37,-179 -107,-232 -72,-53 -198,-93 -377,-126 -53,-13 -119,-26 -205,-40 -272,-43 -407,-132 -407,-261 0,-66 16,-109 43,-136 30,-26 92,-40 192,-40 10,0 159,10 440,30 282,20 553,30 818,30 231,0 510,-10 827,-30 321,-20 520,-30 599,-30 239,0 384,14 434,40 53,27 80,70 80,136 0,116 -103,195 -302,241l-20 0c-89,14 -162,27 -218,43 -53,17 -103,34 -149,54 -387,149 -924,612 -1609,1390l0 0 -1513 1668 3711 3801c242,251 470,460 689,622 222,159 440,275 659,347 13,7 26,14 39,20 96,50 146,96 146,136 0,83 -36,143 -112,172 -73,33 -219,50 -431,50 -96,0 -238,-3 -427,-10 -185,-7 -321,-10 -407,-10 -192,0 -394,7 -606,20 -208,13 -324,20 -344,20 -90,0 -172,-14 -245,-43 -76,-30 -133,-67 -172,-113l-3072 -3337c-196,-205 -345,-344 -444,-417 -99,-69 -192,-106 -278,-106 -33,0 -56,4 -73,7 -16,3 -30,6 -43,13l0 2307c0,408 33,679 96,811 66,133 192,242 381,325 79,40 162,73 251,96 93,27 192,46 305,59 159,27 268,60 318,103 53,43 79,103 79,179 0,53 -30,96 -86,126 -59,33 -136,49 -235,49 -7,0 -228,-19 -669,-59 -440,-40 -880,-60 -1317,-60 -434,0 -874,20 -1321,60 -447,40 -672,59 -679,59 -96,0 -172,-16 -225,-49 -49,-30 -76,-73 -76,-126 0,-63 23,-116 70,-156 43,-39 155,-79 327,-126 113,-13 212,-32 305,-59 89,-23 175,-56 252,-96 188,-83 314,-192 380,-325 63,-132 96,-403 96,-811l0 -10447z"/>
   </g>
  </g>
 </g>
</svg>
