<?xml version="1.0" encoding="UTF-8"?>
<!DOCTYPE svg PUBLIC "-//W3C//DTD SVG 1.1//EN" "http://www.w3.org/Graphics/SVG/1.1/DTD/svg11.dtd">
<!-- Creator: CorelDRAW X8 -->
<svg xmlns="http://www.w3.org/2000/svg" xml:space="preserve" width="8.25546in" height="14.8026in" version="1.1" style="shape-rendering:geometricPrecision; text-rendering:geometricPrecision; image-rendering:optimizeQuality; fill-rule:evenodd; clip-rule:evenodd"
viewBox="0 0 833540 1494596"
 xmlns:xlink="http://www.w3.org/1999/xlink">
 <defs>
  <style type="text/css">
   <![CDATA[
    .fil3 {fill:none}
    .fil1 {fill:#70614F}
    .fil2 {fill:#70614F;fill-rule:nonzero}
    .fil0 {fill:#91877D}
   ]]>
  </style>
   <clipPath id="id0">
    <path d="M0 140773l833540 -140773 -84099 1494596 -680328 -44224 -69113 -1309599z"/>
   </clipPath>
   <clipPath id="id1">
    <path d="M0 140773l833540 -140773 -84099 1494596 -680328 -44224 -69113 -1309599z"/>
   </clipPath>
 </defs>
 <g id="Layer_x0020_1">
  <metadata id="CorelCorpID_0Corel-Layer"/>
  <g style="clip-path:url(#id0)">
   <polygon class="fil0" points="0,0 833540,0 833540,1494596 0,1494596 "/>
  </g>
  <g style="clip-path:url(#id1)">
   <g id="_1755693160848">
    <g>
     <g>
      <path id="1" class="fil1" d="M596420 404369l0 59536 -1004 0 0 -59536 0 -1122 1004 0 17943 0 0 1122 -17943 0zm281184 -55175l1208 1393 0 129926 -1208 0 0 -131319zm-102118 -2100l1209 1393 0 132026 -1209 0 0 -133419zm-154128 243l1209 1390 0 131786 -1209 0 0 -133176zm231140 57032l0 59536 -1004 0 0 -59536 0 -1122 1004 0 17944 0 0 1122 -17944 0zm-45937 -50207l18235 0 0 1119 -18235 0 0 44902 -1004 0 0 -44902 0 -1119 1004 0zm-1 113120l18080 0 0 1120 -18080 0 0 8447 -1003 0 0 -8447 0 -1120 1003 0zm1 -62913l0 59536 -1004 0 0 -59536 0 -1122 1004 0 18079 0 0 1122 -18079 0zm22794 -50207l18101 0 0 1119 -18101 0 0 44902 -1003 0 0 -44902 0 -1119 1003 0zm0 113120l17944 0 0 1120 -17944 0 0 8447 -1003 0 0 -8447 0 -1120 1003 0zm0 -62913l0 59536 -1003 0 0 -59536 0 -1122 1003 0 17944 0 0 1122 -17944 0zm23143 -50207l18101 0 0 1119 -18101 0 0 44902 -1004 0 0 -44902 0 -1119 1004 0zm0 113120l17944 0 0 1120 -17944 0 0 8447 -1004 0 0 -8447 0 -1120 1004 0zm-198871 -111912l15305 0 0 1119 -15305 0 0 43478 -1004 0 0 -43478 0 -1119 1004 0zm99308 0l15305 0 0 1119 -15305 0 0 43478 -1004 0 0 -43478 0 -1119 1004 0zm61 49362l0 59075 -1004 0 0 -59075 0 -1122 1004 0 15148 0 0 1122 -15148 0zm-1 62671l15149 0 0 1120 -15149 0 0 8447 -1003 0 0 -8447 0 -1120 1003 0zm-38248 -112033l27677 0 0 1119 -27677 0 0 43478 -1004 0 0 -43478 0 -1119 1004 0zm60 49362l0 59075 -1004 0 0 -59075 0 -1122 1004 0 27521 0 0 1122 -27521 0zm0 62671l27521 0 0 1120 -27521 0 0 8447 -1004 0 0 -8447 0 -1120 1004 0zm-35651 -112033l27678 0 0 1119 -27678 0 0 43478 -1003 0 0 -43478 0 -1119 1003 0zm61 49362l0 59075 -1003 0 0 -59075 0 -1122 1003 0 27521 0 0 1122 -27521 0zm0 62671l27521 0 0 1120 -27521 0 0 8447 -1003 0 0 -8447 0 -1120 1003 0zm-25529 -62671l0 59075 -1004 0 0 -59075 0 -1122 1004 0 15149 0 0 1122 -15149 0zm-1 62671l15150 0 0 1120 -15150 0 0 8447 -1003 0 0 -8447 0 -1120 1003 0zm-103205 -113241l18236 0 0 1119 -18236 0 0 44902 -1003 0 0 -44902 0 -1119 1003 0zm0 113120l18080 0 0 1120 -18080 0 0 8447 -1003 0 0 -8447 0 -1120 1003 0zm0 -62913l0 59536 -1003 0 0 -59536 0 -1122 1003 0 18080 0 0 1122 -18080 0zm22795 -50207l18100 0 0 1119 -18100 0 0 44902 -1004 0 0 -44902 0 -1119 1004 0zm0 113120l17944 0 0 1120 -17944 0 0 8447 -1004 0 0 -8447 0 -1120 1004 0zm0 -62913l0 59536 -1004 0 0 -59536 0 -1122 1004 0 17944 0 0 1122 -17944 0zm23143 -50207l18100 0 0 1119 -18100 0 0 44902 -1004 0 0 -44902 0 -1119 1004 0zm-1 113120l17944 0 0 1120 -17944 0 0 8447 -1003 0 0 -8447 0 -1120 1003 0z"/>
      <path class="fil1" d="M885236 351435l-129 2764c-114847,-33340 -230906,-33108 -348227,-187l-4812 -2762c119136,-34362 236756,-34949 353168,185z"/>
      <path class="fil1" d="M892513 362075l15964 0 0 1120 -15964 0 0 75936 -2004 0 0 -75936 0 -1120 2004 0zm-6983 -10093l28882 0 0 1329 -28882 0 0 -1329zm-427 5283l28538 0 -1829 1463 -24888 0 -1821 -1463z"/>
      <polygon class="fil1" points="512479,306090 512479,346674 508469,346674 508469,306090 508469,302589 512479,302589 909479,302589 909479,306090 "/>
      <polygon class="fil1" points="532364,357069 532367,352830 503583,352830 503462,351367 532603,351367 535907,350514 535907,360269 533223,361411 533223,441997 537794,447297 537794,480594 532429,480594 532429,444793 503583,444793 503462,443329 530295,443329 530295,362658 530175,362708 530208,358705 "/>
      <path class="fil1" d="M510873 362075l15964 0 0 1120 -15964 0 0 75936 -2004 0 0 -75936 0 -1120 2004 0zm-6983 -10093l28882 0 0 1329 -28882 0 0 -1329zm-428 5283l28539 0 -1829 1463 -24888 0 -1822 -1463z"/>
      <polygon class="fil1" points="503645,298986 503903,298986 503903,298463 914360,298463 914360,298986 914315,298986 914315,300693 503645,300693 "/>
      <polygon class="fil1" points="495404,268728 922649,268728 922649,269582 495404,269582 "/>
      <polygon class="fil1" points="493574,268729 925090,268729 925090,269583 493574,269583 "/>
      <path class="fil1" d="M487190 261827l442981 0c0,1058 -4271,2115 -4271,3172l-435001 -993 -3709 -2179z"/>
      <g>
       <polygon class="fil1" points="914033,278388 918242,278388 918242,280093 915288,280093 "/>
       <path class="fil1" d="M918424 273568l3780 0c-186,288 -296,796 -900,1070 -373,166 -209,525 -514,672 -255,118 -382,607 -659,1430l-1707 0 0 -3172z"/>
       <polygon class="fil1" points="503820,273723 504039,273723 504039,273568 506782,273568 506782,273723 525529,273723 525529,275429 506782,275429 506782,276740 505318,276740 505318,278388 505318,279607 505318,280093 501293,280093 499587,278388 503794,278388 503794,273874 503820,273874 "/>
       <polygon class="fil1" points="529799,273723 529896,273723 529896,273568 532640,273568 532640,273723 551508,273723 551508,275429 532640,275429 532640,276740 531176,276740 531176,278388 531176,279607 531176,280093 527151,280093 525442,278388 529651,278388 529651,273874 529799,273874 "/>
       <polygon class="fil1" points="555778,273723 556118,273723 556118,273568 558862,273568 558862,273723 577487,273723 577487,275429 558862,275429 558862,276740 557398,276740 557398,278388 557398,279607 557398,280093 553375,280093 551666,278388 555873,278388 555873,275429 555778,275429 "/>
       <polygon class="fil1" points="581633,273723 581855,273723 581855,273568 584599,273568 584599,273723 603405,273723 603405,275429 584599,275429 584599,276740 583135,276740 583135,278388 583135,279607 583135,280093 579110,280093 577402,278388 581610,278388 581610,273874 581633,273874 "/>
       <polygon class="fil1" points="607428,273723 607713,273723 607713,273568 610456,273568 610456,273723 629200,273723 629200,275429 610456,275429 610456,276740 608993,276740 608993,278388 608993,279607 608993,280093 604967,280093 603259,278388 607468,278388 607468,275429 607428,275429 "/>
       <polygon class="fil1" points="633286,273723 633570,273723 633570,273568 636313,273568 636313,273723 655057,273723 655057,275429 636313,275429 636313,276740 634850,276740 634850,278388 634850,279607 634850,280093 630825,280093 629116,278388 633325,278388 633325,275429 633286,275429 "/>
       <polygon class="fil1" points="659327,273723 659427,273723 659427,273568 662171,273568 662171,273723 681099,273723 681099,275429 662171,275429 662171,276740 660707,276740 660707,278388 660707,279607 660707,280093 656682,280093 654974,278388 659182,278388 659182,273874 659327,273874 "/>
       <polygon class="fil1" points="685306,273723 685406,273723 685406,273568 688149,273568 688149,273723 707077,273723 707077,275429 688149,275429 688149,276740 686686,276740 686686,278388 686686,279607 686686,280093 682661,280093 680952,278388 685161,278388 685161,273874 685306,273874 "/>
       <polygon class="fil1" points="714007,273723 733056,273723 733056,275429 714007,275429 714007,276740 712543,276740 712543,278388 712543,279607 712543,280093 708518,280093 706810,278388 711019,278388 711019,273874 711264,273874 711264,273568 714007,273568 "/>
       <polygon class="fil1" points="739864,273723 758914,273723 758914,275429 739864,275429 739864,276740 738400,276740 738400,278388 738400,279607 738400,280093 734376,280093 732667,278388 736876,278388 736876,273874 737121,273874 737121,273568 739864,273568 "/>
       <polygon class="fil1" points="762878,273723 763100,273723 763100,273568 765843,273568 765843,273723 784648,273723 784648,275429 765843,275429 765843,276740 764379,276740 764379,278388 764379,279607 764379,280093 760354,280093 758646,278388 762855,278388 762855,273874 762878,273874 "/>
       <polygon class="fil1" points="791579,273723 810628,273723 810628,275429 791579,275429 791579,276740 790115,276740 790115,278388 790115,279607 790115,280093 786090,280093 784382,278388 788590,278388 788590,273874 788835,273874 788835,273568 791579,273568 "/>
       <polygon class="fil1" points="840569,273723 840793,273723 840793,273568 843536,273568 843536,273723 862341,273723 862341,275429 843536,275429 843536,276740 842073,276740 842073,278388 842073,279607 842073,280093 838048,280093 836341,278388 840548,278388 840548,273874 840569,273874 "/>
       <polygon class="fil1" points="869270,273723 888320,273723 888320,275429 869270,275429 869270,276740 867806,276740 867806,278388 867806,279607 867806,280093 863782,280093 862075,278388 866284,278388 866284,273874 866527,273874 866527,273568 869270,273568 "/>
       <polygon class="fil1" points="892161,273723 892384,273723 892384,273568 895127,273568 895127,273723 913933,273723 913933,275429 895127,275429 895127,276740 893664,276740 893664,278388 893664,279607 893664,280093 889639,280093 887932,278388 892139,278388 892139,273874 892161,273874 "/>
       <polygon class="fil1" points="810482,278388 814691,278388 814691,275429 814469,275429 814469,273723 814936,273723 814936,273568 817679,273568 817679,273723 836241,273723 836241,275429 817679,275429 817679,276740 816216,276740 816216,278388 816216,279607 816216,280093 812190,280093 "/>
      </g>
     </g>
     <path class="fil1" d="M420966 500532l576026 0 0 -5935 -576026 0 0 5935zm28923 -8785l518180 0 0 -3494 -518180 0 0 3494zm22087 -6346l474006 0 0 -2518 -474006 0 0 2518zm236273 -40909l-7 -15c-88,16 -487,-252 -425,-311l0 6380c16,-16 417,-281 432,-310l0 -5744zm1443 -328c-41,169 -248,276 -437,302l0 5771 437 317 0 -6390zm-215566 -176312l430077 0c424,-1856 1373,-3155 2656,-4057 216,-152 441,-292 675,-421l-436739 0c234,129 459,269 675,421 1283,902 2232,2201 2656,4057zm429072 1237l-428067 0c0,58 -7,115 -17,172 68,76 124,148 179,220l79 100 427585 0 79 -100c56,-72 111,-144 179,-220 -10,-57 -17,-114 -17,-172zm-426738 1729l0 1784 425409 0 0 -1784 -425409 0zm426646 0l0 3021 -869 0 0 107c0,463 -343,662 -684,861 -6,3 -12,-10 -18,-31l-52 -90c-33,344 -260,543 -487,740 -7,8 -14,-3 -21,-22l-44 -49c-7,245 -96,427 -187,606 -26,56 -54,63 -54,88 0,266 -109,441 -217,615 -1,6 -4,3 -6,-2l-19 -12 0 598 -618 0 -1462 0 0 566 0 10 0 21104 -3480 0 0 51839 0 1237 0 5876 -435 0 -1674 1104 0 82559 1674 1105 800 0 0 2166 0 618 0 34186 24169 0 0 1237 -24169 0 -31246 0 -350307 0 -31246 0 -23917 0 0 -1237 23917 0 0 -34186 0 -618 0 -2166 618 0 399 0 1303 -1066 0 -82637 -1303 -1065 -398 0 0 -7113 175 0 0 -51839 -3673 0 0 -21104 0 -10 0 -2041 0 -618 0 -1316 -4352 0 0 -3021 -330 0 -173 -145c-185,-156 -294,-297 -403,-438 -65,-85 -132,-170 -210,-240 -190,-168 -259,-324 -275,-474 -369,-54 -712,-164 -775,-649 -253,-1936 -1098,-3224 -2298,-4067 -1133,-797 -2598,-1223 -4197,-1431l-437 0c-275,0 -525,-114 -708,-296 -183,-180 -296,-431 -296,-708l0 -2130c0,-277 113,-528 294,-709 185,-181 435,-295 710,-295l446079 0c275,0 526,114 708,296 183,180 296,431 296,708l0 2130c0,277 -113,528 -294,709 -184,181 -435,295 -710,295l-437 0c-1599,208 -3064,634 -4197,1431 -1200,843 -2045,2132 -2298,4067 -64,485 -406,595 -775,649 -15,150 -85,307 -274,474 -79,70 -145,155 -211,240 -109,141 -218,283 -403,438l-173 145 -330 0zm-5975 3021l-2702 0 0 697 2702 0 0 -697zm-3939 0l-20676 0 0 1316 0 618 0 2041c0,236 -96,452 -252,607 -156,156 -371,253 -608,253l-3457 0c-235,0 -451,-98 -606,-254 -157,-154 -254,-370 -254,-606l0 -2041 0 -618 0 -1316 -20674 0 0 1316 0 618 0 2041c0,236 -96,452 -252,607 -156,156 -371,253 -608,253l-3457 0c-235,0 -451,-98 -606,-254 -157,-154 -253,-370 -253,-606l0 -2041 0 -618 0 -1316 -20675 0 0 1316 0 618 0 2041c0,236 -96,452 -252,607 -156,156 -371,253 -608,253l-3456 0c-236,0 -452,-98 -607,-254 -157,-154 -253,-370 -253,-606l0 -2041 0 -618 0 -1316 -20675 0 0 1316 0 618 0 2041c0,236 -96,452 -252,607 -156,156 -371,253 -608,253l-3457 0c-235,0 -451,-98 -606,-254 -157,-154 -253,-370 -253,-606l0 -2041 0 -618 0 -1316 -20675 0 0 1316 0 618 0 2041c0,236 -96,452 -252,607 -156,156 -371,253 -608,253l-3457 0c-235,0 -451,-98 -606,-254 -157,-154 -253,-370 -253,-606l0 -2041 0 -618 0 -1316 -20675 0 0 1316 0 618 0 2041c0,236 -96,452 -252,607 -155,156 -371,253 -608,253l-3457 0c-235,0 -451,-98 -606,-254 -157,-154 -253,-370 -253,-606l0 -2041 0 -618 0 -1316 -20675 0 0 1316 0 618 0 2041c0,236 -96,452 -252,607 -156,156 -371,253 -607,253l-3458 0c-235,0 -450,-98 -606,-254 -157,-154 -253,-370 -253,-606l0 -2041 0 -618 0 -1316 -20675 0 0 1316 0 618 0 2041c0,236 -96,452 -252,607 -156,156 -371,253 -608,253l-3457 0c-235,0 -450,-98 -606,-254 -157,-154 -254,-370 -254,-606l0 -2041 0 -618 0 -1316 -20674 0 0 1316 0 618 0 2041c0,236 -96,452 -252,607 -156,156 -371,253 -608,253l-3457 0c-235,0 -451,-98 -606,-254 -157,-154 -254,-370 -254,-606l0 -2041 0 -618 0 -1316 -20674 0 0 1316 0 618 0 2041c0,236 -96,452 -252,607 -156,156 -371,253 -608,253l-3457 0c-236,0 -451,-98 -606,-254 -157,-154 -254,-370 -254,-606l0 -2041 0 -618 0 -1316 -20674 0 0 1316 0 618 0 2041c0,236 -96,452 -252,607 -156,156 -371,253 -608,253l-3457 0c-236,0 -451,-98 -606,-254 -157,-154 -254,-370 -254,-606l0 -2041 0 -618 0 -1316 -20674 0 0 1316 0 618 0 2041c0,236 -96,452 -252,607 -156,156 -371,253 -608,253l-3457 0c-236,0 -451,-98 -606,-254 -157,-154 -254,-370 -254,-606l0 -2041 0 -618 0 -1316 -20674 0 0 1316 0 618 0 2041c0,236 -97,452 -252,607 -156,156 -371,253 -608,253l-3457 0c-236,0 -451,-98 -607,-254 -156,-154 -253,-370 -253,-606l0 -2041 0 -618 0 -1316 -20674 0 0 1316 0 618 0 2041c0,236 -97,452 -252,607 -156,156 -371,253 -608,253l-3457 0c-236,0 -451,-98 -607,-254 -156,-154 -253,-370 -253,-606l0 -2041 0 -618 0 -1316 -20674 0 0 1316 0 618 0 2041c0,236 -97,452 -252,607 -156,156 -371,253 -608,253l-3457 0c-235,0 -451,-98 -606,-254 -157,-154 -254,-370 -254,-606l0 -2041 0 -618 0 -1316 -20674 0 0 1316 0 618 0 2041c0,236 -97,452 -252,607 -156,156 -371,253 -608,253l-3079 0 0 19017 2436 0 411640 0 2243 0 0 -19017 -3080 0c-235,0 -450,-98 -606,-254 -157,-154 -253,-370 -253,-606l0 -2041 0 -618 0 -1316zm-21913 0l-2702 0 0 697 2702 0 0 -697zm-25851 0l-2702 0 0 697 2702 0 0 -697zm-25851 0l-2702 0 0 697 2702 0 0 -697zm-25851 0l-2702 0 0 697 2702 0 0 -697zm-25851 0l-2702 0 0 697 2702 0 0 -697zm-25851 0l-2702 0 0 697 2702 0 0 -697zm-25851 0l-2702 0 0 697 2702 0 0 -697zm-25851 0l-2702 0 0 697 2702 0 0 -697zm-25851 0l-2702 0 0 697 2702 0 0 -697zm-25851 0l-2702 0 0 697 2702 0 0 -697zm-25851 0l-2702 0 0 697 2702 0 0 -697zm-25851 0l-2702 0 0 697 2702 0 0 -697zm-25851 0l-2702 0 0 697 2702 0 0 -697zm-25851 0l-2702 0 0 697 2702 0 0 -697zm-25851 0l-2702 0 0 697 2702 0 0 -697zm-25851 0l-2702 0 0 697 2702 0 0 -697zm30186 205779l8450 0 0 -130108c-2933,793 -5871,1607 -8815,2441l0 5929 -333 0 -1777 1112 0 82551 1675 1105 800 0 0 2166 0 618 0 34186zm9687 0l1161 0 0 -129139 -1161 -1160 0 130299zm3403 0l1547 0 0 -126379 66980 0 0 126379 1547 0 0 -127772 -70074 0 0 127772zm22430 0l1856 0 0 -125142 -1856 0 0 125142zm23203 0l1856 0 0 -125142 -1856 0 0 125142zm26684 0l1160 0 0 -130553 -1160 1234 0 129319zm2397 0l23667 0 0 -132566 130401 0 0 1172 20 21 -20 19 0 131354 22739 0 0 -132412 68951 0c-53984,-13912 -106090,-20869 -158194,-20869 -52105,0 -104211,6958 -158193,20869l70629 0 0 132412zm24905 0l1082 0 0 -129331 -1082 -1106 0 130437zm4158 0l1080 0 0 -127772 -1080 0 0 127772zm19240 0l1080 0 0 -127772 -1080 0 0 127772zm2317 0l2826 0 0 -4480 -2826 0 0 4480zm4063 0l1080 0 0 -127772 -1080 0 0 127772zm31630 0l1872 0 0 -28154c-18,6 -31,13 -41,21 -26,23 -57,67 -88,118l-181 297 -1261 0 -182 -297c-31,-50 -61,-95 -87,-118 -8,-6 -19,-13 -32,-18l0 28151zm3109 0l1871 0 0 -28151c-13,5 -23,12 -31,18 -26,23 -57,67 -88,118l-181 297 -1261 0 -182 -297c-31,-50 -61,-95 -87,-118 -10,-8 -23,-15 -41,-21l0 28154zm32550 0l614 0 0 -127772 -614 0 0 127772zm2317 0l2826 0 0 -4480 -2826 0 0 4480zm4063 0l1081 0 0 -127772 -1081 0 0 127772zm19240 0l1080 0 0 -127772 -1080 0 0 127772zm4155 0l1083 0 0 -130182 -1083 1026 0 129156zm26297 0l1160 0 0 -129139 -1160 -1161 0 130300zm3403 0l1547 0 1 -126379 66978 0 0 126379 1547 0 0 -127772 -70073 0 0 1 0 127771zm22429 0l1857 0 0 -125142 -1857 0 0 125142zm23204 0l1856 0 0 -125142 -1856 0 0 125142zm26683 0l1160 0 0 -129988 -423 -115 -737 784 0 129319zm2397 0l6343 0 0 -34186 0 -618 0 -2166 619 0 398 0 1303 -1066 0 -82637 -1303 -1065 -398 0 0 -5979c-2325,-657 -4645,-1302 -6962,-1934l0 129651zm-168606 -157938c-26467,-425 -57934,1949 -89476,6583 -30696,4510 -61455,11162 -87742,19457l-91 28 -23452 0 0 -45246 401542 0 0 45246 -23452 0 -91 -28c-26286,-8295 -57046,-14947 -87741,-19457 -31544,-4634 -63010,-7008 -89478,-6583l-19 0zm-89656 5360c31589,-4640 63121,-7018 89666,-6592 26545,-426 58076,1952 89665,6592 30726,4515 61518,11171 87842,19471l22027 0 0 -42772 -399068 0 0 42772 22026 0c26325,-8300 57117,-14956 87842,-19471zm255250 22111c-885,-237 -1770,-474 -2655,-707l-71574 0 928 928 73094 0 207 -221zm-328513 -707l-1484 393 535 535 73094 0 873 -928 -73018 0zm-13156 2323c60401,-17111 118243,-25667 176085,-25667 59880,0 118720,9416 176085,25667l28498 0 0 -51839 -409166 0 0 51839 28498 0zm234875 4831l-15684 0 0 43815 15684 0 0 -43815zm-15684 -1237l15684 0 0 -1857 -15684 0 0 1857zm-10402 1237l-27738 0 0 43815 27738 0 0 -43815zm-27738 -1237l27738 0 0 -1857 -27738 0 0 1857zm-7454 1237l-28075 0 0 43815 28075 0 0 -43815zm-28075 -1237l28075 0 0 -1857 -28075 0 0 1857zm-9936 1237l-15685 0 0 43815 15685 0 0 -43815zm-15685 -1237l15685 0 0 -1857 -15685 0 0 1857zm114974 49383l-15684 0 0 59478 15684 0 0 -59478zm-15684 -1237l15684 0 0 -1857 -15684 0 0 1857zm-10402 1237l-27738 0 0 59478 27738 0 0 -59478zm-27738 -1237l27738 0 0 -1857 -27738 0 0 1857zm-7454 1237l-28075 0 0 59478 28075 0 0 -59478zm-28075 -1237l28075 0 0 -1857 -28075 0 0 1857zm-9936 1237l-15685 0 0 59478 15685 0 0 -59478zm-15685 -1237l15685 0 0 -1857 -15685 0 0 1857zm99290 76957l15684 0 0 -1857 -15684 0 0 1857zm0 -3094l15684 0 0 -8818 -15684 0 0 8818zm0 -10055l15684 0 0 -1856 -15684 0 0 1856zm-38140 13149l27738 0 0 -1857 -27738 0 0 1857zm0 -3094l27738 0 0 -8818 -27738 0 0 8818zm0 -10055l27738 0 0 -1856 -27738 0 0 1856zm-35529 13149l28075 0 0 -1857 -28075 0 0 1857zm0 -3094l28075 0 0 -8818 -28075 0 0 8818zm0 -10055l28075 0 0 -1856 -28075 0 0 1856zm-25621 13149l15685 0 0 -1857 -15685 0 0 1857zm0 -3094l15685 0 0 -8818 -15685 0 0 8818zm0 -10055l15685 0 0 -1856 -15685 0 0 1856zm94765 -114469l-886 0 0 122055 886 0 0 -122055zm-34852 0l-1871 0 0 85543 941 -542 306 178 624 359 0 -85538zm-3108 0l-1872 0 0 85538 931 -537 307 178 634 365 0 -85544zm-35709 0l-886 0 0 122055 886 0 0 -122055zm-25657 -2474l124285 0 1143 -1083 -126489 0 1061 1083zm270191 -73361l939 0c9,-247 98,-424 186,-601 29,-55 56,-64 56,-86 0,-402 245,-616 490,-829 10,-7 18,6 25,26l41 47c12,-349 222,-543 474,-704l-2211 0 0 2147zm1934 618l0 20 18 11c-10,-24 -18,-92 -18,-31zm484 -1305l-1 28 42 48c-23,-64 -41,-196 -41,-76zm-721 -799l40 45 -41 -49 1 4zm40 45l-40 -45c22,64 39,189 39,74l1 -29zm1236 29l-4 87 52 90c-26,-97 -48,-381 -48,-177zm-518 -735c17,111 30,234 30,82l0 -82 -30 0zm-434611 -11758l257 31 445099 0 257 -31 0 -1633 -445613 0 0 1633zm398886 183326l0 34186 28772 0 0 -34186 -28772 0zm1732 -2784l25235 0 -235 -155 -24810 0 -190 155zm27040 1237l-28772 0 0 310 28772 0 0 -310zm-22894 -5413l16861 0 0 -76416 -16861 0 0 76416zm17480 1237l-18717 0 0 -78890 19335 0 0 78890 -618 0zm-21038 1547l23977 0 0 -81984 -23977 0 0 81984zm-398 -83222l24810 0 235 -154 -25235 0 190 154zm-1303 -1392l27788 0 0 -4638 -27788 0 0 4638zm-34186 -2166l0 44705 18563 0 0 -44705 -18563 0zm0 45943l0 1856 18563 0 0 -1856 -18563 0zm0 3093l0 59710 18563 0 0 -59710 -18563 0zm0 60947l0 1856 18563 0 0 -1856 -18563 0zm0 3093l0 8818 18563 0 0 -8818 -18563 0zm0 10055l0 1857 18563 0 0 -1857 -18563 0zm-4331 1857l0 -1857 -18872 0 0 1857 18872 0zm0 -3094l0 -8818 -18872 0 0 8818 18872 0zm0 -10055l0 -1856 -18872 0 0 1856 18872 0zm0 -3093l0 -59710 -18872 0 0 59710 18872 0zm0 -60947l0 -1856 -18872 0 0 1856 18872 0zm0 -3094l0 -44705 -18872 0 0 44705 18872 0zm-41611 80283l18408 0 0 -1857 -18408 0 0 1857zm0 -3094l18408 0 0 -8818 -18408 0 0 8818zm0 -10055l18408 0 0 -1856 -18408 0 0 1856zm0 -3093l18408 0 0 -59710 -18408 0 0 59710zm0 -60947l18408 0 0 -1856 -18408 0 0 1856zm0 -3094l18408 0 0 -44705 -18408 0 0 44705zm-210218 -44705l0 44705 18562 0 0 -44705 -18562 0zm0 45943l0 1856 18562 0 0 -1856 -18562 0zm0 3093l0 59710 18562 0 0 -59710 -18562 0zm0 60947l0 1856 18562 0 0 -1856 -18562 0zm0 3093l0 8818 18562 0 0 -8818 -18562 0zm0 10055l0 1857 18562 0 0 -1857 -18562 0zm-4332 1857l0 -1857 -18871 0 0 1857 18871 0zm0 -3094l0 -8818 -18871 0 0 8818 18871 0zm0 -10055l0 -1856 -18871 0 0 1856 18871 0zm0 -3093l0 -59710 -18871 0 0 59710 18871 0zm0 -60947l0 -1856 -18871 0 0 1856 18871 0zm0 -3094l0 -44705 -18871 0 0 44705 18871 0zm-41610 80283l18407 0 0 -1857 -18407 0 0 1857zm0 -3094l18407 0 0 -8818 -18407 0 0 8818zm0 -10055l18407 0 0 -1856 -18407 0 0 1856zm0 -3093l18407 0 0 -59710 -18407 0 0 59710zm0 -60947l18407 0 0 -1856 -18407 0 0 1856zm0 -3094l18407 0 0 -44705 -18407 0 0 44705zm-45884 46251l0 34186 28772 0 0 -34186 -28772 0zm1732 -2784l25235 0 -235 -155 -24810 0 -190 155zm27040 1237l-28772 0 0 310 28772 0 0 -310zm-22894 -5413l16861 0 0 -76416 -16861 0 0 76416zm17480 1237l-18717 0 0 -78890 19336 0 0 78890 -619 0zm-21038 1547l23977 0 0 -81984 -23977 0 0 81984zm-398 -83222l24822 0 248 -154 -25260 0 190 154zm-1303 -1392l27787 0 0 -4638 -27787 0 0 4638zm203507 84665l4 -3c34,-26 68,-71 103,-123l184 -275 1281 0 184 275c34,52 69,97 100,123l16 10 0 -1290 -941 542 -931 -537 0 1278zm3109 6l14 -9c33,-26 68,-71 102,-123l184 -275 1281 0 184 275c34,52 69,97 100,123l6 4 0 -1278 -930 536 -941 -542 0 1289zm1871 4550l0 0 0 -1699c-41,169 -248,276 -438,302l0 5771 438 317 0 -2282 0 0 0 -2409zm-1871 -12l0 2430 6 -6 0 2279 437 -317 0 -5771c-189,-26 -396,-133 -437,-302l0 1695 -6 -8zm203503 -170078l0 1663 2702 0 0 -1663 -2702 0zm-25852 0l0 1663 2702 0 0 -1663 -2702 0zm-25851 0l0 1663 2702 0 0 -1663 -2702 0zm-361914 0l0 1663 2702 0 0 -1663 -2702 0zm336063 0l0 1663 2702 0 0 -1663 -2702 0zm-25851 0l0 1663 2702 0 0 -1663 -2702 0zm-25851 0l0 1663 2702 0 0 -1663 -2702 0zm-25851 0l0 1663 2702 0 0 -1663 -2702 0zm-25851 0l0 1663 2702 0 0 -1663 -2702 0zm-25851 0l0 1663 2702 0 0 -1663 -2702 0zm-25851 0l0 1663 2702 0 0 -1663 -2702 0zm-25851 0l0 1663 2702 0 0 -1663 -2702 0zm-25851 0l0 1663 2702 0 0 -1663 -2702 0zm-25851 0l0 1663 2702 0 0 -1663 -2702 0zm-25851 0l0 1663 2702 0 0 -1663 -2702 0zm-25851 0l0 1663 2702 0 0 -1663 -2702 0zm-25851 0l0 1663 2702 0 0 -1663 -2702 0zm185204 163035l0 71 45 -46 -45 -25zm0 75l0 261 163 -95 -163 -166zm-1 260l0 -260 -163 166 163 94zm0 -264l-46 -46 46 -25 0 71 0 -71 0 71zm48 -45l-46 47 150 0 -104 -47zm-48 310l1 -261 -1 261zm-256 -149l-57 -57 -5 21 62 36zm574 -36l-4 -21 -58 58 62 -37zm-41 3962l-554 0 0 268 554 0 0 -268zm-3395 -4113l0 71 47 -46 -47 -25zm0 75l0 261 164 -95 -164 -166zm0 260l0 -260 -163 166 163 94zm0 -264l-46 -46 46 -25 0 71 0 -71 0 71zm48 -45l-46 47 150 0 -104 -47zm-48 310l0 -261 0 261zm-256 -149l-58 -57 -4 21 62 36zm574 -36l-4 -21 -58 58 62 -37zm-40 3962l-555 0 0 268 555 0 0 -268z"/>
     <path class="fil2" d="M885097 480722l-7735 0 0 -4115 3373 0 0 -2939 -3373 0 0 -4114 3373 0 0 -2940 -3373 0 0 -4114 3373 0 0 -2940 -3373 0 0 -4114 3373 0 0 -2939 -3373 0 0 -4115 3373 0 0 -2939 -3373 0 0 -4115 3373 0 0 -2939 -3373 0 0 -4114 3373 0 0 -2940 -3373 0 0 -4114 3373 0 0 -2939 -3373 0 0 -4115 3373 0 0 -2939 -3373 0 0 -4114 3373 0 0 -2939 -3373 0 0 -4115 3373 0 0 -2939 -3373 0 0 -4115 3373 0 0 -2939 -3373 0 0 -4114 3373 0 0 -2940 -3373 0 0 -4114 3373 0 0 -2939 -3373 0 0 -4115 3373 0 0 -2939 -3373 0 0 -4115 3373 0 0 -2939 -3373 0 0 -4114 3373 0 0 -2940 -3373 0 0 -4114 3373 0 0 -2939 -3373 0 0 -4115c2636,0 1848,-87 4347,588l-4030 0 0 2939 6621 0 0 -2226 588 161 0 2065 830 0 17 588 -4382 0 0 2939 4469 0 17 588 -951 0 0 2939 2653 0 0 587 -6188 0 0 2940 6188 0 0 587 -2653 0 0 2940 2653 0 0 587 -6188 0 0 2939 6188 0 0 588 -2653 0 0 2939 2653 0 0 588 -6188 0 0 2939 6188 0 0 588 -2653 0 0 2939 2653 0 0 588 -6188 0 0 2939 6188 0 0 587 -2653 0 0 2940 2653 0 0 587 -6188 0 0 2940 6188 0 0 587 -2653 0 0 2939 2653 0 0 588 -6188 0 0 2939 6188 0 0 588 -2653 0 0 2939 2653 0 0 588 -6188 0 0 2939 6188 0 0 587 -2653 0 0 2940 2653 0 0 588 -6188 0 0 2939 6188 0 0 587 -2653 0 0 2940 2653 0 0 587 -6188 0 0 2939 6188 0 0 588 -2653 0 0 2939 2653 0 0 588 -6188 0 0 2939 6188 0 0 588 -2653 0 0 2939 2653 0 0 587 -6188 0 0 2940 6188 0 0 588 -2653 0 0 2939 2653 0 0 587 -6188 0 0 2939 6188 0 0 493 -144 95 -2509 0 0 2940 332 0 0 587 -3867 0 0 2939 3867 0 0 588 -332 0 0 2939 332 0 0 588 -3867 0 0 2939 3867 0 0 588 -332 0 0 2939 332 0 0 587 -3867 0 0 2940 3867 0 0 587 -332 0 0 2939 332 0 0 588 -3867 0 0 2940 3867 0 0 587 -332 0 0 2939 332 0 0 588 -3867 0 0 2939 3867 0 0 588 -332 0 0 2939 325 0 32 588 -148 0zm-7456 -279l7310 0 -2 -31 -340 0 0 -3496 333 0 0 -30 -3867 0 0 -3496 3867 0 0 -31 -333 0 0 -3497 333 0 0 -30 -3867 0 0 -3496 3867 0 0 -31 -333 0 0 -3496 333 0 0 -31 -3867 0 0 -3496 3867 0 0 -31 -333 0 0 -3496 333 0 0 -31 -3867 0 0 -3496 3867 0 0 -30 -333 0 0 -3496 333 0 0 -31 -3867 0 0 -3497 3867 0 0 -30 -333 0 0 -3496 2653 0 0 -31 -6187 0 0 -3496 6187 0 0 -31 -2653 0 0 -3496 2653 0 0 -31 -6187 0 0 -3496 6187 0 0 -30 -2653 0 0 -3497 2653 0 0 -31 -6187 0 0 -3496 6187 0 0 -30 -2653 0 0 -3496 2653 0 0 -31 -6187 0 0 -3496 6187 0 0 -31 -2653 0 0 -3496 2653 0 0 -31 -6187 0 0 -3496 6187 0 0 -31 -2653 0 0 -3496 2653 0 0 -30 -6187 0 0 -3497 6187 0 0 -31 -2653 0 0 -3496 2653 0 0 -30 -6187 0 0 -3496 6187 0 0 -31 -2653 0 0 -3496 2653 0 0 -31 -6187 0 0 -3496 6187 0 0 -31 -2653 0 0 -3496 2653 0 0 -31 -6187 0 0 -3496 6187 0 0 -31 -2653 0 0 -3496 2653 0 0 -30 -6187 0 0 -3497 6187 0 0 -30 -2653 0 0 -3496 2653 0 0 -31 -6187 0 0 -3496 6187 0 0 -31 -2653 0 0 -3496 2653 0 0 -31 -6187 0 0 -3496 6187 0 0 -31 -2653 0 0 -3496 944 0 -1 -31 -4477 0 0 -3496 4374 0 -1 -30 -839 0 0 -2133 -31 -9 0 2142 -6937 0 0 30 3372 0 0 3496 -3372 0 0 31 6937 0 0 3496 -6937 0 0 31 3372 0 0 3496 -3372 0 0 31 6937 0 0 3496 -6937 0 0 31 3372 0 0 3496 -3372 0 0 31 6937 0 0 3496 -6937 0 0 30 3372 0 0 3497 -3372 0 0 30 6937 0 0 3496 -6937 0 0 31 3372 0 0 3496 -3372 0 0 31 6937 0 0 3496 -6937 0 0 31 3372 0 0 3496 -3372 0 0 31 6937 0 0 3496 -6937 0 0 31 3372 0 0 3496 -3372 0 0 30 6937 0 0 3496 -6937 0 0 31 3372 0 0 3497 -3372 0 0 30 6937 0 0 3496 -6937 0 0 31 3372 0 0 3496 -3372 0 0 31 6937 0 0 3496 -6937 0 0 31 3372 0 0 3496 -3372 0 0 31 6937 0 0 3496 -6937 0 0 30 3372 0 0 3496 -3372 0 0 31 6937 0 0 3497 -6937 0 0 30 3372 0 0 3496 -3372 0 0 31 6937 0 0 3496 -6937 0 0 31 3372 0 0 3496 -3372 0 0 31 6937 0 0 3496 -6937 0 0 30 3372 0 0 3497 -3372 0 0 31 6937 0 0 3496 -6937 0 0 30 3372 0 0 3496 -3372 0 0 31 6937 0 0 3496 -6937 0 0 31 3372 0 0 3496 -3372 0 0 31 6937 0 0 3496 -6937 0 0 31 3372 0 0 3496 -3372 0 0 30 6937 0 0 3497 -6937 0 0 31 3372 0 0 3496 -3372 0 0 30 6937 0 0 3496 -6937 0 0 31zm0 -130524l0 31 1970 0 -113 -31 -1857 0zm-78411 130803l-23961 0 0 -588 441 0 0 -2939 -441 0 0 -588 4115 0 0 -2939 -4115 0 0 -588 441 0 0 -2939 -441 0 0 -587 4115 0 0 -2940 -4115 0 0 -588 441 0 0 -2939 -441 0 0 -587 4115 0 0 -2940 -4115 0 0 -587 441 0 0 -2939 -441 0 0 -588 4115 0 0 -2939 -4115 0 0 -588 441 0 0 -2939 -441 0 0 -588 4115 0 0 -2939 -4115 0 0 -587 441 0 0 -2940 -441 0 0 -588 4115 0 0 -2939 -4115 0 0 -587 441 0 0 -2939 -441 0 0 -588 4115 0 0 -2940 -4115 0 0 -587 441 0 0 -2939 -441 0 0 -588 4115 0 0 -2939 -4115 0 0 -588 441 0 0 -2939 -441 0 0 -588 4115 0 0 -2939 -4115 0 0 -587 441 0 0 -2940 -441 0 0 -587 4115 0 0 -2939 -4115 0 0 -588 441 0 0 -2940 -441 0 0 -587 4115 0 0 -2939 -4115 0 0 -588 441 0 0 -2939 -441 0 0 -588 4115 0 0 -2939 -4115 0 0 -588 441 0 0 -2939 -441 0 0 -587 4115 0 0 -2940 -4115 0 0 -587 441 0 0 -2940 -441 0 0 -587 4115 0 0 -2939 -4115 0 0 -588 441 0 0 -2939 -441 0 0 -588 4115 0 0 -2939 -4115 0 0 -588 441 0 0 -2939 -441 0 0 -588 4115 0 0 -2939 -4115 0 0 -587 441 0 0 -2940 -441 0 0 -587 4115 0 0 -2940 -4115 0 0 -587 441 0 0 -2939 -441 0 0 -588 4115 0 0 -2939 -4115 0 0 -588 441 0 0 -2939 -441 0 0 -588 4115 0 0 -2939 -6651 0 0 1145 -588 0 0 -1145 -6652 0 0 1145 -588 0 0 -1145 -6651 0 0 1145 -588 0 0 -1145 -6652 0 0 1145 -587 0 0 -1145 -6652 0 0 1145 -588 0 0 -1145 -6651 0 0 1145 -588 0 0 -1145 -6652 0 0 1145 -587 0 0 -1145 -6652 0 0 1145 -587 0 0 -1145 -6652 0 0 1145 -588 0 0 -1145 -6651 0 0 1145 -588 0 0 -1145 -6652 0 0 1145 -587 0 0 -1145 -6652 0 0 1145 -588 0 0 -1145 -6652 0 0 1145 -587 0 0 -1145 -6652 0 0 1145 -588 0 0 -1145 -6651 0 0 1145 -588 0 0 -1145 -6652 0 0 1145 -587 0 0 -1145 -6652 0 0 1145 -587 0 0 -1145 -6652 0 0 1145 -588 0 0 -1145 -6651 0 0 2939 3960 0 0 588 -395 0 0 2939 395 0 0 588 -3960 0 0 2939 3960 0 0 588 -395 0 0 2939 395 0 0 587 -3960 0 0 2940 3960 0 0 587 -395 0 0 2940 395 0 0 587 -3960 0 0 2939 3960 0 0 588 -395 0 0 2939 395 0 0 588 -3960 0 0 2939 3960 0 0 588 -395 0 0 2939 395 0 0 588 -3960 0 0 2939 3960 0 0 587 -395 0 0 2940 395 0 0 587 -3960 0 0 2940 3960 0 0 587 -395 0 0 2939 395 0 0 588 -3960 0 0 2939 3960 0 0 588 -395 0 0 2939 395 0 0 588 -3960 0 0 2939 3960 0 0 587 -395 0 0 2940 395 0 0 588 -3960 0 0 2939 3960 0 0 587 -395 0 0 2940 395 0 0 587 -3960 0 0 2939 3960 0 0 588 -395 0 0 2939 395 0 0 588 -3960 0 0 2939 3960 0 0 588 -395 0 0 2939 395 0 0 587 -3960 0 0 2940 3960 0 0 588 -395 0 0 2939 395 0 0 587 -3960 0 0 2939 3960 0 0 588 -395 0 0 2940 395 0 0 587 -3960 0 0 2939 3960 0 0 588 -395 0 0 2939 395 0 0 588 -3960 0 0 2939 3960 0 0 588 -395 0 0 2939 395 0 0 587 -3960 0 0 2940 3960 0 0 587 -395 0 0 2939 395 0 0 588 -3960 0 0 2940 3960 0 0 587 -395 0 0 2939 395 0 0 588 -3960 0 0 2939 3960 0 0 588 -395 0 0 2939 395 0 0 588 -25183 0 0 -588 2482 0 0 -2939 -2482 0 0 -588 6156 0 0 -2939 -6156 0 0 -588 2482 0 0 -2939 -2482 0 0 -587 6156 0 0 -2940 -6156 0 0 -588 2482 0 0 -2939 -2482 0 0 -587 6156 0 0 -2940 -6156 0 0 -587 2482 0 0 -2939 -2482 0 0 -588 6156 0 0 -2939 -6156 0 0 -588 2482 0 0 -2939 -2482 0 0 -588 6156 0 0 -2939 -6156 0 0 -587 2482 0 0 -2940 -2482 0 0 -588 6156 0 0 -2939 -6156 0 0 -587 2482 0 0 -2939 -2482 0 0 -588 6156 0 0 -2940 -6156 0 0 -587 2482 0 0 -2939 -2482 0 0 -588 6156 0 0 -2939 -6156 0 0 -588 2482 0 0 -2939 -2482 0 0 -588 6156 0 0 -2939 -6156 0 0 -587 2482 0 0 -2940 -2482 0 0 -587 6156 0 0 -2939 -6156 0 0 -588 2482 0 0 -2940 -2482 0 0 -587 6156 0 0 -2939 -6156 0 0 -588 2482 0 0 -2939 -2482 0 0 -588 6156 0 0 -2939 -6156 0 0 -588 2482 0 0 -2939 -2482 0 0 -587 6156 0 0 -2940 -6156 0 0 -587 2482 0 0 -2940 -2482 0 0 -587 6156 0 0 -2939 -6156 0 0 -588 2482 0 0 -2939 -2482 0 0 -588 6156 0 0 -2939 -6156 0 0 -588 2482 0 0 -2939 -2482 0 0 -588 6156 0 0 -2939 -6156 0 0 -587 2482 0 0 -2940 -2482 0 0 -587 6156 0 0 -2940 -6156 0 0 -587 2482 0 0 -2939 -2482 0 0 -588 6156 0 0 -2939 -6156 0 0 -588 2482 0 0 -2939 -2482 0 0 -588 6156 0 0 -2939 -6651 0 0 1300 -588 0 0 -1300 -6652 0 0 1300 -587 0 0 -1300 -6652 0 0 1300 -588 0 0 -1300 -6652 0 0 1300 -587 0 0 -1300 -6652 0 0 1300 -587 0 0 -1300 -6652 0 0 1300 -588 0 0 -1300 -6651 0 0 1300 -588 0 0 -1300 -6652 0 0 1300 -587 0 0 -1300 -6652 0 0 1300 -588 0 0 -1300 -6651 0 0 1300 -588 0 0 -1300 -5218 0c3651,-950 4370,-587 8783,-587l0 -1658 588 -146 0 1804 6652 0 0 -2940 -2015 0c3054,-723 2234,-588 5689,-588l0 -750 587 -136 0 886 6652 0 0 -2380 588 -128 0 2508 6651 0 0 -2939 -4685 0c3860,-816 3480,-587 8251,-587l0 -1128 587 -118 0 1246 6652 0 0 -2546 588 -111 0 2657 6651 0 0 -2940 -5160 0c3870,-709 4286,-587 8834,-587l0 -993 588 -100 0 1093 6652 0 0 -2194 587 -95 0 2289 6652 0 0 -2939 -2488 0c2536,-378 3566,-588 6053,-588l0 -300 588 -84 0 384 6651 0 0 -1284 588 -76 0 1360 6652 0 0 -2185 587 -68 0 2253 6652 0 0 -2939 -613 0c4459,-452 6914,-588 11527,-588l0 -529 587 -51 0 580 6652 0 0 -1123 587 -44 0 1167 6652 0 0 -1630 588 -38 0 1668 6651 0 0 -2051 588 -30 0 2081 6652 0 0 -2385 587 -24 0 2409 6652 0 0 -2633 588 -16 0 2649 6652 0 0 -2794 587 -10 0 2804 6652 0 0 -2869 588 -3 0 2872 6651 0 0 -2849 588 5 0 2844 6652 0 0 -2733 587 14 0 2719 6652 0 0 -2527 587 22 0 2505 6652 0 0 -2226 588 28 0 2198 6651 0 0 -1837 588 36 0 1801 6652 0 0 -1358 587 42 0 1316 6652 0 0 -791 588 50 0 741 6651 0 0 -137 588 58 0 79c2104,0 4471,373 6572,588l-3007 0 0 2939 6652 0 0 -2525 587 66 0 2459 6652 0 0 -1655 588 74 0 1581 6651 0 0 -703 588 82 0 621c3887,0 4709,41 8316,588l-4642 0 0 2939 6652 0 0 -2634 588 92 0 2542 6651 0 0 -1472 588 97 0 1375 6652 0 0 -230 587 105 0 125c1368,0 2593,341 3956,587l-390 0 0 2940 6651 0 0 -1754 588 114 0 1640 6652 0 0 -315 587 121 0 194c1468,0 2280,277 3781,587l-107 0 0 2939 6652 0 0 -1524 588 130 0 1394c4536,0 4962,-280 8728,588l-5163 0 0 2940 6651 0 0 -2588 588 139 0 2449 6652 0 0 -842 587 144 0 698c3169,0 2295,-128 5139,587l-1464 0 0 1145 -588 0 0 -1145 -6652 0 0 1145 -587 0 0 -1145 -6652 0 0 1145 -588 0 0 -1145 -6651 0 0 1145 -588 0 0 -1145 -6652 0 0 1145 -587 0 0 -1145 -6652 0 0 1145 -588 0 0 -1145 -6652 0 0 1145 -587 0 0 -1145 -6652 0 0 1145 -587 0 0 -1145 -6652 0 0 1145 -588 0 0 -1145 -6651 0 0 1145 -588 0 0 -1145 -6652 0 0 2939 4919 0 0 588 -1353 0 0 2939 1353 0 0 588 -4919 0 0 2939 4919 0 0 588 -1353 0 0 2939 1353 0 0 587 -4919 0 0 2940 4919 0 0 587 -1353 0 0 2940 1353 0 0 587 -4919 0 0 2939 4919 0 0 588 -1353 0 0 2939 1353 0 0 588 -4919 0 0 2939 4919 0 0 588 -1353 0 0 2939 1353 0 0 588 -4919 0 0 2939 4919 0 0 587 -1353 0 0 2940 1353 0 0 587 -4919 0 0 2940 4919 0 0 587 -1353 0 0 2939 1353 0 0 588 -4919 0 0 2939 4919 0 0 588 -1353 0 0 2939 1353 0 0 588 -4919 0 0 2939 4919 0 0 587 -1353 0 0 2940 1353 0 0 588 -4919 0 0 2939 4919 0 0 587 -1353 0 0 2940 1353 0 0 587 -4919 0 0 2939 4919 0 0 588 -1353 0 0 2939 1353 0 0 588 -4919 0 0 2939 4919 0 0 588 -1353 0 0 2939 1353 0 0 587 -4919 0 0 2940 4919 0 0 588 -1353 0 0 2939 1353 0 0 587 -4919 0 0 2939 4919 0 0 588 -1353 0 0 2940 1353 0 0 587 -4919 0 0 2939 4919 0 0 588 -1353 0 0 2939 1353 0 0 588 -4919 0 0 2939 4919 0 0 588 -1353 0 0 2939 1353 0 0 587 -4919 0 0 2940 4919 0 0 587 -1353 0 0 2939 1353 0 0 588 -4919 0 0 2940 4919 0 0 587 -1353 0 0 2939 1353 0 0 588 -4919 0 0 2939 4919 0 0 588 -1353 0 0 2939 1353 0 0 588 -139 0zm-23682 -279l23543 0 0 -31 -1354 0 0 -3496 1354 0 0 -30 -4919 0 0 -3496 4919 0 0 -31 -1354 0 0 -3497 1354 0 0 -30 -4919 0 0 -3496 4919 0 0 -31 -1354 0 0 -3496 1354 0 0 -31 -4919 0 0 -3496 4919 0 0 -31 -1354 0 0 -3496 1354 0 0 -31 -4919 0 0 -3496 4919 0 0 -30 -1354 0 0 -3496 1354 0 0 -31 -4919 0 0 -3497 4919 0 0 -30 -1354 0 0 -3496 1354 0 0 -31 -4919 0 0 -3496 4919 0 0 -31 -1354 0 0 -3496 1354 0 0 -31 -4919 0 0 -3496 4919 0 0 -30 -1354 0 0 -3497 1354 0 0 -31 -4919 0 0 -3496 4919 0 0 -30 -1354 0 0 -3496 1354 0 0 -31 -4919 0 0 -3496 4919 0 0 -31 -1354 0 0 -3496 1354 0 0 -31 -4919 0 0 -3496 4919 0 0 -31 -1354 0 0 -3496 1354 0 0 -30 -4919 0 0 -3497 4919 0 0 -31 -1354 0 0 -3496 1354 0 0 -30 -4919 0 0 -3496 4919 0 0 -31 -1354 0 0 -3496 1354 0 0 -31 -4919 0 0 -3496 4919 0 0 -31 -1354 0 0 -3496 1354 0 0 -31 -4919 0 0 -3496 4919 0 0 -31 -1354 0 0 -3496 1354 0 0 -30 -4919 0 0 -3497 4919 0 0 -30 -1354 0 0 -3496 1354 0 0 -31 -4919 0 0 -3496 4919 0 0 -31 -1354 0 0 -3496 1354 0 0 -31 -4919 0 0 -3496 4919 0 0 -31 -1354 0 0 -3496 1354 0 0 -31 -4919 0 0 -3496 4919 0 0 -30 -1354 0 0 -3496 1354 0 0 -31 -4919 0 0 -3497 7208 0 0 1146 31 0 0 -1146 7209 0 0 1146 31 0 0 -1146 7208 0 0 1146 31 0 0 -1146 7209 0 0 1146 30 0 0 -1146 7209 0 0 1146 31 0 0 -1146 7208 0 0 1146 31 0 0 -1146 7208 0 0 1146 31 0 0 -1146 7209 0 0 1146 30 0 0 -1146 7209 0 0 1146 31 0 0 -1146 6737 0 -122 -30 -3050 0 0 -758 -31 -8 0 766 -7208 0 0 -2507 -31 -7 0 2514 -7209 0 0 -3496 2995 0 -133 -31 -6427 0 0 -1450 -31 -7 0 1457 -7208 0 0 -3010 -31 -6 0 3016 -7208 0 0 -3496 4907 0 -148 -31 -1194 0 0 -247 -31 -6 0 253 -7209 0 0 -1689 -30 -6 0 1695 -7209 0 0 -3055 -31 -6 0 3061 -7208 0 0 -3496 4806 0 -170 -31 -962 0 0 -171 -31 -5 0 176 -7208 0 0 -1418 -31 -5 0 1423 -7209 0 0 -2583 -31 -5 0 2588 -7208 0 0 -3496 1175 0 -211 -31 -4638 0 0 -657 -31 -4 0 661 -7209 0 0 -1614 -30 -4 0 1618 -7209 0 0 -2489 -30 -3 0 2492 -7209 0 0 -3275 -31 -3 0 3278 -7208 0 0 -3496 5057 0 -307 -30 -1076 0 0 -107 -31 -3 0 110 -7209 0 0 -764 -30 -3 0 767 -7209 0 0 -1336 -31 -3 0 1339 -7208 0 0 -1818 -31 -2 0 1820 -7209 0 0 -2212 -30 -1 0 2213 -7209 0 0 -2516 -31 -2 0 2518 -7208 0 0 -2727 -31 -1 0 2728 -7209 0 0 -2848 -31 0 0 2848 -7208 0 0 -2872 -31 0 0 2872 -7208 0 0 -2801 -31 1 0 2800 -7209 0 0 -2643 -30 1 0 2642 -7209 0 0 -2399 -31 2 0 2397 -7208 0 0 -2068 -31 1 0 2067 -7209 0 0 -1651 -30 3 0 1648 -7209 0 0 -1147 -30 3 0 1144 -7209 0 0 -555 -31 3 0 552 -5963 0 -312 30 2601 0 0 3496 -7209 0 0 -3027 -30 3 0 3024 -7209 0 0 -2218 -31 3 0 2215 -7208 0 0 -1322 -31 4 0 1318 -7209 0 0 -341 -30 4 0 337 -2348 0 -208 31 6230 0 0 3496 -7209 0 0 -3352 -31 5 0 3347 -7208 0 0 -2241 -31 5 0 2236 -7209 0 0 -1042 -30 5 0 1037 -5883 0 -167 31 2375 0 0 3496 -7208 0 0 -2599 -31 6 0 2593 -7208 0 0 -1185 -31 6 0 1179 -5723 0 -146 31 2304 0 0 3496 -7209 0 0 -2441 -31 6 0 2435 -7208 0 0 -815 -31 7 0 808 -3454 0 -130 31 7149 0 0 3496 -7208 0 0 -3482 -31 7 0 3475 -7209 0 0 -1727 -30 8 0 1719 -6772 0 -118 30 3324 0 0 1300 31 0 0 -1300 7209 0 0 1300 30 0 0 -1300 7209 0 0 1300 31 0 0 -1300 7208 0 0 1300 31 0 0 -1300 7209 0 0 1300 31 0 0 -1300 7208 0 0 1300 31 0 0 -1300 7209 0 0 1300 30 0 0 -1300 7209 0 0 1300 30 0 0 -1300 7209 0 0 1300 31 0 0 -1300 7208 0 0 1300 31 0 0 -1300 7209 0 0 3497 -6157 0 0 31 2483 0 0 3496 -2483 0 0 30 6157 0 0 3496 -6157 0 0 31 2483 0 0 3496 -2483 0 0 31 6157 0 0 3496 -6157 0 0 31 2483 0 0 3496 -2483 0 0 31 6157 0 0 3496 -6157 0 0 31 2483 0 0 3496 -2483 0 0 30 6157 0 0 3497 -6157 0 0 30 2483 0 0 3496 -2483 0 0 31 6157 0 0 3496 -6157 0 0 31 2483 0 0 3496 -2483 0 0 31 6157 0 0 3496 -6157 0 0 31 2483 0 0 3496 -2483 0 0 31 6157 0 0 3496 -6157 0 0 30 2483 0 0 3496 -2483 0 0 31 6157 0 0 3497 -6157 0 0 30 2483 0 0 3496 -2483 0 0 31 6157 0 0 3496 -6157 0 0 31 2483 0 0 3496 -2483 0 0 31 6157 0 0 3496 -6157 0 0 31 2483 0 0 3496 -2483 0 0 30 6157 0 0 3496 -6157 0 0 31 2483 0 0 3497 -2483 0 0 30 6157 0 0 3496 -6157 0 0 31 2483 0 0 3496 -2483 0 0 31 6157 0 0 3496 -6157 0 0 31 2483 0 0 3496 -2483 0 0 30 6157 0 0 3497 -6157 0 0 31 2483 0 0 3496 -2483 0 0 30 6157 0 0 3496 -6157 0 0 31 2483 0 0 3496 -2483 0 0 31 6157 0 0 3496 -6157 0 0 31 2483 0 0 3496 -2483 0 0 31 6157 0 0 3496 -6157 0 0 30 2483 0 0 3497 -2483 0 0 31 6157 0 0 3496 -6157 0 0 30 2483 0 0 3496 -2483 0 0 31 24626 0 0 -31 -395 0 0 -3496 395 0 0 -30 -3960 0 0 -3496 3960 0 0 -31 -395 0 0 -3497 395 0 0 -30 -3960 0 0 -3496 3960 0 0 -31 -395 0 0 -3496 395 0 0 -31 -3960 0 0 -3496 3960 0 0 -31 -395 0 0 -3496 395 0 0 -31 -3960 0 0 -3496 3960 0 0 -30 -395 0 0 -3496 395 0 0 -31 -3960 0 0 -3497 3960 0 0 -30 -395 0 0 -3496 395 0 0 -31 -3960 0 0 -3496 3960 0 0 -31 -395 0 0 -3496 395 0 0 -31 -3960 0 0 -3496 3960 0 0 -30 -395 0 0 -3497 395 0 0 -31 -3960 0 0 -3496 3960 0 0 -30 -395 0 0 -3496 395 0 0 -31 -3960 0 0 -3496 3960 0 0 -31 -395 0 0 -3496 395 0 0 -31 -3960 0 0 -3496 3960 0 0 -31 -395 0 0 -3496 395 0 0 -30 -3960 0 0 -3497 3960 0 0 -31 -395 0 0 -3496 395 0 0 -30 -3960 0 0 -3496 3960 0 0 -31 -395 0 0 -3496 395 0 0 -31 -3960 0 0 -3496 3960 0 0 -31 -395 0 0 -3496 395 0 0 -31 -3960 0 0 -3496 3960 0 0 -31 -395 0 0 -3496 395 0 0 -30 -3960 0 0 -3497 3960 0 0 -30 -395 0 0 -3496 395 0 0 -31 -3960 0 0 -3496 3960 0 0 -31 -395 0 0 -3496 395 0 0 -31 -3960 0 0 -3496 3960 0 0 -31 -395 0 0 -3496 395 0 0 -31 -3960 0 0 -3496 3960 0 0 -30 -395 0 0 -3496 395 0 0 -31 -3960 0 0 -3497 7209 0 0 1146 31 0 0 -1146 7208 0 0 1146 31 0 0 -1146 7209 0 0 1146 30 0 0 -1146 7209 0 0 1146 30 0 0 -1146 7209 0 0 1146 31 0 0 -1146 7208 0 0 1146 31 0 0 -1146 7209 0 0 1146 30 0 0 -1146 7209 0 0 1146 31 0 0 -1146 7208 0 0 1146 31 0 0 -1146 7208 0 0 1146 31 0 0 -1146 7209 0 0 1146 31 0 0 -1146 7208 0 0 1146 31 0 0 -1146 7209 0 0 1146 30 0 0 -1146 7209 0 0 1146 31 0 0 -1146 7208 0 0 1146 31 0 0 -1146 7209 0 0 1146 30 0 0 -1146 7209 0 0 1146 31 0 0 -1146 7208 0 0 1146 31 0 0 -1146 7208 0 0 3497 -4114 0 0 31 441 0 0 3496 -441 0 0 30 4114 0 0 3496 -4114 0 0 31 441 0 0 3496 -441 0 0 31 4114 0 0 3496 -4114 0 0 31 441 0 0 3496 -441 0 0 31 4114 0 0 3496 -4114 0 0 31 441 0 0 3496 -441 0 0 30 4114 0 0 3497 -4114 0 0 30 441 0 0 3496 -441 0 0 31 4114 0 0 3496 -4114 0 0 31 441 0 0 3496 -441 0 0 31 4114 0 0 3496 -4114 0 0 31 441 0 0 3496 -441 0 0 31 4114 0 0 3496 -4114 0 0 30 441 0 0 3496 -441 0 0 31 4114 0 0 3497 -4114 0 0 30 441 0 0 3496 -441 0 0 31 4114 0 0 3496 -4114 0 0 31 441 0 0 3496 -441 0 0 31 4114 0 0 3496 -4114 0 0 31 441 0 0 3496 -441 0 0 30 4114 0 0 3496 -4114 0 0 31 441 0 0 3497 -441 0 0 30 4114 0 0 3496 -4114 0 0 31 441 0 0 3496 -441 0 0 31 4114 0 0 3496 -4114 0 0 31 441 0 0 3496 -441 0 0 30 4114 0 0 3497 -4114 0 0 31 441 0 0 3496 -441 0 0 30 4114 0 0 3496 -4114 0 0 31 441 0 0 3496 -441 0 0 31 4114 0 0 3496 -4114 0 0 31 441 0 0 3496 -441 0 0 31 4114 0 0 3496 -4114 0 0 30 441 0 0 3497 -441 0 0 31 4114 0 0 3496 -4114 0 0 30 441 0 0 3496 -441 0 0 31zm-129558 -151376l0 2939 6652 0 0 -2939 -6652 0zm173156 7053l-6652 0 0 2940 6652 0 0 -2940zm18153 3527l-6652 0 0 2939 6652 0 0 -2939zm29266 6902l-31 -8 0 1027 31 0 0 -1019zm-323340 134173l-9846 0 25 -588 3408 0 0 -2939 -3414 0 0 -4115 3414 0 0 -2939 -3414 0 0 -4115 3414 0 0 -2939 -3414 0 0 -4114 3414 0 0 -2939 -3414 0 0 -4115 3414 0 0 -2939 -3414 0 0 -4114 3414 0 0 -2940 -5161 0 -711 -588 2307 0 0 -2939 -2830 0 4 -587 6391 0 0 -2939 -6373 0 4 -588 2804 0 0 -2940 -2785 0 4 -587 6346 0 0 -2939 -6328 0 4 -588 2759 0 0 -2939 -2740 0 3 -588 6302 0 0 -2939 -6283 0 4 -588 2714 0 0 -2939 -2696 0 4 -587 6257 0 0 -2940 -6238 0 4 -587 2669 0 0 -2939 -2651 0 4 -588 6212 0 0 -2940 -6193 0 4 -587 2624 0 0 -2939 -2606 0 4 -588 6167 0 0 -2939 -6148 0 4 -588 2579 0 0 -2939 -2561 0 4 -588 6122 0 0 -2939 -6104 0 4 -587 2535 0 0 -2940 -2516 0 4 -587 6077 0 0 -2940 -6059 0 4 -587 2490 0 0 -2939 -2471 0 4 -588 6032 0 0 -2939 -6014 0 4 -588 2445 0 0 -2939 -2426 0 4 -588 5987 0 0 -2939 -5969 0 4 -588 2400 0 0 -2939 -2381 0 3 -587 5943 0 0 -2940 -5924 0 4 -587 2355 0 0 -2940 -2337 0 4 -587 5898 0 0 -2939 -3779 0 0 -588 214 0 0 -2939 -214 0 0 -588 3779 0 0 -2930 31 -9 -7 0c2105,-592 1582,-588 3651,-588l0 -434 587 -164 0 598 2290 0 0 588 -5964 0 0 2939 5964 0 0 588 -2290 0 0 2939 2290 0 0 588 -5964 0 0 2939 5964 0 0 587 -2290 0 0 2940 2290 0 0 587 -5964 0 0 2940 5964 0 0 587 -2290 0 0 2939 2290 0 0 588 -5964 0 0 2939 5964 0 0 588 -2290 0 0 2939 2290 0 0 588 -5964 0 0 2939 5964 0 0 588 -2290 0 0 2939 2290 0 0 587 -5964 0 0 2940 5964 0 0 587 -2290 0 0 2940 2290 0 0 587 -5964 0 0 2939 5964 0 0 588 -2290 0 0 2939 2290 0 0 588 -5964 0 0 2939 5964 0 0 588 -2290 0 0 2939 2290 0 0 587 -5964 0 0 2940 5964 0 0 588 -2290 0 0 2939 2290 0 0 587 -5964 0 0 2940 5964 0 0 587 -2290 0 0 2939 2290 0 0 588 -5964 0 0 2939 5964 0 0 588 -2290 0 0 2939 2290 0 0 588 -5964 0 0 2939 5964 0 0 587 -2290 0 0 2940 2290 0 0 588 -5964 0 0 2939 5964 0 0 587 -2290 0 0 2939 2290 0 0 588 -5964 0 0 2940 5964 0 0 587 -2290 0 0 2939 2290 0 0 588 -5964 0 0 2939 5964 0 0 588 -2290 0 0 2939 2290 0 0 588 -5964 0 0 2939 5964 0 0 587 -2290 0 0 2940 2290 0 0 587 -5964 0 0 2939 5964 0 0 588 -2290 0 0 2940 2290 0 0 587 -5964 0 0 2939 5964 0 0 588 -2290 0 0 2939 2290 0 0 588 -5964 0 0 2939 5964 0 0 588 -139 0zm-9556 -279l9416 0 0 -31 -5963 0 0 -3496 5963 0 0 -30 -2290 0 0 -3496 2290 0 0 -31 -5963 0 0 -3497 5963 0 0 -30 -2290 0 0 -3496 2290 0 0 -31 -5963 0 0 -3496 5963 0 0 -31 -2290 0 0 -3496 2290 0 0 -31 -5963 0 0 -3496 5963 0 0 -31 -2290 0 0 -3496 2290 0 0 -30 -5963 0 0 -3496 5963 0 0 -31 -2290 0 0 -3497 2290 0 0 -30 -5963 0 0 -3496 5963 0 0 -31 -2290 0 0 -3496 2290 0 0 -31 -5963 0 0 -3496 5963 0 0 -31 -2290 0 0 -3496 2290 0 0 -30 -5963 0 0 -3497 5963 0 0 -31 -2290 0 0 -3496 2290 0 0 -30 -5963 0 0 -3496 5963 0 0 -31 -2290 0 0 -3496 2290 0 0 -31 -5963 0 0 -3496 5963 0 0 -31 -2290 0 0 -3496 2290 0 0 -31 -5963 0 0 -3496 5963 0 0 -30 -2290 0 0 -3497 2290 0 0 -31 -5963 0 0 -3496 5963 0 0 -30 -2290 0 0 -3496 2290 0 0 -31 -5963 0 0 -3496 5963 0 0 -31 -2290 0 0 -3496 2290 0 0 -31 -5963 0 0 -3496 5963 0 0 -31 -2290 0 0 -3496 2290 0 0 -31 -5963 0 0 -3496 5963 0 0 -30 -2290 0 0 -3497 2290 0 0 -30 -5963 0 0 -3496 5963 0 0 -31 -2290 0 0 -3496 2290 0 0 -31 -5963 0 0 -3496 5963 0 0 -31 -2290 0 0 -3496 2290 0 0 -31 -5963 0 0 -3496 5963 0 0 -31 -2290 0 0 -3496 2290 0 0 -30 -5963 0 0 -3008 -31 8 0 3000 -3780 0 0 30 215 0 0 3496 -215 0 0 31 3780 0 0 3496 -5901 0 -1 31 2337 0 0 3496 -2359 0 0 31 5924 0 0 3496 -5946 0 0 31 2381 0 0 3496 -2404 0 0 31 5969 0 0 3496 -5991 0 0 30 2426 0 0 3497 -2448 0 -1 30 6014 0 0 3496 -6036 0 0 31 2471 0 0 3496 -2493 0 -1 31 6059 0 0 3496 -6080 0 -1 31 2516 0 0 3496 -2538 0 0 31 6103 0 0 3496 -6125 0 -1 31 2561 0 0 3496 -2583 0 0 30 6148 0 0 3496 -6170 0 0 31 2605 0 0 3497 -2627 0 -1 30 6193 0 0 3496 -6215 0 0 31 2650 0 0 3496 -2673 0 0 31 6238 0 0 3496 -6260 0 0 31 2695 0 0 3496 -2718 0 0 31 6283 0 0 3496 -6305 0 0 30 2740 0 0 3496 -2762 0 -1 31 6328 0 0 3497 -6350 0 0 30 2785 0 0 3496 -2807 0 -1 31 6373 0 0 3496 -6394 0 -1 31 2830 0 0 3496 -1813 0 37 31 5341 0 0 3496 -3415 0 0 30 7089 0 0 3497 -7089 0 0 31 3415 0 0 3496 -3415 0 0 30 7089 0 0 3496 -7089 0 0 31 3415 0 0 3496 -3415 0 0 31 7089 0 0 3496 -7089 0 0 31 3415 0 0 3496 -3415 0 0 31 7089 0 0 3496 -7089 0 0 30 3415 0 0 3497 -3415 0 0 31 7089 0 0 3496 -7089 0 0 30 3415 0 0 3496 -3421 0 -1 31zm5185 -130493l4231 0 0 -31 -2290 0 0 -512 -30 9 0 503 -1802 0 -109 31zm8872 -2089l0 -624 587 -156 0 920 -587 0 0 -140zm278 -410l0 271 31 0 0 -279 -31 8zm336296 129744l-6621 0 0 2939 6621 0 0 -2939zm-260028 2939l6651 0 0 -2939 -6651 0 0 2939zm6791 278l-7070 0 0 -3496 7209 0 0 3496 -139 0zm448 -278l6652 0 0 -2939 -6652 0 0 2939zm6791 278l-7069 0 0 -3496 7208 0 0 3496 -139 0zm448 -278l6652 0 0 -2939 -6652 0 0 2939zm6792 278l-7070 0 0 -3496 7209 0 0 3496 -139 0zm130755 -278l6652 0 0 -2939 -6652 0 0 2939zm6792 278l-7070 0 0 -3496 7209 0 0 3496 -139 0zm448 -278l6651 0 0 -2939 -6651 0 0 2939zm6791 278l-7070 0 0 -3496 7209 0 0 3496 -139 0zm448 -278l6652 0 0 -2939 -6652 0 0 2939zm6791 278l-7069 0 0 -3496 7208 0 0 3496 -139 0zm86733 -7332l0 -2939 -6621 0 0 2939 6621 0zm-260028 -2939l0 2939 6651 0 0 -2939 -6651 0zm-279 3078l0 -3357 7209 0 0 3497 -7209 0 0 -140zm7518 -3078l0 2939 6652 0 0 -2939 -6652 0zm-278 3078l0 -3357 7208 0 0 3497 -7208 0 0 -140zm7517 -3078l0 2939 6652 0 0 -2939 -6652 0zm-278 3078l0 -3357 7209 0 0 3497 -7209 0 0 -140zm137825 -3078l0 2939 6652 0 0 -2939 -6652 0zm-278 3078l0 -3357 7209 0 0 3497 -7209 0 0 -140zm7518 -3078l0 2939 6651 0 0 -2939 -6651 0zm-279 3078l0 -3357 7209 0 0 3497 -7209 0 0 -140zm7518 -3078l0 2939 6652 0 0 -2939 -6652 0zm-278 3078l0 -3357 7208 0 0 3497 -7208 0 0 -140zm93802 -7193l0 -2939 -6621 0 0 2939 6621 0zm-260028 -2939l0 2939 6651 0 0 -2939 -6651 0zm-279 3079l0 -3357 7209 0 0 3496 -7209 0 0 -139zm7518 -3079l0 2939 6652 0 0 -2939 -6652 0zm-278 3079l0 -3357 7208 0 0 3496 -7208 0 0 -139zm7517 -3079l0 2939 6652 0 0 -2939 -6652 0zm-278 3079l0 -3357 7209 0 0 3496 -7209 0 0 -139zm137825 -3079l0 2939 6652 0 0 -2939 -6652 0zm-278 3079l0 -3357 7209 0 0 3496 -7209 0 0 -139zm7518 -3079l0 2939 6651 0 0 -2939 -6651 0zm-279 3079l0 -3357 7209 0 0 3496 -7209 0 0 -139zm7518 -3079l0 2939 6652 0 0 -2939 -6652 0zm-278 3079l0 -3357 7208 0 0 3496 -7208 0 0 -139zm93802 -7193l0 -2939 -6621 0 0 2939 6621 0zm-260028 -2939l0 2939 6651 0 0 -2939 -6651 0zm-279 3078l0 -3357 7209 0 0 3496 -7209 0 0 -139zm7518 -3078l0 2939 6652 0 0 -2939 -6652 0zm-278 3078l0 -3357 7208 0 0 3496 -7208 0 0 -139zm7517 -3078l0 2939 6652 0 0 -2939 -6652 0zm-278 3078l0 -3357 7209 0 0 3496 -7209 0 0 -139zm137825 -3078l0 2939 6652 0 0 -2939 -6652 0zm-278 3078l0 -3357 7209 0 0 3496 -7209 0 0 -139zm7518 -3078l0 2939 6651 0 0 -2939 -6651 0zm-279 3078l0 -3357 7209 0 0 3496 -7209 0 0 -139zm7518 -3078l0 2939 6652 0 0 -2939 -6652 0zm-278 3078l0 -3357 7208 0 0 3496 -7208 0 0 -139zm93802 -7193l0 -2939 -6621 0 0 2939 6621 0zm-260028 -2939l0 2939 6651 0 0 -2939 -6651 0zm-279 3078l0 -3356 7209 0 0 3496 -7209 0 0 -140zm7518 -3078l0 2939 6652 0 0 -2939 -6652 0zm-278 3078l0 -3356 7208 0 0 3496 -7208 0 0 -140zm7517 -3078l0 2939 6652 0 0 -2939 -6652 0zm-278 3078l0 -3356 7209 0 0 3496 -7209 0 0 -140zm137825 -3078l0 2939 6652 0 0 -2939 -6652 0zm-278 3078l0 -3356 7209 0 0 3496 -7209 0 0 -140zm7518 -3078l0 2939 6651 0 0 -2939 -6651 0zm-279 3078l0 -3356 7209 0 0 3496 -7209 0 0 -140zm7518 -3078l0 2939 6652 0 0 -2939 -6652 0zm-278 3078l0 -3356 7208 0 0 3496 -7208 0 0 -140zm93802 -7192l0 -2940 -6621 0 0 2940 6621 0zm-260028 -2940l0 2940 6651 0 0 -2940 -6651 0zm-279 3079l0 -3357 7209 0 0 3496 -7209 0 0 -139zm7518 -3079l0 2940 6652 0 0 -2940 -6652 0zm-278 3079l0 -3357 7208 0 0 3496 -7208 0 0 -139zm7517 -3079l0 2940 6652 0 0 -2940 -6652 0zm-278 3079l0 -3357 7209 0 0 3496 -7209 0 0 -139zm137825 -3079l0 2940 6652 0 0 -2940 -6652 0zm-278 3079l0 -3357 7209 0 0 3496 -7209 0 0 -139zm7518 -3079l0 2940 6651 0 0 -2940 -6651 0zm-279 3079l0 -3357 7209 0 0 3496 -7209 0 0 -139zm7518 -3079l0 2940 6652 0 0 -2940 -6652 0zm-278 3079l0 -3357 7208 0 0 3496 -7208 0 0 -139zm93802 -7193l0 -2939 -6621 0 0 2939 6621 0zm-260028 -2939l0 2939 6651 0 0 -2939 -6651 0zm-279 3078l0 -3357 7209 0 0 3496 -7209 0 0 -139zm7518 -3078l0 2939 6652 0 0 -2939 -6652 0zm-278 3078l0 -3357 7208 0 0 3496 -7208 0 0 -139zm7517 -3078l0 2939 6652 0 0 -2939 -6652 0zm-278 3078l0 -3357 7209 0 0 3496 -7209 0 0 -139zm137825 -3078l0 2939 6652 0 0 -2939 -6652 0zm-278 3078l0 -3357 7209 0 0 3496 -7209 0 0 -139zm7518 -3078l0 2939 6651 0 0 -2939 -6651 0zm-279 3078l0 -3357 7209 0 0 3496 -7209 0 0 -139zm7518 -3078l0 2939 6652 0 0 -2939 -6652 0zm-278 3078l0 -3357 7208 0 0 3496 -7208 0 0 -139zm93802 -7193l0 -2939 -6621 0 0 2939 6621 0zm-260028 -2939l0 2939 6651 0 0 -2939 -6651 0zm-279 3078l0 -3357 7209 0 0 3497 -7209 0 0 -140zm7518 -3078l0 2939 6652 0 0 -2939 -6652 0zm-278 3078l0 -3357 7208 0 0 3497 -7208 0 0 -140zm7517 -3078l0 2939 6652 0 0 -2939 -6652 0zm-278 3078l0 -3357 7209 0 0 3497 -7209 0 0 -140zm137825 -3078l0 2939 6652 0 0 -2939 -6652 0zm-278 3078l0 -3357 7209 0 0 3497 -7209 0 0 -140zm7518 -3078l0 2939 6651 0 0 -2939 -6651 0zm-279 3078l0 -3357 7209 0 0 3497 -7209 0 0 -140zm7518 -3078l0 2939 6652 0 0 -2939 -6652 0zm-278 3078l0 -3357 7208 0 0 3497 -7208 0 0 -140zm93802 -7193l0 -2939 -6621 0 0 2939 6621 0zm-260028 -2939l0 2939 6651 0 0 -2939 -6651 0zm-279 3079l0 -3357 7209 0 0 3496 -7209 0 0 -139zm7518 -3079l0 2939 6652 0 0 -2939 -6652 0zm-278 3079l0 -3357 7208 0 0 3496 -7208 0 0 -139zm7517 -3079l0 2939 6652 0 0 -2939 -6652 0zm-278 3079l0 -3357 7209 0 0 3496 -7209 0 0 -139zm137825 -3079l0 2939 6652 0 0 -2939 -6652 0zm-278 3079l0 -3357 7209 0 0 3496 -7209 0 0 -139zm7518 -3079l0 2939 6651 0 0 -2939 -6651 0zm-279 3079l0 -3357 7209 0 0 3496 -7209 0 0 -139zm7518 -3079l0 2939 6652 0 0 -2939 -6652 0zm-278 3079l0 -3357 7208 0 0 3496 -7208 0 0 -139zm93802 -7193l0 -2940 -6621 0 0 2940 6621 0zm-260028 -2940l0 2940 6651 0 0 -2940 -6651 0zm-279 3079l0 -3357 7209 0 0 3496 -7209 0 0 -139zm7518 -3079l0 2940 6652 0 0 -2940 -6652 0zm-278 3079l0 -3357 7208 0 0 3496 -7208 0 0 -139zm7517 -3079l0 2940 6652 0 0 -2940 -6652 0zm-278 3079l0 -3357 7209 0 0 3496 -7209 0 0 -139zm137825 -3079l0 2940 6652 0 0 -2940 -6652 0zm-278 3079l0 -3357 7209 0 0 3496 -7209 0 0 -139zm7518 -3079l0 2940 6651 0 0 -2940 -6651 0zm-279 3079l0 -3357 7209 0 0 3496 -7209 0 0 -139zm7518 -3079l0 2940 6652 0 0 -2940 -6652 0zm-278 3079l0 -3357 7208 0 0 3496 -7208 0 0 -139zm93802 -7193l0 -2940 -6621 0 0 2940 6621 0zm-260028 -2940l0 2940 6651 0 0 -2940 -6651 0zm-279 3079l0 -3357 7209 0 0 3496 -7209 0 0 -139zm7518 -3079l0 2940 6652 0 0 -2940 -6652 0zm-278 3079l0 -3357 7208 0 0 3496 -7208 0 0 -139zm7517 -3079l0 2940 6652 0 0 -2940 -6652 0zm-278 3079l0 -3357 7209 0 0 3496 -7209 0 0 -139zm137825 -3079l0 2940 6652 0 0 -2940 -6652 0zm-278 3079l0 -3357 7209 0 0 3496 -7209 0 0 -139zm7518 -3079l0 2940 6651 0 0 -2940 -6651 0zm-279 3079l0 -3357 7209 0 0 3496 -7209 0 0 -139zm7518 -3079l0 2940 6652 0 0 -2940 -6652 0zm-278 3079l0 -3357 7208 0 0 3496 -7208 0 0 -139zm93802 -7193l0 -2939 -6621 0 0 2939 6621 0zm-260028 -2939l0 2939 6651 0 0 -2939 -6651 0zm-279 3078l0 -3357 7209 0 0 3496 -7209 0 0 -139zm7518 -3078l0 2939 6652 0 0 -2939 -6652 0zm-278 3078l0 -3357 7208 0 0 3496 -7208 0 0 -139zm7517 -3078l0 2939 6652 0 0 -2939 -6652 0zm-278 3078l0 -3357 7209 0 0 3496 -7209 0 0 -139zm137825 -3078l0 2939 6652 0 0 -2939 -6652 0zm-278 3078l0 -3357 7209 0 0 3496 -7209 0 0 -139zm7518 -3078l0 2939 6651 0 0 -2939 -6651 0zm-279 3078l0 -3357 7209 0 0 3496 -7209 0 0 -139zm7518 -3078l0 2939 6652 0 0 -2939 -6652 0zm-278 3078l0 -3357 7208 0 0 3496 -7208 0 0 -139zm93802 -7193l0 -2939 -6621 0 0 2939 6621 0zm-260028 -2939l0 2939 6651 0 0 -2939 -6651 0zm-279 3079l0 -3357 7209 0 0 3496 -7209 0 0 -139zm7518 -3079l0 2939 6652 0 0 -2939 -6652 0zm-278 3079l0 -3357 7208 0 0 3496 -7208 0 0 -139zm7517 -3079l0 2939 6652 0 0 -2939 -6652 0zm-278 3079l0 -3357 7209 0 0 3496 -7209 0 0 -139zm137825 -3079l0 2939 6652 0 0 -2939 -6652 0zm-278 3079l0 -3357 7209 0 0 3496 -7209 0 0 -139zm7518 -3079l0 2939 6651 0 0 -2939 -6651 0zm-279 3079l0 -3357 7209 0 0 3496 -7209 0 0 -139zm7518 -3079l0 2939 6652 0 0 -2939 -6652 0zm-278 3079l0 -3357 7208 0 0 3496 -7208 0 0 -139zm93802 -7193l0 -2940 -6621 0 0 2940 6621 0zm-260028 -2940l0 2940 6651 0 0 -2940 -6651 0zm-279 3079l0 -3357 7209 0 0 3496 -7209 0 0 -139zm7518 -3079l0 2940 6652 0 0 -2940 -6652 0zm-278 3079l0 -3357 7208 0 0 3496 -7208 0 0 -139zm7517 -3079l0 2940 6652 0 0 -2940 -6652 0zm-278 3079l0 -3357 7209 0 0 3496 -7209 0 0 -139zm137825 -3079l0 2940 6652 0 0 -2940 -6652 0zm-278 3079l0 -3357 7209 0 0 3496 -7209 0 0 -139zm7518 -3079l0 2940 6651 0 0 -2940 -6651 0zm-279 3079l0 -3357 7209 0 0 3496 -7209 0 0 -139zm7518 -3079l0 2940 6652 0 0 -2940 -6652 0zm-278 3079l0 -3357 7208 0 0 3496 -7208 0 0 -139zm93802 -7193l0 -2939 -6621 0 0 2939 6621 0zm-260028 -2939l0 2939 6651 0 0 -2939 -6651 0zm-279 3078l0 -3357 7209 0 0 3496 -7209 0 0 -139zm7518 -3078l0 2939 6652 0 0 -2939 -6652 0zm-278 3078l0 -3357 7208 0 0 3496 -7208 0 0 -139zm7517 -3078l0 2939 6652 0 0 -2939 -6652 0zm-278 3078l0 -3357 7209 0 0 3496 -7209 0 0 -139zm137825 -3078l0 2939 6652 0 0 -2939 -6652 0zm-278 3078l0 -3357 7209 0 0 3496 -7209 0 0 -139zm7518 -3078l0 2939 6651 0 0 -2939 -6651 0zm-279 3078l0 -3357 7209 0 0 3496 -7209 0 0 -139zm7518 -3078l0 2939 6652 0 0 -2939 -6652 0zm-278 3078l0 -3357 7208 0 0 3496 -7208 0 0 -139zm93802 -7193l0 -2939 -6621 0 0 2939 6621 0zm-260028 -2939l0 2939 6651 0 0 -2939 -6651 0zm-279 3078l0 -3356 7209 0 0 3496 -7209 0 0 -140zm7518 -3078l0 2939 6652 0 0 -2939 -6652 0zm-278 3078l0 -3356 7208 0 0 3496 -7208 0 0 -140zm7517 -3078l0 2939 6652 0 0 -2939 -6652 0zm-278 3078l0 -3356 7209 0 0 3496 -7209 0 0 -140zm137825 -3078l0 2939 6652 0 0 -2939 -6652 0zm-278 3078l0 -3356 7209 0 0 3496 -7209 0 0 -140zm7518 -3078l0 2939 6651 0 0 -2939 -6651 0zm-279 3078l0 -3356 7209 0 0 3496 -7209 0 0 -140zm7518 -3078l0 2939 6652 0 0 -2939 -6652 0zm-278 3078l0 -3356 7208 0 0 3496 -7208 0 0 -140zm93802 -7192l0 -2940 -6621 0 0 2940 6621 0zm-260028 -2940l0 2940 6651 0 0 -2940 -6651 0zm-279 3079l0 -3357 7209 0 0 3496 -7209 0 0 -139zm7518 -3079l0 2940 6652 0 0 -2940 -6652 0zm-278 3079l0 -3357 7208 0 0 3496 -7208 0 0 -139zm7517 -3079l0 2940 6652 0 0 -2940 -6652 0zm-278 3079l0 -3357 7209 0 0 3496 -7209 0 0 -139zm137825 -3079l0 2940 6652 0 0 -2940 -6652 0zm-278 3079l0 -3357 7209 0 0 3496 -7209 0 0 -139zm7518 -3079l0 2940 6651 0 0 -2940 -6651 0zm-279 3079l0 -3357 7209 0 0 3496 -7209 0 0 -139zm7518 -3079l0 2940 6652 0 0 -2940 -6652 0zm-278 3079l0 -3357 7208 0 0 3496 -7208 0 0 -139zm93802 -7193l0 -2939 -6621 0 0 2939 6621 0zm-260028 -2939l0 2939 6651 0 0 -2939 -6651 0zm-279 3078l0 -3357 7209 0 0 3496 -7209 0 0 -139zm7518 -3078l0 2939 6652 0 0 -2939 -6652 0zm-278 3078l0 -3357 7208 0 0 3496 -7208 0 0 -139zm7517 -3078l0 2939 6652 0 0 -2939 -6652 0zm-278 3078l0 -3357 7209 0 0 3496 -7209 0 0 -139zm137825 -3078l0 2939 6652 0 0 -2939 -6652 0zm-278 3078l0 -3357 7209 0 0 3496 -7209 0 0 -139zm7518 -3078l0 2939 6651 0 0 -2939 -6651 0zm-279 3078l0 -3357 7209 0 0 3496 -7209 0 0 -139zm7518 -3078l0 2939 6652 0 0 -2939 -6652 0zm-278 3078l0 -3357 7208 0 0 3496 -7208 0 0 -139zm-166226 -10132l0 2939 6651 0 0 -2939 -6651 0zm-279 3079l0 -3357 7209 0 0 3496 -7209 0 0 -139zm7518 -3079l0 2939 6652 0 0 -2939 -6652 0zm-278 3079l0 -3357 7208 0 0 3496 -7208 0 0 -139zm7517 -3079l0 2939 6652 0 0 -2939 -6652 0zm-278 3079l0 -3357 7209 0 0 3496 -7209 0 0 -139zm137825 -3079l0 2939 6652 0 0 -2939 -6652 0zm-278 3079l0 -3357 7209 0 0 3496 -7209 0 0 -139zm7518 -3079l0 2939 6651 0 0 -2939 -6651 0zm-279 3079l0 -3357 7209 0 0 3496 -7209 0 0 -139zm7518 -3079l0 2939 6652 0 0 -2939 -6652 0zm-278 3079l0 -3357 7208 0 0 3496 -7208 0 0 -139zm-224141 -10133l0 2940 6652 0 0 -2940 -6652 0zm7240 0l0 2940 6651 0 0 -2940 -6651 0zm-279 3079l0 -3357 7209 0 0 3496 -7209 0 0 -139zm7518 -3079l0 2940 6652 0 0 -2940 -6652 0zm-279 3079l0 -3357 7209 0 0 3496 -7209 0 0 -139zm7518 -3079l0 2940 6652 0 0 -2940 -6652 0zm-278 3079l0 -3357 7208 0 0 3496 -7208 0 0 -139zm7518 -3079l0 2940 6651 0 0 -2940 -6651 0zm-279 3079l0 -3357 7208 0 0 3496 -7208 0 0 -139zm7518 -3079l0 2940 6652 0 0 -2940 -6652 0zm-279 3079l0 -3357 7209 0 0 3496 -7209 0 0 -139zm7518 -3079l0 2940 6652 0 0 -2940 -6652 0zm-278 3079l0 -3357 7208 0 0 3496 -7208 0 0 -139zm7517 -3079l0 2940 6652 0 0 -2940 -6652 0zm-278 3079l0 -3357 7209 0 0 3496 -7209 0 0 -139zm7518 -3079l0 2940 6651 0 0 -2940 -6651 0zm-279 3079l0 -3357 7209 0 0 3496 -7209 0 0 -139zm7518 -3079l0 2940 6652 0 0 -2940 -6652 0zm-278 3079l0 -3357 7208 0 0 3496 -7208 0 0 -139zm7517 -3079l0 2940 6652 0 0 -2940 -6652 0zm-278 3079l0 -3357 7209 0 0 3496 -7209 0 0 -139zm7518 -3079l0 2940 6652 0 0 -2940 -6652 0zm-279 3079l0 -3357 7209 0 0 3496 -7209 0 0 -139zm7518 -3079l0 2940 6652 0 0 -2940 -6652 0zm-278 3079l0 -3357 7208 0 0 3496 -7208 0 0 -139zm7518 -3079l0 2940 6651 0 0 -2940 -6651 0zm-279 3079l0 -3357 7208 0 0 3496 -7208 0 0 -139zm7518 -3079l0 2940 6652 0 0 -2940 -6652 0zm-279 3079l0 -3357 7209 0 0 3496 -7209 0 0 -139zm7518 -3079l0 2940 6652 0 0 -2940 -6652 0zm-278 3079l0 -3357 7208 0 0 3496 -7208 0 0 -139zm7517 -3079l0 2940 6652 0 0 -2940 -6652 0zm-278 3079l0 -3357 7209 0 0 3496 -7209 0 0 -139zm7518 -3079l0 2940 6651 0 0 -2940 -6651 0zm-279 3079l0 -3357 7209 0 0 3496 -7209 0 0 -139zm7518 -3079l0 2940 6652 0 0 -2940 -6652 0zm-278 3079l0 -3357 7208 0 0 3496 -7208 0 0 -139zm7517 -3079l0 2940 6652 0 0 -2940 -6652 0zm-278 3079l0 -3357 7209 0 0 3496 -7209 0 0 -139zm7517 -3079l0 2940 6652 0 0 -2940 -6652 0zm-278 3079l0 -3357 7209 0 0 3496 -7209 0 0 -139zm7518 -3079l0 2940 6652 0 0 -2940 -6652 0zm-278 3079l0 -3357 7208 0 0 3496 -7208 0 0 -139zm7517 -3079l0 2940 6652 0 0 -2940 -6652 0zm-278 3079l0 -3357 7208 0 0 3496 -7208 0 0 -139zm7518 -3079l0 2940 6651 0 0 -2940 -6651 0zm-279 3079l0 -3357 7209 0 0 3496 -7209 0 0 -139zm7518 -3079l0 2940 6652 0 0 -2940 -6652 0zm-279 3079l0 -3357 7209 0 0 3496 -7209 0 0 -139zm7518 -3079l0 2940 6652 0 0 -2940 -6652 0zm-278 3079l0 -3357 7208 0 0 3496 -7208 0 0 -139zm7518 -3079l0 2940 6651 0 0 -2940 -6651 0zm-279 3079l0 -3357 7209 0 0 3496 -7209 0 0 -139zm7518 -3079l0 2940 6652 0 0 -2940 -6652 0zm-278 3079l0 -3357 7208 0 0 3496 -7208 0 0 -139zm7517 -3079l0 2940 6652 0 0 -2940 -6652 0zm-278 3079l0 -3357 7209 0 0 3496 -7209 0 0 -139zm7517 -3079l0 2940 6652 0 0 -2940 -6652 0zm-278 3079l0 -3357 7209 0 0 3496 -7209 0 0 -139zm7518 -3079l0 2940 6651 0 0 -2940 -6651 0zm-279 3079l0 -3357 7209 0 0 3496 -7209 0 0 -139zm7518 -3079l0 2940 6652 0 0 -2940 -6652 0zm-278 3079l0 -3357 7208 0 0 3496 -7208 0 0 -139zm7518 -3079l0 2940 6651 0 0 -2940 -6651 0zm-279 3079l0 -3357 7209 0 0 3496 -7209 0 0 -139zm7518 -3079l0 2940 6652 0 0 -2940 -6652 0zm-279 3079l0 -3357 7209 0 0 3496 -7209 0 0 -139zm7518 -3079l0 2940 6652 0 0 -2940 -6652 0zm-278 3079l0 -3357 7208 0 0 3496 -7208 0 0 -139zm7518 -3079l0 2940 6651 0 0 -2940 -6651 0zm-279 3079l0 -3357 7209 0 0 3496 -7209 0 0 -139zm7518 -3079l0 2940 6652 0 0 -2940 -6652 0zm-279 3079l0 -3357 7209 0 0 3496 -7209 0 0 -139zm7518 -3079l0 2940 6652 0 0 -2940 -6652 0zm-278 3079l0 -3357 7208 0 0 3496 -7208 0 0 -139zm7517 -3079l0 2940 6652 0 0 -2940 -6652 0zm-278 3079l0 -3357 7209 0 0 3496 -7209 0 0 -139zm-238619 -10133l0 2940 6652 0 0 -2940 -6652 0zm-279 3079l0 -3357 7209 0 0 3496 -7209 0 0 -139zm7518 -3079l0 2940 6652 0 0 -2940 -6652 0zm-278 3079l0 -3357 7208 0 0 3496 -7208 0 0 -139zm7517 -3079l0 2940 6652 0 0 -2940 -6652 0zm-278 3079l0 -3357 7209 0 0 3496 -7209 0 0 -139zm7518 -3079l0 2940 6651 0 0 -2940 -6651 0zm-279 3079l0 -3357 7209 0 0 3496 -7209 0 0 -139zm7518 -3079l0 2940 6652 0 0 -2940 -6652 0zm-278 3079l0 -3357 7208 0 0 3496 -7208 0 0 -139zm7517 -3079l0 2940 6652 0 0 -2940 -6652 0zm-278 3079l0 -3357 7209 0 0 3496 -7209 0 0 -139zm7518 -3079l0 2940 6652 0 0 -2940 -6652 0zm-279 3079l0 -3357 7209 0 0 3496 -7209 0 0 -139zm7518 -3079l0 2940 6652 0 0 -2940 -6652 0zm-278 3079l0 -3357 7208 0 0 3496 -7208 0 0 -139zm7518 -3079l0 2940 6651 0 0 -2940 -6651 0zm-279 3079l0 -3357 7208 0 0 3496 -7208 0 0 -139zm7518 -3079l0 2940 6652 0 0 -2940 -6652 0zm-279 3079l0 -3357 7209 0 0 3496 -7209 0 0 -139zm7518 -3079l0 2940 6652 0 0 -2940 -6652 0zm-278 3079l0 -3357 7208 0 0 3496 -7208 0 0 -139zm7517 -3079l0 2940 6652 0 0 -2940 -6652 0zm-278 3079l0 -3357 7209 0 0 3496 -7209 0 0 -139zm7518 -3079l0 2940 6651 0 0 -2940 -6651 0zm-279 3079l0 -3357 7209 0 0 3496 -7209 0 0 -139zm7518 -3079l0 2940 6652 0 0 -2940 -6652 0zm-278 3079l0 -3357 7208 0 0 3496 -7208 0 0 -139zm7517 -3079l0 2940 6652 0 0 -2940 -6652 0zm-278 3079l0 -3357 7209 0 0 3496 -7209 0 0 -139zm7517 -3079l0 2940 6652 0 0 -2940 -6652 0zm-278 3079l0 -3357 7209 0 0 3496 -7209 0 0 -139zm7518 -3079l0 2940 6652 0 0 -2940 -6652 0zm-278 3079l0 -3357 7208 0 0 3496 -7208 0 0 -139zm7517 -3079l0 2940 6652 0 0 -2940 -6652 0zm-278 3079l0 -3357 7208 0 0 3496 -7208 0 0 -139zm7518 -3079l0 2940 6651 0 0 -2940 -6651 0zm-279 3079l0 -3357 7209 0 0 3496 -7209 0 0 -139zm7518 -3079l0 2940 6652 0 0 -2940 -6652 0zm-279 3079l0 -3357 7209 0 0 3496 -7209 0 0 -139zm7518 -3079l0 2940 6652 0 0 -2940 -6652 0zm-278 3079l0 -3357 7208 0 0 3496 -7208 0 0 -139zm7518 -3079l0 2940 6651 0 0 -2940 -6651 0zm-279 3079l0 -3357 7209 0 0 3496 -7209 0 0 -139zm7518 -3079l0 2940 6652 0 0 -2940 -6652 0zm-278 3079l0 -3357 7208 0 0 3496 -7208 0 0 -139zm7517 -3079l0 2940 6652 0 0 -2940 -6652 0zm-278 3079l0 -3357 7209 0 0 3496 -7209 0 0 -139zm7517 -3079l0 2940 6652 0 0 -2940 -6652 0zm-278 3079l0 -3357 7209 0 0 3496 -7209 0 0 -139zm7518 -3079l0 2940 6651 0 0 -2940 -6651 0zm-279 3079l0 -3357 7209 0 0 3496 -7209 0 0 -139zm7518 -3079l0 2940 6652 0 0 -2940 -6652 0zm-278 3079l0 -3357 7208 0 0 3496 -7208 0 0 -139zm7518 -3079l0 2940 6651 0 0 -2940 -6651 0zm-279 3079l0 -3357 7209 0 0 3496 -7209 0 0 -139zm7518 -3079l0 2940 6652 0 0 -2940 -6652 0zm-279 3079l0 -3357 7209 0 0 3496 -7209 0 0 -139zm-151747 -10132l0 2939 6652 0 0 -2939 -6652 0zm-278 3078l0 -3357 7208 0 0 3496 -7208 0 0 -139zm7518 -3078l0 2939 6651 0 0 -2939 -6651 0zm-279 3078l0 -3357 7208 0 0 3496 -7208 0 0 -139zm7518 -3078l0 2939 6652 0 0 -2939 -6652 0zm-279 3078l0 -3357 7209 0 0 3496 -7209 0 0 -139zm7518 -3078l0 2939 6652 0 0 -2939 -6652 0zm-278 3078l0 -3357 7208 0 0 3496 -7208 0 0 -139zm7517 -3078l0 2939 6652 0 0 -2939 -6652 0zm-278 3078l0 -3357 7209 0 0 3496 -7209 0 0 -139zm7518 -3078l0 2939 6651 0 0 -2939 -6651 0zm-279 3078l0 -3357 7209 0 0 3496 -7209 0 0 -139zm7518 -3078l0 2939 6652 0 0 -2939 -6652 0zm-278 3078l0 -3357 7208 0 0 3496 -7208 0 0 -139zm7517 -3078l0 2939 6652 0 0 -2939 -6652 0zm-278 3078l0 -3357 7209 0 0 3496 -7209 0 0 -139zm7517 -3078l0 2939 6652 0 0 -2939 -6652 0zm-278 3078l0 -3357 7209 0 0 3496 -7209 0 0 -139zm7518 -3078l0 2939 6652 0 0 -2939 -6652 0zm-278 3078l0 -3357 7208 0 0 3496 -7208 0 0 -139zm7517 -3078l0 2939 6652 0 0 -2939 -6652 0zm-278 3078l0 -3357 7208 0 0 3496 -7208 0 0 -139zm7518 -3078l0 2939 6651 0 0 -2939 -6651 0zm-279 3078l0 -3357 7209 0 0 3496 -7209 0 0 -139zm7518 -3078l0 2939 6652 0 0 -2939 -6652 0zm-279 3078l0 -3357 7209 0 0 3496 -7209 0 0 -139zm7518 -3078l0 2939 6652 0 0 -2939 -6652 0zm-278 3078l0 -3357 7208 0 0 3496 -7208 0 0 -139zm7518 -3078l0 2939 6651 0 0 -2939 -6651 0zm-279 3078l0 -3357 7209 0 0 3496 -7209 0 0 -139zm7518 -3078l0 2939 6652 0 0 -2939 -6652 0zm-141112 3527l0 2939 6651 0 0 -2939 -6651 0zm7239 0l0 2939 6652 0 0 -2939 -6652 0zm-279 3078l0 -3357 7209 0 0 3496 -7209 0 0 -139zm7518 -3078l0 2939 6652 0 0 -2939 -6652 0zm-278 3078l0 -3357 7208 0 0 3496 -7208 0 0 -139zm7518 -3078l0 2939 6651 0 0 -2939 -6651 0zm-279 3078l0 -3357 7209 0 0 3496 -7209 0 0 -139zm7518 -3078l0 2939 6652 0 0 -2939 -6652 0zm-278 3078l0 -3357 7208 0 0 3496 -7208 0 0 -139zm7517 -3078l0 2939 6652 0 0 -2939 -6652 0zm-278 3078l0 -3357 7209 0 0 3496 -7209 0 0 -139zm7517 -3078l0 2939 6652 0 0 -2939 -6652 0zm-278 3078l0 -3357 7209 0 0 3496 -7209 0 0 -139zm7518 -3078l0 2939 6651 0 0 -2939 -6651 0zm-279 3078l0 -3357 7209 0 0 3496 -7209 0 0 -139zm7518 -3078l0 2939 6652 0 0 -2939 -6652 0zm-278 3078l0 -3357 7208 0 0 3496 -7208 0 0 -139zm7517 -3078l0 2939 6652 0 0 -2939 -6652 0zm-278 3078l0 -3357 7209 0 0 3496 -7209 0 0 -139zm7518 -3078l0 2939 6652 0 0 -2939 -6652 0zm-279 3078l0 -3357 7209 0 0 3496 -7209 0 0 -139zm7518 -3078l0 2939 6652 0 0 -2939 -6652 0zm-278 3078l0 -3357 7208 0 0 3496 -7208 0 0 -139zm7518 -3078l0 2939 6651 0 0 -2939 -6651 0zm-279 3078l0 -3357 7208 0 0 3496 -7208 0 0 -139zm7518 -3078l0 2939 6652 0 0 -2939 -6652 0zm-279 3078l0 -3357 7209 0 0 3496 -7209 0 0 -139zm7518 -3078l0 2939 6652 0 0 -2939 -6652 0zm-278 3078l0 -3357 7208 0 0 3496 -7208 0 0 -139zm7517 -3078l0 2939 6652 0 0 -2939 -6652 0zm-278 3078l0 -3357 7209 0 0 3496 -7209 0 0 -139zm7518 -3078l0 2939 6651 0 0 -2939 -6651 0zm-279 3078l0 -3357 7209 0 0 3496 -7209 0 0 -139zm7518 -3078l0 2939 6652 0 0 -2939 -6652 0zm-278 3078l0 -3357 7208 0 0 3496 -7208 0 0 -139zm7517 -3078l0 2939 6652 0 0 -2939 -6652 0zm-278 3078l0 -3357 7209 0 0 3496 -7209 0 0 -139zm7518 -3078l0 2939 6651 0 0 -2939 -6651 0zm-279 3078l0 -3357 7209 0 0 3496 -7209 0 0 -139zm7518 -3078l0 2939 6652 0 0 -2939 -6652 0zm-278 3078l0 -3357 7208 0 0 3496 -7208 0 0 -139zm7518 -3078l0 2939 6651 0 0 -2939 -6651 0zm-279 3078l0 -3357 7208 0 0 3496 -7208 0 0 -139zm7518 -3078l0 2939 6652 0 0 -2939 -6652 0zm-279 3078l0 -3357 7209 0 0 3496 -7209 0 0 -139zm7518 -3078l0 2939 6652 0 0 -2939 -6652 0zm-279 3078l0 -3357 7209 0 0 3496 -7209 0 0 -139zm-202422 3975l0 2939 6652 0 0 -2939 -6652 0zm-278 3079l0 -3357 7208 0 0 3496 -7208 0 0 -139zm7517 -3079l0 2939 6652 0 0 -2939 -6652 0zm-278 3079l0 -3357 7209 0 0 3496 -7209 0 0 -139zm7517 -3079l0 2939 6652 0 0 -2939 -6652 0zm-278 3079l0 -3357 7209 0 0 3496 -7209 0 0 -139zm7518 -3079l0 2939 6652 0 0 -2939 -6652 0zm-279 3079l0 -3357 7209 0 0 3496 -7209 0 0 -139zm7518 -3079l0 2939 6652 0 0 -2939 -6652 0zm-278 3079l0 -3357 7208 0 0 3496 -7208 0 0 -139zm7518 -3079l0 2939 6651 0 0 -2939 -6651 0zm-279 3079l0 -3357 7209 0 0 3496 -7209 0 0 -139zm7518 -3079l0 2939 6652 0 0 -2939 -6652 0zm-279 3079l0 -3357 7209 0 0 3496 -7209 0 0 -139zm7518 -3079l0 2939 6652 0 0 -2939 -6652 0zm-278 3079l0 -3357 7208 0 0 3496 -7208 0 0 -139zm7518 -3079l0 2939 6651 0 0 -2939 -6651 0zm-279 3079l0 -3357 7209 0 0 3496 -7209 0 0 -139zm7518 -3079l0 2939 6652 0 0 -2939 -6652 0zm-278 3079l0 -3357 7208 0 0 3496 -7208 0 0 -139zm7517 -3079l0 2939 6652 0 0 -2939 -6652 0zm-278 3079l0 -3357 7209 0 0 3496 -7209 0 0 -139zm7517 -3079l0 2939 6652 0 0 -2939 -6652 0zm-278 3079l0 -3357 7209 0 0 3496 -7209 0 0 -139zm7518 -3079l0 2939 6651 0 0 -2939 -6651 0zm-279 3079l0 -3357 7209 0 0 3496 -7209 0 0 -139zm7518 -3079l0 2939 6652 0 0 -2939 -6652 0zm-278 3079l0 -3357 7208 0 0 3496 -7208 0 0 -139zm7517 -3079l0 2939 6652 0 0 -2939 -6652 0zm-278 3079l0 -3357 7209 0 0 3496 -7209 0 0 -139zm7518 -3079l0 2939 6652 0 0 -2939 -6652 0zm-279 3079l0 -3357 7209 0 0 3496 -7209 0 0 -139zm7518 -3079l0 2939 6652 0 0 -2939 -6652 0zm-278 3079l0 -3357 7208 0 0 3496 -7208 0 0 -139zm7518 -3079l0 2939 6651 0 0 -2939 -6651 0zm-279 3079l0 -3357 7208 0 0 3496 -7208 0 0 -139zm7518 -3079l0 2939 6652 0 0 -2939 -6652 0zm-279 3079l0 -3357 7209 0 0 3496 -7209 0 0 -139zm7518 -3079l0 2939 6652 0 0 -2939 -6652 0zm-278 3079l0 -3357 7208 0 0 3496 -7208 0 0 -139zm7517 -3079l0 2939 6652 0 0 -2939 -6652 0zm-278 3079l0 -3357 7209 0 0 3496 -7209 0 0 -139zm7518 -3079l0 2939 6651 0 0 -2939 -6651 0zm-279 3079l0 -3357 7209 0 0 3496 -7209 0 0 -139zm7518 -3079l0 2939 6652 0 0 -2939 -6652 0zm-278 3079l0 -3357 7208 0 0 3496 -7208 0 0 -139zm7517 -3079l0 2939 6652 0 0 -2939 -6652 0zm-278 3079l0 -3357 7209 0 0 3496 -7209 0 0 -139zm7518 -3079l0 2939 6651 0 0 -2939 -6651 0zm-279 3079l0 -3357 7209 0 0 3496 -7209 0 0 -139zm7518 -3079l0 2939 6652 0 0 -2939 -6652 0zm-278 3079l0 -3357 7208 0 0 3496 -7208 0 0 -139zm7518 -3079l0 2939 6651 0 0 -2939 -6651 0zm-279 3079l0 -3357 7208 0 0 3496 -7208 0 0 -139zm7518 -3079l0 2939 6652 0 0 -2939 -6652 0zm-279 3079l0 -3357 7209 0 0 3496 -7209 0 0 -139zm7518 -3079l0 2939 6652 0 0 -2939 -6652 0zm-279 3079l0 -3357 7209 0 0 3496 -7209 0 0 -139zm7518 -3079l0 2939 6652 0 0 -2939 -6652 0zm-278 3079l0 -3357 7208 0 0 3496 -7208 0 0 -139zm7518 -3079l0 2939 6651 0 0 -2939 -6651 0zm-279 3079l0 -3357 7209 0 0 3496 -7209 0 0 -139zm7518 -3079l0 2939 6652 0 0 -2939 -6652 0zm-278 3079l0 -3357 7208 0 0 3496 -7208 0 0 -139zm7517 -3079l0 2939 6652 0 0 -2939 -6652 0zm-278 3079l0 -3357 7209 0 0 3496 -7209 0 0 -139zm7517 -3079l0 2939 6652 0 0 -2939 -6652 0zm-278 3079l0 -3357 7209 0 0 3496 -7209 0 0 -139zm-195183 3975l0 2939 6652 0 0 -2939 -6652 0zm-279 3078l0 -3357 7209 0 0 3497 -7209 0 0 -140zm7518 -3078l0 2939 6652 0 0 -2939 -6652 0zm-278 3078l0 -3357 7208 0 0 3497 -7208 0 0 -140zm145065 -3078l0 2939 6652 0 0 -2939 -6652 0zm-279 3078l0 -3357 7209 0 0 3497 -7209 0 0 -140zm7518 -3078l0 2939 6652 0 0 -2939 -6652 0zm-279 3078l0 -3357 7209 0 0 3497 -7209 0 0 -140zm-253097 3976l0 2939 6652 0 0 -2939 -6652 0zm-279 3078l0 -3357 7209 0 0 3496 -7209 0 0 -139zm94390 -3078l0 2939 6652 0 0 -2939 -6652 0zm-279 3078l0 -3357 7209 0 0 3496 -7209 0 0 -139zm7518 -3078l0 2939 6652 0 0 -2939 -6652 0zm-278 3078l0 -3357 7208 0 0 3496 -7208 0 0 -139zm145065 -3078l0 2939 6652 0 0 -2939 -6652 0zm-279 3078l0 -3357 7209 0 0 3496 -7209 0 0 -139zm7518 -3078l0 2939 6652 0 0 -2939 -6652 0zm-279 3078l0 -3357 7209 0 0 3496 -7209 0 0 -139zm-253097 3975l0 2940 6652 0 0 -2940 -6652 0zm-279 3079l0 -3357 7209 0 0 3496 -7209 0 0 -139zm94390 -3079l0 2940 6652 0 0 -2940 -6652 0zm-279 3079l0 -3357 7209 0 0 3496 -7209 0 0 -139zm7518 -3079l0 2940 6652 0 0 -2940 -6652 0zm-278 3079l0 -3357 7208 0 0 3496 -7208 0 0 -139zm145065 -3079l0 2940 6652 0 0 -2940 -6652 0zm-279 3079l0 -3357 7209 0 0 3496 -7209 0 0 -139zm7518 -3079l0 2940 6652 0 0 -2940 -6652 0zm-279 3079l0 -3357 7209 0 0 3496 -7209 0 0 -139zm-253097 3975l0 2939 6652 0 0 -2939 -6652 0zm-279 3079l0 -3357 7209 0 0 3496 -7209 0 0 -139zm94390 -3079l0 2939 6652 0 0 -2939 -6652 0zm-279 3079l0 -3357 7209 0 0 3496 -7209 0 0 -139zm7518 -3079l0 2939 6652 0 0 -2939 -6652 0zm-278 3079l0 -3357 7208 0 0 3496 -7208 0 0 -139zm145065 -3079l0 2939 6652 0 0 -2939 -6652 0zm-279 3079l0 -3357 7209 0 0 3496 -7209 0 0 -139zm7518 -3079l0 2939 6652 0 0 -2939 -6652 0zm-279 3079l0 -3357 7209 0 0 3496 -7209 0 0 -139zm-253097 3975l0 2939 6652 0 0 -2939 -6652 0zm-279 3078l0 -3357 7209 0 0 3497 -7209 0 0 -140zm94390 -3078l0 2939 6652 0 0 -2939 -6652 0zm-279 3078l0 -3357 7209 0 0 3497 -7209 0 0 -140zm7518 -3078l0 2939 6652 0 0 -2939 -6652 0zm-278 3078l0 -3357 7208 0 0 3497 -7208 0 0 -140zm145065 -3078l0 2939 6652 0 0 -2939 -6652 0zm-279 3078l0 -3357 7209 0 0 3497 -7209 0 0 -140zm7518 -3078l0 2939 6652 0 0 -2939 -6652 0zm-279 3078l0 -3357 7209 0 0 3497 -7209 0 0 -140zm-253097 3976l0 2939 6652 0 0 -2939 -6652 0zm-279 3078l0 -3357 7209 0 0 3496 -7209 0 0 -139zm94390 -3078l0 2939 6652 0 0 -2939 -6652 0zm-279 3078l0 -3357 7209 0 0 3496 -7209 0 0 -139zm7518 -3078l0 2939 6652 0 0 -2939 -6652 0zm-278 3078l0 -3357 7208 0 0 3496 -7208 0 0 -139zm145065 -3078l0 2939 6652 0 0 -2939 -6652 0zm-279 3078l0 -3357 7209 0 0 3496 -7209 0 0 -139zm7518 -3078l0 2939 6652 0 0 -2939 -6652 0zm-279 3078l0 -3357 7209 0 0 3496 -7209 0 0 -139zm-253097 3975l0 2940 6652 0 0 -2940 -6652 0zm-279 3079l0 -3357 7209 0 0 3496 -7209 0 0 -139zm94390 -3079l0 2940 6652 0 0 -2940 -6652 0zm-279 3079l0 -3357 7209 0 0 3496 -7209 0 0 -139zm7518 -3079l0 2940 6652 0 0 -2940 -6652 0zm-278 3079l0 -3357 7208 0 0 3496 -7208 0 0 -139zm145065 -3079l0 2940 6652 0 0 -2940 -6652 0zm-279 3079l0 -3357 7209 0 0 3496 -7209 0 0 -139zm7518 -3079l0 2940 6652 0 0 -2940 -6652 0zm-279 3079l0 -3357 7209 0 0 3496 -7209 0 0 -139zm-253097 3975l0 2939 6652 0 0 -2939 -6652 0zm-279 3079l0 -3357 7209 0 0 3496 -7209 0 0 -139zm94390 -3079l0 2939 6652 0 0 -2939 -6652 0zm-279 3079l0 -3357 7209 0 0 3496 -7209 0 0 -139zm7518 -3079l0 2939 6652 0 0 -2939 -6652 0zm-278 3079l0 -3357 7208 0 0 3496 -7208 0 0 -139zm145065 -3079l0 2939 6652 0 0 -2939 -6652 0zm-279 3079l0 -3357 7209 0 0 3496 -7209 0 0 -139zm7518 -3079l0 2939 6652 0 0 -2939 -6652 0zm-279 3079l0 -3357 7209 0 0 3496 -7209 0 0 -139zm-253097 3975l0 2939 6652 0 0 -2939 -6652 0zm-279 3078l0 -3357 7209 0 0 3497 -7209 0 0 -140zm94390 -3078l0 2939 6652 0 0 -2939 -6652 0zm-279 3078l0 -3357 7209 0 0 3497 -7209 0 0 -140zm7518 -3078l0 2939 6652 0 0 -2939 -6652 0zm-278 3078l0 -3357 7208 0 0 3497 -7208 0 0 -140zm145065 -3078l0 2939 6652 0 0 -2939 -6652 0zm-279 3078l0 -3357 7209 0 0 3497 -7209 0 0 -140zm7518 -3078l0 2939 6652 0 0 -2939 -6652 0zm-279 3078l0 -3357 7209 0 0 3497 -7209 0 0 -140zm-253097 3976l0 2939 6652 0 0 -2939 -6652 0zm-279 3078l0 -3357 7209 0 0 3496 -7209 0 0 -139zm94390 -3078l0 2939 6652 0 0 -2939 -6652 0zm-279 3078l0 -3357 7209 0 0 3496 -7209 0 0 -139zm7518 -3078l0 2939 6652 0 0 -2939 -6652 0zm-278 3078l0 -3357 7208 0 0 3496 -7208 0 0 -139zm145065 -3078l0 2939 6652 0 0 -2939 -6652 0zm-279 3078l0 -3357 7209 0 0 3496 -7209 0 0 -139zm7518 -3078l0 2939 6652 0 0 -2939 -6652 0zm-279 3078l0 -3357 7209 0 0 3496 -7209 0 0 -139zm-253097 3975l0 2939 6652 0 0 -2939 -6652 0zm-279 3079l0 -3357 7209 0 0 3496 -7209 0 0 -139zm94390 -3079l0 2939 6652 0 0 -2939 -6652 0zm-279 3079l0 -3357 7209 0 0 3496 -7209 0 0 -139zm7518 -3079l0 2939 6652 0 0 -2939 -6652 0zm-278 3079l0 -3357 7208 0 0 3496 -7208 0 0 -139zm145065 -3079l0 2939 6652 0 0 -2939 -6652 0zm-279 3079l0 -3357 7209 0 0 3496 -7209 0 0 -139zm7518 -3079l0 2939 6652 0 0 -2939 -6652 0zm-279 3079l0 -3357 7209 0 0 3496 -7209 0 0 -139zm-253097 3975l0 2939 6652 0 0 -2939 -6652 0zm-279 3078l0 -3357 7209 0 0 3496 -7209 0 0 -139zm94390 -3078l0 2939 6652 0 0 -2939 -6652 0zm-279 3078l0 -3357 7209 0 0 3496 -7209 0 0 -139zm7518 -3078l0 2939 6652 0 0 -2939 -6652 0zm-278 3078l0 -3357 7208 0 0 3496 -7208 0 0 -139zm145065 -3078l0 2939 6652 0 0 -2939 -6652 0zm-279 3078l0 -3357 7209 0 0 3496 -7209 0 0 -139zm7518 -3078l0 2939 6652 0 0 -2939 -6652 0zm-279 3078l0 -3357 7209 0 0 3496 -7209 0 0 -139zm-253097 3975l0 2940 6652 0 0 -2940 -6652 0zm-279 3079l0 -3357 7209 0 0 3496 -7209 0 0 -139zm94390 -3079l0 2940 6652 0 0 -2940 -6652 0zm-279 3079l0 -3357 7209 0 0 3496 -7209 0 0 -139zm7518 -3079l0 2940 6652 0 0 -2940 -6652 0zm-278 3079l0 -3357 7208 0 0 3496 -7208 0 0 -139zm145065 -3079l0 2940 6652 0 0 -2940 -6652 0zm-279 3079l0 -3357 7209 0 0 3496 -7209 0 0 -139zm7518 -3079l0 2940 6652 0 0 -2940 -6652 0zm-279 3079l0 -3357 7209 0 0 3496 -7209 0 0 -139zm-253097 3975l0 2939 6652 0 0 -2939 -6652 0zm-279 3079l0 -3357 7209 0 0 3496 -7209 0 0 -139zm94390 -3079l0 2939 6652 0 0 -2939 -6652 0zm-279 3079l0 -3357 7209 0 0 3496 -7209 0 0 -139zm7518 -3079l0 2939 6652 0 0 -2939 -6652 0zm-278 3079l0 -3357 7208 0 0 3496 -7208 0 0 -139zm145065 -3079l0 2939 6652 0 0 -2939 -6652 0zm-279 3079l0 -3357 7209 0 0 3496 -7209 0 0 -139zm7518 -3079l0 2939 6652 0 0 -2939 -6652 0zm-279 3079l0 -3357 7209 0 0 3496 -7209 0 0 -139zm-253097 3975l0 2939 6652 0 0 -2939 -6652 0zm94111 0l0 2939 6652 0 0 -2939 -6652 0zm-279 3078l0 -3357 7209 0 0 3497 -7209 0 0 -140zm7518 -3078l0 2939 6652 0 0 -2939 -6652 0zm-278 3078l0 -3357 7208 0 0 3497 -7208 0 0 -140zm145065 -3078l0 2939 6652 0 0 -2939 -6652 0zm-279 3078l0 -3357 7209 0 0 3497 -7209 0 0 -140zm7518 -3078l0 2939 6652 0 0 -2939 -6652 0zm-279 3078l0 -3357 7209 0 0 3497 -7209 0 0 -140zm-253097 3976l0 2939 6652 0 0 -2939 -6652 0zm94111 0l0 2939 6652 0 0 -2939 -6652 0zm-279 3078l0 -3357 7209 0 0 3496 -7209 0 0 -139zm7518 -3078l0 2939 6652 0 0 -2939 -6652 0zm-278 3078l0 -3357 7208 0 0 3496 -7208 0 0 -139zm145065 -3078l0 2939 6652 0 0 -2939 -6652 0zm-279 3078l0 -3357 7209 0 0 3496 -7209 0 0 -139zm7518 -3078l0 2939 6652 0 0 -2939 -6652 0zm-279 3078l0 -3357 7209 0 0 3496 -7209 0 0 -139zm-253097 3975l0 2940 6652 0 0 -2940 -6652 0zm94111 0l0 2940 6652 0 0 -2940 -6652 0zm-279 3079l0 -3357 7209 0 0 3496 -7209 0 0 -139zm7518 -3079l0 2940 6652 0 0 -2940 -6652 0zm-278 3079l0 -3357 7208 0 0 3496 -7208 0 0 -139zm145065 -3079l0 2940 6652 0 0 -2940 -6652 0zm-279 3079l0 -3357 7209 0 0 3496 -7209 0 0 -139zm7518 -3079l0 2940 6652 0 0 -2940 -6652 0zm-279 3079l0 -3357 7209 0 0 3496 -7209 0 0 -139zm-253097 3975l0 2940 6652 0 0 -2940 -6652 0zm94111 0l0 2940 6652 0 0 -2940 -6652 0zm-279 3079l0 -3357 7209 0 0 3496 -7209 0 0 -139zm7518 -3079l0 2940 6652 0 0 -2940 -6652 0zm-278 3079l0 -3357 7208 0 0 3496 -7208 0 0 -139zm145065 -3079l0 2940 6652 0 0 -2940 -6652 0zm-279 3079l0 -3357 7209 0 0 3496 -7209 0 0 -139zm7518 -3079l0 2940 6652 0 0 -2940 -6652 0zm-279 3079l0 -3357 7209 0 0 3496 -7209 0 0 -139zm-253097 3975l0 2939 6652 0 0 -2939 -6652 0zm94111 0l0 2939 6652 0 0 -2939 -6652 0zm-279 3079l0 -3357 7209 0 0 3496 -7209 0 0 -139zm7518 -3079l0 2939 6652 0 0 -2939 -6652 0zm-278 3079l0 -3357 7208 0 0 3496 -7208 0 0 -139zm145065 -3079l0 2939 6652 0 0 -2939 -6652 0zm-279 3079l0 -3357 7209 0 0 3496 -7209 0 0 -139zm7518 -3079l0 2939 6652 0 0 -2939 -6652 0zm-279 3079l0 -3357 7209 0 0 3496 -7209 0 0 -139z"/>
     <path class="fil1" d="M708764 437851l351 255 351 255 -134 413 -134 412 -434 0 -434 0 -134 -412 -134 -413 351 -255 351 -255zm3081 0l352 255 351 255 -134 413 -135 412 -434 0 -433 0 -135 -412 -134 -413 351 -255 351 -255z"/>
    </g>
   </g>
  </g>
  <polygon class="fil3" points="0,140773 833540,0 749441,1494596 69113,1450372 "/>
 </g>
</svg>
