<?xml version="1.0" encoding="UTF-8"?>
<!DOCTYPE svg PUBLIC "-//W3C//DTD SVG 1.1//EN" "http://www.w3.org/Graphics/SVG/1.1/DTD/svg11.dtd">
<!-- Creator: CorelDRAW X8 -->
<svg xmlns="http://www.w3.org/2000/svg" xml:space="preserve" width="5.70502in" height="2.38982in" version="1.1" style="shape-rendering:geometricPrecision; text-rendering:geometricPrecision; image-rendering:optimizeQuality; fill-rule:evenodd; clip-rule:evenodd"
viewBox="0 0 20055829 8401332"
 xmlns:xlink="http://www.w3.org/1999/xlink">
 <defs>
  <style type="text/css">
   <![CDATA[
    .fil0 {fill:#70614F}
    .fil1 {fill:#70614F;fill-rule:nonzero}
   ]]>
  </style>
 </defs>
 <g id="Layer_x0020_1">
  <metadata id="CorelCorpID_0Corel-Layer"/>
  <g id="_1755785601136">
   <g>
    <path class="fil0" d="M6108873 5053181l0 2072895 -34947 0 0 -2072895 0 -39071 34947 0 624757 0 0 39071 -624757 0zm9790150 -1921065l42061 48483 0 4523702 -42061 0 0 -4572185zm-3555481 -73119l42062 48483 0 4596821 -42062 0 0 -4645304zm-5366362 8443l42061 48400 0 4588461 -42061 0 0 -4636861zm8047724 1985741l0 2072895 -34948 0 0 -2072895 0 -39071 34948 0 624756 0 0 39071 -624756 0zm-1599428 -1748115l634916 0 0 38975 -634916 0 0 1563387 -34947 0 0 -1563387 0 -38975 34947 0zm-14 3938584l629491 0 0 38988 -629491 0 0 294109 -34933 0 0 -294109 0 -38988 34933 0zm14 -2190469l0 2072895 -34947 0 0 -2072895 0 -39071 34947 0 629477 0 0 39071 -629477 0zm793652 -1748115l630210 0 0 38975 -630210 0 0 1563387 -34947 0 0 -1563387 0 -38975 34947 0zm0 3938584l624757 0 0 38988 -624757 0 0 294109 -34947 0 0 -294109 0 -38988 34947 0zm0 -2190469l0 2072895 -34947 0 0 -2072895 0 -39071 34947 0 624757 0 0 39071 -624757 0zm805776 -1748115l630210 0 0 38975 -630210 0 0 1563387 -34948 0 0 -1563387 0 -38975 34948 0zm-14 3938584l624770 0 0 38988 -624770 0 0 294109 -34934 0 0 -294109 0 -38988 34934 0zm-6924199 -3896523l532884 0 0 38989 -532884 0 0 1513796 -34947 0 0 -1513796 0 -38989 34947 0zm3457656 0l532898 0 0 38989 -532898 0 0 1513796 -34947 0 0 -1513796 0 -38989 34947 0zm2118 1718677l0 2056839 -34947 0 0 -2056839 0 -39072 34947 0 527445 0 0 39072 -527445 0zm-14 2182040l527459 0 0 39002 -527459 0 0 294095 -34933 0 0 -294095 0 -39002 34933 0zm-1331726 -3900717l963668 0 0 38989 -963668 0 0 1513796 -34947 0 0 -1513796 0 -38989 34947 0zm2104 1718677l0 2056839 -34947 0 0 -2056839 0 -39072 34947 0 958228 0 0 39072 -958228 0zm0 2182040l958228 0 0 39002 -958228 0 0 294095 -34947 0 0 -294095 0 -39002 34947 0zm-1241265 -3900717l963668 0 0 38989 -963668 0 0 1513796 -34947 0 0 -1513796 0 -38989 34947 0zm2118 1718677l0 2056839 -34947 0 0 -2056839 0 -39072 34947 0 958214 0 0 39072 -958214 0zm-14 2182040l958228 0 0 39002 -958228 0 0 294095 -34933 0 0 -294095 0 -39002 34933 0zm-888860 -2182040l0 2056839 -34947 0 0 -2056839 0 -39072 34947 0 527445 0 0 39072 -527445 0zm-14 2182040l527459 0 0 39002 -527459 0 0 294095 -34933 0 0 -294095 0 -39002 34933 0zm-3593348 -3942778l634916 0 0 38975 -634916 0 0 1563387 -34947 0 0 -1563387 0 -38975 34947 0zm-14 3938584l629491 0 0 38988 -629491 0 0 294109 -34933 0 0 -294109 0 -38988 34933 0zm14 -2190469l0 2072895 -34947 0 0 -2072895 0 -39071 34947 0 629477 0 0 39071 -629477 0zm793665 -1748115l630197 0 0 38975 -630197 0 0 1563387 -34960 0 0 -1563387 0 -38975 34960 0zm-13 3938584l624770 0 0 38988 -624770 0 0 294109 -34947 0 0 -294109 0 -38988 34947 0zm13 -2190469l0 2072895 -34960 0 0 -2072895 0 -39071 34960 0 624757 0 0 39071 -624757 0zm805762 -1748115l630210 0 0 38975 -630210 0 0 1563387 -34947 0 0 -1563387 0 -38975 34947 0zm-13 3938584l624770 0 0 38988 -624770 0 0 294109 -34934 0 0 -294109 0 -38988 34934 0z"/>
    <path class="fil0" d="M16164746 3210135l-4471 96218c-3998720,-1160810 -8039613,-1152727 -12124421,-6505l-167538 -96149c4148003,-1196394 8243247,-1216837 12296430,6436z"/>
    <path class="fil0" d="M16418122 3580587l555832 0 0 39017 -555832 0 0 2643895 -69769 0 0 -2643895 0 -39017 69769 0zm-243134 -351422l1005617 0 0 46296 -1005617 0 0 -46296zm-14879 183939l993646 0 -63680 50947 -866549 0 -63417 -50947z"/>
    <polygon class="fil0" points="3186260,1631316 3186260,3044382 3046651,3044382 3046651,1631316 3046651,1509423 3186260,1509423 17008832,1509423 17008832,1631316 "/>
    <polygon class="fil0" points="3878599,3406281 3878696,3258714 2876539,3258714 2872317,3207754 3886931,3207754 4001959,3178066 4001959,3517697 3908509,3557460 3908509,6363288 4067674,6547809 4067674,7707138 3880869,7707138 3880869,6460628 2876539,6460628 2872317,6409667 3806574,6409667 3806574,3600877 3802408,3602649 3803543,3463248 "/>
    <path class="fil0" d="M3130331 3580587l555831 0 0 39017 -555831 0 0 2643895 -69770 0 0 -2643895 0 -39017 69770 0zm-243135 -351422l1005618 0 0 46296 -1005618 0 0 -46296zm-14879 183939l993646 0 -63680 50947 -866549 0 -63417 -50947z"/>
    <polygon class="fil0" points="2878684,1383987 2887653,1383987 2887653,1365787 17178792,1365787 17178792,1383987 17177201,1383987 17177201,1443404 2878684,1443404 "/>
    <polygon class="fil0" points="2591758,330482 17467393,330482 17467393,360225 2591758,360225 "/>
    <polygon class="fil0" points="2528051,330496 17552373,330496 17552373,360239 2528051,360239 "/>
    <path class="fil0" d="M2305746 90212l15423521 0c0,36843 -148701,73617 -148701,110446l-15145661 -34601 -129159 -75845z"/>
    <g>
     <polygon class="fil0" points="17167388,666818 17313930,666818 17313930,726193 17211096,726193 "/>
     <path class="fil0" d="M17320283 499003l131595 0c-6450,10006 -10284,27694 -31335,37230 -12982,5786 -7266,18311 -17896,23405 -8871,4110 -13273,21148 -22947,49811l-59417 0 0 -110446z"/>
     <polygon class="fil0" points="2884774,504387 2892386,504387 2892386,499003 2987913,499003 2987913,504387 3640641,504387 3640641,563804 2987913,563804 2987913,609449 2936938,609449 2936938,666818 2936938,709266 2936938,726193 2796804,726193 2737387,666818 2883860,666818 2883860,509646 2884774,509646 "/>
     <polygon class="fil0" points="3789301,504387 3792678,504387 3792678,499003 3888205,499003 3888205,504387 4545168,504387 4545168,563804 3888205,563804 3888205,609449 3837230,609449 3837230,666818 3837230,709266 3837230,726193 3697096,726193 3637610,666818 3784152,666818 3784152,509646 3789301,509646 "/>
     <polygon class="fil0" points="4693814,504387 4705662,504387 4705662,499003 4801188,499003 4801188,504387 5449695,504387 5449695,563804 4801188,563804 4801188,609449 4750228,609449 4750228,666818 4750228,709266 4750228,726193 4610149,726193 4550663,666818 4697136,666818 4697136,563804 4693814,563804 "/>
     <polygon class="fil0" points="5594051,504387 5601774,504387 5601774,499003 5697301,499003 5697301,504387 6352091,504387 6352091,563804 5697301,563804 5697301,609449 5646340,609449 5646340,666818 5646340,709266 5646340,726193 5506192,726193 5446706,666818 5593248,666818 5593248,509646 5594051,509646 "/>
     <polygon class="fil0" points="6492170,504387 6502066,504387 6502066,499003 6597593,499003 6597593,504387 7250210,504387 7250210,563804 6597593,563804 6597593,609449 6546632,609449 6546632,666818 6546632,709266 6546632,726193 6406484,726193 6346998,666818 6493540,666818 6493540,563804 6492170,563804 "/>
     <polygon class="fil0" points="7392462,504387 7402344,504387 7402344,499003 7497871,499003 7497871,504387 8150489,504387 8150489,563804 7497871,563804 7497871,609449 7446910,609449 7446910,666818 7446910,709266 7446910,726193 7306776,726193 7247290,666818 7393832,666818 7393832,563804 7392462,563804 "/>
     <polygon class="fil0" points="8299149,504387 8302636,504387 8302636,499003 8398163,499003 8398163,504387 9057189,504387 9057189,563804 8398163,563804 8398163,609449 8347202,609449 8347202,666818 8347202,709266 8347202,726193 8207054,726193 8147582,666818 8294111,666818 8294111,509646 8299149,509646 "/>
     <polygon class="fil0" points="9203676,504387 9207164,504387 9207164,499003 9302676,499003 9302676,504387 9961702,504387 9961702,563804 9302676,563804 9302676,609449 9251716,609449 9251716,666818 9251716,709266 9251716,726193 9111582,726193 9052095,666818 9198638,666818 9198638,509646 9203676,509646 "/>
     <polygon class="fil0" points="10202968,504387 10866229,504387 10866229,563804 10202968,563804 10202968,609449 10152008,609449 10152008,666818 10152008,709266 10152008,726193 10011874,726193 9952387,666818 10098930,666818 10098930,509646 10107456,509646 10107456,499003 10202968,499003 "/>
     <polygon class="fil0" points="11103247,504387 11766521,504387 11766521,563804 11103247,563804 11103247,609449 11052286,609449 11052286,666818 11052286,709266 11052286,726193 10912166,726193 10852679,666818 10999222,666818 10999222,509646 11007734,509646 11007734,499003 11103247,499003 "/>
     <polygon class="fil0" points="11904538,504387 11912261,504387 11912261,499003 12007774,499003 12007774,504387 12662523,504387 12662523,563804 12007774,563804 12007774,609449 11956813,609449 11956813,666818 11956813,709266 11956813,726193 11816679,726193 11757193,666818 11903735,666818 11903735,509646 11904538,509646 "/>
     <polygon class="fil0" points="12903831,504387 13567091,504387 13567091,563804 12903831,563804 12903831,609449 12852870,609449 12852870,666818 12852870,709266 12852870,726193 12712736,726193 12653250,666818 12799792,666818 12799792,509646 12808318,509646 12808318,499003 12903831,499003 "/>
     <polygon class="fil0" points="14609566,504387 14617345,504387 14617345,499003 14712871,499003 14712871,504387 15367606,504387 15367606,563804 14712871,563804 14712871,609449 14661911,609449 14661911,666818 14661911,709266 14661911,726193 14521776,726193 14462346,666818 14608833,666818 14608833,509646 14609566,509646 "/>
     <polygon class="fil0" points="15608873,504387 16272134,504387 16272134,563804 15608873,563804 15608873,609449 15557898,609449 15557898,666818 15557898,709266 15557898,726193 15417778,726193 15358347,666818 15504890,666818 15504890,509646 15513360,509646 15513360,499003 15608873,499003 "/>
     <polygon class="fil0" points="16405860,504387 16413638,504387 16413638,499003 16509151,499003 16509151,504387 17163900,504387 17163900,563804 16509151,563804 16509151,609449 16458190,609449 16458190,666818 16458190,709266 16458190,726193 16318070,726193 16258625,666818 16405112,666818 16405112,509646 16405860,509646 "/>
     <polygon class="fil0" points="13561998,666818 13708541,666818 13708541,563804 13700818,563804 13700818,504387 13717066,504387 13717066,499003 13812593,499003 13812593,504387 14458858,504387 14458858,563804 13812593,563804 13812593,609449 13761633,609449 13761633,666818 13761633,709266 13761633,726193 13621484,726193 "/>
    </g>
   </g>
   <path class="fil0" d="M0 8401332l20055829 0 0 -206651 -20055829 0 0 206651zm1007029 -305887l18041757 0 0 -121657 -18041757 0 0 121657zm769030 -220948l16503711 0 0 -87666 -16503711 0 0 87666zm8226431 -1424333l-249 -539c-3045,553 -16927,-8761 -14782,-10810l0 222125c554,-567 14532,-9799 15031,-10809l0 -199967zm50254 -11432c-1425,5882 -8636,9619 -15238,10519l0 200921 15238 11045 0 -222485zm-7505483 -6138755l14974234 0c14740,-64607 47805,-109865 92482,-141269 7515,-5287 15349,-10159 23473,-14657l-15206158 0c8125,4498 15958,9370 23474,14657 44677,31404 77741,76662 92495,141269zm14939245 43086l-14904256 0c0,2007 -235,4000 -581,5979 2366,2643 4304,5162 6228,7653l2740 3474 14887482 0 2740 -3474c1938,-2491 3862,-5010 6229,-7653 -346,-1979 -582,-3972 -582,-5979zm-14857988 60178l0 62129 14811720 0 0 -62129 -14811720 0zm14854791 0l0 105201 -30283 0 0 3709c0,16110 -11930,23058 -23805,29965 -208,110 -429,-319 -609,-1052l-1813 -3142c-1163,11958 -9052,18892 -16982,25771 -222,263 -485,-111 -734,-761l-1522 -1730c-236,8539 -3350,14878 -6492,21106 -927,1938 -1896,2215 -1896,3059 0,9259 -3778,15363 -7557,21425 -27,194 -124,111 -207,-83l-651 -401 0 20802 -21535 0 -50878 0 0 19708 0 374 0 734761 -121187 0 0 1804930 0 43071 0 204562 -15155 0 -58282 38462 0 2874504 58282 38477 27875 0 0 75389 0 21535 0 1190277 841484 0 0 43071 -841484 0 -1087927 0 -12196820 0 -1087913 0 -832751 0 0 -43071 832751 0 -14 -1190277 0 -21535 0 -75389 21536 0 13896 0 45355 -37120 0 -2877217 -45355 -37106 -13882 0 0 -247633 6103 0 0 -1804930 -127899 0 0 -734761 0 -374 0 -71042 0 -21536 0 -45798 -151511 0 0 -105201 -11488 0 -6006 -5052c-6450,-5412 -10256,-10325 -14048,-15238 -2270,-2948 -4582,-5938 -7322,-8360 -6588,-5841 -9024,-11280 -9550,-16511 -12858,-1869 -24788,-5717 -27003,-22602 -8802,-67389 -38213,-112232 -79997,-141601 -39445,-27750 -90475,-42560 -146127,-49826l-15211 0c-9578,0 -18311,-3958 -24678,-10297 -6352,-6270 -10297,-15003 -10297,-24664l0 -74129c0,-9661 3945,-18394 10256,-24705 6408,-6298 15141,-10256 24719,-10256l15531366 0c9564,0 18311,3945 24664,10297 6366,6270 10311,15003 10311,24664l0 74129c0,9661 -3945,18394 -10256,24705 -6408,6312 -15155,10256 -24719,10256l-15210 0c-55667,7266 -106696,22076 -146141,49826 -41785,29369 -71196,74226 -79984,141601 -2215,16885 -14145,20733 -27003,22602 -526,5245 -2962,10684 -9550,16511 -2740,2422 -5052,5412 -7321,8360 -3793,4913 -7599,9840 -14048,15238l-6007 5052 -11488 0zm-208049 105201l-94073 0 0 24248 94073 0 0 -24248zm-137159 0l-719868 0 0 45798 0 21536 0 71042c0,8236 -3363,15737 -8775,21162 -5425,5412 -12927,8775 -21162,8775l-120370 0c-8193,0 -15695,-3404 -21107,-8830 -5467,-5370 -8830,-12871 -8830,-21107l0 -71042 0 -21536 0 -45798 -719826 0 0 45798 0 21536 0 71042c0,8236 -3364,15737 -8775,21162 -5426,5412 -12927,8775 -21162,8775l-120371 0c-8193,0 -15695,-3404 -21106,-8830 -5467,-5370 -8817,-12871 -8817,-21107l0 -71042 0 -21536 0 -45798 -719840 0 0 45798 0 21536 0 71042c0,8236 -3349,15737 -8775,21162 -5425,5412 -12927,8775 -21162,8775l-120356 0c-8208,0 -15709,-3404 -21121,-8830 -5467,-5370 -8816,-12871 -8816,-21107l0 -71042 0 -21536 0 -45798 -719841 0 0 45798 0 21536 0 71042c0,8236 -3349,15737 -8774,21162 -5426,5412 -12927,8775 -21163,8775l-120356 0c-8207,0 -15709,-3404 -21120,-8830 -5467,-5370 -8817,-12871 -8817,-21107l0 -71042 0 -21536 0 -45798 -719840 0 0 45798 0 21536 0 71042c0,8236 -3350,15737 -8775,21162 -5426,5412 -12927,8775 -21162,8775l-120356 0c-8208,0 -15709,-3404 -21121,-8830 -5467,-5370 -8816,-12871 -8816,-21107l0 -71042 0 -21536 0 -45798 -719841 0 0 45798 0 21536 0 71042c0,8236 -3349,15737 -8775,21162 -5411,5412 -12927,8775 -21162,8775l-120356 0c-8207,0 -15709,-3404 -21121,-8830 -5453,-5370 -8816,-12871 -8816,-21107l0 -71042 0 -21536 0 -45798 -719840 0 0 45798 0 21536 0 71042c0,8236 -3350,15737 -8775,21162 -5412,5412 -12927,8775 -21148,8775l-120371 0c-8207,0 -15695,-3404 -21120,-8830 -5453,-5370 -8816,-12871 -8816,-21107l0 -71042 0 -21536 0 -45798 -719827 0 0 45798 0 21536 0 71042c0,8236 -3363,15737 -8789,21162 -5411,5412 -12927,8775 -21148,8775l-120370 0c-8208,0 -15695,-3404 -21121,-8830 -5453,-5370 -8816,-12871 -8816,-21107l0 -71042 0 -21536 0 -45798 -719827 0 0 45798 0 21536 0 71042c0,8236 -3363,15737 -8788,21162 -5412,5412 -12927,8775 -21149,8775l-120370 0c-8207,0 -15695,-3404 -21120,-8830 -5453,-5370 -8817,-12871 -8817,-21107l0 -71042 0 -21536 0 -45798 -719826 0 0 45798 0 21536 0 71042c0,8236 -3364,15737 -8789,21162 -5412,5412 -12913,8775 -21148,8775l-120370 0c-8208,0 -15695,-3404 -21121,-8830 -5453,-5370 -8816,-12871 -8816,-21107l0 -71042 0 -21536 0 -45798 -719827 0 0 45798 0 21536 0 71042c0,8236 -3363,15737 -8775,21162 -5425,5412 -12927,8775 -21162,8775l-120370 0c-8207,0 -15695,-3404 -21120,-8830 -5454,-5370 -8817,-12871 -8817,-21107l0 -71042 0 -21536 0 -45798 -719827 0 0 45798 0 21536 0 71042c0,8236 -3363,15737 -8774,21162 -5426,5412 -12927,8775 -21162,8775l-120371 0c-8207,0 -15695,-3404 -21120,-8830 -5453,-5370 -8816,-12871 -8816,-21107l0 -71042 0 -21536 0 -45798 -719827 0 0 45798 0 21536 0 71042c0,8236 -3363,15737 -8775,21162 -5425,5412 -12927,8775 -21162,8775l-120370 0c-8208,0 -15695,-3404 -21121,-8830 -5453,-5370 -8816,-12871 -8816,-21107l0 -71042 0 -21536 0 -45798 -719827 0 0 45798 0 21536 0 71042c0,8236 -3363,15737 -8775,21162 -5425,5412 -12926,8775 -21162,8775l-120370 0c-8207,0 -15695,-3404 -21120,-8830 -5453,-5370 -8817,-12871 -8817,-21107l0 -71042 0 -21536 0 -45798 -719826 0 0 45798 0 21536 0 71042c0,8236 -3364,15737 -8775,21162 -5426,5412 -12927,8775 -21162,8775l-120370 0c-8194,0 -15695,-3404 -21107,-8830 -5467,-5370 -8830,-12871 -8830,-21107l0 -71042 0 -21536 0 -45798 -719827 0 0 45798 0 21536 0 71042c0,8236 -3363,15737 -8775,21162 -5425,5412 -12927,8775 -21162,8775l-107222 0 0 662126 84828 0 14332301 0 78102 0 0 -662126 -107222 0c-8207,0 -15695,-3404 -21120,-8830 -5453,-5370 -8817,-12871 -8817,-21107l0 -71042 0 -21536 0 -45798zm-762939 0l-94088 0 0 24248 94088 0 0 -24248zm-900071 0l-94087 0 0 24248 94087 0 0 -24248zm-900070 0l-94088 0 0 24248 94088 0 0 -24248zm-900071 0l-94087 0 0 24248 94087 0 0 -24248zm-900071 0l-94087 0 0 24248 94087 0 0 -24248zm-900070 0l-94087 0 0 24248 94087 0 0 -24248zm-900071 0l-94087 0 0 24248 94087 0 0 -24248zm-900070 0l-94088 0 0 24248 94088 0 0 -24248zm-900071 0l-94073 0 0 24248 94073 0 0 -24248zm-900071 0l-94073 0 0 24248 94073 0 0 -24248zm-900070 0l-94074 0 0 24248 94074 0 0 -24248zm-900071 0l-94073 0 0 24248 94073 0 0 -24248zm-900070 0l-94074 0 0 24248 94074 0 0 -24248zm-900057 0l-94087 0 0 24248 94087 0 0 -24248zm-900071 0l-94087 0 0 24248 94087 0 0 -24248zm-900070 0l-94088 0 0 24248 94088 0 0 -24248zm1051014 7164718l294206 0 0 -4530041c-102115,27612 -204409,55943 -306925,84980l0 206417 -11599 0 -61853 38725 0 2874241 58296 38477 27875 0 0 75389 0 21535 0 1190277zm337277 0l40401 0 0 -4496312 -40401 -40400 0 4536712zm118488 0l53867 0 0 -4400218 2332057 0 0 4400218 53867 0 0 -4448701 -2439791 0 0 4448701zm780946 0l64635 0 0 -4357132 -64635 0 0 4357132zm807866 0l64635 0 0 -4357132 -64635 0 0 4357132zm929066 0l40387 0 0 -4545542 -40387 42961 0 4502581zm83472 0l824031 0 0 -4615644 4540241 0 0 40802 692 747 -692 651 -14 4573444 791728 0 0 -4610260 2400705 0c-1879571,-484387 -3693802,-726608 -5507936,-726608 -1814148,0 -3628351,242235 -5507894,726608l2459139 0 0 4610260zm867116 0l37702 0 0 -4503010 -37702 -38504 0 4541514zm144785 0l37618 0 0 -4448701 -37618 0 0 4448701zm669877 0l37604 0 0 -4448701 -37604 0 0 4448701zm80689 0l98392 0 0 -155996 -98392 0 0 155996zm141463 0l37619 0 0 -4448701 -37619 0 0 4448701zm1101283 0l65161 0 0 -980262c-609,194 -1080,457 -1426,747 -899,789 -1965,2325 -3045,4097l-6311 10339 -43916 0 -6311 -10339c-1079,-1758 -2131,-3294 -3045,-4097 -277,-235 -650,-470 -1107,-650l0 980165zm108246 0l65147 0 0 -980151c-457,180 -817,415 -1093,636 -900,789 -1980,2325 -3045,4097l-6312 10339 -43915 0 -6325 -10339c-1066,-1758 -2118,-3294 -3045,-4097 -332,-304 -803,-553 -1412,-761l0 980276zm1133309 0l21370 0 0 -4448701 -21370 0 0 4448701zm80676 0l98392 0 0 -155996 -98392 0 0 155996zm141477 0l37605 0 0 -4448701 -37605 0 0 4448701zm669863 0l37604 0 0 -4448701 -37604 0 0 4448701zm144688 0l37701 0 0 -4532615 -37701 35722 0 4496893zm915585 0l40401 0 0 -4496312 -40401 -40414 0 4536726zm118488 0l53867 0 14 -4400218 2332029 0 0 4400218 53867 0 0 -4448701 -2439763 0 -14 14 0 4448687zm780933 0l64648 0 0 -4357132 -64648 0 0 4357132zm807879 0l64635 0 0 -4357132 -64635 0 0 4357132zm929052 0l40401 0 0 -4525889 -14727 -3972 -25674 27280 0 4502581zm83472 0l220824 0 0 -1190277 0 -21535 0 -75389 21550 0 13882 0 45355 -37120 0 -2877217 -45355 -37106 -13882 0 0 -208147c-80925,-22892 -161712,-45327 -242374,-67347l0 4514138zm-5870458 -5499023c-921510,-14809 -2017118,67860 -3115355,229211 -1068731,157006 -2139717,388612 -3054942,677434l-3184 996 -816543 0 0 -1575372 13980726 0 0 1575372 -816530 0 -3197 -996c-915212,-288822 -1986198,-520428 -3054928,-677434 -1098265,-161351 -2193832,-244020 -3115383,-229211l-664 0zm-3121598 186638c1099858,-161573 2197722,-244352 3121930,-229529 924236,-14823 2022086,67956 3121943,229529 1069796,157172 2141876,388930 3058444,677932l766912 0 0 -1489230 -13894570 0 0 1489230 766898 0c916568,-289002 1988648,-520760 3058443,-677932zm8887173 769846c-30822,-8276 -61631,-16497 -92440,-24636l-2492038 0 32331 32318 2544936 0 7211 -7682zm-11438032 -24636l-51667 13689 18644 18629 2544949 0 30394 -32318 -2542320 0zm-458049 80898c2102997,-595761 4116931,-893677 6130838,-893677 2084894,0 4133554,327852 6130866,893677l992220 0 0 -1804930 -14246144 0 0 1804930 992220 0zm8177782 168189l-546088 0 0 1525547 546088 0 0 -1525547zm-546088 -43072l546088 0 0 -64649 -546088 0 0 64649zm-362163 43072l-965771 0 0 1525547 965771 0 0 -1525547zm-965771 -43072l965771 0 0 -64649 -965771 0 0 64649zm-259549 43072l-977508 0 0 1525547 977508 0 0 -1525547zm-977508 -43072l977508 0 0 -64649 -977508 0 0 64649zm-345914 43072l-546115 0 0 1525547 546115 0 0 -1525547zm-546115 -43072l546115 0 0 -64649 -546115 0 0 64649zm4003108 1719410l-546088 0 0 2070860 546088 0 0 -2070860zm-546088 -43071l546088 0 0 -64649 -546088 0 0 64649zm-362163 43071l-965771 0 0 2070860 965771 0 0 -2070860zm-965771 -43071l965771 0 0 -64649 -965771 0 0 64649zm-259549 43071l-977508 0 0 2070860 977508 0 0 -2070860zm-977508 -43071l977508 0 0 -64649 -977508 0 0 64649zm-345914 43071l-546115 0 0 2070860 546115 0 0 -2070860zm-546115 -43071l546115 0 0 -64649 -546115 0 0 64649zm3457020 2679437l546088 0 0 -64649 -546088 0 0 64649zm0 -107720l546088 0 0 -306995 -546088 0 0 306995zm0 -350066l546088 0 0 -64649 -546088 0 0 64649zm-1327934 457786l965771 0 0 -64649 -965771 0 0 64649zm0 -107720l965771 0 0 -306995 -965771 0 0 306995zm0 -350066l965771 0 0 -64649 -965771 0 0 64649zm-1237057 457786l977508 0 0 -64649 -977508 0 0 64649zm0 -107720l977508 0 0 -306995 -977508 0 0 306995zm0 -350066l977508 0 0 -64649 -977508 0 0 64649zm-892029 457786l546115 0 0 -64649 -546115 0 0 64649zm0 -107720l546115 0 0 -306995 -546115 0 0 306995zm0 -350066l546115 0 0 -64649 -546115 0 0 64649zm3299488 -3985531l-30864 0 0 4249634 30864 0 0 -4249634zm-1213473 0l-65147 0 0 2978391 32746 -18865 10685 6173 21716 12512 0 -2978211zm-108232 0l-65161 0 0 2978211 32428 -18685 10685 6173 22048 12706 0 -2978405zm-1243286 0l-30864 0 0 4249634 30864 0 0 -4249634zm-893316 -86156l4327292 0 39805 -37702 -4404023 0 36926 37702zm9407407 -2554265l32691 0c290,-8581 3391,-14740 6463,-20899 997,-1924 1938,-2256 1938,-3017 0,-13993 8539,-21439 17065,-28857 360,-236 623,207 886,913l1425 1633c402,-12138 7723,-18906 16484,-24525l-76952 0 0 74752zm67333 21536l0 678 609 388c-346,-831 -609,-3197 -609,-1066zm16830 -45452l-14 983 1440 1661c-789,-2201 -1426,-6796 -1426,-2644zm-25079 -27805l1384 1577 -1425 -1716 41 139zm1384 1577l-1384 -1577c762,2214 1357,6574 1357,2560l27 -983zm43044 983l-138 3045 1813 3142c-914,-3377 -1675,-13259 -1675,-6187zm-18034 -25591c595,3875 1038,8166 1038,2865l0 -2865 -1038 0zm-15132111 -409372l8954 1066 15497250 0 8955 -1066 0 -56843 -15515159 0 0 56843zm13888244 6382969l0 1190277 1001770 0 0 -1190277 -1001770 0zm60317 -96924l878604 0 -8166 -5398 -863850 0 -6588 5398zm941453 43071l-1001770 0 0 10782 1001770 0 0 -10782zm-797111 -188493l587069 0 0 -2660614 -587069 0 0 2660614zm608605 43086l-651677 0 0 -2746771 673212 0 0 2746771 -21535 0zm-732477 53853l834813 0 0 -2854491 -834813 0 0 2854491zm-13882 -2897577l863850 0 8180 -5383 -878618 0 6588 5383zm-45355 -48469l967501 0 0 -161476 -967501 0 0 161476zm-1190263 -75402l0 1556508 646306 0 0 -1556508 -646306 0zm0 1599593l0 64635 646306 0 0 -64635 -646306 0zm0 107720l0 2078929 646306 0 0 -2078929 -646306 0zm0 2122000l0 64649 646306 0 0 -64649 -646306 0zm0 107720l0 306995 646306 0 0 -306995 -646306 0zm0 350066l0 64649 646306 0 0 -64649 -646306 0zm-150805 64649l0 -64649 -657074 0 0 64649 657074 0zm0 -107720l0 -306995 -657074 0 0 306995 657074 0zm0 -350066l0 -64649 -657074 0 0 64649 657074 0zm0 -107720l0 -2078929 -657074 0 0 2078929 657074 0zm0 -2122014l0 -64635 -657074 0 0 64635 657074 0zm0 -107720l0 -1556508 -657074 0 0 1556508 657074 0zm-1448788 2795240l640922 0 0 -64649 -640922 0 0 64649zm0 -107720l640922 0 0 -306995 -640922 0 0 306995zm0 -350066l640922 0 0 -64649 -640922 0 0 64649zm0 -107720l640922 0 0 -2078929 -640922 0 0 2078929zm0 -2122014l640922 0 0 -64635 -640922 0 0 64635zm0 -107720l640922 0 0 -1556508 -640922 0 0 1556508zm-7319302 -1556508l0 1556508 646306 0 0 -1556508 -646306 0zm0 1599593l0 64635 646306 0 0 -64635 -646306 0zm0 107720l0 2078929 646306 0 0 -2078929 -646306 0zm0 2122000l0 64649 646306 0 0 -64649 -646306 0zm0 107720l0 306995 646306 0 0 -306995 -646306 0zm0 350066l0 64649 646306 0 0 -64649 -646306 0zm-150805 64649l0 -64649 -657061 0 0 64649 657061 0zm0 -107720l0 -306995 -657061 0 0 306995 657061 0zm0 -350066l0 -64649 -657061 0 0 64649 657061 0zm0 -107720l0 -2078929 -657061 0 0 2078929 657061 0zm0 -2122014l0 -64635 -657061 0 0 64635 657061 0zm0 -107720l0 -1556508 -657061 0 0 1556508 657061 0zm-1448775 2795240l640909 0 0 -64649 -640909 0 0 64649zm0 -107720l640909 0 0 -306995 -640909 0 0 306995zm0 -350066l640909 0 0 -64649 -640909 0 0 64649zm0 -107720l640909 0 0 -2078929 -640909 0 0 2078929zm0 -2122014l640909 0 0 -64635 -640909 0 0 64635zm0 -107720l640909 0 0 -1556508 -640909 0 0 1556508zm-1597572 1610347l0 1190277 1001784 0 0 -1190277 -1001784 0zm60316 -96924l878618 0 -8166 -5398 -863850 0 -6602 5398zm941468 43071l-1001784 0 0 10782 1001784 0 0 -10782zm-797112 -188493l587055 0 0 -2660614 -587055 0 0 2660614zm608605 43086l-651690 0 0 -2746771 673226 0 0 2746771 -21536 0zm-732477 53853l834813 0 0 -2854491 -834813 0 0 2854491zm-13882 -2897577l864252 0 8622 -5383 -879476 0 6602 5383zm-45355 -48469l967487 0 0 -161476 -967487 0 0 161476zm7085620 2947831l152 -124c1163,-872 2367,-2450 3557,-4263l6422 -9592 44594 0 6408 9592c1190,1813 2395,3391 3488,4263l540 359 0 -44898 -32733 18865 -32428 -18685 0 44483zm108246 208l471 -332c1148,-872 2366,-2450 3557,-4263l6408 -9592 44607 0 6395 9592c1204,1813 2408,3391 3487,4263l222 152 0 -44497 -32401 18671 -32746 -18879 0 44885zm65147 158403l-14 14 0 -59154c-1425,5882 -8636,9619 -15238,10519l0 200921 15238 11045 0 -79458 14 0 0 -83887zm-65147 -387l0 84579 194 -180 0 79333 15238 -11045 0 -200921c-6602,-900 -13813,-4637 -15238,-10519l0 59002 -194 -249zm7085482 -5921709l0 57894 94073 0 0 -57894 -94073 0zm-900113 0l0 57894 94088 0 0 -57894 -94088 0zm-900070 0l0 57894 94087 0 0 -57894 -94087 0zm-12600975 0l0 57894 94088 0 0 -57894 -94088 0zm11700904 0l0 57894 94088 0 0 -57894 -94088 0zm-900070 0l0 57894 94087 0 0 -57894 -94087 0zm-900071 0l0 57894 94087 0 0 -57894 -94087 0zm-900070 0l0 57894 94087 0 0 -57894 -94087 0zm-900071 0l0 57894 94087 0 0 -57894 -94087 0zm-900071 0l0 57894 94088 0 0 -57894 -94088 0zm-900056 0l0 57894 94073 0 0 -57894 -94073 0zm-900071 0l0 57894 94073 0 0 -57894 -94073 0zm-900071 0l0 57894 94074 0 0 -57894 -94074 0zm-900070 0l0 57894 94073 0 0 -57894 -94073 0zm-900071 0l0 57894 94074 0 0 -57894 -94074 0zm-900070 0l0 57894 94087 0 0 -57894 -94087 0zm-900071 0l0 57894 94087 0 0 -57894 -94087 0zm6448351 5676457l0 2477 1592 -1578 -1592 -899zm0 2615l0 9094 5689 -3308 -5689 -5786zm-13 9080l0 -9080 -5675 5786 5675 3294zm0 -9218l-1606 -1578 1606 -899 0 2477 0 -2477 0 2477zm1660 -1550l-1591 1619 5204 0 -3613 -1619zm-1660 10782l13 -9094 -13 9094zm-8914 -5191l-2006 -1965 -153 706 2159 1259zm19986 -1245l-152 -720 -2021 1993 2173 -1273zm-1426 137933l-19293 0 0 9357 19293 0 0 -9357zm-118197 -143206l0 2477 1606 -1578 -1606 -899zm0 2615l0 9094 5689 -3308 -5689 -5786zm-14 9080l0 -9080 -5674 5786 5674 3294zm0 -9218l-1605 -1578 1605 -899 0 2477 0 -2477 0 2477zm1661 -1550l-1578 1619 5191 0 -3613 -1619zm-1661 10782l14 -9094 -14 9094zm-8899 -5191l-2021 -1965 -152 706 2173 1259zm19986 -1245l-153 -720 -2034 1993 2187 -1273zm-1426 137933l-19307 0 0 9357 19307 0 0 -9357z"/>
   <path class="fil1" d="M16159929 7711581l-269321 0 0 -143262 117423 0 0 -102336 -117423 0 0 -143249 117423 0 0 -102336 -117423 0 0 -143262 117423 0 0 -102336 -117423 0 0 -143263 117423 0 0 -102336 -117423 0 0 -143248 117423 0 0 -102336 -117423 0 0 -143262 117423 0 0 -102337 -117423 0 0 -143248 117423 0 0 -102350 -117423 0 0 -143248 117423 0 0 -102336 -117423 0 0 -143263 117423 0 0 -102336 -117423 0 0 -143248 117423 0 0 -102336 -117423 0 0 -143263 117423 0 0 -102336 -117423 0 0 -143262 117423 0 0 -102336 -117423 0 0 -143248 117423 0 0 -102337 -117423 0 0 -143262 117423 0 0 -102336 -117423 0 0 -143248 117423 0 0 -102350 -117423 0 0 -143249 117423 0 0 -102336 -117423 0 0 -143262 117423 0 0 -102336 -117423 0 0 -143249 117423 0 0 -102350 -117423 0 0 -143248c91776,0 64345,-3045 151359,20456l-140328 0 0 102336 230526 0 0 -77520 20456 5633 0 71887 28927 0 595 20456 -152577 0 0 102350 155580 0 596 20457 -33121 0 0 102336 92371 0 0 20456 -215426 0 0 102336 215426 0 0 20456 -92371 0 0 102350 92371 0 0 20456 -215426 0 0 102336 215426 0 0 20456 -92371 0 0 102337 92371 0 0 20456 -215426 0 0 102350 215426 0 0 20456 -92371 0 0 102336 92371 0 0 20456 -215426 0 0 102336 215426 0 0 20456 -92371 0 0 102350 92371 0 0 20456 -215426 0 0 102337 215426 0 0 20456 -92371 0 0 102336 92371 0 0 20456 -215426 0 0 102336 215426 0 0 20470 -92371 0 0 102336 92371 0 0 20456 -215426 0 0 102336 215426 0 0 20457 -92371 0 0 102336 92371 0 0 20470 -215426 0 0 102336 215426 0 0 20456 -92371 0 0 102336 92371 0 0 20456 -215426 0 0 102336 215426 0 0 20456 -92371 0 0 102350 92371 0 0 20457 -215426 0 0 102336 215426 0 0 20456 -92371 0 0 102336 92371 0 0 20456 -215426 0 0 102350 215426 0 0 20456 -92371 0 0 102336 92371 0 0 20456 -215426 0 0 102337 215426 0 0 17134 -4982 3322 -87389 0 0 102350 11585 0 0 20456 -134640 0 0 102336 134640 0 0 20456 -11585 0 0 102336 11585 0 0 20456 -134640 0 0 102336 134640 0 0 20470 -11585 0 0 102337 11585 0 0 20456 -134640 0 0 102336 134640 0 0 20456 -11585 0 0 102336 11585 0 0 20470 -134640 0 0 102336 134640 0 0 20456 -11585 0 0 102336 11585 0 0 20457 -134640 0 0 102336 134640 0 0 20456 -11585 0 0 102350 11336 0 1093 20456 -5121 0zm-259618 -9702l254525 0 -69 -1066 -11848 0 0 -121726 11599 0 0 -1066 -134654 0 0 -121727 134654 0 0 -1065 -11599 0 0 -121741 11599 0 0 -1066 -134654 0 0 -121726 134654 0 0 -1066 -11599 0 0 -121726 11599 0 0 -1066 -134654 0 0 -121740 134654 0 0 -1066 -11599 0 0 -121727 11599 0 0 -1065 -134654 0 0 -121727 134654 0 0 -1066 -11599 0 0 -121726 11599 0 0 -1080 -134654 0 0 -121726 134654 0 0 -1066 -11599 0 0 -121727 92385 0 0 -1065 -215440 0 0 -121727 215440 0 0 -1079 -92385 0 0 -121727 92385 0 0 -1066 -215440 0 0 -121726 215440 0 0 -1066 -92385 0 0 -121726 92385 0 0 -1080 -215440 0 0 -121727 215440 0 0 -1065 -92385 0 0 -121727 92385 0 0 -1066 -215440 0 0 -121726 215440 0 0 -1080 -92385 0 0 -121726 92385 0 0 -1066 -215440 0 0 -121726 215440 0 0 -1066 -92385 0 0 -121727 92385 0 0 -1065 -215440 0 0 -121741 215440 0 0 -1066 -92385 0 0 -121726 92385 0 0 -1066 -215440 0 0 -121726 215440 0 0 -1066 -92385 0 0 -121727 92385 0 0 -1079 -215440 0 0 -121727 215440 0 0 -1065 -92385 0 0 -121727 92385 0 0 -1066 -215440 0 0 -121726 215440 0 0 -1080 -92385 0 0 -121726 92385 0 0 -1066 -215440 0 0 -121727 215440 0 0 -1065 -92385 0 0 -121727 92385 0 0 -1079 -215440 0 0 -121727 215440 0 0 -1066 -92385 0 0 -121726 92385 0 0 -1066 -215440 0 0 -121726 215440 0 0 -1080 -92385 0 0 -121727 32858 0 -28 -1065 -155885 0 0 -121727 152300 0 -14 -1066 -29231 0 0 -74253 -1065 -305 0 74558 -241543 0 0 1066 117408 0 0 121727 -117408 0 0 1065 241543 0 0 121727 -241543 0 0 1080 117408 0 0 121726 -117408 0 0 1066 241543 0 0 121726 -241543 0 0 1066 117408 0 0 121727 -117408 0 0 1079 241543 0 0 121727 -241543 0 0 1065 117408 0 0 121727 -117408 0 0 1066 241543 0 0 121726 -241543 0 0 1080 117408 0 0 121726 -117408 0 0 1066 241543 0 0 121727 -241543 0 0 1065 117408 0 0 121727 -117408 0 0 1079 241543 0 0 121727 -241543 0 0 1066 117408 0 0 121726 -117408 0 0 1066 241543 0 0 121726 -241543 0 0 1066 117408 0 0 121741 -117408 0 0 1065 241543 0 0 121727 -241543 0 0 1066 117408 0 0 121726 -117408 0 0 1066 241543 0 0 121726 -241543 0 0 1080 117408 0 0 121726 -117408 0 0 1066 241543 0 0 121727 -241543 0 0 1065 117408 0 0 121727 -117408 0 0 1080 241543 0 0 121726 -241543 0 0 1066 117408 0 0 121726 -117408 0 0 1066 241543 0 0 121727 -241543 0 0 1079 117408 0 0 121727 -117408 0 0 1065 241543 0 0 121727 -241543 0 0 1066 117408 0 0 121726 -117408 0 0 1080 241543 0 0 121726 -241543 0 0 1066 117408 0 0 121727 -117408 0 0 1065 241543 0 0 121727 -241543 0 0 1066 117408 0 0 121740 -117408 0 0 1066 241543 0 0 121726 -241543 0 0 1066 117408 0 0 121726 -117408 0 0 1066 241543 0 0 121741 -241543 0 0 1065 117408 0 0 121727 -117408 0 0 1066 241543 0 0 121726 -241543 0 0 1066zm0 -4544532l0 1066 68607 0 -3959 -1066 -64648 0zm-2730080 4554234l-834245 0 0 -20456 15335 0 0 -102350 -15335 0 0 -20456 143262 0 0 -102336 -143262 0 0 -20457 15335 0 0 -102336 -15335 0 0 -20456 143262 0 0 -102336 -143262 0 0 -20470 15335 0 0 -102336 -15335 0 0 -20456 143262 0 0 -102336 -143262 0 0 -20456 15335 0 0 -102337 -15335 0 0 -20470 143262 0 0 -102336 -143262 0 0 -20456 15335 0 0 -102336 -15335 0 0 -20456 143262 0 0 -102336 -143262 0 0 -20456 15335 0 0 -102350 -15335 0 0 -20456 143262 0 0 -102337 -143262 0 0 -20456 15335 0 0 -102336 -15335 0 0 -20456 143262 0 0 -102350 -143262 0 0 -20456 15335 0 0 -102336 -15335 0 0 -20456 143262 0 0 -102336 -143262 0 0 -20457 15335 0 0 -102350 -15335 0 0 -20456 143262 0 0 -102336 -143262 0 0 -20456 15335 0 0 -102336 -15335 0 0 -20456 143262 0 0 -102336 -143262 0 0 -20470 15335 0 0 -102336 -15335 0 0 -20457 143262 0 0 -102336 -143262 0 0 -20456 15335 0 0 -102336 -15335 0 0 -20470 143262 0 0 -102336 -143262 0 0 -20456 15335 0 0 -102336 -15335 0 0 -20456 143262 0 0 -102337 -143262 0 0 -20456 15335 0 0 -102350 -15335 0 0 -20456 143262 0 0 -102336 -143262 0 0 -20456 15335 0 0 -102336 -15335 0 0 -20456 143262 0 0 -102350 -143262 0 0 -20456 15335 0 0 -102337 -15335 0 0 -20456 143262 0 0 -102336 -143262 0 0 -20456 15335 0 0 -102350 -15335 0 0 -20456 143262 0 0 -102336 -143262 0 0 -20456 15335 0 0 -102336 -15335 0 0 -20457 143262 0 0 -102350 -143262 0 0 -20456 15335 0 0 -102336 -15335 0 0 -20456 143262 0 0 -102336 -231592 0 0 39874 -20470 0 0 -39874 -231592 0 0 39874 -20456 0 0 -39874 -231606 0 0 39874 -20456 0 0 -39874 -231592 0 0 39874 -20456 0 0 -39874 -231606 0 0 39874 -20456 0 0 -39874 -231592 0 0 39874 -20456 0 0 -39874 -231605 0 0 39874 -20457 0 0 -39874 -231591 0 0 39874 -20457 0 0 -39874 -231605 0 0 39874 -20456 0 0 -39874 -231592 0 0 39874 -20470 0 0 -39874 -231592 0 0 39874 -20456 0 0 -39874 -231606 0 0 39874 -20456 0 0 -39874 -231592 0 0 39874 -20456 0 0 -39874 -231606 0 0 39874 -20456 0 0 -39874 -231592 0 0 39874 -20456 0 0 -39874 -231606 0 0 39874 -20456 0 0 -39874 -231592 0 0 39874 -20456 0 0 -39874 -231605 0 0 39874 -20457 0 0 -39874 -231591 0 0 102336 137878 0 0 20456 -13757 0 0 102336 13757 0 0 20456 -137878 0 0 102350 137878 0 0 20457 -13757 0 0 102336 13757 0 0 20456 -137878 0 0 102336 137878 0 0 20456 -13757 0 0 102350 13757 0 0 20456 -137878 0 0 102336 137878 0 0 20456 -13757 0 0 102337 13757 0 0 20456 -137878 0 0 102350 137878 0 0 20456 -13757 0 0 102336 13757 0 0 20456 -137878 0 0 102336 137878 0 0 20456 -13757 0 0 102350 13757 0 0 20456 -137878 0 0 102337 137878 0 0 20456 -13757 0 0 102336 13757 0 0 20456 -137878 0 0 102336 137878 0 0 20470 -13757 0 0 102336 13757 0 0 20456 -137878 0 0 102336 137878 0 0 20457 -13757 0 0 102336 13757 0 0 20470 -137878 0 0 102336 137878 0 0 20456 -13757 0 0 102336 13757 0 0 20456 -137878 0 0 102336 137878 0 0 20456 -13757 0 0 102350 13757 0 0 20457 -137878 0 0 102336 137878 0 0 20456 -13757 0 0 102336 13757 0 0 20456 -137878 0 0 102350 137878 0 0 20456 -13757 0 0 102336 13757 0 0 20456 -137878 0 0 102337 137878 0 0 20456 -13757 0 0 102350 13757 0 0 20456 -137878 0 0 102336 137878 0 0 20456 -13757 0 0 102336 13757 0 0 20456 -137878 0 0 102336 137878 0 0 20470 -13757 0 0 102337 13757 0 0 20456 -137878 0 0 102336 137878 0 0 20456 -13757 0 0 102336 13757 0 0 20470 -137878 0 0 102336 137878 0 0 20456 -13757 0 0 102336 13757 0 0 20457 -137878 0 0 102336 137878 0 0 20456 -13757 0 0 102350 13757 0 0 20456 -876805 0 0 -20456 86434 0 0 -102350 -86434 0 0 -20456 214347 0 0 -102336 -214347 0 0 -20457 86434 0 0 -102336 -86434 0 0 -20456 214347 0 0 -102336 -214347 0 0 -20470 86434 0 0 -102336 -86434 0 0 -20456 214347 0 0 -102336 -214347 0 0 -20456 86434 0 0 -102337 -86434 0 0 -20470 214347 0 0 -102336 -214347 0 0 -20456 86434 0 0 -102336 -86434 0 0 -20456 214347 0 0 -102336 -214347 0 0 -20456 86434 0 0 -102350 -86434 0 0 -20456 214347 0 0 -102337 -214347 0 0 -20456 86434 0 0 -102336 -86434 0 0 -20456 214347 0 0 -102350 -214347 0 0 -20456 86434 0 0 -102336 -86434 0 0 -20456 214347 0 0 -102336 -214347 0 0 -20457 86434 0 0 -102350 -86434 0 0 -20456 214347 0 0 -102336 -214347 0 0 -20456 86434 0 0 -102336 -86434 0 0 -20456 214347 0 0 -102336 -214347 0 0 -20470 86434 0 0 -102336 -86434 0 0 -20457 214347 0 0 -102336 -214347 0 0 -20456 86434 0 0 -102336 -86434 0 0 -20470 214347 0 0 -102336 -214347 0 0 -20456 86434 0 0 -102336 -86434 0 0 -20456 214347 0 0 -102337 -214347 0 0 -20456 86434 0 0 -102350 -86434 0 0 -20456 214347 0 0 -102336 -214347 0 0 -20456 86434 0 0 -102336 -86434 0 0 -20456 214347 0 0 -102350 -214347 0 0 -20456 86434 0 0 -102337 -86434 0 0 -20456 214347 0 0 -102336 -214347 0 0 -20456 86434 0 0 -102350 -86434 0 0 -20456 214347 0 0 -102336 -214347 0 0 -20456 86434 0 0 -102336 -86434 0 0 -20457 214347 0 0 -102350 -214347 0 0 -20456 86434 0 0 -102336 -86434 0 0 -20456 214347 0 0 -102336 -231592 0 0 45258 -20456 0 0 -45258 -231606 0 0 45258 -20456 0 0 -45258 -231592 0 0 45258 -20456 0 0 -45258 -231606 0 0 45258 -20456 0 0 -45258 -231592 0 0 45258 -20456 0 0 -45258 -231606 0 0 45258 -20456 0 0 -45258 -231592 0 0 45258 -20456 0 0 -45258 -231605 0 0 45258 -20457 0 0 -45258 -231591 0 0 45258 -20470 0 0 -45258 -231592 0 0 45258 -20456 0 0 -45258 -181684 0c127111,-33093 152134,-20456 305818,-20456l0 -57715 20457 -5093 0 62808 231591 0 0 -102336 -70129 0c106308,-25190 77783,-20470 198056,-20470l0 -26117 20457 -4734 0 30851 231605 0 0 -82863 20456 -4470 0 87333 231592 0 0 -102336 -163123 0c134377,-28401 121159,-20457 287258,-20457l0 -39251 20456 -4124 0 43375 231592 0 0 -88634 20470 -3847 0 92481 231592 0 0 -102336 -179677 0c134765,-24691 149256,-20456 307604,-20456l0 -34573 20456 -3488 0 38061 231592 0 0 -76399 20456 -3280 0 79679 231606 0 0 -102336 -86641 0c88315,-13134 124190,-20456 210776,-20456l0 -10450 20456 -2934 0 13384 231592 0 0 -44719 20456 -2657 0 47376 231605 0 0 -76067 20457 -2367 0 78434 231591 0 0 -102350 -21328 0c155221,-15737 240727,-20456 401317,-20456l0 -18408 20456 -1799 0 20207 231592 0 0 -39113 20456 -1537 0 40650 231606 0 0 -56746 20456 -1342 0 58088 231592 0 0 -71431 20456 -1024 0 72455 231606 0 0 -83043 20456 -844 0 83887 231592 0 0 -91679 20456 -554 0 92233 231606 0 0 -97285 20456 -346 0 97631 231592 0 0 -99900 20470 -83 0 99983 231592 0 0 -99208 20456 180 0 99028 231605 0 0 -95167 20457 484 0 94683 231591 0 0 -87970 20457 747 0 87223 231605 0 0 -77493 20456 969 0 76524 231592 0 0 -63971 20456 1260 0 62711 231606 0 0 -47293 20456 1453 0 45840 231592 0 0 -27543 20456 1744 0 25799 231606 0 0 -4775 20456 2007 0 2768c73244,0 155677,12968 228810,20456l-104675 0 0 102350 231592 0 0 -87914 20456 2297 0 85617 231606 0 0 -57645 20456 2602 0 55043 231592 0 0 -24470 20456 2851 0 21619c135345,0 163940,1412 289541,20456l-161614 0 0 102336 231606 0 0 -91706 20456 3197 0 88509 231592 0 0 -51265 20456 3391 0 47874 231605 0 0 -8000 20457 3640 0 4360c47624,0 90281,11875 137712,20456l-13578 0 0 102336 231592 0 0 -61064 20456 3973 0 57091 231606 0 0 -10947 20456 4193 0 6754c51113,0 79389,9661 131636,20457l-3709 0 0 102336 231592 0 0 -53078 20456 4539 0 48539c157947,0 172798,-9758 303894,20470l-179759 0 0 102336 231592 0 0 -90088 20456 4831 0 85257 231606 0 0 -29314 20456 5038 0 24276c110308,0 79887,-4457 178915,20456l-50988 0 0 39874 -20456 0 0 -39874 -231606 0 0 39874 -20456 0 0 -39874 -231592 0 0 39874 -20470 0 0 -39874 -231592 0 0 39874 -20456 0 0 -39874 -231592 0 0 39874 -20470 0 0 -39874 -231592 0 0 39874 -20456 0 0 -39874 -231605 0 0 39874 -20457 0 0 -39874 -231591 0 0 39874 -20457 0 0 -39874 -231605 0 0 39874 -20456 0 0 -39874 -231592 0 0 39874 -20456 0 0 -39874 -231606 0 0 102336 171275 0 0 20456 -47140 0 0 102336 47140 0 0 20456 -171275 0 0 102350 171275 0 0 20457 -47140 0 0 102336 47140 0 0 20456 -171275 0 0 102336 171275 0 0 20456 -47140 0 0 102350 47140 0 0 20456 -171275 0 0 102336 171275 0 0 20456 -47140 0 0 102337 47140 0 0 20456 -171275 0 0 102350 171275 0 0 20456 -47140 0 0 102336 47140 0 0 20456 -171275 0 0 102336 171275 0 0 20456 -47140 0 0 102350 47140 0 0 20456 -171275 0 0 102337 171275 0 0 20456 -47140 0 0 102336 47140 0 0 20456 -171275 0 0 102336 171275 0 0 20470 -47140 0 0 102336 47140 0 0 20456 -171275 0 0 102336 171275 0 0 20457 -47140 0 0 102336 47140 0 0 20470 -171275 0 0 102336 171275 0 0 20456 -47140 0 0 102336 47140 0 0 20456 -171275 0 0 102336 171275 0 0 20456 -47140 0 0 102350 47140 0 0 20457 -171275 0 0 102336 171275 0 0 20456 -47140 0 0 102336 47140 0 0 20456 -171275 0 0 102350 171275 0 0 20456 -47140 0 0 102336 47140 0 0 20456 -171275 0 0 102337 171275 0 0 20456 -47140 0 0 102350 47140 0 0 20456 -171275 0 0 102336 171275 0 0 20456 -47140 0 0 102336 47140 0 0 20456 -171275 0 0 102336 171275 0 0 20470 -47140 0 0 102337 47140 0 0 20456 -171275 0 0 102336 171275 0 0 20456 -47140 0 0 102336 47140 0 0 20470 -171275 0 0 102336 171275 0 0 20456 -47140 0 0 102336 47140 0 0 20457 -171275 0 0 102336 171275 0 0 20456 -47140 0 0 102350 47140 0 0 20456 -4858 0zm-824557 -9702l819713 0 0 -1066 -47127 0 0 -121726 47127 0 0 -1066 -171261 0 0 -121727 171261 0 0 -1065 -47127 0 0 -121741 47127 0 0 -1066 -171261 0 0 -121726 171261 0 0 -1066 -47127 0 0 -121726 47127 0 0 -1066 -171261 0 0 -121740 171261 0 0 -1066 -47127 0 0 -121727 47127 0 0 -1065 -171261 0 0 -121727 171261 0 0 -1066 -47127 0 0 -121726 47127 0 0 -1080 -171261 0 0 -121726 171261 0 0 -1066 -47127 0 0 -121727 47127 0 0 -1065 -171261 0 0 -121727 171261 0 0 -1079 -47127 0 0 -121727 47127 0 0 -1066 -171261 0 0 -121726 171261 0 0 -1066 -47127 0 0 -121726 47127 0 0 -1080 -171261 0 0 -121727 171261 0 0 -1065 -47127 0 0 -121727 47127 0 0 -1066 -171261 0 0 -121726 171261 0 0 -1080 -47127 0 0 -121726 47127 0 0 -1066 -171261 0 0 -121726 171261 0 0 -1066 -47127 0 0 -121727 47127 0 0 -1065 -171261 0 0 -121741 171261 0 0 -1066 -47127 0 0 -121726 47127 0 0 -1066 -171261 0 0 -121726 171261 0 0 -1066 -47127 0 0 -121727 47127 0 0 -1079 -171261 0 0 -121727 171261 0 0 -1065 -47127 0 0 -121727 47127 0 0 -1066 -171261 0 0 -121726 171261 0 0 -1080 -47127 0 0 -121726 47127 0 0 -1066 -171261 0 0 -121727 171261 0 0 -1065 -47127 0 0 -121727 47127 0 0 -1079 -171261 0 0 -121727 171261 0 0 -1066 -47127 0 0 -121726 47127 0 0 -1066 -171261 0 0 -121726 171261 0 0 -1080 -47127 0 0 -121727 47127 0 0 -1065 -171261 0 0 -121727 171261 0 0 -1066 -47127 0 0 -121726 47127 0 0 -1066 -171261 0 0 -121740 250982 0 0 39874 1066 0 0 -39874 250996 0 0 39874 1065 0 0 -39874 250983 0 0 39874 1065 0 0 -39874 250996 0 0 39874 1066 0 0 -39874 250982 0 0 39874 1080 0 0 -39874 250982 0 0 39874 1066 0 0 -39874 250982 0 0 39874 1080 0 0 -39874 250982 0 0 39874 1066 0 0 -39874 250982 0 0 39874 1080 0 0 -39874 234553 0 -4249 -1066 -106169 0 0 -26394 -1080 -263 0 26657 -250982 0 0 -87291 -1066 -250 0 87541 -250996 0 0 -121726 104287 0 -4636 -1066 -223772 0 0 -50490 -1080 -249 0 50739 -250982 0 0 -104800 -1066 -221 0 105021 -250982 0 0 -121727 170874 0 -5176 -1065 -41577 0 0 -8595 -1066 -222 0 8817 -250982 0 0 -58822 -1066 -208 0 59030 -250996 0 0 -106378 -1066 -194 0 106572 -250982 0 0 -121741 167331 0 -5910 -1066 -33508 0 0 -5951 -1065 -194 0 6145 -250983 0 0 -49368 -1065 -180 0 49548 -250996 0 0 -89948 -1066 -167 0 90115 -250982 0 0 -121726 40926 0 -7350 -1066 -161504 0 0 -22892 -1065 -152 0 23044 -250996 0 0 -56220 -1066 -138 0 56358 -250982 0 0 -86669 -1066 -124 0 86793 -250996 0 0 -114045 -1066 -97 0 114142 -250982 0 0 -121726 176092 0 -10685 -1066 -37480 0 0 -3723 -1080 -97 0 3820 -250982 0 0 -26601 -1066 -83 0 26684 -250996 0 0 -46518 -1066 -83 0 46601 -250982 0 0 -63306 -1066 -69 0 63375 -250996 0 0 -76994 -1065 -56 0 77050 -250983 0 0 -87596 -1065 -55 0 87651 -250997 0 0 -94945 -1065 -14 0 94959 -250983 0 0 -99153 -1079 -14 0 99167 -250982 0 0 -99997 -1066 14 0 99983 -250982 0 0 -97506 -1080 28 0 97478 -250982 0 0 -91997 -1066 27 0 91970 -250996 0 0 -83513 -1066 55 0 83458 -250982 0 0 -71984 -1066 41 0 71943 -250996 0 0 -57465 -1066 83 0 57382 -250982 0 0 -39916 -1066 83 0 39833 -250996 0 0 -19321 -1065 110 0 19211 -207634 0 -10838 1066 90545 0 0 121726 -250983 0 0 -105408 -1065 110 0 105298 -250997 0 0 -77257 -1065 125 0 77132 -250983 0 0 -46061 -1065 139 0 45922 -250996 0 0 -11903 -1066 167 0 11736 -81728 0 -7266 1066 216921 0 0 121726 -250982 0 0 -116702 -1080 152 0 116550 -250982 0 0 -78032 -1066 166 0 77866 -250996 0 0 -36275 -1066 180 0 36095 -204810 0 -5841 1066 82724 0 0 121741 -250982 0 0 -90517 -1066 208 0 90309 -250982 0 0 -41286 -1080 207 0 41079 -199260 0 -5094 1065 80233 0 0 121727 -250996 0 0 -85008 -1065 221 0 84787 -250983 0 0 -28373 -1079 235 0 28138 -120260 0 -4512 1066 248907 0 0 121726 -250983 0 0 -121228 -1065 249 0 120979 -250997 0 0 -60123 -1065 263 0 59860 -235786 0 -4110 1066 115761 0 0 45258 1079 0 0 -45258 250983 0 0 45258 1065 0 0 -45258 250983 0 0 45258 1079 0 0 -45258 250983 0 0 45258 1065 0 0 -45258 250996 0 0 45258 1066 0 0 -45258 250982 0 0 45258 1066 0 0 -45258 250996 0 0 45258 1066 0 0 -45258 250982 0 0 45258 1066 0 0 -45258 250996 0 0 45258 1066 0 0 -45258 250982 0 0 45258 1080 0 0 -45258 250982 0 0 121740 -214361 0 0 1066 86434 0 0 121726 -86434 0 0 1066 214361 0 0 121727 -214361 0 0 1065 86434 0 0 121727 -86434 0 0 1080 214361 0 0 121726 -214361 0 0 1066 86434 0 0 121726 -86434 0 0 1066 214361 0 0 121727 -214361 0 0 1079 86434 0 0 121727 -86434 0 0 1065 214361 0 0 121727 -214361 0 0 1066 86434 0 0 121726 -86434 0 0 1080 214361 0 0 121726 -214361 0 0 1066 86434 0 0 121727 -86434 0 0 1065 214361 0 0 121727 -214361 0 0 1079 86434 0 0 121727 -86434 0 0 1066 214361 0 0 121726 -214361 0 0 1066 86434 0 0 121726 -86434 0 0 1066 214361 0 0 121741 -214361 0 0 1065 86434 0 0 121727 -86434 0 0 1066 214361 0 0 121726 -214361 0 0 1066 86434 0 0 121726 -86434 0 0 1080 214361 0 0 121726 -214361 0 0 1066 86434 0 0 121727 -86434 0 0 1065 214361 0 0 121727 -214361 0 0 1080 86434 0 0 121726 -86434 0 0 1066 214361 0 0 121726 -214361 0 0 1066 86434 0 0 121727 -86434 0 0 1079 214361 0 0 121727 -214361 0 0 1065 86434 0 0 121727 -86434 0 0 1066 214361 0 0 121726 -214361 0 0 1080 86434 0 0 121726 -86434 0 0 1066 214361 0 0 121727 -214361 0 0 1065 86434 0 0 121727 -86434 0 0 1066 214361 0 0 121740 -214361 0 0 1066 86434 0 0 121726 -86434 0 0 1066 214361 0 0 121726 -214361 0 0 1066 86434 0 0 121741 -86434 0 0 1065 214361 0 0 121727 -214361 0 0 1066 86434 0 0 121726 -86434 0 0 1066 857429 0 0 -1066 -13758 0 0 -121726 13758 0 0 -1066 -137893 0 0 -121727 137893 0 0 -1065 -13758 0 0 -121741 13758 0 0 -1066 -137893 0 0 -121726 137893 0 0 -1066 -13758 0 0 -121726 13758 0 0 -1066 -137893 0 0 -121740 137893 0 0 -1066 -13758 0 0 -121727 13758 0 0 -1065 -137893 0 0 -121727 137893 0 0 -1066 -13758 0 0 -121726 13758 0 0 -1080 -137893 0 0 -121726 137893 0 0 -1066 -13758 0 0 -121727 13758 0 0 -1065 -137893 0 0 -121727 137893 0 0 -1079 -13758 0 0 -121727 13758 0 0 -1066 -137893 0 0 -121726 137893 0 0 -1066 -13758 0 0 -121726 13758 0 0 -1080 -137893 0 0 -121727 137893 0 0 -1065 -13758 0 0 -121727 13758 0 0 -1066 -137893 0 0 -121726 137893 0 0 -1080 -13758 0 0 -121726 13758 0 0 -1066 -137893 0 0 -121726 137893 0 0 -1066 -13758 0 0 -121727 13758 0 0 -1065 -137893 0 0 -121741 137893 0 0 -1066 -13758 0 0 -121726 13758 0 0 -1066 -137893 0 0 -121726 137893 0 0 -1066 -13758 0 0 -121727 13758 0 0 -1079 -137893 0 0 -121727 137893 0 0 -1065 -13758 0 0 -121727 13758 0 0 -1066 -137893 0 0 -121726 137893 0 0 -1080 -13758 0 0 -121726 13758 0 0 -1066 -137893 0 0 -121727 137893 0 0 -1065 -13758 0 0 -121727 13758 0 0 -1079 -137893 0 0 -121727 137893 0 0 -1066 -13758 0 0 -121726 13758 0 0 -1066 -137893 0 0 -121726 137893 0 0 -1080 -13758 0 0 -121727 13758 0 0 -1065 -137893 0 0 -121727 137893 0 0 -1066 -13758 0 0 -121726 13758 0 0 -1066 -137893 0 0 -121740 250997 0 0 39874 1065 0 0 -39874 250983 0 0 39874 1065 0 0 -39874 250996 0 0 39874 1066 0 0 -39874 250982 0 0 39874 1066 0 0 -39874 250996 0 0 39874 1066 0 0 -39874 250982 0 0 39874 1066 0 0 -39874 250996 0 0 39874 1066 0 0 -39874 250982 0 0 39874 1080 0 0 -39874 250982 0 0 39874 1066 0 0 -39874 250982 0 0 39874 1079 0 0 -39874 250983 0 0 39874 1065 0 0 -39874 250997 0 0 39874 1065 0 0 -39874 250983 0 0 39874 1065 0 0 -39874 250996 0 0 39874 1066 0 0 -39874 250982 0 0 39874 1066 0 0 -39874 250996 0 0 39874 1066 0 0 -39874 250982 0 0 39874 1080 0 0 -39874 250982 0 0 39874 1066 0 0 -39874 250982 0 0 121740 -143262 0 0 1066 15349 0 0 121726 -15349 0 0 1066 143262 0 0 121727 -143262 0 0 1065 15349 0 0 121727 -15349 0 0 1080 143262 0 0 121726 -143262 0 0 1066 15349 0 0 121726 -15349 0 0 1066 143262 0 0 121727 -143262 0 0 1079 15349 0 0 121727 -15349 0 0 1065 143262 0 0 121727 -143262 0 0 1066 15349 0 0 121726 -15349 0 0 1080 143262 0 0 121726 -143262 0 0 1066 15349 0 0 121727 -15349 0 0 1065 143262 0 0 121727 -143262 0 0 1079 15349 0 0 121727 -15349 0 0 1066 143262 0 0 121726 -143262 0 0 1066 15349 0 0 121726 -15349 0 0 1066 143262 0 0 121741 -143262 0 0 1065 15349 0 0 121727 -15349 0 0 1066 143262 0 0 121726 -143262 0 0 1066 15349 0 0 121726 -15349 0 0 1080 143262 0 0 121726 -143262 0 0 1066 15349 0 0 121727 -15349 0 0 1065 143262 0 0 121727 -143262 0 0 1080 15349 0 0 121726 -15349 0 0 1066 143262 0 0 121726 -143262 0 0 1066 15349 0 0 121727 -15349 0 0 1079 143262 0 0 121727 -143262 0 0 1065 15349 0 0 121727 -15349 0 0 1066 143262 0 0 121726 -143262 0 0 1080 15349 0 0 121726 -15349 0 0 1066 143262 0 0 121727 -143262 0 0 1065 15349 0 0 121727 -15349 0 0 1066 143262 0 0 121740 -143262 0 0 1066 15349 0 0 121726 -15349 0 0 1066 143262 0 0 121726 -143262 0 0 1066 15349 0 0 121741 -15349 0 0 1065 143262 0 0 121727 -143262 0 0 1066 15349 0 0 121726 -15349 0 0 1066zm-4510899 -5270559l0 102350 231605 0 0 -102350 -231605 0zm6028889 245598l-231606 0 0 102336 231606 0 0 -102336zm632023 122793l-231592 0 0 102336 231592 0 0 -102336zm1018988 240297l-1066 -263 0 35736 1066 0 0 -35473zm-11257927 4671573l-342786 0 872 -20456 118654 0 0 -102350 -118876 0 0 -143249 118876 0 0 -102336 -118876 0 0 -143262 118876 0 0 -102336 -118876 0 0 -143248 118876 0 0 -102337 -118876 0 0 -143262 118876 0 0 -102336 -118876 0 0 -143248 118876 0 0 -102350 -179704 0 -24761 -20456 80330 0 0 -102337 -98530 0 124 -20456 222541 0 0 -102336 -221890 0 125 -20456 97630 0 0 -102350 -96980 0 138 -20456 220977 0 0 -102336 -220326 0 125 -20456 96066 0 0 -102336 -95416 0 125 -20457 219426 0 0 -102350 -218776 0 138 -20456 94503 0 0 -102336 -93852 0 125 -20456 217862 0 0 -102336 -217212 0 138 -20456 92939 0 0 -102336 -92288 0 125 -20470 216298 0 0 -102336 -215648 0 138 -20457 91375 0 0 -102336 -90738 0 152 -20456 214721 0 0 -102336 -214084 0 138 -20470 89811 0 0 -102336 -89174 0 138 -20456 213171 0 0 -102336 -212520 0 138 -20456 88247 0 0 -102337 -87596 0 124 -20456 211607 0 0 -102350 -210956 0 124 -20456 86697 0 0 -102336 -86046 0 138 -20456 210043 0 0 -102336 -209392 0 124 -20456 85133 0 0 -102350 -84482 0 138 -20456 208479 0 0 -102337 -207842 0 138 -20456 83569 0 0 -102336 -82918 0 124 -20456 206929 0 0 -102350 -206278 0 138 -20456 82005 0 0 -102336 -81354 0 124 -20456 205365 0 0 -102336 -131595 0 0 -20457 7460 0 0 -102350 -7460 0 0 -20456 131595 0 0 -102031 1065 -305 -249 0c73299,-20594 55085,-20456 127111,-20456l0 -15128 20456 -5716 0 20844 79721 0 0 20456 -207648 0 0 102336 207648 0 0 20456 -79721 0 0 102350 79721 0 0 20457 -207648 0 0 102336 207648 0 0 20456 -79721 0 0 102336 79721 0 0 20456 -207648 0 0 102350 207648 0 0 20456 -79721 0 0 102336 79721 0 0 20456 -207648 0 0 102337 207648 0 0 20456 -79721 0 0 102350 79721 0 0 20456 -207648 0 0 102336 207648 0 0 20456 -79721 0 0 102336 79721 0 0 20456 -207648 0 0 102350 207648 0 0 20456 -79721 0 0 102337 79721 0 0 20456 -207648 0 0 102336 207648 0 0 20456 -79721 0 0 102336 79721 0 0 20470 -207648 0 0 102336 207648 0 0 20456 -79721 0 0 102336 79721 0 0 20457 -207648 0 0 102336 207648 0 0 20470 -79721 0 0 102336 79721 0 0 20456 -207648 0 0 102336 207648 0 0 20456 -79721 0 0 102336 79721 0 0 20456 -207648 0 0 102350 207648 0 0 20457 -79721 0 0 102336 79721 0 0 20456 -207648 0 0 102336 207648 0 0 20456 -79721 0 0 102350 79721 0 0 20456 -207648 0 0 102336 207648 0 0 20456 -79721 0 0 102337 79721 0 0 20456 -207648 0 0 102350 207648 0 0 20456 -79721 0 0 102336 79721 0 0 20456 -207648 0 0 102336 207648 0 0 20456 -79721 0 0 102336 79721 0 0 20470 -207648 0 0 102337 207648 0 0 20456 -79721 0 0 102336 79721 0 0 20456 -207648 0 0 102336 207648 0 0 20470 -79721 0 0 102336 79721 0 0 20456 -207648 0 0 102336 207648 0 0 20457 -79721 0 0 102336 79721 0 0 20456 -207648 0 0 102350 207648 0 0 20456 -4844 0zm-332697 -9702l327839 0 0 -1066 -207634 0 0 -121726 207634 0 0 -1066 -79721 0 0 -121727 79721 0 0 -1065 -207634 0 0 -121741 207634 0 0 -1066 -79721 0 0 -121726 79721 0 0 -1066 -207634 0 0 -121726 207634 0 0 -1066 -79721 0 0 -121740 79721 0 0 -1066 -207634 0 0 -121727 207634 0 0 -1065 -79721 0 0 -121727 79721 0 0 -1066 -207634 0 0 -121726 207634 0 0 -1080 -79721 0 0 -121726 79721 0 0 -1066 -207634 0 0 -121727 207634 0 0 -1065 -79721 0 0 -121727 79721 0 0 -1079 -207634 0 0 -121727 207634 0 0 -1066 -79721 0 0 -121726 79721 0 0 -1066 -207634 0 0 -121726 207634 0 0 -1080 -79721 0 0 -121727 79721 0 0 -1065 -207634 0 0 -121727 207634 0 0 -1066 -79721 0 0 -121726 79721 0 0 -1080 -207634 0 0 -121726 207634 0 0 -1066 -79721 0 0 -121726 79721 0 0 -1066 -207634 0 0 -121727 207634 0 0 -1065 -79721 0 0 -121741 79721 0 0 -1066 -207634 0 0 -121726 207634 0 0 -1066 -79721 0 0 -121726 79721 0 0 -1066 -207634 0 0 -121727 207634 0 0 -1079 -79721 0 0 -121727 79721 0 0 -1065 -207634 0 0 -121727 207634 0 0 -1066 -79721 0 0 -121726 79721 0 0 -1080 -207634 0 0 -121726 207634 0 0 -1066 -79721 0 0 -121727 79721 0 0 -1065 -207634 0 0 -121727 207634 0 0 -1079 -79721 0 0 -121727 79721 0 0 -1066 -207634 0 0 -121726 207634 0 0 -1066 -79721 0 0 -121726 79721 0 0 -1080 -207634 0 0 -121727 207634 0 0 -1065 -79721 0 0 -121727 79721 0 0 -1066 -207634 0 0 -104730 -1066 304 0 104426 -131609 0 0 1066 7474 0 0 121727 -7474 0 0 1065 131609 0 0 121727 -205461 0 -14 1080 81340 0 0 121726 -82115 0 0 1066 206250 0 0 121726 -207025 0 -14 1066 82904 0 0 121727 -83679 0 0 1079 207814 0 0 121727 -208589 0 0 1065 84454 0 0 121727 -85229 0 -14 1066 209378 0 0 121726 -210153 0 0 1080 86018 0 0 121726 -86793 0 -14 1066 210942 0 0 121727 -211703 0 -14 1065 87582 0 0 121727 -88357 0 0 1079 212492 0 0 121727 -213267 0 -14 1066 89146 0 0 121726 -89907 0 -14 1066 214056 0 0 121726 -214831 0 0 1066 90696 0 0 121741 -91471 0 -14 1065 215620 0 0 121727 -216395 0 0 1066 92260 0 0 121726 -93049 0 0 1066 217184 0 0 121726 -217959 0 -14 1080 93838 0 0 121726 -94613 0 0 1066 218748 0 0 121727 -219523 0 -14 1065 95402 0 0 121727 -96163 0 -14 1080 220312 0 0 121726 -221087 0 0 1066 96952 0 0 121726 -97727 0 -14 1066 221876 0 0 121727 -222637 0 -14 1079 98516 0 0 121727 -63098 0 1287 1065 185946 0 0 121727 -118889 0 0 1066 246802 0 0 121726 -246802 0 0 1080 118889 0 0 121726 -118889 0 0 1066 246802 0 0 121727 -246802 0 0 1065 118889 0 0 121727 -118889 0 0 1066 246802 0 0 121740 -246802 0 0 1066 118889 0 0 121726 -118889 0 0 1066 246802 0 0 121726 -246802 0 0 1066 118889 0 0 121741 -118889 0 0 1065 246802 0 0 121727 -246802 0 0 1066 118889 0 0 121726 -119097 0 -42 1066zm180521 -4543466l147318 0 0 -1066 -79721 0 0 -17812 -1066 304 0 17508 -62725 0 -3806 1066zm308891 -72704l0 -21729 20456 -5440 0 32027 -20456 0 0 -4858zm9702 -14297l0 9453 1066 0 0 -9730 -1066 277zm11709000 4517363l-230526 0 0 102350 230526 0 0 -102350zm-9053548 102350l231592 0 0 -102350 -231592 0 0 102350zm236436 9688l-246138 0 0 -121726 250996 0 0 121726 -4858 0zm15612 -9688l231605 0 0 -102350 -231605 0 0 102350zm236450 9688l-246139 0 0 -121726 250983 0 0 121726 -4844 0zm15612 -9688l231591 0 0 -102350 -231591 0 0 102350zm236449 9688l-246152 0 0 -121726 250997 0 0 121726 -4845 0zm4552601 -9688l231606 0 0 -102350 -231606 0 0 102350zm236450 9688l-246138 0 0 -121726 250982 0 0 121726 -4844 0zm15612 -9688l231592 0 0 -102350 -231592 0 0 102350zm236450 9688l-246152 0 0 -121726 250996 0 0 121726 -4844 0zm15598 -9688l231605 0 0 -102350 -231605 0 0 102350zm236450 9688l-246139 0 0 -121726 250983 0 0 121726 -4844 0zm3019828 -255287l0 -102336 -230526 0 0 102336 230526 0zm-9053548 -102336l0 102336 231592 0 0 -102336 -231592 0zm-9702 107181l0 -116883 250996 0 0 121741 -250996 0 0 -4858zm261750 -107181l0 102336 231605 0 0 -102336 -231605 0zm-9689 107181l0 -116883 250983 0 0 121741 -250983 0 0 -4858zm261751 -107181l0 102336 231591 0 0 -102336 -231591 0zm-9703 107181l0 -116883 250997 0 0 121741 -250997 0 0 -4858zm4798753 -107181l0 102336 231606 0 0 -102336 -231606 0zm-9688 107181l0 -116883 250982 0 0 121741 -250982 0 0 -4858zm261750 -107181l0 102336 231592 0 0 -102336 -231592 0zm-9702 107181l0 -116883 250996 0 0 121741 -250996 0 0 -4858zm261750 -107181l0 102336 231605 0 0 -102336 -231605 0zm-9689 107181l0 -116883 250983 0 0 121741 -250983 0 0 -4858zm3265967 -250443l0 -102336 -230526 0 0 102336 230526 0zm-9053548 -102336l0 102336 231592 0 0 -102336 -231592 0zm-9702 107194l0 -116882 250996 0 0 121726 -250996 0 0 -4844zm261750 -107194l0 102336 231605 0 0 -102336 -231605 0zm-9689 107194l0 -116882 250983 0 0 121726 -250983 0 0 -4844zm261751 -107194l0 102336 231591 0 0 -102336 -231591 0zm-9703 107194l0 -116882 250997 0 0 121726 -250997 0 0 -4844zm4798753 -107194l0 102336 231606 0 0 -102336 -231606 0zm-9688 107194l0 -116882 250982 0 0 121726 -250982 0 0 -4844zm261750 -107194l0 102336 231592 0 0 -102336 -231592 0zm-9702 107194l0 -116882 250996 0 0 121726 -250996 0 0 -4844zm261750 -107194l0 102336 231605 0 0 -102336 -231605 0zm-9689 107194l0 -116882 250983 0 0 121726 -250983 0 0 -4844zm3265967 -250442l0 -102337 -230526 0 0 102337 230526 0zm-9053548 -102337l0 102337 231592 0 0 -102337 -231592 0zm-9702 107181l0 -116883 250996 0 0 121727 -250996 0 0 -4844zm261750 -107181l0 102337 231605 0 0 -102337 -231605 0zm-9689 107181l0 -116883 250983 0 0 121727 -250983 0 0 -4844zm261751 -107181l0 102337 231591 0 0 -102337 -231591 0zm-9703 107181l0 -116883 250997 0 0 121727 -250997 0 0 -4844zm4798753 -107181l0 102337 231606 0 0 -102337 -231606 0zm-9688 107181l0 -116883 250982 0 0 121727 -250982 0 0 -4844zm261750 -107181l0 102337 231592 0 0 -102337 -231592 0zm-9702 107181l0 -116883 250996 0 0 121727 -250996 0 0 -4844zm261750 -107181l0 102337 231605 0 0 -102337 -231605 0zm-9689 107181l0 -116883 250983 0 0 121727 -250983 0 0 -4844zm3265967 -250443l0 -102336 -230526 0 0 102336 230526 0zm-9053548 -102336l0 102336 231592 0 0 -102336 -231592 0zm-9702 107180l0 -116868 250996 0 0 121726 -250996 0 0 -4858zm261750 -107180l0 102336 231605 0 0 -102336 -231605 0zm-9689 107180l0 -116868 250983 0 0 121726 -250983 0 0 -4858zm261751 -107180l0 102336 231591 0 0 -102336 -231591 0zm-9703 107180l0 -116868 250997 0 0 121726 -250997 0 0 -4858zm4798753 -107180l0 102336 231606 0 0 -102336 -231606 0zm-9688 107180l0 -116868 250982 0 0 121726 -250982 0 0 -4858zm261750 -107180l0 102336 231592 0 0 -102336 -231592 0zm-9702 107180l0 -116868 250996 0 0 121726 -250996 0 0 -4858zm261750 -107180l0 102336 231605 0 0 -102336 -231605 0zm-9689 107180l0 -116868 250983 0 0 121726 -250983 0 0 -4858zm3265967 -250428l0 -102350 -230526 0 0 102350 230526 0zm-9053548 -102350l0 102350 231592 0 0 -102350 -231592 0zm-9702 107194l0 -116883 250996 0 0 121727 -250996 0 0 -4844zm261750 -107194l0 102350 231605 0 0 -102350 -231605 0zm-9689 107194l0 -116883 250983 0 0 121727 -250983 0 0 -4844zm261751 -107194l0 102350 231591 0 0 -102350 -231591 0zm-9703 107194l0 -116883 250997 0 0 121727 -250997 0 0 -4844zm4798753 -107194l0 102350 231606 0 0 -102350 -231606 0zm-9688 107194l0 -116883 250982 0 0 121727 -250982 0 0 -4844zm261750 -107194l0 102350 231592 0 0 -102350 -231592 0zm-9702 107194l0 -116883 250996 0 0 121727 -250996 0 0 -4844zm261750 -107194l0 102350 231605 0 0 -102350 -231605 0zm-9689 107194l0 -116883 250983 0 0 121727 -250983 0 0 -4844zm3265967 -250443l0 -102336 -230526 0 0 102336 230526 0zm-9053548 -102336l0 102336 231592 0 0 -102336 -231592 0zm-9702 107180l0 -116882 250996 0 0 121727 -250996 0 0 -4845zm261750 -107180l0 102336 231605 0 0 -102336 -231605 0zm-9689 107180l0 -116882 250983 0 0 121727 -250983 0 0 -4845zm261751 -107180l0 102336 231591 0 0 -102336 -231591 0zm-9703 107180l0 -116882 250997 0 0 121727 -250997 0 0 -4845zm4798753 -107180l0 102336 231606 0 0 -102336 -231606 0zm-9688 107180l0 -116882 250982 0 0 121727 -250982 0 0 -4845zm261750 -107180l0 102336 231592 0 0 -102336 -231592 0zm-9702 107180l0 -116882 250996 0 0 121727 -250996 0 0 -4845zm261750 -107180l0 102336 231605 0 0 -102336 -231605 0zm-9689 107180l0 -116882 250983 0 0 121727 -250983 0 0 -4845zm3265967 -250442l0 -102336 -230526 0 0 102336 230526 0zm-9053548 -102336l0 102336 231592 0 0 -102336 -231592 0zm-9702 107194l0 -116882 250996 0 0 121726 -250996 0 0 -4844zm261750 -107194l0 102336 231605 0 0 -102336 -231605 0zm-9689 107194l0 -116882 250983 0 0 121726 -250983 0 0 -4844zm261751 -107194l0 102336 231591 0 0 -102336 -231591 0zm-9703 107194l0 -116882 250997 0 0 121726 -250997 0 0 -4844zm4798753 -107194l0 102336 231606 0 0 -102336 -231606 0zm-9688 107194l0 -116882 250982 0 0 121726 -250982 0 0 -4844zm261750 -107194l0 102336 231592 0 0 -102336 -231592 0zm-9702 107194l0 -116882 250996 0 0 121726 -250996 0 0 -4844zm261750 -107194l0 102336 231605 0 0 -102336 -231605 0zm-9689 107194l0 -116882 250983 0 0 121726 -250983 0 0 -4844zm3265967 -250443l0 -102350 -230526 0 0 102350 230526 0zm-9053548 -102350l0 102350 231592 0 0 -102350 -231592 0zm-9702 107195l0 -116883 250996 0 0 121727 -250996 0 0 -4844zm261750 -107195l0 102350 231605 0 0 -102350 -231605 0zm-9689 107195l0 -116883 250983 0 0 121727 -250983 0 0 -4844zm261751 -107195l0 102350 231591 0 0 -102350 -231591 0zm-9703 107195l0 -116883 250997 0 0 121727 -250997 0 0 -4844zm4798753 -107195l0 102350 231606 0 0 -102350 -231606 0zm-9688 107195l0 -116883 250982 0 0 121727 -250982 0 0 -4844zm261750 -107195l0 102350 231592 0 0 -102350 -231592 0zm-9702 107195l0 -116883 250996 0 0 121727 -250996 0 0 -4844zm261750 -107195l0 102350 231605 0 0 -102350 -231605 0zm-9689 107195l0 -116883 250983 0 0 121727 -250983 0 0 -4844zm3265967 -250443l0 -102336 -230526 0 0 102336 230526 0zm-9053548 -102336l0 102336 231592 0 0 -102336 -231592 0zm-9702 107180l0 -116882 250996 0 0 121726 -250996 0 0 -4844zm261750 -107180l0 102336 231605 0 0 -102336 -231605 0zm-9689 107180l0 -116882 250983 0 0 121726 -250983 0 0 -4844zm261751 -107180l0 102336 231591 0 0 -102336 -231591 0zm-9703 107180l0 -116882 250997 0 0 121726 -250997 0 0 -4844zm4798753 -107180l0 102336 231606 0 0 -102336 -231606 0zm-9688 107180l0 -116882 250982 0 0 121726 -250982 0 0 -4844zm261750 -107180l0 102336 231592 0 0 -102336 -231592 0zm-9702 107180l0 -116882 250996 0 0 121726 -250996 0 0 -4844zm261750 -107180l0 102336 231605 0 0 -102336 -231605 0zm-9689 107180l0 -116882 250983 0 0 121726 -250983 0 0 -4844zm3265967 -250442l0 -102336 -230526 0 0 102336 230526 0zm-9053548 -102336l0 102336 231592 0 0 -102336 -231592 0zm-9702 107194l0 -116883 250996 0 0 121727 -250996 0 0 -4844zm261750 -107194l0 102336 231605 0 0 -102336 -231605 0zm-9689 107194l0 -116883 250983 0 0 121727 -250983 0 0 -4844zm261751 -107194l0 102336 231591 0 0 -102336 -231591 0zm-9703 107194l0 -116883 250997 0 0 121727 -250997 0 0 -4844zm4798753 -107194l0 102336 231606 0 0 -102336 -231606 0zm-9688 107194l0 -116883 250982 0 0 121727 -250982 0 0 -4844zm261750 -107194l0 102336 231592 0 0 -102336 -231592 0zm-9702 107194l0 -116883 250996 0 0 121727 -250996 0 0 -4844zm261750 -107194l0 102336 231605 0 0 -102336 -231605 0zm-9689 107194l0 -116883 250983 0 0 121727 -250983 0 0 -4844zm3265967 -250443l0 -102336 -230526 0 0 102336 230526 0zm-9053548 -102336l0 102336 231592 0 0 -102336 -231592 0zm-9702 107180l0 -116882 250996 0 0 121726 -250996 0 0 -4844zm261750 -107180l0 102336 231605 0 0 -102336 -231605 0zm-9689 107180l0 -116882 250983 0 0 121726 -250983 0 0 -4844zm261751 -107180l0 102336 231591 0 0 -102336 -231591 0zm-9703 107180l0 -116882 250997 0 0 121726 -250997 0 0 -4844zm4798753 -107180l0 102336 231606 0 0 -102336 -231606 0zm-9688 107180l0 -116882 250982 0 0 121726 -250982 0 0 -4844zm261750 -107180l0 102336 231592 0 0 -102336 -231592 0zm-9702 107180l0 -116882 250996 0 0 121726 -250996 0 0 -4844zm261750 -107180l0 102336 231605 0 0 -102336 -231605 0zm-9689 107180l0 -116882 250983 0 0 121726 -250983 0 0 -4844zm3265967 -250442l0 -102336 -230526 0 0 102336 230526 0zm-9053548 -102336l0 102336 231592 0 0 -102336 -231592 0zm-9702 107180l0 -116869 250996 0 0 121727 -250996 0 0 -4858zm261750 -107180l0 102336 231605 0 0 -102336 -231605 0zm-9689 107180l0 -116869 250983 0 0 121727 -250983 0 0 -4858zm261751 -107180l0 102336 231591 0 0 -102336 -231591 0zm-9703 107180l0 -116869 250997 0 0 121727 -250997 0 0 -4858zm4798753 -107180l0 102336 231606 0 0 -102336 -231606 0zm-9688 107180l0 -116869 250982 0 0 121727 -250982 0 0 -4858zm261750 -107180l0 102336 231592 0 0 -102336 -231592 0zm-9702 107180l0 -116869 250996 0 0 121727 -250996 0 0 -4858zm261750 -107180l0 102336 231605 0 0 -102336 -231605 0zm-9689 107180l0 -116869 250983 0 0 121727 -250983 0 0 -4858zm3265967 -250429l0 -102350 -230526 0 0 102350 230526 0zm-9053548 -102350l0 102350 231592 0 0 -102350 -231592 0zm-9702 107194l0 -116882 250996 0 0 121727 -250996 0 0 -4845zm261750 -107194l0 102350 231605 0 0 -102350 -231605 0zm-9689 107194l0 -116882 250983 0 0 121727 -250983 0 0 -4845zm261751 -107194l0 102350 231591 0 0 -102350 -231591 0zm-9703 107194l0 -116882 250997 0 0 121727 -250997 0 0 -4845zm4798753 -107194l0 102350 231606 0 0 -102350 -231606 0zm-9688 107194l0 -116882 250982 0 0 121727 -250982 0 0 -4845zm261750 -107194l0 102350 231592 0 0 -102350 -231592 0zm-9702 107194l0 -116882 250996 0 0 121727 -250996 0 0 -4845zm261750 -107194l0 102350 231605 0 0 -102350 -231605 0zm-9689 107194l0 -116882 250983 0 0 121727 -250983 0 0 -4845zm3265967 -250442l0 -102336 -230526 0 0 102336 230526 0zm-9053548 -102336l0 102336 231592 0 0 -102336 -231592 0zm-9702 107180l0 -116882 250996 0 0 121726 -250996 0 0 -4844zm261750 -107180l0 102336 231605 0 0 -102336 -231605 0zm-9689 107180l0 -116882 250983 0 0 121726 -250983 0 0 -4844zm261751 -107180l0 102336 231591 0 0 -102336 -231591 0zm-9703 107180l0 -116882 250997 0 0 121726 -250997 0 0 -4844zm4798753 -107180l0 102336 231606 0 0 -102336 -231606 0zm-9688 107180l0 -116882 250982 0 0 121726 -250982 0 0 -4844zm261750 -107180l0 102336 231592 0 0 -102336 -231592 0zm-9702 107180l0 -116882 250996 0 0 121726 -250996 0 0 -4844zm261750 -107180l0 102336 231605 0 0 -102336 -231605 0zm-9689 107180l0 -116882 250983 0 0 121726 -250983 0 0 -4844zm3265967 -250442l0 -102337 -230526 0 0 102337 230526 0zm-9053548 -102337l0 102337 231592 0 0 -102337 -231592 0zm-9702 107181l0 -116869 250996 0 0 121727 -250996 0 0 -4858zm261750 -107181l0 102337 231605 0 0 -102337 -231605 0zm-9689 107181l0 -116869 250983 0 0 121727 -250983 0 0 -4858zm261751 -107181l0 102337 231591 0 0 -102337 -231591 0zm-9703 107181l0 -116869 250997 0 0 121727 -250997 0 0 -4858zm4798753 -107181l0 102337 231606 0 0 -102337 -231606 0zm-9688 107181l0 -116869 250982 0 0 121727 -250982 0 0 -4858zm261750 -107181l0 102337 231592 0 0 -102337 -231592 0zm-9702 107181l0 -116869 250996 0 0 121727 -250996 0 0 -4858zm261750 -107181l0 102337 231605 0 0 -102337 -231605 0zm-9689 107181l0 -116869 250983 0 0 121727 -250983 0 0 -4858zm3265967 -250429l0 -102350 -230526 0 0 102350 230526 0zm-9053548 -102350l0 102350 231592 0 0 -102350 -231592 0zm-9702 107194l0 -116882 250996 0 0 121726 -250996 0 0 -4844zm261750 -107194l0 102350 231605 0 0 -102350 -231605 0zm-9689 107194l0 -116882 250983 0 0 121726 -250983 0 0 -4844zm261751 -107194l0 102350 231591 0 0 -102350 -231591 0zm-9703 107194l0 -116882 250997 0 0 121726 -250997 0 0 -4844zm4798753 -107194l0 102350 231606 0 0 -102350 -231606 0zm-9688 107194l0 -116882 250982 0 0 121726 -250982 0 0 -4844zm261750 -107194l0 102350 231592 0 0 -102350 -231592 0zm-9702 107194l0 -116882 250996 0 0 121726 -250996 0 0 -4844zm261750 -107194l0 102350 231605 0 0 -102350 -231605 0zm-9689 107194l0 -116882 250983 0 0 121726 -250983 0 0 -4844zm3265967 -250442l0 -102336 -230526 0 0 102336 230526 0zm-9053548 -102336l0 102336 231592 0 0 -102336 -231592 0zm-9702 107180l0 -116883 250996 0 0 121727 -250996 0 0 -4844zm261750 -107180l0 102336 231605 0 0 -102336 -231605 0zm-9689 107180l0 -116883 250983 0 0 121727 -250983 0 0 -4844zm261751 -107180l0 102336 231591 0 0 -102336 -231591 0zm-9703 107180l0 -116883 250997 0 0 121727 -250997 0 0 -4844zm4798753 -107180l0 102336 231606 0 0 -102336 -231606 0zm-9688 107180l0 -116883 250982 0 0 121727 -250982 0 0 -4844zm261750 -107180l0 102336 231592 0 0 -102336 -231592 0zm-9702 107180l0 -116883 250996 0 0 121727 -250996 0 0 -4844zm261750 -107180l0 102336 231605 0 0 -102336 -231605 0zm-9689 107180l0 -116883 250983 0 0 121727 -250983 0 0 -4844zm-5787581 -352779l0 102336 231592 0 0 -102336 -231592 0zm-9702 107194l0 -116882 250996 0 0 121726 -250996 0 0 -4844zm261750 -107194l0 102336 231605 0 0 -102336 -231605 0zm-9689 107194l0 -116882 250983 0 0 121726 -250983 0 0 -4844zm261751 -107194l0 102336 231591 0 0 -102336 -231591 0zm-9703 107194l0 -116882 250997 0 0 121726 -250997 0 0 -4844zm4798753 -107194l0 102336 231606 0 0 -102336 -231606 0zm-9688 107194l0 -116882 250982 0 0 121726 -250982 0 0 -4844zm261750 -107194l0 102336 231592 0 0 -102336 -231592 0zm-9702 107194l0 -116882 250996 0 0 121726 -250996 0 0 -4844zm261750 -107194l0 102336 231605 0 0 -102336 -231605 0zm-9689 107194l0 -116882 250983 0 0 121726 -250983 0 0 -4844zm-7804034 -352778l0 102336 231605 0 0 -102336 -231605 0zm252061 0l0 102336 231592 0 0 -102336 -231592 0zm-9702 107180l0 -116882 250996 0 0 121726 -250996 0 0 -4844zm261750 -107180l0 102336 231606 0 0 -102336 -231606 0zm-9688 107180l0 -116882 250982 0 0 121726 -250982 0 0 -4844zm261750 -107180l0 102336 231592 0 0 -102336 -231592 0zm-9688 107180l0 -116882 250982 0 0 121726 -250982 0 0 -4844zm261750 -107180l0 102336 231592 0 0 -102336 -231592 0zm-9702 107180l0 -116882 250982 0 0 121726 -250982 0 0 -4844zm261750 -107180l0 102336 231606 0 0 -102336 -231606 0zm-9688 107180l0 -116882 250982 0 0 121726 -250982 0 0 -4844zm261750 -107180l0 102336 231592 0 0 -102336 -231592 0zm-9702 107180l0 -116882 250996 0 0 121726 -250996 0 0 -4844zm261750 -107180l0 102336 231606 0 0 -102336 -231606 0zm-9688 107180l0 -116882 250982 0 0 121726 -250982 0 0 -4844zm261750 -107180l0 102336 231592 0 0 -102336 -231592 0zm-9702 107180l0 -116882 250996 0 0 121726 -250996 0 0 -4844zm261750 -107180l0 102336 231605 0 0 -102336 -231605 0zm-9689 107180l0 -116882 250983 0 0 121726 -250983 0 0 -4844zm261751 -107180l0 102336 231591 0 0 -102336 -231591 0zm-9703 107180l0 -116882 250997 0 0 121726 -250997 0 0 -4844zm261751 -107180l0 102336 231605 0 0 -102336 -231605 0zm-9689 107180l0 -116882 250983 0 0 121726 -250983 0 0 -4844zm261750 -107180l0 102336 231592 0 0 -102336 -231592 0zm-9688 107180l0 -116882 250982 0 0 121726 -250982 0 0 -4844zm261750 -107180l0 102336 231592 0 0 -102336 -231592 0zm-9702 107180l0 -116882 250982 0 0 121726 -250982 0 0 -4844zm261750 -107180l0 102336 231606 0 0 -102336 -231606 0zm-9688 107180l0 -116882 250982 0 0 121726 -250982 0 0 -4844zm261750 -107180l0 102336 231592 0 0 -102336 -231592 0zm-9702 107180l0 -116882 250996 0 0 121726 -250996 0 0 -4844zm261750 -107180l0 102336 231606 0 0 -102336 -231606 0zm-9688 107180l0 -116882 250982 0 0 121726 -250982 0 0 -4844zm261750 -107180l0 102336 231592 0 0 -102336 -231592 0zm-9702 107180l0 -116882 250996 0 0 121726 -250996 0 0 -4844zm261750 -107180l0 102336 231606 0 0 -102336 -231606 0zm-9688 107180l0 -116882 250982 0 0 121726 -250982 0 0 -4844zm261750 -107180l0 102336 231592 0 0 -102336 -231592 0zm-9702 107180l0 -116882 250996 0 0 121726 -250996 0 0 -4844zm261750 -107180l0 102336 231605 0 0 -102336 -231605 0zm-9689 107180l0 -116882 250983 0 0 121726 -250983 0 0 -4844zm261751 -107180l0 102336 231591 0 0 -102336 -231591 0zm-9689 107180l0 -116882 250983 0 0 121726 -250983 0 0 -4844zm261750 -107180l0 102336 231592 0 0 -102336 -231592 0zm-9702 107180l0 -116882 250983 0 0 121726 -250983 0 0 -4844zm261750 -107180l0 102336 231592 0 0 -102336 -231592 0zm-9688 107180l0 -116882 250982 0 0 121726 -250982 0 0 -4844zm261750 -107180l0 102336 231592 0 0 -102336 -231592 0zm-9702 107180l0 -116882 250982 0 0 121726 -250982 0 0 -4844zm261750 -107180l0 102336 231606 0 0 -102336 -231606 0zm-9688 107180l0 -116882 250982 0 0 121726 -250982 0 0 -4844zm261750 -107180l0 102336 231592 0 0 -102336 -231592 0zm-9702 107180l0 -116882 250996 0 0 121726 -250996 0 0 -4844zm261750 -107180l0 102336 231606 0 0 -102336 -231606 0zm-9688 107180l0 -116882 250982 0 0 121726 -250982 0 0 -4844zm261750 -107180l0 102336 231592 0 0 -102336 -231592 0zm-9702 107180l0 -116882 250996 0 0 121726 -250996 0 0 -4844zm261750 -107180l0 102336 231606 0 0 -102336 -231606 0zm-9688 107180l0 -116882 250982 0 0 121726 -250982 0 0 -4844zm261750 -107180l0 102336 231592 0 0 -102336 -231592 0zm-9702 107180l0 -116882 250996 0 0 121726 -250996 0 0 -4844zm261750 -107180l0 102336 231605 0 0 -102336 -231605 0zm-9689 107180l0 -116882 250983 0 0 121726 -250983 0 0 -4844zm261751 -107180l0 102336 231591 0 0 -102336 -231591 0zm-9689 107180l0 -116882 250983 0 0 121726 -250983 0 0 -4844zm261750 -107180l0 102336 231592 0 0 -102336 -231592 0zm-9702 107180l0 -116882 250983 0 0 121726 -250983 0 0 -4844zm261750 -107180l0 102336 231606 0 0 -102336 -231606 0zm-9688 107180l0 -116882 250982 0 0 121726 -250982 0 0 -4844zm261750 -107180l0 102336 231592 0 0 -102336 -231592 0zm-9702 107180l0 -116882 250996 0 0 121726 -250996 0 0 -4844zm261750 -107180l0 102336 231606 0 0 -102336 -231606 0zm-9688 107180l0 -116882 250982 0 0 121726 -250982 0 0 -4844zm261750 -107180l0 102336 231592 0 0 -102336 -231592 0zm-9702 107180l0 -116882 250996 0 0 121726 -250996 0 0 -4844zm261750 -107180l0 102336 231606 0 0 -102336 -231606 0zm-9688 107180l0 -116882 250982 0 0 121726 -250982 0 0 -4844zm-8308145 -352779l0 102336 231606 0 0 -102336 -231606 0zm-9688 107181l0 -116883 250982 0 0 121741 -250982 0 0 -4858zm261750 -107181l0 102336 231592 0 0 -102336 -231592 0zm-9702 107181l0 -116883 250996 0 0 121741 -250996 0 0 -4858zm261750 -107181l0 102336 231606 0 0 -102336 -231606 0zm-9688 107181l0 -116883 250982 0 0 121741 -250982 0 0 -4858zm261750 -107181l0 102336 231592 0 0 -102336 -231592 0zm-9702 107181l0 -116883 250996 0 0 121741 -250996 0 0 -4858zm261750 -107181l0 102336 231605 0 0 -102336 -231605 0zm-9689 107181l0 -116883 250983 0 0 121741 -250983 0 0 -4858zm261751 -107181l0 102336 231591 0 0 -102336 -231591 0zm-9703 107181l0 -116883 250997 0 0 121741 -250997 0 0 -4858zm261751 -107181l0 102336 231605 0 0 -102336 -231605 0zm-9689 107181l0 -116883 250983 0 0 121741 -250983 0 0 -4858zm261750 -107181l0 102336 231592 0 0 -102336 -231592 0zm-9688 107181l0 -116883 250982 0 0 121741 -250982 0 0 -4858zm261750 -107181l0 102336 231592 0 0 -102336 -231592 0zm-9702 107181l0 -116883 250982 0 0 121741 -250982 0 0 -4858zm261750 -107181l0 102336 231606 0 0 -102336 -231606 0zm-9688 107181l0 -116883 250982 0 0 121741 -250982 0 0 -4858zm261750 -107181l0 102336 231592 0 0 -102336 -231592 0zm-9702 107181l0 -116883 250996 0 0 121741 -250996 0 0 -4858zm261750 -107181l0 102336 231606 0 0 -102336 -231606 0zm-9688 107181l0 -116883 250982 0 0 121741 -250982 0 0 -4858zm261750 -107181l0 102336 231592 0 0 -102336 -231592 0zm-9702 107181l0 -116883 250996 0 0 121741 -250996 0 0 -4858zm261750 -107181l0 102336 231606 0 0 -102336 -231606 0zm-9688 107181l0 -116883 250982 0 0 121741 -250982 0 0 -4858zm261750 -107181l0 102336 231592 0 0 -102336 -231592 0zm-9702 107181l0 -116883 250996 0 0 121741 -250996 0 0 -4858zm261750 -107181l0 102336 231605 0 0 -102336 -231605 0zm-9689 107181l0 -116883 250983 0 0 121741 -250983 0 0 -4858zm261751 -107181l0 102336 231591 0 0 -102336 -231591 0zm-9689 107181l0 -116883 250983 0 0 121741 -250983 0 0 -4858zm261750 -107181l0 102336 231592 0 0 -102336 -231592 0zm-9702 107181l0 -116883 250983 0 0 121741 -250983 0 0 -4858zm261750 -107181l0 102336 231592 0 0 -102336 -231592 0zm-9688 107181l0 -116883 250982 0 0 121741 -250982 0 0 -4858zm261750 -107181l0 102336 231592 0 0 -102336 -231592 0zm-9702 107181l0 -116883 250982 0 0 121741 -250982 0 0 -4858zm261750 -107181l0 102336 231606 0 0 -102336 -231606 0zm-9688 107181l0 -116883 250982 0 0 121741 -250982 0 0 -4858zm261750 -107181l0 102336 231592 0 0 -102336 -231592 0zm-9702 107181l0 -116883 250996 0 0 121741 -250996 0 0 -4858zm261750 -107181l0 102336 231606 0 0 -102336 -231606 0zm-9688 107181l0 -116883 250982 0 0 121741 -250982 0 0 -4858zm261750 -107181l0 102336 231592 0 0 -102336 -231592 0zm-9702 107181l0 -116883 250996 0 0 121741 -250996 0 0 -4858zm261750 -107181l0 102336 231606 0 0 -102336 -231606 0zm-9688 107181l0 -116883 250982 0 0 121741 -250982 0 0 -4858zm261750 -107181l0 102336 231592 0 0 -102336 -231592 0zm-9702 107181l0 -116883 250996 0 0 121741 -250996 0 0 -4858zm261750 -107181l0 102336 231605 0 0 -102336 -231605 0zm-9689 107181l0 -116883 250983 0 0 121741 -250983 0 0 -4858zm261751 -107181l0 102336 231591 0 0 -102336 -231591 0zm-9689 107181l0 -116883 250983 0 0 121741 -250983 0 0 -4858zm261750 -107181l0 102336 231592 0 0 -102336 -231592 0zm-9702 107181l0 -116883 250983 0 0 121741 -250983 0 0 -4858zm-5283472 -352779l0 102350 231592 0 0 -102350 -231592 0zm-9688 107194l0 -116882 250982 0 0 121726 -250982 0 0 -4844zm261750 -107194l0 102350 231592 0 0 -102350 -231592 0zm-9702 107194l0 -116882 250982 0 0 121726 -250982 0 0 -4844zm261750 -107194l0 102350 231606 0 0 -102350 -231606 0zm-9688 107194l0 -116882 250982 0 0 121726 -250982 0 0 -4844zm261750 -107194l0 102350 231592 0 0 -102350 -231592 0zm-9702 107194l0 -116882 250996 0 0 121726 -250996 0 0 -4844zm261750 -107194l0 102350 231606 0 0 -102350 -231606 0zm-9688 107194l0 -116882 250982 0 0 121726 -250982 0 0 -4844zm261750 -107194l0 102350 231592 0 0 -102350 -231592 0zm-9702 107194l0 -116882 250996 0 0 121726 -250996 0 0 -4844zm261750 -107194l0 102350 231606 0 0 -102350 -231606 0zm-9688 107194l0 -116882 250982 0 0 121726 -250982 0 0 -4844zm261750 -107194l0 102350 231592 0 0 -102350 -231592 0zm-9702 107194l0 -116882 250996 0 0 121726 -250996 0 0 -4844zm261750 -107194l0 102350 231605 0 0 -102350 -231605 0zm-9689 107194l0 -116882 250983 0 0 121726 -250983 0 0 -4844zm261751 -107194l0 102350 231591 0 0 -102350 -231591 0zm-9689 107194l0 -116882 250983 0 0 121726 -250983 0 0 -4844zm261750 -107194l0 102350 231592 0 0 -102350 -231592 0zm-9702 107194l0 -116882 250983 0 0 121726 -250983 0 0 -4844zm261750 -107194l0 102350 231592 0 0 -102350 -231592 0zm-9688 107194l0 -116882 250982 0 0 121726 -250982 0 0 -4844zm261750 -107194l0 102350 231592 0 0 -102350 -231592 0zm-9702 107194l0 -116882 250982 0 0 121726 -250982 0 0 -4844zm261750 -107194l0 102350 231606 0 0 -102350 -231606 0zm-9688 107194l0 -116882 250982 0 0 121726 -250982 0 0 -4844zm261750 -107194l0 102350 231592 0 0 -102350 -231592 0zm-9702 107194l0 -116882 250996 0 0 121726 -250996 0 0 -4844zm261750 -107194l0 102350 231606 0 0 -102350 -231606 0zm-4913185 122806l0 102336 231592 0 0 -102336 -231592 0zm252062 0l0 102336 231592 0 0 -102336 -231592 0zm-9702 107180l0 -116882 250982 0 0 121726 -250982 0 0 -4844zm261750 -107180l0 102336 231605 0 0 -102336 -231605 0zm-9689 107180l0 -116882 250983 0 0 121726 -250983 0 0 -4844zm261751 -107180l0 102336 231591 0 0 -102336 -231591 0zm-9703 107180l0 -116882 250997 0 0 121726 -250997 0 0 -4844zm261751 -107180l0 102336 231605 0 0 -102336 -231605 0zm-9689 107180l0 -116882 250983 0 0 121726 -250983 0 0 -4844zm261750 -107180l0 102336 231592 0 0 -102336 -231592 0zm-9702 107180l0 -116882 250996 0 0 121726 -250996 0 0 -4844zm261750 -107180l0 102336 231606 0 0 -102336 -231606 0zm-9688 107180l0 -116882 250982 0 0 121726 -250982 0 0 -4844zm261750 -107180l0 102336 231592 0 0 -102336 -231592 0zm-9702 107180l0 -116882 250996 0 0 121726 -250996 0 0 -4844zm261750 -107180l0 102336 231606 0 0 -102336 -231606 0zm-9688 107180l0 -116882 250982 0 0 121726 -250982 0 0 -4844zm261750 -107180l0 102336 231592 0 0 -102336 -231592 0zm-9702 107180l0 -116882 250996 0 0 121726 -250996 0 0 -4844zm261750 -107180l0 102336 231606 0 0 -102336 -231606 0zm-9688 107180l0 -116882 250982 0 0 121726 -250982 0 0 -4844zm261750 -107180l0 102336 231592 0 0 -102336 -231592 0zm-9688 107180l0 -116882 250982 0 0 121726 -250982 0 0 -4844zm261750 -107180l0 102336 231592 0 0 -102336 -231592 0zm-9702 107180l0 -116882 250982 0 0 121726 -250982 0 0 -4844zm261750 -107180l0 102336 231605 0 0 -102336 -231605 0zm-9689 107180l0 -116882 250983 0 0 121726 -250983 0 0 -4844zm261751 -107180l0 102336 231591 0 0 -102336 -231591 0zm-9703 107180l0 -116882 250997 0 0 121726 -250997 0 0 -4844zm261751 -107180l0 102336 231605 0 0 -102336 -231605 0zm-9689 107180l0 -116882 250983 0 0 121726 -250983 0 0 -4844zm261750 -107180l0 102336 231592 0 0 -102336 -231592 0zm-9702 107180l0 -116882 250996 0 0 121726 -250996 0 0 -4844zm261750 -107180l0 102336 231606 0 0 -102336 -231606 0zm-9688 107180l0 -116882 250982 0 0 121726 -250982 0 0 -4844zm261750 -107180l0 102336 231592 0 0 -102336 -231592 0zm-9702 107180l0 -116882 250996 0 0 121726 -250996 0 0 -4844zm261750 -107180l0 102336 231606 0 0 -102336 -231606 0zm-9688 107180l0 -116882 250982 0 0 121726 -250982 0 0 -4844zm261750 -107180l0 102336 231592 0 0 -102336 -231592 0zm-9688 107180l0 -116882 250982 0 0 121726 -250982 0 0 -4844zm261750 -107180l0 102336 231592 0 0 -102336 -231592 0zm-9702 107180l0 -116882 250982 0 0 121726 -250982 0 0 -4844zm261750 -107180l0 102336 231606 0 0 -102336 -231606 0zm-9688 107180l0 -116882 250982 0 0 121726 -250982 0 0 -4844zm261750 -107180l0 102336 231592 0 0 -102336 -231592 0zm-9702 107180l0 -116882 250996 0 0 121726 -250996 0 0 -4844zm-7047864 138405l0 102336 231606 0 0 -102336 -231606 0zm-9688 107194l0 -116883 250982 0 0 121727 -250982 0 0 -4844zm261750 -107194l0 102336 231592 0 0 -102336 -231592 0zm-9702 107194l0 -116883 250996 0 0 121727 -250996 0 0 -4844zm261750 -107194l0 102336 231606 0 0 -102336 -231606 0zm-9688 107194l0 -116883 250982 0 0 121727 -250982 0 0 -4844zm261750 -107194l0 102336 231592 0 0 -102336 -231592 0zm-9702 107194l0 -116883 250996 0 0 121727 -250996 0 0 -4844zm261750 -107194l0 102336 231606 0 0 -102336 -231606 0zm-9688 107194l0 -116883 250982 0 0 121727 -250982 0 0 -4844zm261750 -107194l0 102336 231592 0 0 -102336 -231592 0zm-9688 107194l0 -116883 250982 0 0 121727 -250982 0 0 -4844zm261750 -107194l0 102336 231592 0 0 -102336 -231592 0zm-9702 107194l0 -116883 250982 0 0 121727 -250982 0 0 -4844zm261750 -107194l0 102336 231605 0 0 -102336 -231605 0zm-9689 107194l0 -116883 250983 0 0 121727 -250983 0 0 -4844zm261751 -107194l0 102336 231591 0 0 -102336 -231591 0zm-9703 107194l0 -116883 250997 0 0 121727 -250997 0 0 -4844zm261751 -107194l0 102336 231605 0 0 -102336 -231605 0zm-9689 107194l0 -116883 250983 0 0 121727 -250983 0 0 -4844zm261750 -107194l0 102336 231592 0 0 -102336 -231592 0zm-9702 107194l0 -116883 250996 0 0 121727 -250996 0 0 -4844zm261750 -107194l0 102336 231606 0 0 -102336 -231606 0zm-9688 107194l0 -116883 250982 0 0 121727 -250982 0 0 -4844zm261750 -107194l0 102336 231592 0 0 -102336 -231592 0zm-9702 107194l0 -116883 250996 0 0 121727 -250996 0 0 -4844zm261750 -107194l0 102336 231606 0 0 -102336 -231606 0zm-9688 107194l0 -116883 250982 0 0 121727 -250982 0 0 -4844zm261750 -107194l0 102336 231592 0 0 -102336 -231592 0zm-9702 107194l0 -116883 250996 0 0 121727 -250996 0 0 -4844zm261750 -107194l0 102336 231606 0 0 -102336 -231606 0zm-9688 107194l0 -116883 250982 0 0 121727 -250982 0 0 -4844zm261750 -107194l0 102336 231592 0 0 -102336 -231592 0zm-9688 107194l0 -116883 250982 0 0 121727 -250982 0 0 -4844zm261750 -107194l0 102336 231592 0 0 -102336 -231592 0zm-9702 107194l0 -116883 250982 0 0 121727 -250982 0 0 -4844zm261750 -107194l0 102336 231605 0 0 -102336 -231605 0zm-9689 107194l0 -116883 250983 0 0 121727 -250983 0 0 -4844zm261751 -107194l0 102336 231591 0 0 -102336 -231591 0zm-9703 107194l0 -116883 250997 0 0 121727 -250997 0 0 -4844zm261751 -107194l0 102336 231605 0 0 -102336 -231605 0zm-9689 107194l0 -116883 250983 0 0 121727 -250983 0 0 -4844zm261750 -107194l0 102336 231592 0 0 -102336 -231592 0zm-9702 107194l0 -116883 250996 0 0 121727 -250996 0 0 -4844zm261750 -107194l0 102336 231606 0 0 -102336 -231606 0zm-9688 107194l0 -116883 250982 0 0 121727 -250982 0 0 -4844zm261750 -107194l0 102336 231592 0 0 -102336 -231592 0zm-9702 107194l0 -116883 250996 0 0 121727 -250996 0 0 -4844zm261750 -107194l0 102336 231606 0 0 -102336 -231606 0zm-9688 107194l0 -116883 250982 0 0 121727 -250982 0 0 -4844zm261750 -107194l0 102336 231592 0 0 -102336 -231592 0zm-9688 107194l0 -116883 250982 0 0 121727 -250982 0 0 -4844zm261750 -107194l0 102336 231592 0 0 -102336 -231592 0zm-9702 107194l0 -116883 250982 0 0 121727 -250982 0 0 -4844zm261750 -107194l0 102336 231606 0 0 -102336 -231606 0zm-9688 107194l0 -116883 250982 0 0 121727 -250982 0 0 -4844zm261750 -107194l0 102336 231592 0 0 -102336 -231592 0zm-9702 107194l0 -116883 250996 0 0 121727 -250996 0 0 -4844zm261750 -107194l0 102336 231606 0 0 -102336 -231606 0zm-9688 107194l0 -116883 250982 0 0 121727 -250982 0 0 -4844zm261750 -107194l0 102336 231592 0 0 -102336 -231592 0zm-9702 107194l0 -116883 250996 0 0 121727 -250996 0 0 -4844zm261750 -107194l0 102336 231605 0 0 -102336 -231605 0zm-9689 107194l0 -116883 250983 0 0 121727 -250983 0 0 -4844zm261751 -107194l0 102336 231591 0 0 -102336 -231591 0zm-9703 107194l0 -116883 250996 0 0 121727 -250996 0 0 -4844zm261751 -107194l0 102336 231605 0 0 -102336 -231605 0zm-9689 107194l0 -116883 250982 0 0 121727 -250982 0 0 -4844zm-6795801 138404l0 102336 231592 0 0 -102336 -231592 0zm-9702 107180l0 -116882 250982 0 0 121740 -250982 0 0 -4858zm261750 -107180l0 102336 231605 0 0 -102336 -231605 0zm-9689 107180l0 -116882 250983 0 0 121740 -250983 0 0 -4858zm5050801 -107180l0 102336 231606 0 0 -102336 -231606 0zm-9688 107180l0 -116882 250982 0 0 121740 -250982 0 0 -4858zm261750 -107180l0 102336 231592 0 0 -102336 -231592 0zm-9702 107180l0 -116882 250996 0 0 121740 -250996 0 0 -4858zm-8812255 138404l0 102350 231606 0 0 -102350 -231606 0zm-9688 107195l0 -116883 250982 0 0 121727 -250982 0 0 -4844zm3286423 -107195l0 102350 231592 0 0 -102350 -231592 0zm-9702 107195l0 -116883 250982 0 0 121727 -250982 0 0 -4844zm261750 -107195l0 102350 231605 0 0 -102350 -231605 0zm-9689 107195l0 -116883 250983 0 0 121727 -250983 0 0 -4844zm5050801 -107195l0 102350 231606 0 0 -102350 -231606 0zm-9688 107195l0 -116883 250982 0 0 121727 -250982 0 0 -4844zm261750 -107195l0 102350 231592 0 0 -102350 -231592 0zm-9702 107195l0 -116883 250996 0 0 121727 -250996 0 0 -4844zm-8812255 138404l0 102336 231606 0 0 -102336 -231606 0zm-9688 107194l0 -116882 250982 0 0 121726 -250982 0 0 -4844zm3286423 -107194l0 102336 231592 0 0 -102336 -231592 0zm-9702 107194l0 -116882 250982 0 0 121726 -250982 0 0 -4844zm261750 -107194l0 102336 231605 0 0 -102336 -231605 0zm-9689 107194l0 -116882 250983 0 0 121726 -250983 0 0 -4844zm5050801 -107194l0 102336 231606 0 0 -102336 -231606 0zm-9688 107194l0 -116882 250982 0 0 121726 -250982 0 0 -4844zm261750 -107194l0 102336 231592 0 0 -102336 -231592 0zm-9702 107194l0 -116882 250996 0 0 121726 -250996 0 0 -4844zm-8812255 138404l0 102336 231606 0 0 -102336 -231606 0zm-9688 107180l0 -116882 250982 0 0 121727 -250982 0 0 -4845zm3286423 -107180l0 102336 231592 0 0 -102336 -231592 0zm-9702 107180l0 -116882 250982 0 0 121727 -250982 0 0 -4845zm261750 -107180l0 102336 231605 0 0 -102336 -231605 0zm-9689 107180l0 -116882 250983 0 0 121727 -250983 0 0 -4845zm5050801 -107180l0 102336 231606 0 0 -102336 -231606 0zm-9688 107180l0 -116882 250982 0 0 121727 -250982 0 0 -4845zm261750 -107180l0 102336 231592 0 0 -102336 -231592 0zm-9702 107180l0 -116882 250996 0 0 121727 -250996 0 0 -4845zm-8812255 138405l0 102350 231606 0 0 -102350 -231606 0zm-9688 107194l0 -116883 250982 0 0 121727 -250982 0 0 -4844zm3286423 -107194l0 102350 231592 0 0 -102350 -231592 0zm-9702 107194l0 -116883 250982 0 0 121727 -250982 0 0 -4844zm261750 -107194l0 102350 231605 0 0 -102350 -231605 0zm-9689 107194l0 -116883 250983 0 0 121727 -250983 0 0 -4844zm5050801 -107194l0 102350 231606 0 0 -102350 -231606 0zm-9688 107194l0 -116883 250982 0 0 121727 -250982 0 0 -4844zm261750 -107194l0 102350 231592 0 0 -102350 -231592 0zm-9702 107194l0 -116883 250996 0 0 121727 -250996 0 0 -4844zm-8812255 138404l0 102336 231606 0 0 -102336 -231606 0zm-9688 107180l0 -116868 250982 0 0 121726 -250982 0 0 -4858zm3286423 -107180l0 102336 231592 0 0 -102336 -231592 0zm-9702 107180l0 -116868 250982 0 0 121726 -250982 0 0 -4858zm261750 -107180l0 102336 231605 0 0 -102336 -231605 0zm-9689 107180l0 -116868 250983 0 0 121726 -250983 0 0 -4858zm5050801 -107180l0 102336 231606 0 0 -102336 -231606 0zm-9688 107180l0 -116868 250982 0 0 121726 -250982 0 0 -4858zm261750 -107180l0 102336 231592 0 0 -102336 -231592 0zm-9702 107180l0 -116868 250996 0 0 121726 -250996 0 0 -4858zm-8812255 138418l0 102337 231606 0 0 -102337 -231606 0zm-9688 107181l0 -116883 250982 0 0 121727 -250982 0 0 -4844zm3286423 -107181l0 102337 231592 0 0 -102337 -231592 0zm-9702 107181l0 -116883 250982 0 0 121727 -250982 0 0 -4844zm261750 -107181l0 102337 231605 0 0 -102337 -231605 0zm-9689 107181l0 -116883 250983 0 0 121727 -250983 0 0 -4844zm5050801 -107181l0 102337 231606 0 0 -102337 -231606 0zm-9688 107181l0 -116883 250982 0 0 121727 -250982 0 0 -4844zm261750 -107181l0 102337 231592 0 0 -102337 -231592 0zm-9702 107181l0 -116883 250996 0 0 121727 -250996 0 0 -4844zm-8812255 138404l0 102336 231606 0 0 -102336 -231606 0zm-9688 107194l0 -116882 250982 0 0 121726 -250982 0 0 -4844zm3286423 -107194l0 102336 231592 0 0 -102336 -231592 0zm-9702 107194l0 -116882 250982 0 0 121726 -250982 0 0 -4844zm261750 -107194l0 102336 231605 0 0 -102336 -231605 0zm-9689 107194l0 -116882 250983 0 0 121726 -250983 0 0 -4844zm5050801 -107194l0 102336 231606 0 0 -102336 -231606 0zm-9688 107194l0 -116882 250982 0 0 121726 -250982 0 0 -4844zm261750 -107194l0 102336 231592 0 0 -102336 -231592 0zm-9702 107194l0 -116882 250996 0 0 121726 -250996 0 0 -4844zm-8812255 138404l0 102336 231606 0 0 -102336 -231606 0zm-9688 107181l0 -116883 250982 0 0 121741 -250982 0 0 -4858zm3286423 -107181l0 102336 231592 0 0 -102336 -231592 0zm-9702 107181l0 -116883 250982 0 0 121741 -250982 0 0 -4858zm261750 -107181l0 102336 231605 0 0 -102336 -231605 0zm-9689 107181l0 -116883 250983 0 0 121741 -250983 0 0 -4858zm5050801 -107181l0 102336 231606 0 0 -102336 -231606 0zm-9688 107181l0 -116883 250982 0 0 121741 -250982 0 0 -4858zm261750 -107181l0 102336 231592 0 0 -102336 -231592 0zm-9702 107181l0 -116883 250996 0 0 121741 -250996 0 0 -4858zm-8812255 138418l0 102336 231606 0 0 -102336 -231606 0zm-9688 107180l0 -116882 250982 0 0 121726 -250982 0 0 -4844zm3286423 -107180l0 102336 231592 0 0 -102336 -231592 0zm-9702 107180l0 -116882 250982 0 0 121726 -250982 0 0 -4844zm261750 -107180l0 102336 231605 0 0 -102336 -231605 0zm-9689 107180l0 -116882 250983 0 0 121726 -250983 0 0 -4844zm5050801 -107180l0 102336 231606 0 0 -102336 -231606 0zm-9688 107180l0 -116882 250982 0 0 121726 -250982 0 0 -4844zm261750 -107180l0 102336 231592 0 0 -102336 -231592 0zm-9702 107180l0 -116882 250996 0 0 121726 -250996 0 0 -4844zm-8812255 138404l0 102336 231606 0 0 -102336 -231606 0zm-9688 107194l0 -116882 250982 0 0 121726 -250982 0 0 -4844zm3286423 -107194l0 102336 231592 0 0 -102336 -231592 0zm-9702 107194l0 -116882 250982 0 0 121726 -250982 0 0 -4844zm261750 -107194l0 102336 231605 0 0 -102336 -231605 0zm-9689 107194l0 -116882 250983 0 0 121726 -250983 0 0 -4844zm5050801 -107194l0 102336 231606 0 0 -102336 -231606 0zm-9688 107194l0 -116882 250982 0 0 121726 -250982 0 0 -4844zm261750 -107194l0 102336 231592 0 0 -102336 -231592 0zm-9702 107194l0 -116882 250996 0 0 121726 -250996 0 0 -4844zm-8812255 138405l0 102336 231606 0 0 -102336 -231606 0zm-9688 107180l0 -116883 250982 0 0 121727 -250982 0 0 -4844zm3286423 -107180l0 102336 231592 0 0 -102336 -231592 0zm-9702 107180l0 -116883 250982 0 0 121727 -250982 0 0 -4844zm261750 -107180l0 102336 231605 0 0 -102336 -231605 0zm-9689 107180l0 -116883 250983 0 0 121727 -250983 0 0 -4844zm5050801 -107180l0 102336 231606 0 0 -102336 -231606 0zm-9688 107180l0 -116883 250982 0 0 121727 -250982 0 0 -4844zm261750 -107180l0 102336 231592 0 0 -102336 -231592 0zm-9702 107180l0 -116883 250996 0 0 121727 -250996 0 0 -4844zm-8812255 138404l0 102350 231606 0 0 -102350 -231606 0zm-9688 107194l0 -116882 250982 0 0 121726 -250982 0 0 -4844zm3286423 -107194l0 102350 231592 0 0 -102350 -231592 0zm-9702 107194l0 -116882 250982 0 0 121726 -250982 0 0 -4844zm261750 -107194l0 102350 231605 0 0 -102350 -231605 0zm-9689 107194l0 -116882 250983 0 0 121726 -250983 0 0 -4844zm5050801 -107194l0 102350 231606 0 0 -102350 -231606 0zm-9688 107194l0 -116882 250982 0 0 121726 -250982 0 0 -4844zm261750 -107194l0 102350 231592 0 0 -102350 -231592 0zm-9702 107194l0 -116882 250996 0 0 121726 -250996 0 0 -4844zm-8812255 138404l0 102337 231606 0 0 -102337 -231606 0zm-9688 107181l0 -116869 250982 0 0 121727 -250982 0 0 -4858zm3286423 -107181l0 102337 231592 0 0 -102337 -231592 0zm-9702 107181l0 -116869 250982 0 0 121727 -250982 0 0 -4858zm261750 -107181l0 102337 231605 0 0 -102337 -231605 0zm-9689 107181l0 -116869 250983 0 0 121727 -250983 0 0 -4858zm5050801 -107181l0 102337 231606 0 0 -102337 -231606 0zm-9688 107181l0 -116869 250982 0 0 121727 -250982 0 0 -4858zm261750 -107181l0 102337 231592 0 0 -102337 -231592 0zm-9702 107181l0 -116869 250996 0 0 121727 -250996 0 0 -4858zm-8812255 138418l0 102336 231606 0 0 -102336 -231606 0zm3276735 0l0 102336 231592 0 0 -102336 -231592 0zm-9702 107180l0 -116882 250982 0 0 121726 -250982 0 0 -4844zm261750 -107180l0 102336 231605 0 0 -102336 -231605 0zm-9689 107180l0 -116882 250983 0 0 121726 -250983 0 0 -4844zm5050801 -107180l0 102336 231606 0 0 -102336 -231606 0zm-9688 107180l0 -116882 250982 0 0 121726 -250982 0 0 -4844zm261750 -107180l0 102336 231592 0 0 -102336 -231592 0zm-9702 107180l0 -116882 250996 0 0 121726 -250996 0 0 -4844zm-8812255 138404l0 102336 231606 0 0 -102336 -231606 0zm3276735 0l0 102336 231592 0 0 -102336 -231592 0zm-9702 107194l0 -116882 250982 0 0 121727 -250982 0 0 -4845zm261750 -107194l0 102336 231605 0 0 -102336 -231605 0zm-9689 107194l0 -116882 250983 0 0 121727 -250983 0 0 -4845zm5050801 -107194l0 102336 231606 0 0 -102336 -231606 0zm-9688 107194l0 -116882 250982 0 0 121727 -250982 0 0 -4845zm261750 -107194l0 102336 231592 0 0 -102336 -231592 0zm-9702 107194l0 -116882 250996 0 0 121727 -250996 0 0 -4845zm-8812255 138405l0 102336 231606 0 0 -102336 -231606 0zm3276735 0l0 102336 231592 0 0 -102336 -231592 0zm-9702 107180l0 -116882 250982 0 0 121740 -250982 0 0 -4858zm261750 -107180l0 102336 231605 0 0 -102336 -231605 0zm-9689 107180l0 -116882 250983 0 0 121740 -250983 0 0 -4858zm5050801 -107180l0 102336 231606 0 0 -102336 -231606 0zm-9688 107180l0 -116882 250982 0 0 121740 -250982 0 0 -4858zm261750 -107180l0 102336 231592 0 0 -102336 -231592 0zm-9702 107180l0 -116882 250996 0 0 121740 -250996 0 0 -4858zm-8812255 138418l0 102336 231606 0 0 -102336 -231606 0zm3276735 0l0 102336 231592 0 0 -102336 -231592 0zm-9702 107180l0 -116882 250982 0 0 121726 -250982 0 0 -4844zm261750 -107180l0 102336 231605 0 0 -102336 -231605 0zm-9689 107180l0 -116882 250983 0 0 121726 -250983 0 0 -4844zm5050801 -107180l0 102336 231606 0 0 -102336 -231606 0zm-9688 107180l0 -116882 250982 0 0 121726 -250982 0 0 -4844zm261750 -107180l0 102336 231592 0 0 -102336 -231592 0zm-9702 107180l0 -116882 250996 0 0 121726 -250996 0 0 -4844zm-8812255 138405l0 102336 231606 0 0 -102336 -231606 0zm3276735 0l0 102336 231592 0 0 -102336 -231592 0zm-9702 107194l0 -116883 250982 0 0 121727 -250982 0 0 -4844zm261750 -107194l0 102336 231605 0 0 -102336 -231605 0zm-9689 107194l0 -116883 250983 0 0 121727 -250983 0 0 -4844zm5050801 -107194l0 102336 231606 0 0 -102336 -231606 0zm-9688 107194l0 -116883 250982 0 0 121727 -250982 0 0 -4844zm261750 -107194l0 102336 231592 0 0 -102336 -231592 0zm-9702 107194l0 -116883 250996 0 0 121727 -250996 0 0 -4844z"/>
   <path class="fil0" d="M10020427 6218932l12235 8886 12207 8872 -4650 14366 -4678 14366 -15114 0 -15100 0 -4678 -14366 -4650 -14366 12207 -8872 12221 -8886zm107291 0l12235 8886 12207 8872 -4650 14366 -4692 14366 -15100 0 -15100 0 -4678 -14366 -4664 -14366 12221 -8872 12221 -8886z"/>
  </g>
 </g>
</svg>
