<?xml version="1.0" encoding="UTF-8"?>
<!DOCTYPE svg PUBLIC "-//W3C//DTD SVG 1.1//EN" "http://www.w3.org/Graphics/SVG/1.1/DTD/svg11.dtd">
<!-- Creator: CorelDRAW X8 -->
<svg xmlns="http://www.w3.org/2000/svg" xml:space="preserve" width="1.66666in" height="1.15812in" version="1.1" style="shape-rendering:geometricPrecision; text-rendering:geometricPrecision; image-rendering:optimizeQuality; fill-rule:evenodd; clip-rule:evenodd"
viewBox="0 0 1146566 796718"
 xmlns:xlink="http://www.w3.org/1999/xlink">
 <defs>
  <style type="text/css">
   <![CDATA[
    .fil0 {fill:#FEFEFE;fill-rule:nonzero}
   ]]>
  </style>
 </defs>
 <g id="Layer_x0020_1">
  <metadata id="CorelCorpID_0Corel-Layer"/>
  <g id="_2381494617616">
   <path class="fil0" d="M16814 760563c1839,0 3616,-235 5330,-701 1717,-463 3072,-1040 4066,-1726 495,-343 994,-782 1492,-1321 495,-539 942,-1252 1343,-2132 396,-880 718,-2007 967,-3383 249,-1367 374,-3085 374,-5140 0,-2300 -263,-4239 -783,-5804 -523,-1569 -1305,-2831 -2348,-3787 -1045,-953 -2340,-1641 -3876,-2055 -1544,-420 -3310,-626 -5298,-626 -544,0 -1153,11 -1825,32 -669,30 -1281,90 -1828,185l0 26458 2386 0zm2088 6685l-4474 0 0 27926 -13271 0 0 -67608c2684,-192 5717,-363 9097,-511 3378,-149 6611,-223 9691,-223 7906,0 13908,1493 18008,4486 4101,2984 6154,7664 6154,14035 0,2838 -350,5316 -1046,7423 -696,2102 -1617,3944 -2760,5507 -1142,1568 -2459,2892 -3951,3970 -1492,1078 -3058,1983 -4697,2714 1940,3480 3790,6766 5555,9851 1764,3090 3530,5780 5295,8084 1764,2303 3554,4131 5366,5474 1814,1352 3770,2021 5853,2021l449 0 0 4336c-1045,347 -2250,625 -3615,848 -1368,219 -2896,330 -4586,330 -2437,0 -4563,-222 -6375,-664 -1818,-441 -3581,-1394 -5295,-2865 -1715,-1471 -3494,-3621 -5331,-6471 -1839,-2838 -3976,-6684 -6413,-11535l-3654 -7128z"/>
   <polygon class="fil0" points="127665,795174 88368,795174 88368,727420 126324,727420 125652,734327 101642,734619 101642,756666 124233,756964 123637,763209 101642,763721 101642,787970 128263,788487 "/>
   <path class="fil0" d="M197875 765929l-9918 -29251 -10213 29251 20131 0zm9770 29245l-7681 -22856 -24606 368 -7901 22488 -8429 0 25874 -67166 12898 -2281 24086 69447 -14241 0z"/>
   <polygon class="fil0" points="257128,795174 257128,727420 270399,727420 270399,788119 295230,788119 294558,795174 "/>
   <polygon class="fil0" points="419103,795174 379806,795174 379806,727420 417757,727420 417088,734327 393078,734619 393078,756666 415671,756964 415076,763209 393078,763721 393078,787970 419699,788487 "/>
   <path class="fil0" d="M497369 775332c0,2451 -599,4913 -1791,7389 -1194,2473 -2909,4696 -5146,6684 -2240,1983 -4935,3600 -8090,4851 -3152,1246 -6695,1874 -10625,1874 -2086,0 -4025,-127 -5812,-368 -1796,-246 -3470,-574 -5038,-991 -1563,-415 -3066,-929 -4507,-1544 -1443,-612 -2884,-1287 -4328,-2023l3283 -10068c942,640 2196,1325 3764,2062 1569,731 3267,1419 5109,2055 1836,634 3691,1162 5555,1582 1863,414 3567,620 5105,620 1739,0 3171,-105 4287,-327 1119,-225 2126,-529 3023,-924 991,-385 1790,-1368 2386,-2933 596,-1566 894,-3600 894,-6102 0,-2300 -772,-4142 -2313,-5512 -1539,-1370 -3467,-2557 -5774,-3562 -2313,-1004 -4816,-2007 -7497,-3011 -2682,-1005 -5184,-2305 -7492,-3901 -2313,-1587 -4241,-3632 -5780,-6134 -1544,-2497 -2313,-5780 -2313,-9845 0,-1961 523,-4033 1568,-6211 1040,-2177 2560,-4190 4545,-6023 1991,-1839 4447,-3345 7386,-4521 2933,-1178 6262,-1760 9989,-1760 2982,0 5853,143 8613,436 2757,295 5427,685 8014,1175l-2086 10073c-1191,-444 -2551,-856 -4062,-1251 -1520,-393 -3058,-737 -4626,-1029 -1566,-293 -3093,-529 -4588,-699 -1487,-168 -2809,-260 -3947,-260 -1294,0 -2486,65 -3580,184 -1094,125 -2091,458 -2982,997 -848,490 -1457,1332 -1828,2535 -374,1202 -558,2627 -558,4298 0,1717 447,3128 1340,4260 897,1124 2072,2116 3543,2977 1463,856 3131,1641 4994,2354 1864,709 3781,1468 5742,2272 1964,812 3876,1741 5745,2795 1863,1054 3529,2348 4994,3892 1463,1547 2644,3418 3543,5628 891,2199 1341,4870 1341,8006z"/>
   <polygon class="fil0" points="548940,795174 548940,734619 528881,734327 529553,727420 582416,727420 581744,734105 562287,734619 562287,795174 "/>
   <path class="fil0" d="M649799 765929l-9918 -29251 -10216 29251 20134 0zm9767 29245l-7681 -22856 -24606 368 -7906 22488 -8426 0 25873 -67166 12901 -2281 24088 69447 -14243 0z"/>
   <polygon class="fil0" points="722393,795174 722393,734619 702335,734327 703006,727420 755875,727420 755203,734105 735740,734619 735740,795174 "/>
   <polygon class="fil0" points="831226,795174 791938,795174 791938,727420 829886,727420 829214,734327 805206,734619 805206,756666 827797,756964 827202,763209 805206,763721 805206,787970 831828,788487 "/>
   <polygon class="fil0" points="930645,795174 917376,795174 917376,727420 930645,727420 "/>
   <path class="fil0" d="M1027027 795540l-46154 -47547 -149 0c103,3971 197,7619 298,10953 48,1420 89,2844 113,4263 25,1420 49,2730 73,3930 25,1203 38,2265 38,3199 0,929 0,1593 0,1980l0 22856 -7754 0 0 -68195 5821 0 46224 47324c-48,-3624 -103,-7026 -146,-10213 0,-1371 -13,-2755 -38,-4152 -30,-1395 -54,-2728 -78,-4003 -25,-1271 -38,-2441 -38,-3494 0,-1049 0,-1896 0,-2535l0 -22413 7754 0 0 68047 -5964 0z"/>
   <path class="fil0" d="M1101940 796130c-5122,0 -9472,-858 -13050,-2570 -3580,-1714 -6489,-4117 -8724,-7202 -2237,-3087 -3867,-6801 -4883,-11131 -1018,-4339 -1527,-9152 -1527,-14442 0,-4263 495,-8074 1492,-11432 991,-3353 2345,-6292 4060,-8813 1714,-2522 3702,-4670 5964,-6435 2264,-1761 4650,-3196 7164,-4299 2505,-1097 5081,-1890 7713,-2386 2633,-490 5192,-731 7681,-731 1542,0 3169,46 4884,143 1714,98 3377,231 4994,404 1617,171 3123,366 4512,588 1392,222 2535,430 3432,625l-2465 9626c-891,-292 -2158,-596 -3800,-918 -1638,-320 -3396,-623 -5259,-915 -1864,-296 -3697,-545 -5518,-737 -1812,-198 -3320,-298 -4512,-298 -1340,0 -2535,43 -3578,111 -1040,76 -1998,225 -2868,444 -872,219 -1693,528 -2465,916 -769,395 -1551,883 -2345,1470 -2040,1425 -3418,4114 -4139,8085 -723,3970 -1078,8919 -1078,14845 0,9111 1366,16009 4098,20681 2736,4686 7134,7021 13199,7021 3431,0 7009,-279 10736,-848 3729,-558 7109,-1357 10140,-2383l0 5655c-1687,785 -3515,1484 -5479,2096 -1966,615 -3976,1129 -6037,1544 -2067,417 -4155,737 -6262,956 -2115,217 -4141,330 -6080,330z"/>
   <polygon class="fil0" points="1137772,778566 1146566,787602 1146566,787607 1137772,796718 1129048,787604 "/>
   <polygon class="fil0" points="577400,606462 542754,606462 542754,564614 507398,564614 507398,684435 542754,684435 542754,637573 577400,637573 577400,684435 612756,684435 612756,564614 577400,564614 "/>
   <path class="fil0" d="M718750 624524c0,23501 -5801,32653 -20697,32653 -14897,0 -20698,-9152 -20698,-32653 0,-23363 5801,-32463 20698,-32463 14896,0 20697,9100 20697,32463zm-20697 -61842c-37195,0 -56054,20812 -56054,61842 0,41030 18859,61839 56054,61839 37195,0 56051,-20809 56051,-61839 0,-41030 -18856,-61842 -56051,-61842z"/>
   <path class="fil0" d="M851618 641687c0,8743 -6275,13757 -17226,13757 -11107,0 -17228,-4886 -17228,-13757l0 -77073 -35350 0 0 81892c0,24210 20635,39857 52578,39857 31944,0 52582,-15647 52582,-39857l0 -81892 -35356 0 0 77073z"/>
   <path class="fil0" d="M965971 606751c-10238,-3347 -14393,-4840 -14393,-8260 0,-1523 0,-5079 11251,-5079 11340,0 22420,2497 37032,8340l2820 1124 0 -31635 -1314 -509c-14566,-5642 -26152,-8050 -38733,-8050 -28801,0 -48920,14802 -48920,35998 0,26602 24977,34116 45050,40153 13818,4146 17049,5606 17049,10376 0,1812 0,6619 -13371,6619 -9006,0 -29365,-5390 -46453,-17369l-3236 -2267 0 35600 1013 590c10178,6005 26323,13981 48868,13981 31123,0 51233,-14585 51233,-37154 0,-26770 -26556,-35467 -47896,-42458z"/>
   <path class="fil0" d="M1130895 653149c-12648,1723 -25115,2874 -44846,2874 -17033,0 -17033,-7161 -17033,-9517 0,-6056 5734,-9125 17033,-9125l39086 0 0 -30340 -38891 0c-13756,0 -13756,-5233 -13756,-7202 0,-4517 4626,-6814 13756,-6814 15260,0 24736,1024 36743,2321l7543 799 0 -30340 -2977 -352c-14065,-1668 -23360,-2771 -41309,-2771 -30632,0 -48920,12738 -48920,34075 0,10349 4526,18989 12833,24690 -10135,5756 -16497,16432 -16497,28144 0,17778 13764,36772 52389,36772 16573,0 28181,-1189 37517,-2148 2722,-276 5295,-536 7784,-753l1880 -160 0 -30472 -2335 319z"/>
   <path class="fil0" d="M478101 585688l0 -22735 -44245 0 0 -42292 -27364 11110 0 31182 -21285 0 0 22735 21285 0 0 51262c30,14959 1311,27678 7554,37260 6249,9583 17478,14748 34284,14748l452 0c7546,-36 17610,-2752 26851,-5994l2468 -875 0 -24552 -5068 1999c-7006,2809 -15251,4997 -19587,4956 -8943,-24 -13182,-1438 -15565,-4623 -2601,-3239 -4088,-10389 -4025,-22919l0 -51262 44245 0zm-140749 69661c-4792,6495 -11750,9937 -22957,10005 -11205,-68 -18163,-3510 -22949,-10005 -4791,-6544 -7299,-16923 -7283,-30836 -16,-13913 2492,-24297 7283,-30835 4786,-6501 11744,-9938 22949,-10008 11207,70 18165,3507 22957,10008 4785,6538 7285,16922 7272,30835 13,13913 -2487,24292 -7272,30836zm-22957 -95283c-18136,-32 -32856,5336 -42796,16410 -9932,11064 -14802,27245 -14802,48037 0,20787 4870,36973 14802,48040 9940,11072 24660,16443 42796,16405l165 0c18065,2 32729,-5368 42639,-16405 9929,-11067 14793,-27253 14785,-48040 8,-20792 -4856,-36973 -14785,-48037 -9940,-11074 -24666,-16442 -42804,-16410zm-111820 -53760l0 179764 27374 0 0 -190868 -5098 2074 -22276 9030zm-69185 28187l27369 0 0 -29389 -27369 0 0 29389zm0 31984l0 119593 27369 0 0 -130698 -5095 2072 -22274 9033zm-59599 22095c-5414,5479 -14243,8797 -28173,8805l-18257 0 0 -68090 18257 0c13921,11 22735,3381 28165,8936 5428,5549 8039,13913 8047,25253 -8,11348 -2611,19614 -8039,25096zm-28173 -83468l-45618 0 0 180966 27361 0 0 -64506 18257 0c20424,8 36442,-5555 47325,-15845 10893,-10275 16275,-25026 16256,-42243 19,-17215 -5363,-32030 -16248,-42390 -10875,-10351 -26898,-15998 -47333,-15982z"/>
   <path class="fil0" d="M382577 180625l-49524 49527 49524 49524c-4317,-15780 -6668,-32374 -6668,-49524 0,-17153 2351,-33745 6668,-49527z"/>
   <path class="fil0" d="M513684 410777l49521 49524 49518 -49524c-15782,4317 -32368,6666 -49518,6666 -17152,0 -33744,-2349 -49521,-6666z"/>
   <path class="fil0" d="M743820 279684l49529 -49529 -49529 -49530c4320,15782 6668,32374 6668,49527 0,17152 -2348,33744 -6668,49532z"/>
   <path class="fil0" d="M612723 49526l-49523 -49526 -49524 49529c15779,-4320 32377,-6671 49529,-6671 17150,0 33742,2351 49518,6668z"/>
   <path class="fil0" d="M563205 392918c89744,0 162766,-73017 162766,-162766 0,-89750 -73022,-162763 -162766,-162763 -43478,0 -84351,16930 -115095,47673 -30743,30738 -47674,71614 -47674,115090 0,43476 16931,84349 47674,115092 30744,30743 71617,47674 115095,47674zm-138084 -162766c0,-36884 14363,-71557 40445,-97639 26080,-26080 60756,-40440 97639,-40440 76140,0 138081,61939 138081,138079 0,76139 -61941,138081 -138081,138081 -36883,0 -71559,-14363 -97639,-40442 -26082,-26082 -40445,-60758 -40445,-97639z"/>
   <path class="fil0" d="M610370 294366l-94330 0 0 -96111 47165 -47162 47165 47164 0 96109zm59564 -68545l-36935 -36935 0 -168 -171 0 -61628 -61622 -7995 -7998 -7998 8001 -61625 61619 -168 0 0 168 -36940 36940 15999 15996 20941 -20941 0 84798 0 11313 11313 0 116956 0 11316 0 0 -11313 0 -84798 20939 20941 15996 -16001z"/>
   <polygon class="fil0" points="581717,264554 544690,264554 544690,206699 562639,190246 581717,206699 "/>
  </g>
 </g>
</svg>
