<?xml version="1.0" encoding="UTF-8"?>
<!DOCTYPE svg PUBLIC "-//W3C//DTD SVG 1.1//EN" "http://www.w3.org/Graphics/SVG/1.1/DTD/svg11.dtd">
<!-- Creator: CorelDRAW X8 -->
<svg xmlns="http://www.w3.org/2000/svg" xml:space="preserve" width="2.66666in" height="2.182in" version="1.1" style="shape-rendering:geometricPrecision; text-rendering:geometricPrecision; image-rendering:optimizeQuality; fill-rule:evenodd; clip-rule:evenodd"
viewBox="0 0 342464 280221"
 xmlns:xlink="http://www.w3.org/1999/xlink">
 <defs>
  <style type="text/css">
   <![CDATA[
    .fil0 {fill:#FEFEFE;fill-rule:nonzero}
   ]]>
  </style>
 </defs>
 <g id="Layer_x0020_1">
  <metadata id="CorelCorpID_0Corel-Layer"/>
  <g id="PARLSUN-LOGO.cdr">
   <path class="fil0" d="M205537 173230l39121 0 0 -101909 -39121 -26366 0 128275zm97802 0l39118 0 0 -35993 -39118 -26366 0 62359zm-144257 977l39121 0 0 -134194 -39121 -26369 0 160563zm95355 -977l39118 0 0 -68950 -39118 -26366 0 95316zm48902 -76051l0 10362 39118 26366 0 -10286 -39118 -26442zm-144257 -86866l39121 26367 0 -10263 -39121 -26417 0 10313zm95355 64270l39118 26366 0 -10760 -39118 -28047 0 12441zm-48900 -32959l39121 26366 0 -9948 -39121 -28295 0 11877z"/>
   <path class="fil0" d="M40781 173592l32372 0 0 -9568 -32372 0 0 9568zm40463 0l32368 0 0 -9568 -32368 0 0 9568zm-80922 0l32366 0 0 -9568 -32366 0 0 9568zm119361 615l32367 0 0 -10183 -32367 0 0 10183zm0 -93066l0 80143 32367 0 0 -96780 -32367 16637zm-38439 80143l32368 0 0 -78046 -32368 17819 0 60227zm-80922 0l32366 0 0 -35584 -32366 16652 0 18932zm40459 0l32372 0 0 -57649 -32372 17663 0 39986z"/>
   <path class="fil0" d="M65 236841l5826 0 0 -18129c1339,336 2947,403 4687,403 5692,0 10715,-1678 13795,-4968 2277,-2350 3482,-5573 3482,-9669 0,-4028 -1473,-7318 -3951,-9466 -2679,-2418 -6897,-3761 -12656,-3761 -4688,0 -8371,403 -11183,873l0 44717zm5826 -40487c1004,-268 2947,-470 5491,-470 6429,0 10647,2887 10647,8863 0,6244 -4285,9669 -11317,9669 -1942,0 -3549,-135 -4821,-470l0 -17592zm61741 26253l4821 14234 6228 0 -15401 -45254 -7032 0 -15335 45254 6028 0 4687 -14234 16004 0zm-14799 -4566l4419 -13093c871,-2752 1607,-5505 2278,-8191l134 0c669,2618 1338,5304 2343,8258l4420 13026 -13594 0zm44798 -26454l0 26655c0,14033 6964,19338 16206,19338 9776,0 17075,-5708 17075,-19606l0 -26387 -5893 0 0 26790c0,10004 -4285,14435 -10981,14435 -6027,0 -10513,-4297 -10513,-14435l0 -26790 -5894 0zm57656 45254l25111 0 0 -4901 -19285 0 0 -40353 -5826 0 0 45254zm43593 -2216c2410,1612 7165,2887 11517,2887 10648,0 15804,-6043 15804,-13026 0,-6647 -3884,-10339 -11518,-13294 -6227,-2417 -8973,-4498 -8973,-8728 0,-3089 2343,-6781 8504,-6781 4085,0 7099,1342 8572,2148l1606 -4767c-2008,-1141 -5356,-2216 -9977,-2216 -8772,0 -14598,5238 -14598,12288 0,6378 4554,10205 11920,12823 6093,2350 8504,4768 8504,8998 0,4565 -3482,7721 -9442,7721 -4018,0 -7835,-1343 -10446,-2955l-1473 4902zm49485 -43038l0 26655c0,14033 6964,19338 16205,19338 9777,0 17076,-5708 17076,-19606l0 -26387 -5893 0 0 26790c0,10004 -4286,14435 -10982,14435 -6027,0 -10513,-4297 -10513,-14435l0 -26790 -5893 0zm63146 45254l0 -19337c0,-7520 -133,-12958 -468,-18666l201 -67c2277,4902 5290,10072 8438,15107l14329 22963 5893 0 0 -45254 -5491 0 0 18934c0,7050 134,12556 670,18598l-134 68c-2142,-4633 -4754,-9400 -8102,-14705l-14465 -22895 -6361 0 0 45254 5490 0z"/>
   <path class="fil0" d="M0 279693c1786,203 3898,325 6414,325 5319,0 9542,-1384 12100,-3948 2557,-2523 3938,-6185 3938,-10662 0,-4436 -1421,-7610 -3857,-9849 -2396,-2238 -6009,-3418 -11084,-3418 -2802,0 -5360,244 -7511,570l0 26982zm3532 -24378c934,-203 2314,-366 4141,-366 7470,0 11124,4111 11085,10582 0,7406 -4102,11638 -11654,11638 -1380,0 -2679,-40 -3572,-203l0 -21651zm46609 8668l-10637 0 0 -8668 11246 0 0 -2970 -14779 0 0 27429 15388 0 0 -2971 -11855 0 0 -9889 10637 0 0 -2931zm25009 15791l9785 -27429 -3776 0 -4628 13552c-1218,3581 -2355,7040 -3126,10214l-82 0c-731,-3215 -1746,-6552 -2923,-10255l-4263 -13511 -3817 0 8933 27429 3897 0zm35850 -15791l-10637 0 0 -8668 11246 0 0 -2970 -14778 0 0 27429 15387 0 0 -2971 -11855 0 0 -9889 10637 0 0 -2931zm14738 15791l15225 0 0 -2971 -11693 0 0 -24458 -3532 0 0 27429zm37596 -27877c-7308,0 -12708,5698 -12708,14406 0,8302 5076,13918 12302,13918 6984,0 12709,-5005 12709,-14446 0,-8140 -4832,-13878 -12303,-13878zm-162 2889c5887,0 8729,5698 8729,11151 0,6227 -3167,11395 -8770,11395 -5562,0 -8729,-5250 -8729,-11110 0,-6023 2924,-11436 8770,-11436zm25985 24988l3532 0 0 -10988c812,203 1787,244 2842,244 3452,0 6497,-1017 8365,-3011 1379,-1425 2110,-3378 2110,-5861 0,-2442 -892,-4436 -2395,-5738 -1624,-1465 -4182,-2279 -7673,-2279 -2843,0 -5076,244 -6781,529l0 27104zm3532 -24540c609,-163 1787,-285 3329,-285 3898,0 6456,1750 6456,5372 0,3785 -2599,5860 -6861,5860 -1178,0 -2152,-81 -2924,-284l0 -10663zm50264 24540l3450 0 -1704 -27429 -4507 0 -4872 13266c-1219,3460 -2193,6471 -2883,9238l-122 0c-690,-2848 -1624,-5860 -2760,-9238l-4670 -13266 -4507 0 -1908 27429 3370 0 731 -11761c243,-4111 447,-8709 528,-12128l81 0c771,3256 1868,6796 3167,10662l4426 13064 2679 0 4831 -13308c1381,-3784 2518,-7203 3452,-10418l121 0c-40,3419 203,8017 407,11843l690 12046zm31991 -15791l-10637 0 0 -8668 11246 0 0 -2970 -14778 0 0 27429 15387 0 0 -2971 -11855 0 0 -9889 10637 0 0 -2931zm18068 15791l0 -11720c0,-4559 -81,-7855 -284,-11314l122 -41c1380,2971 3207,6104 5116,9157l8688 13918 3573 0 0 -27429 -3329 0 0 11476c0,4273 81,7610 406,11273l-81 41c-1300,-2809 -2884,-5698 -4913,-8913l-8770 -13877 -3857 0 0 27429 3329 0zm37516 0l3572 0 0 -24418 8364 0 0 -3011 -20259 0 0 3011 8323 0 0 24418z"/>
  </g>
 </g>
</svg>
